<svg width="742" height="742" viewBox="0 0 742 742" fill="none" xmlns="http://www.w3.org/2000/svg">
<path d="M422.05 131.223C448.576 133.501 474.791 105.995 494.936 92.3419C537.794 63.404 584.013 71.937 620.267 107.998C706.851 194.115 669.625 342.611 628.37 441.349" stroke="black" stroke-width="4.23" stroke-miterlimit="10"/>
<path d="M326.955 92.3426C326.737 92.2558 326.524 92.1564 326.317 92.0458" stroke="black" stroke-width="5.91" stroke-miterlimit="10"/>
<path d="M318.318 88.603C310.839 85.4791 303.248 82.5853 295.39 80.0403C260.909 68.9179 236.55 80.8787 220.775 95.7187C212.765 103.418 206.03 112.343 200.822 122.156C199.865 123.885 199.13 125.369 198.596 126.512" stroke="black" stroke-width="4.23" stroke-miterlimit="10"/>
<path d="M95.7847 324.411C95.7847 324.411 51.94 414.311 141.603 481.099" stroke="black" stroke-width="4.23" stroke-miterlimit="10"/>
<path d="M227.742 417.821L226.637 417.643C223.867 418.153 221.139 418.868 218.475 419.78C218.066 419.921 217.688 420.069 217.28 420.247C213.194 421.742 209.309 423.736 205.712 426.183C203.501 422.984 201.602 419.58 200.043 416.018C197.839 410.987 196.374 405.663 195.695 400.213C194.556 399.39 193.533 398.416 192.653 397.319C193.258 405.745 195.303 414.005 198.7 421.739C198.849 422.065 198.99 422.384 199.138 422.703C198.441 421.36 197.765 419.958 197.149 418.526C194.018 411.397 192.159 403.776 191.659 396.006C191.3 390.46 191.752 384.89 193.002 379.474C195.97 366.475 203.694 355.812 215.202 350.818L220.752 364.108C219.448 364.697 218.188 365.382 216.983 366.155C208.821 371.349 203.464 380.001 203.464 389.788C203.484 396.491 206.003 402.947 210.528 407.893C212.378 410.025 214.535 411.869 216.931 413.362C219.909 415.296 223.185 416.725 226.629 417.591C226.994 417.694 227.366 417.771 227.742 417.821Z" fill="#FFFCE3"/>
<path d="M244.215 420.187C239.926 419.66 235.6 419.075 231.304 418.407C235.27 418.863 239.286 418.635 243.176 417.731L244.215 420.187Z" fill="#FFFCE3"/>
<path d="M269.457 214.69C273.618 224.048 275.519 234.254 275.007 244.482C258.055 255.503 242.885 269.047 230.02 284.646C213.755 281.641 197.951 268.641 189.596 249.394C177.501 221.613 185.559 191.265 207.619 181.679C229.679 172.092 257.392 186.85 269.457 214.69Z" fill="#FFEB33"/>
<path d="M180.346 252.317L180.347 252.319C188.719 271.006 203.483 284.635 219.727 290.44C217.752 292.984 215.799 295.628 213.899 298.353L213.897 298.355C203.26 313.642 194.691 330.192 188.401 347.599C187.12 351.09 185.914 354.662 184.782 358.314L184.762 358.374C184.746 358.426 184.722 358.501 184.691 358.597C184.631 358.789 184.545 359.067 184.44 359.423C184.231 360.134 183.944 361.155 183.63 362.418C183.003 364.939 182.261 368.444 181.806 372.372C180.915 380.05 181.032 390.027 186.021 397.2C186.229 397.521 186.454 397.832 186.694 398.133C187.414 406.555 189.57 414.803 193.077 422.541L193.084 422.556L193.091 422.571C193.137 422.668 193.186 422.775 193.237 422.885C193.338 423.102 193.447 423.336 193.552 423.554L193.577 423.607L193.604 423.658C194.465 425.255 195.368 426.835 196.336 428.362C194.325 429.978 192.279 431.784 190.285 433.784C179.962 444.136 170.858 459.877 175.262 481.333L175.319 481.61L175.436 481.867L187.463 508.25L171.926 509.956L139.332 109.737L295.187 164.334L300.819 228.041C297.319 229.357 293.89 230.846 290.546 232.503C288.182 233.651 285.504 235.011 282.592 236.592C281.924 228.046 279.762 219.664 276.189 211.808C262.017 180.251 229.179 162.681 202.307 174.004C175.362 185.357 166.228 220.711 180.346 252.317ZM203.661 423.115C201.88 420.459 200.327 417.667 199.017 414.766L199.016 414.765C197.522 411.459 196.373 408.023 195.585 404.507C199.262 406.082 202.841 407.865 206.302 409.848L206.319 409.858L206.337 409.867C208.601 411.117 210.595 412.769 212.217 414.733L212.235 414.755L212.254 414.776C213.046 415.692 213.955 416.504 214.957 417.191C214.907 417.216 214.857 417.241 214.805 417.265C214.372 417.414 213.962 417.571 213.53 417.754L213.52 417.758C212.772 418.079 208.807 419.831 203.661 423.115Z" fill="#FFEB33" stroke="black" stroke-width="5"/>
<path d="M202.158 428.712L193.996 436.748C191.954 433.312 190.129 429.751 188.535 426.085C176.381 398.105 179.215 368.276 193.618 349.318C193.796 349.088 193.966 348.821 194.174 348.576L194.233 348.517L192.942 379.451L192.423 391.746C192.423 391.746 192.423 394.929 192.534 396.45C192.534 396.739 192.534 397.006 192.594 397.296C193.198 405.722 195.243 413.981 198.641 421.715C198.789 422.041 198.93 422.36 199.079 422.68C200.051 424.742 201.082 426.753 202.158 428.712Z" fill="#FFEB33"/>
<path d="M122.666 510.462L75.1726 147.732L139.432 110.102L170.95 509.364L122.666 510.462Z" fill="#FFFCE3" stroke="black" stroke-width="5"/>
<path d="M292.096 234.725C291.056 225.647 288.663 216.775 284.995 208.406C268.552 170.52 230.829 150.426 200.815 163.456C170.801 176.485 159.797 217.815 176.247 255.672C185.448 276.819 201.253 292.445 218.66 299.836C232.417 305.682 247.168 306.38 260.427 300.629C283.533 290.575 295.398 263.819 292.096 234.725ZM254.907 287.897C245.854 291.844 235.978 292.074 226.399 289.24C210.075 284.454 194.797 270.779 186.331 251.331C172.923 220.479 181.879 186.888 206.365 176.255C230.851 165.623 261.488 182.013 274.896 212.829C278.778 221.638 280.883 231.126 281.092 240.75C281.493 261.808 271.965 280.477 254.907 287.897Z" fill="#FFEB33"/>
<path d="M302.936 235.214C301.711 224.53 298.892 214.091 294.574 204.243C275.23 159.671 230.873 136.031 195.547 151.361C160.22 166.69 147.317 215.306 166.609 259.841C177.434 284.713 196.022 303.1 216.508 311.781C232.691 318.652 250.039 319.476 265.643 312.708C292.867 300.903 306.817 269.428 302.936 235.214ZM259.195 297.72C248.54 302.358 236.935 302.632 225.657 299.301C206.484 293.661 188.475 277.582 178.547 254.699C162.773 218.415 173.353 178.896 202.084 166.401C230.814 153.906 266.927 173.175 282.695 209.437C287.265 219.801 289.741 230.968 289.981 242.293C290.463 267.053 279.259 288.979 259.195 297.705V297.72Z" fill="#FFFCE3"/>
<path d="M275.007 244.482C273.984 261.548 265.569 276.232 251.434 282.398C244.689 285.299 237.218 286.076 230.02 284.624C213.755 281.619 197.951 268.619 189.596 249.371C177.501 221.591 185.559 191.243 207.619 181.656C229.679 172.07 257.392 186.85 269.457 214.668C273.621 224.033 275.523 234.246 275.007 244.482Z" fill="#FFFCE3"/>
<path d="M245.32 275.082C226.466 283.288 202.818 270.63 192.467 246.886C182.116 223.142 189.039 197.172 207.893 189.01C226.748 180.848 250.417 193.462 260.739 217.206C271.06 240.95 264.152 266.897 245.32 275.082Z" fill="#FFEB33"/>
<path d="M226.636 417.643C223.867 418.153 221.139 418.868 218.474 419.78C218.066 419.921 217.688 420.069 217.28 420.247C213.194 421.742 209.309 423.736 205.712 426.183C203.501 422.984 201.602 419.58 200.043 416.018C197.839 410.987 196.374 405.663 195.695 400.213C193.358 381.663 200.778 364.486 215.469 358.12L216.953 366.155C208.791 371.349 203.434 380.001 203.434 389.788C203.454 396.491 205.973 402.947 210.498 407.893C212.348 410.025 214.505 411.869 216.901 413.362C219.879 415.296 223.156 416.725 226.599 417.591L226.636 417.643Z" fill="#FFEB33"/>
<path d="M230.381 247.382C237.105 244.459 239.565 235.213 235.877 226.731C232.189 218.249 223.749 213.743 217.025 216.666C210.302 219.59 207.842 228.836 211.53 237.318C215.218 245.799 223.658 250.306 230.381 247.382Z" fill="#FFEB33"/>
<path d="M472.543 214.69C468.382 224.048 466.481 234.254 466.993 244.482C483.945 255.503 499.115 269.047 511.98 284.646C528.245 281.641 544.049 268.641 552.404 249.394C564.499 221.613 556.441 191.265 534.381 181.679C512.321 172.092 484.608 186.85 472.543 214.69Z" fill="#FFEB33"/>
<path d="M570.089 509.956L554.562 508.25L566.583 481.867L566.7 481.609L566.757 481.331C571.139 459.877 562.04 444.137 551.727 433.785C549.728 431.778 547.678 429.967 545.663 428.348C546.627 426.825 547.527 425.25 548.385 423.658L548.412 423.606L548.437 423.554C548.542 423.336 548.65 423.102 548.751 422.885C548.803 422.774 548.852 422.668 548.898 422.57L548.905 422.555L548.911 422.541C552.417 414.803 554.573 406.555 555.291 398.132C555.532 397.832 555.757 397.52 555.965 397.199C560.951 390.027 561.068 380.05 560.178 372.372C559.722 368.444 558.981 364.939 558.354 362.418C558.04 361.156 557.754 360.134 557.545 359.423C557.44 359.068 557.354 358.789 557.294 358.597C557.263 358.501 557.239 358.426 557.222 358.374L557.203 358.313C556.072 354.661 554.866 351.089 553.585 347.598C547.287 330.189 538.708 313.639 528.062 298.354L528.056 298.346L528.051 298.339C526.133 295.628 524.197 292.988 522.23 290.441C538.469 284.637 553.229 271.007 561.598 252.319L561.599 252.316C575.71 220.712 566.581 185.357 539.648 174.004C512.785 162.68 479.961 180.253 465.796 211.81C462.226 219.666 460.065 228.047 459.397 236.591C456.487 235.011 453.811 233.651 451.45 232.503C448.107 230.846 444.68 229.358 441.183 228.042L446.884 164.334L602.668 109.738L570.089 509.956ZM535.731 409.847C539.176 407.873 542.738 406.096 546.399 404.526C545.61 408.035 544.464 411.465 542.973 414.765L542.972 414.766C541.665 417.662 540.116 420.449 538.341 423.1C533.212 419.826 529.263 418.079 528.516 417.758L528.506 417.754C528.074 417.571 527.664 417.414 527.231 417.265C527.18 417.241 527.129 417.216 527.079 417.192C528.081 416.504 528.99 415.692 529.782 414.776L529.801 414.754L529.819 414.732C531.439 412.769 533.433 411.117 535.696 409.867L535.713 409.857L535.731 409.847Z" fill="#FFEB33" stroke="black" stroke-width="5"/>
<path d="M539.842 428.712L548.004 436.748C550.046 433.312 551.871 429.751 553.465 426.085C565.619 398.105 562.785 368.276 548.382 349.318C548.204 349.088 548.034 348.821 547.826 348.576L547.767 348.517L549.058 379.451L549.577 391.746C549.577 391.746 549.577 394.929 549.466 396.45C549.466 396.739 549.466 397.006 549.406 397.296C548.802 405.722 546.757 413.981 543.359 421.715C543.211 422.041 543.07 422.36 542.921 422.68C541.949 424.742 540.918 426.753 539.842 428.712Z" fill="#FFEB33"/>
<path d="M619.334 510.462L571.05 509.364L602.568 110.102L666.827 147.732L619.334 510.462Z" fill="#FFFCE3" stroke="black" stroke-width="5"/>
<path d="M449.904 234.725C450.944 225.647 453.337 216.775 457.005 208.406C473.448 170.52 511.171 150.426 541.185 163.456C571.199 176.485 582.203 217.815 565.753 255.672C556.552 276.819 540.747 292.445 523.34 299.836C509.583 305.682 494.832 306.38 481.573 300.629C458.467 290.575 446.602 263.819 449.904 234.725ZM487.093 287.897C496.146 291.844 506.022 292.074 515.601 289.24C531.925 284.454 547.203 270.779 555.669 251.331C569.077 220.479 560.121 186.888 535.635 176.255C511.149 165.623 480.512 182.013 467.104 212.829C463.222 221.638 461.117 231.126 460.908 240.75C460.507 261.808 470.035 280.477 487.093 287.897Z" fill="#FFEB33"/>
<path d="M494.78 333.196C486.047 330.688 477.284 334.984 468.959 338.39C481.294 343.022 494.627 344.342 507.632 342.219C503.395 338.049 499.069 334.428 494.78 333.196Z" fill="#FFEB33"/>
<path d="M439.064 235.214C440.289 224.53 443.107 214.091 447.426 204.243C466.77 159.671 511.127 136.031 546.453 151.361C581.78 166.69 594.683 215.306 575.354 259.841C564.528 284.713 545.941 303.1 525.455 311.781C509.272 318.652 491.924 319.476 476.319 312.708C449.133 300.903 435.183 269.428 439.064 235.214ZM482.804 297.72C493.46 302.358 505.064 302.632 516.343 299.301C535.516 293.661 553.525 277.582 563.452 254.699C579.227 218.415 568.646 178.896 539.916 166.401C511.186 153.906 475.073 173.175 459.305 209.437C454.735 219.801 452.259 230.968 452.019 242.293C451.537 267.053 462.741 288.979 482.804 297.705V297.72Z" fill="#FFFCE3"/>
<path d="M466.992 244.482C468.016 261.548 476.431 276.232 490.566 282.398C497.311 285.299 504.782 286.076 511.98 284.624C528.244 281.619 544.049 268.619 552.404 249.371C564.499 221.591 556.44 191.243 534.381 181.656C512.321 172.07 484.607 186.85 472.543 214.668C468.378 224.033 466.477 234.246 466.992 244.482Z" fill="#FFFCE3"/>
<path d="M496.68 275.082C515.534 283.288 539.182 270.63 549.533 246.886C559.883 223.142 552.961 197.172 534.106 189.01C515.252 180.848 491.582 193.462 481.261 217.206C470.94 240.95 477.848 266.897 496.68 275.082Z" fill="#FFEB33"/>
<path d="M515.364 417.643C518.133 418.153 520.861 418.868 523.526 419.78C523.934 419.921 524.312 420.069 524.72 420.247C528.806 421.742 532.691 423.736 536.288 426.183C538.499 422.984 540.398 419.58 541.957 416.018C544.161 410.987 545.626 405.663 546.305 400.213C548.642 381.663 541.222 364.486 526.531 358.12L525.047 366.155C535.435 370.504 542.224 378.547 538.566 389.788C536.444 396.31 535.939 402.959 531.502 407.893C529.653 410.025 527.494 411.869 525.099 413.362C522.121 415.296 518.844 416.725 515.401 417.591L515.364 417.643Z" fill="#FFEB33"/>
<path d="M530.513 237.367C534.201 228.885 531.74 219.639 525.017 216.716C518.294 213.792 509.854 218.299 506.166 226.78C502.478 235.262 504.938 244.508 511.662 247.432C518.385 250.355 526.824 245.848 530.513 237.367Z" fill="#FFEB33"/>
<path d="M375.749 378.422C392.429 384.662 407.358 392.371 419.683 402.166C406.861 392.846 388.66 383.526 362.43 373.829C318.266 357.445 289.232 360.895 289.232 360.895C295.42 355.316 291.213 347.896 291.213 347.896C291.213 347.896 281.374 338.339 242.671 350.752C203.968 363.166 202.826 384.32 202.826 384.32C200.251 400.006 211.848 410.609 211.848 410.609L211.937 410.988C209.984 409.272 208.273 407.297 206.855 405.119C206.476 404.562 206.113 403.976 205.801 403.39C204.983 401.951 204.309 400.435 203.79 398.864C203.583 398.34 203.407 397.805 203.263 397.261C203.263 397.083 203.174 396.912 203.145 396.734C202.978 396.168 202.842 395.593 202.737 395.013C202.737 394.805 202.648 394.575 202.618 394.337C202.512 393.758 202.435 393.173 202.388 392.586C202.219 391.171 202.17 389.743 202.239 388.32C202.239 388.32 202.239 387.734 202.299 386.836C202.299 386.776 202.299 386.724 202.299 386.665C202.418 384.439 202.826 380.44 203.961 377.761C203.026 379.104 202.121 380.477 201.215 381.85C200.659 382.725 199.843 384.216 198.878 385.827C198.792 385.936 198.715 386.053 198.648 386.175C196.133 389.507 193.454 392.282 191.228 391.874C191.078 391.838 190.931 391.789 190.79 391.726C189.447 391.169 188.624 389.707 188.104 387.808C188.275 387.808 187.956 387.311 187.926 387.066C187.745 386.276 187.619 385.476 187.548 384.669C187.548 384.172 187.459 383.645 187.429 383.126V382.51C187.394 378.109 187.707 373.713 188.364 369.362C190.553 352.6 198.589 337.144 206.417 322.423C217.882 301.052 232.342 281.427 249.356 264.146C270.771 242.242 305.207 225.762 335.851 220.45V293.166L362.096 277.695C362.096 277.695 372.699 304.407 375.734 340.847C376.766 352.768 376.816 364.755 375.882 376.685C375.882 376.834 375.882 376.982 375.823 377.093C375.838 377.531 375.778 377.999 375.749 378.422Z" fill="#FFEB33"/>
<path d="M388.533 373.79C430.508 357.407 450.06 359.477 450.06 359.477C444.176 353.934 445.942 348.547 445.942 348.547C445.942 348.547 465.538 338.3 502.334 350.714C539.13 363.127 540.176 384.282 540.176 384.282C542.617 399.968 531.598 410.571 531.598 410.571L531.517 410.949C533.384 409.219 535.009 407.245 536.347 405.08C536.711 404.524 537.037 403.937 537.349 403.351C538.126 401.905 538.768 400.39 539.263 398.825C539.457 398.3 539.622 397.765 539.76 397.222C539.76 397.044 539.842 396.874 539.872 396.695C540.035 396.139 540.146 395.553 540.258 394.974C540.258 394.766 540.347 394.536 540.369 394.299C540.476 393.719 540.55 393.135 540.591 392.548C540.75 391.131 540.797 389.704 540.732 388.281C540.732 388.281 540.732 387.695 540.673 386.797C540.673 386.738 540.673 386.686 540.673 386.627C540.562 384.401 540.168 380.401 539.085 377.723C539.976 379.066 540.836 380.438 541.697 381.811C542.224 382.687 543.003 384.178 543.923 385.788C544.012 385.894 544.086 386.011 544.146 386.137C546.535 389.468 549.087 392.243 551.172 391.835C551.316 391.799 551.454 391.749 551.588 391.687C552.864 391.13 553.643 389.669 554.14 387.769C553.977 387.769 554.281 387.272 554.311 387.027C554.482 386.237 554.601 385.436 554.667 384.631C554.667 384.133 554.749 383.607 554.778 383.087V382.471C554.813 378.073 554.519 373.677 553.895 369.323C551.81 352.561 544.175 337.105 536.74 322.384C525.932 301.144 512.194 281.527 495.93 264.107C475.622 242.115 442.863 225.635 413.739 220.322V293.038L391.301 279.074C385.193 300.227 381.24 321.945 379.503 343.895C378.613 355.077 374.769 364.166 375.741 376.699C375.741 376.847 375.741 376.995 375.793 377.107C375.793 377.544 375.853 378.012 375.875 378.45L388.533 373.79Z" fill="#FFEB33"/>
<path d="M463.587 507.171C463.646 504.656 463.705 501.977 463.735 499.076L463.824 501.792C463.916 503.589 463.837 505.39 463.587 507.171Z" fill="#FFEB33"/>
<path d="M315.187 694.847L231.934 704.901C230.448 704.903 228.977 704.612 227.603 704.045C226.229 703.478 224.981 702.647 223.929 701.597C222.877 700.548 222.041 699.302 221.471 697.93C220.901 696.558 220.606 695.086 220.604 693.6C220.608 690.599 221.804 687.721 223.928 685.601C226.053 683.481 228.933 682.29 231.934 682.292L262.431 673.737C263.824 673.347 265.114 672.654 266.207 671.707C267.301 670.759 268.171 669.581 268.755 668.257C269.339 666.933 269.622 665.496 269.584 664.05C269.547 662.603 269.189 661.183 268.537 659.891L231.326 585.928C279.838 604.011 299.152 578.716 299.152 578.716L325.293 680.036C325.712 681.68 325.777 683.394 325.483 685.065C325.188 686.735 324.542 688.324 323.585 689.725C322.63 691.126 321.386 692.307 319.938 693.19C318.489 694.073 316.87 694.638 315.187 694.847Z" fill="#2E2E2E"/>
<path d="M522.368 693.562C522.374 695.049 522.086 696.522 521.521 697.898C520.956 699.273 520.125 700.523 519.076 701.577C518.027 702.63 516.78 703.466 515.407 704.036C514.034 704.606 512.562 704.9 511.075 704.9L428.171 697.391C426.464 697.228 424.811 696.699 423.327 695.839C421.843 694.979 420.563 693.809 419.572 692.408C418.582 691.008 417.907 689.41 417.592 687.724C417.276 686.038 417.329 684.304 417.746 682.64L444.258 578.76C453.317 585.831 473.537 600.352 511.134 588.547L474.702 662.161C474.039 663.504 473.691 664.981 473.685 666.479C473.681 667.977 474.018 669.456 474.673 670.804C475.327 672.152 476.281 673.332 477.461 674.254C478.642 675.176 480.018 675.817 481.484 676.125L511.104 682.284C514.092 682.292 516.954 683.483 519.065 685.597C521.176 687.711 522.364 690.575 522.368 693.562Z" fill="#2E2E2E"/>
<path d="M362.6 277.694L336.4 293.024V220.308C336.66 220.249 336.957 220.219 337.217 220.16L362.6 277.694Z" fill="#2E2E2E"/>
<path d="M414.778 221.577V293.024L408.033 288.995L391.457 279.067L413.954 221.406C413.975 221.327 414.018 221.257 414.078 221.204C414.139 221.151 414.215 221.117 414.295 221.107C414.375 221.097 414.457 221.112 414.528 221.15C414.6 221.187 414.659 221.246 414.696 221.317L414.778 221.577Z" fill="#2E2E2E"/>
<path d="M315.35 503.313L314.155 503.84" stroke="black" stroke-width="5.91" stroke-miterlimit="10"/>
<path d="M300.094 530.529C298.373 531.464 295.427 534.981 295.427 534.981C292.237 539.433 290.864 545.792 293.201 555.72L325.278 680.042C325.705 681.688 325.775 683.406 325.484 685.081C325.193 686.756 324.548 688.35 323.591 689.754C322.633 691.16 321.388 692.345 319.936 693.228C318.483 694.113 316.859 694.677 315.172 694.882L231.92 704.899C228.918 704.901 226.038 703.711 223.913 701.591C221.789 699.471 220.593 696.593 220.589 693.591C220.593 690.59 221.789 687.712 223.913 685.592C226.038 683.472 228.918 682.282 231.92 682.283L262.416 673.735C263.809 673.346 265.099 672.653 266.193 671.705C267.286 670.758 268.156 669.579 268.74 668.256C269.324 666.931 269.607 665.495 269.569 664.048C269.532 662.602 269.175 661.181 268.522 659.89L186.294 496.479C180.871 484.992 179.519 472 182.46 459.642C185.401 447.284 192.461 436.295 202.477 428.482C203.501 427.658 204.577 426.901 205.69 426.145C212.011 421.897 219.142 419.001 226.637 417.641" stroke="black" stroke-width="5.91" stroke-miterlimit="10"/>
<path d="M516.484 417.694C552.011 424.298 572.423 463.06 556.648 496.48L474.665 662.139C474.001 663.48 473.653 664.956 473.648 666.453C473.643 667.949 473.981 669.427 474.636 670.773C475.29 672.119 476.245 673.297 477.425 674.218C478.606 675.137 479.981 675.774 481.447 676.081L511.052 682.254C512.539 682.251 514.011 682.541 515.384 683.109C516.758 683.676 518.007 684.508 519.058 685.559C520.109 686.61 520.943 687.857 521.51 689.23C522.079 690.604 522.37 692.076 522.368 693.562C522.374 695.051 522.085 696.526 521.519 697.903C520.953 699.279 520.12 700.53 519.068 701.584C518.017 702.638 516.767 703.473 515.392 704.042C514.016 704.611 512.541 704.903 511.052 704.9L428.134 697.391C426.425 697.231 424.771 696.702 423.285 695.844C421.8 694.985 420.517 693.814 419.525 692.414C418.534 691.013 417.857 689.414 417.54 687.727C417.224 686.04 417.277 684.304 417.694 682.64L449.741 555.721C450.562 552.27 450.673 548.687 450.066 545.192C449.459 541.697 448.146 538.362 446.209 535.39C438.515 523.221 400.168 515.846 400.168 515.846C392.689 514.651 384.163 513.672 374.458 513.041C372.481 512.915 370.498 512.915 368.522 513.041C358.787 513.672 350.269 514.651 342.782 515.846" stroke="black" stroke-width="5.91" stroke-miterlimit="10"/>
<path d="M429.321 501.124C428.579 500.797 427.837 500.508 427.043 500.189" stroke="black" stroke-width="5.91" stroke-miterlimit="10"/>
<path d="M414.132 495.983C412.908 495.634 411.624 495.308 410.274 495.019" stroke="black" stroke-width="5.91" stroke-miterlimit="10"/>
<path d="M332.141 498.082C331.348 498.26 330.561 498.438 329.804 498.669" stroke="black" stroke-width="5.91" stroke-miterlimit="10"/>
<path d="M445.475 350.714C446.297 353.587 446.912 356.515 447.315 359.477C421.82 363.187 397.601 369.501 376.083 378.435" stroke="black" stroke-width="5.91" stroke-miterlimit="10"/>
<path d="M306.52 428.734C300.451 430.997 296.184 436.08 292.266 441C287.636 446.934 282.682 452.609 277.426 457.999C273.049 462.451 267.662 466.161 264.694 471.763C264.669 471.834 264.639 471.903 264.605 471.971C260.279 480.615 272.084 488.384 278.703 481.32L282.613 477.172" stroke="black" stroke-width="5.91" stroke-miterlimit="10"/>
<path d="M291.086 454.504C280.32 472.215 279.734 495.655 279.14 516.431C279.051 519.34 279.096 522.367 280.305 525.001C283.028 530.982 292.771 530.982 293.446 523.517C294.819 507.542 298.766 489.385 299.145 487.426" stroke="black" stroke-width="5.91" stroke-miterlimit="10"/>
<path d="M445.942 431.843C446.12 431.843 446.32 431.753 446.498 431.724C469.782 426.292 493.326 421.736 516.454 417.67C516.721 417.618 516.951 417.589 517.196 417.529C521.029 416.859 524.684 415.404 527.93 413.258C531.176 411.113 533.946 408.32 536.065 405.056" stroke="black" stroke-width="5.91" stroke-miterlimit="10"/>
<path d="M386.582 447.753C376.194 450.988 367.364 454.535 358.156 460.709C345.861 468.967 345.267 482.865 345.713 495.367C345.891 500.48 346.098 505.562 346.098 510.645C346.098 511.409 345.948 512.165 345.655 512.87C345.363 513.576 344.934 514.216 344.394 514.757C343.854 515.296 343.213 515.723 342.506 516.015C341.801 516.307 341.045 516.456 340.281 516.455H338.908C337.418 516.459 335.986 515.886 334.908 514.857C333.831 513.828 333.194 512.423 333.128 510.934L332.164 498.083L330.991 482.635C330.991 482.635 330.413 489.646 329.826 498.669C329.329 506.497 328.862 515.847 328.832 523.408C328.83 524.889 328.261 526.313 327.242 527.389C326.223 528.464 324.832 529.109 323.353 529.191C321.874 529.274 320.419 528.788 319.287 527.833C318.155 526.877 317.431 525.525 317.264 524.053C316.708 519.438 315.892 512.018 315.365 503.314C315.046 498.38 314.808 493.03 314.779 487.539" stroke="black" stroke-width="5.91" stroke-miterlimit="10"/>
<path d="M314.756 487.389V487.538C314.059 502.17 313.562 519.726 314.289 533.371C314.489 537.14 310.846 539.775 307.307 539.7C302.365 539.596 300.718 535.746 300.206 531.501C298.41 516.491 296.496 502.474 299.13 487.434C299.135 487.421 299.138 487.406 299.138 487.393C299.138 487.379 299.135 487.365 299.13 487.352" stroke="black" stroke-width="5.91" stroke-miterlimit="10"/>
<path d="M447.315 359.477C455.507 358.435 463.79 360.523 470.51 365.324" stroke="black" stroke-width="5.91" stroke-miterlimit="10"/>
<path d="M295.976 359.476C325.011 363.742 352.368 369.56 376.112 378.434C398.105 386.648 416.974 397.452 431.109 412.062C440.34 421.522 447.433 432.912 454.512 444.042C455.18 445.066 455.825 446.09 456.493 447.114C458.799 450.935 461.61 454.429 464.848 457.502C468.417 460.685 472.706 463.26 475.162 467.496C477.618 471.733 477.091 476.957 472.736 479.702C470.665 481.016 465.783 481.832 463.186 480.11" stroke="black" stroke-width="5.91" stroke-miterlimit="10"/>
<path d="M428.535 472.788V472.936C429.225 487.219 429.714 504.293 429.054 517.79C429.013 518.706 429.158 519.621 429.481 520.48C429.804 521.338 430.298 522.122 430.933 522.783C431.567 523.445 432.33 523.971 433.174 524.33C434.018 524.688 434.926 524.871 435.843 524.869C437.519 524.869 439.135 524.25 440.381 523.131C441.627 522.013 442.416 520.472 442.596 518.806C443.775 507.765 445.727 490.328 441.854 468.462C441.848 468.449 441.845 468.435 441.845 468.421C441.845 468.407 441.848 468.393 441.854 468.38C442.239 470.332 448.472 492.94 449.845 508.923C450.528 516.343 460.233 516.343 462.993 510.407C464.203 507.758 464.24 504.745 464.158 501.837C463.564 481.098 462.978 457.643 452.212 439.939" stroke="black" stroke-width="5.91" stroke-miterlimit="10"/>
<path d="M295.976 359.477C287.787 358.435 279.505 360.524 272.789 365.324" stroke="black" stroke-width="5.91" stroke-miterlimit="10"/>
<path d="M336.23 220.374V293.09L362.43 277.76L337.046 220.233C337.011 220.143 336.945 220.068 336.86 220.019C336.775 219.972 336.677 219.955 336.581 219.972C336.484 219.988 336.398 220.037 336.334 220.111C336.27 220.184 336.233 220.277 336.23 220.374Z" stroke="black" stroke-width="5.91" stroke-miterlimit="10"/>
<path d="M362.43 277.695C362.43 277.695 380.98 324.374 376.075 378.436C376.075 378.436 381.418 308.725 391.301 279.06M391.301 279.06L414.615 293.025V221.57C414.62 221.468 414.588 221.367 414.525 221.287C414.462 221.206 414.371 221.151 414.271 221.132C414.17 221.113 414.066 221.131 413.978 221.183C413.89 221.235 413.824 221.317 413.791 221.414L391.301 279.06Z" stroke="black" stroke-width="5.91" stroke-miterlimit="10"/>
<path d="M414.615 221.569L401.125 173.666" stroke="black" stroke-width="5.91" stroke-miterlimit="10"/>
<path d="M337.046 220.167L344.562 179.787" stroke="black" stroke-width="5.91" stroke-miterlimit="10"/>
<path d="M244.214 420.187C244.228 420.181 244.243 420.177 244.259 420.177C244.274 420.177 244.289 420.181 244.303 420.187C252.055 423.707 258.766 429.169 263.788 436.044C265.835 438.796 267.542 441.785 268.871 444.948C271.219 450.424 272.546 456.283 272.789 462.236" stroke="black" stroke-width="5.91" stroke-miterlimit="10"/>
<path d="M464.811 457.51C464.811 457.51 474.346 425.285 516.484 417.694" stroke="black" stroke-width="5.91" stroke-miterlimit="10"/>
<path d="M448.487 539.7C448.487 539.7 449.882 528.451 452.345 513.522" stroke="black" stroke-width="5.91" stroke-miterlimit="10"/>
<path d="M434.5 122.371C434.5 142.272 423.652 160.05 408.701 171.588C405.824 173.817 402.781 175.821 399.597 177.584C402.032 172.17 403.262 166.291 403.203 160.354V156.437C403.859 155.957 404.475 155.423 405.043 154.841C405.841 154.067 406.552 153.209 407.165 152.281C407.798 151.349 408.334 150.354 408.768 149.313C409.675 147.184 410.14 144.891 410.133 142.576C410.135 142.033 410.103 141.49 410.037 140.951C410.051 140.863 410.051 140.773 410.037 140.684C409.995 140.17 409.916 139.658 409.799 139.155C409.81 139.095 409.81 139.032 409.799 138.97C409.699 138.452 409.562 137.941 409.391 137.441C409.238 136.895 409.048 136.359 408.82 135.839C408.75 135.667 408.671 135.498 408.582 135.334C408.451 135.016 408.3 134.706 408.13 134.407C408.099 134.329 408.057 134.256 408.004 134.191C407.774 133.743 407.511 133.311 407.217 132.9C406.957 132.492 406.646 132.084 406.356 131.706C405.926 131.201 405.496 130.726 405.043 130.274C404.59 129.821 404.301 129.598 403.945 129.265C403.752 129.101 403.537 128.931 403.322 128.767C403.106 128.604 402.728 128.337 402.416 128.144C401.996 127.853 401.558 127.591 401.103 127.358C400.009 126.751 398.845 126.277 397.638 125.948V118.335C397.649 118.167 397.649 117.999 397.638 117.83C397.513 115.896 396.655 114.083 395.24 112.759C393.823 111.435 391.956 110.701 390.017 110.707H351.953C349.931 110.709 347.993 111.514 346.564 112.944C345.135 114.374 344.333 116.314 344.333 118.335V126.43C341.48 127.526 338.967 129.357 337.051 131.738C335.134 134.118 333.881 136.964 333.42 139.984C332.958 143.006 333.305 146.095 334.425 148.939C335.544 151.783 337.395 154.28 339.791 156.177V160.406C339.775 166.333 341.041 172.192 343.501 177.584C336.962 173.984 331.028 169.379 325.916 163.938C318.704 153.981 314.185 142.057 314.185 129.227C314.18 116.638 317.947 104.336 325 93.9075C332.053 83.4794 342.069 75.4028 353.755 70.7203C365.442 66.0378 378.263 64.9638 390.565 67.6368C402.867 70.3098 414.087 76.607 422.777 85.7166C430.432 96.4029 434.534 109.226 434.5 122.371Z" fill="#2E2E2E"/>
<path d="M339.784 156.161V160.406C339.687 169.513 342.732 178.375 348.406 185.5C353.251 191.436 360.508 196.712 371.082 197.075C383.495 197.513 391.561 190.293 396.51 183.014C400.98 176.307 403.309 168.399 403.188 160.339L403.069 141.997V130.035" stroke="black" stroke-width="5.91" stroke-miterlimit="10"/>
<path d="M367.891 142.583C367.891 144.861 367.442 147.116 366.57 149.221C365.698 151.326 364.421 153.237 362.81 154.847C361.198 156.458 359.286 157.735 357.181 158.606C355.077 159.477 352.821 159.925 350.543 159.924C349.469 159.933 348.398 159.831 347.345 159.62C343.952 157.785 341.267 154.87 339.718 151.338C338.169 147.804 337.843 143.856 338.792 140.116C339.741 136.377 341.91 133.062 344.957 130.696C348.004 128.33 351.753 127.047 355.611 127.053C356.684 127.047 357.757 127.151 358.809 127.365C361.555 128.846 363.849 131.042 365.448 133.722C367.047 136.401 367.891 139.463 367.891 142.583Z" fill="#FFEB33"/>
<path d="M410.103 142.583C410.103 144.861 409.654 147.116 408.782 149.221C407.911 151.326 406.633 153.237 405.022 154.847C403.41 156.458 401.498 157.735 399.393 158.606C397.289 159.477 395.033 159.925 392.755 159.924C391.682 159.933 390.61 159.831 389.557 159.62C386.164 157.785 383.48 154.87 381.93 151.338C380.381 147.804 380.055 143.856 381.004 140.116C381.953 136.377 384.123 133.062 387.17 130.696C390.216 128.33 393.966 127.047 397.823 127.053C398.897 127.047 399.969 127.151 401.021 127.365C403.767 128.846 406.062 131.042 407.661 133.722C409.26 136.401 410.103 139.463 410.103 142.583Z" fill="#FFEB33"/>
<path d="M350.55 159.923C360.123 159.923 367.884 152.162 367.884 142.589C367.884 133.016 360.123 125.256 350.55 125.256C340.978 125.256 333.217 133.016 333.217 142.589C333.217 152.162 340.978 159.923 350.55 159.923Z" stroke="black" stroke-width="5.91" stroke-miterlimit="10"/>
<path d="M392.77 159.923C402.343 159.923 410.103 152.162 410.103 142.589C410.103 133.016 402.343 125.256 392.77 125.256C383.198 125.256 375.437 133.016 375.437 142.589C375.437 152.162 383.198 159.923 392.77 159.923Z" stroke="black" stroke-width="5.91" stroke-miterlimit="10"/>
<path d="M367.884 175.014C367.884 175.014 377.834 181.388 383.644 172.625" stroke="black" stroke-width="5.91" stroke-miterlimit="10"/>
<path d="M399.574 177.584C419.022 166.855 434.5 146.146 434.5 122.372C434.591 114.039 433.028 105.771 429.902 98.0471C426.775 90.3222 422.148 83.2947 416.288 77.3698C410.427 71.4458 403.45 66.7426 395.76 63.5328C388.07 60.3229 379.819 58.6702 371.486 58.6702C363.153 58.6702 354.902 60.3229 347.212 63.5328C339.522 66.7426 332.545 71.4458 326.684 77.3698C320.824 83.2947 316.197 90.3222 313.071 98.0471C309.945 105.771 308.381 114.039 308.472 122.372C308.472 146.168 323.994 166.892 343.464 177.584" stroke="black" stroke-width="5.91" stroke-miterlimit="10"/>
<path d="M344.325 125.33V118.341C344.325 116.317 345.129 114.376 346.558 112.945C347.989 111.513 349.929 110.708 351.953 110.706H389.913C391.938 110.706 393.88 111.51 395.312 112.942C396.744 114.374 397.549 116.316 397.549 118.341V125.256" stroke="black" stroke-width="5.91" stroke-miterlimit="10"/>
<path d="M202.566 388.289C202.258 395.187 204.472 401.961 208.793 407.347C213.115 412.732 219.249 416.36 226.05 417.554L226.636 417.643C232.476 418.667 238.345 419.453 244.214 420.188C244.228 420.182 244.243 420.178 244.259 420.178C244.274 420.178 244.289 420.182 244.303 420.188C253.155 421.264 262.008 422.199 270.83 423.401L271.446 423.482C274.51 423.928 277.604 424.365 280.676 424.833C289.291 426.057 297.905 427.37 306.527 428.714C320.752 430.902 334.976 433.128 349.2 435.288C359.514 436.838 370.644 437.187 379.845 442.619C382.282 444.044 384.537 445.761 386.56 447.731C393.831 454.624 397.897 464.381 398.565 474.309C398.973 480.446 397.4 486.315 397.252 492.422C397.252 493.624 397.252 494.789 397.252 495.983C397.248 496.749 397.395 497.508 397.685 498.217C397.975 498.925 398.403 499.57 398.943 500.113C399.482 500.656 400.124 501.087 400.831 501.382C401.538 501.677 402.296 501.829 403.062 501.83H404.323C405.828 501.834 407.278 501.266 408.38 500.241C409.482 499.216 410.154 497.811 410.259 496.31L410.348 494.996L412.389 468.002C412.389 468.002 413.591 482.056 414.199 495.961C414.377 500.413 414.526 504.865 414.555 508.783C414.559 509.601 414.736 510.409 415.077 511.153C415.417 511.898 415.912 512.561 416.527 513.099C417.144 513.638 417.868 514.038 418.651 514.276C419.434 514.512 420.259 514.58 421.07 514.474C422.394 514.271 423.612 513.632 424.532 512.659C425.453 511.686 426.023 510.434 426.153 509.102C426.442 506.735 426.761 503.7 427.11 500.198C427.852 492.778 428.512 483.08 428.594 472.944" stroke="black" stroke-width="5.91" stroke-miterlimit="10"/>
<path d="M554.808 387.724C553.435 393.512 549.206 402.275 536.117 405.079C539.386 400.105 541.001 394.226 540.732 388.28C540.584 385.097 540.517 383.539 540.168 379.948C543.381 384.971 548.59 393.133 552.122 391.642C553.465 391.085 554.274 389.623 554.808 387.724Z" fill="black"/>
<path d="M426.197 316.625C429.775 320.213 432.95 324.182 435.665 328.46C437.374 331.147 438.275 334.269 438.262 337.453V350.713C440.488 349.971 442.67 349.34 444.94 348.791C460.642 344.922 477.034 344.801 492.792 348.435C503.873 351.088 514.33 355.876 523.577 362.533C526.39 364.557 529.083 366.742 531.643 369.077C534.208 371.302 536.588 373.731 538.759 376.342C542.32 380.883 544.398 386.871 548.924 390.647C549.785 391.389 550.994 392.131 552.144 391.657C553.487 391.1 554.311 389.638 554.83 387.739C553.458 393.526 549.228 402.289 536.139 405.094" stroke="black" stroke-width="5.91" stroke-miterlimit="10"/>
<path d="M414.073 219.708C444.918 224.902 471.949 241.908 493.556 264.02C510.56 281.303 525.009 300.927 536.466 322.297C544.294 337.018 552.33 352.474 554.519 369.236C555.176 373.587 555.489 377.983 555.454 382.384V383C555.454 383.519 555.365 384.046 555.335 384.543C555.262 385.349 555.135 386.149 554.957 386.94C554.925 387.193 554.865 387.441 554.778 387.682" stroke="black" stroke-width="5.91" stroke-miterlimit="10"/>
<path d="M554.808 387.723C554.894 387.484 554.954 387.234 554.986 386.981C555.167 386.192 555.293 385.392 555.365 384.585C555.454 383.946 555.454 383.42 555.483 383.041V382.425" stroke="black" stroke-width="5.91" stroke-miterlimit="10"/>
<path d="M188.468 387.724C189.841 393.512 194.078 402.275 207.166 405.079C203.899 400.105 202.289 394.225 202.566 388.28C202.707 385.097 202.774 383.539 203.123 379.948C199.91 384.971 194.708 393.133 191.169 391.642C189.818 391.085 189.002 389.623 188.468 387.724Z" fill="black"/>
<path d="M317.094 316.625C313.516 320.213 310.341 324.182 307.626 328.46C305.917 331.147 305.016 334.269 305.029 337.453V350.713C302.803 349.971 300.614 349.34 298.351 348.791C282.651 344.924 266.262 344.801 250.507 348.435C239.423 351.088 228.963 355.876 219.714 362.533C216.904 364.557 214.213 366.742 211.656 369.077C207.612 372.787 204.518 377.239 201.557 381.788C199.776 384.541 195.584 393.526 191.169 391.657C189.826 391.1 189.01 389.638 188.483 387.739C189.856 393.526 194.092 402.289 207.181 405.094" stroke="black" stroke-width="5.91" stroke-miterlimit="10"/>
<path d="M337.046 220.166C306.194 225.36 271.349 241.906 249.728 264.018C232.715 281.301 218.256 300.925 206.788 322.294C198.96 337.016 190.931 352.472 188.743 369.233C188.081 373.584 187.769 377.981 187.808 382.382V382.997C187.808 383.517 187.889 384.044 187.919 384.541C187.995 385.347 188.124 386.148 188.305 386.937C188.331 387.19 188.388 387.44 188.475 387.679" stroke="black" stroke-width="5.91" stroke-miterlimit="10"/>
<path d="M188.468 387.723C188.653 387.723 188.319 387.226 188.297 386.981C188.114 386.192 187.986 385.392 187.911 384.585C187.83 383.946 187.83 383.42 187.8 383.041V382.425" stroke="black" stroke-width="5.91" stroke-miterlimit="10"/>
<path d="M538.736 376.328C538.736 376.328 545.155 392.177 535.36 406.178" stroke="black" stroke-width="5.91" stroke-miterlimit="10"/>
<path d="M344.562 289.617L348.272 316.24C349.227 323.067 352.616 329.318 357.818 333.843C363.018 338.368 369.679 340.859 376.572 340.859C383.61 340.857 390.399 338.259 395.639 333.561C400.879 328.863 404.202 322.397 404.969 315.401L407.863 288.986" stroke="black" stroke-width="5.91" stroke-miterlimit="10"/>
<path d="M202.566 388.28C202.566 388.28 202.662 381.661 204.339 377.669" stroke="black" stroke-width="5.91" stroke-miterlimit="10"/>
<path d="M294.069 347.85L291.228 359.21" stroke="black" stroke-width="5.91" stroke-miterlimit="10"/>
<path d="M299.145 578.76C299.145 578.76 279.853 604.055 231.304 585.965" stroke="black" stroke-width="5.91" stroke-miterlimit="10"/>
<path d="M444.228 578.76C444.228 578.76 463.52 604.055 512.069 585.965" stroke="black" stroke-width="5.91" stroke-miterlimit="10"/>
<path d="M463.846 485.817C463.846 490.605 463.809 495.025 463.735 499.077C463.557 492.888 463.327 486.463 462.83 480.119C461.806 467.505 459.617 454.942 454.178 444.102C454.178 444.102 454.178 444.102 454.178 444.042C451.581 439.924 448.984 435.806 446.268 431.748C441.739 424.72 436.564 418.13 430.813 412.062C427.479 408.622 423.928 405.4 420.18 402.416C428.713 408.701 434.79 415.03 439.256 421.434C450.394 437.557 463.935 452.227 463.846 485.817Z" fill="black"/>
<path d="M632.629 513.012H548.471" stroke="black" stroke-width="5.91" stroke-miterlimit="10"/>
<path d="M194.619 513.012H120.479" stroke="black" stroke-width="5.91" stroke-miterlimit="10"/>
<g opacity="0.61">
<path opacity="0.61" d="M484.073 119.238L482.626 120.945L480.504 119.149L481.951 117.442C482.195 117.157 482.379 116.826 482.494 116.468C482.609 116.111 482.653 115.734 482.623 115.36C482.593 114.986 482.489 114.621 482.318 114.287C482.146 113.953 481.911 113.657 481.625 113.413L467.089 101.066L473.529 80.1939L489.72 93.9506C490.874 94.9307 491.593 96.3294 491.717 97.8394C491.84 99.3486 491.36 100.846 490.38 102.001L488.681 104.005L486.559 102.209L488.258 100.206C488.753 99.6098 488.995 98.8433 488.933 98.0716C488.87 97.2992 488.508 96.5817 487.924 96.0727L474.932 85.0391L470.287 100.169L483.42 111.299C484.556 112.267 485.263 113.645 485.385 115.133C485.508 116.622 485.036 118.097 484.073 119.238Z" fill="#FFEB33"/>
<path opacity="0.61" d="M480.616 124.171C482.279 124.171 483.628 122.823 483.628 121.159C483.628 119.495 482.279 118.146 480.616 118.146C478.952 118.146 477.603 119.495 477.603 121.159C477.603 122.823 478.952 124.171 480.616 124.171Z" fill="#FFEB33"/>
<path opacity="0.61" d="M487.917 106.262C489.58 106.262 490.929 104.913 490.929 103.249C490.929 101.586 489.58 100.237 487.917 100.237C486.253 100.237 484.904 101.586 484.904 103.249C484.904 104.913 486.253 106.262 487.917 106.262Z" fill="#FFEB33"/>
</g>
<g opacity="0.61">
<path opacity="0.61" d="M630.834 106.803L628.608 106.061L629.528 103.324L631.754 104.066C632.123 104.19 632.514 104.241 632.902 104.215C633.291 104.189 633.671 104.086 634.021 103.913C634.37 103.741 634.682 103.501 634.938 103.207C635.194 102.913 635.391 102.573 635.516 102.203L641.83 83.4379L664.446 81.62L657.412 102.537C656.905 104.024 655.829 105.25 654.42 105.946C653.011 106.641 651.384 106.749 649.896 106.247L647.306 105.379L648.226 102.641L650.816 103.516C651.582 103.772 652.419 103.715 653.143 103.354C653.866 102.993 654.417 102.361 654.674 101.595L660.321 84.8254L643.997 86.1388L638.254 103.138C637.752 104.605 636.69 105.814 635.3 106.501C633.909 107.188 632.304 107.297 630.834 106.803Z" fill="#FFEB33"/>
<path opacity="0.61" d="M627.643 107.337C629.373 107.337 630.774 105.935 630.774 104.206C630.774 102.476 629.373 101.074 627.643 101.074C625.913 101.074 624.512 102.476 624.512 104.206C624.512 105.935 625.913 107.337 627.643 107.337Z" fill="#FFEB33"/>
<path opacity="0.61" d="M647.736 107.502C649.466 107.502 650.867 106.1 650.867 104.37C650.867 102.642 649.466 101.239 647.736 101.239C646.007 101.239 644.605 102.642 644.605 104.37C644.605 106.1 646.007 107.502 647.736 107.502Z" fill="#FFEB33"/>
</g>
<g opacity="0.61">
<path opacity="0.61" d="M519.83 89.5305L516.039 86.7554L520.491 80.6784C518.536 79.4229 516.864 77.7757 515.579 75.8406C514.498 74.2156 513.839 72.346 513.666 70.4019C513.492 68.4579 513.808 66.5013 514.584 64.7105C515.853 61.5792 518.294 58.73 521.952 56.0068C529.179 50.6644 537.772 48.0155 545.511 46.4721L549.221 41.4562C550.282 40.0093 552.055 37.583 554.964 37.1378C555.943 37.032 556.934 37.1675 557.85 37.5324C558.764 37.8974 559.576 38.4806 560.214 39.2313C560.852 39.9821 561.298 40.8775 561.51 41.8395C561.723 42.8016 561.697 43.801 561.434 44.7507C560.024 48.9727 555.016 49.7147 552.857 50.0189C551.373 50.2341 549.814 50.4789 548.204 50.7609L538.061 64.6289C542.513 66.8549 544.42 72.2121 542.565 77.2429C540.859 81.8433 536.473 84.4255 530.827 84.1584C528.739 84.0397 526.681 83.5997 524.727 82.8525L519.83 89.5305ZM541.259 52.3042C535.561 53.7882 529.736 56.1181 524.735 59.8133C521.767 62.0393 519.867 64.1911 518.932 66.4913C518.451 67.5825 518.253 68.7777 518.357 69.9659C518.461 71.1542 518.863 72.2969 519.526 73.288C520.5 74.729 521.764 75.9526 523.236 76.8794L528.972 69.0363C528.564 69.1699 528.141 69.3257 527.718 69.4964L525.967 65.1334C528.192 64.2069 530.563 63.6795 532.971 63.5752L541.259 52.3042ZM535.197 68.5392L527.636 78.8753C528.751 79.2003 529.898 79.397 531.057 79.4615C532.734 79.5431 536.778 79.328 538.15 75.6105C539.018 73.2657 538.566 70.1122 535.961 68.836C535.716 68.7149 535.46 68.6156 535.197 68.5392ZM556.292 42.0275C556.109 41.8717 555.871 41.7943 555.632 41.8124C554.734 41.9459 553.784 43.1405 552.975 44.2535L552.159 45.374C553.992 45.1068 556.47 44.632 556.886 43.3335C556.915 43.1486 556.9 42.9594 556.842 42.7815C556.783 42.6035 556.685 42.4418 556.552 42.3095C556.476 42.2059 556.389 42.1113 556.292 42.0275Z" fill="#FFEB33"/>
</g>
<g opacity="0.61">
<path opacity="0.61" d="M145.432 88.4998L146.174 90.6145L143.547 91.5198L142.805 89.4051C142.556 88.6898 142.034 88.1021 141.352 87.7712C140.671 87.4402 139.886 87.3928 139.17 87.6391L121.154 93.8571L106.462 77.6889L126.556 70.7509C127.988 70.2589 129.558 70.3552 130.919 71.0187C132.281 71.6822 133.324 72.8588 133.82 74.2905L134.673 76.7688L132.076 77.6815L131.223 75.1958C130.962 74.4701 130.429 73.8743 129.736 73.535C129.043 73.1957 128.246 73.1392 127.513 73.3776L111.404 78.9429L122.022 90.6294L138.346 85.0124C139.748 84.5516 141.275 84.6592 142.6 85.3107C143.924 85.9629 144.941 87.1071 145.432 88.4998Z" fill="#FFEB33"/>
<path opacity="0.61" d="M145.321 95.4679C146.984 95.4679 148.333 94.119 148.333 92.4554C148.333 90.7919 146.984 89.4429 145.321 89.4429C143.657 89.4429 142.308 90.7919 142.308 92.4554C142.308 94.119 143.657 95.4679 145.321 95.4679Z" fill="#FFEB33"/>
<path opacity="0.61" d="M133.634 80.0625C135.298 80.0625 136.647 78.7143 136.647 77.05C136.647 75.3865 135.298 74.0376 133.634 74.0376C131.971 74.0376 130.622 75.3865 130.622 77.05C130.622 78.7143 131.971 80.0625 133.634 80.0625Z" fill="#FFEB33"/>
</g>
<g opacity="0.61">
<path opacity="0.61" d="M271.142 125.287L267.758 128.203L264.152 124.003L267.535 121.087C268.677 120.096 269.379 118.694 269.491 117.187C269.602 115.681 269.112 114.191 268.129 113.044L243.287 84.2467L262.408 45.091L290.122 77.168C292.094 79.4586 293.077 82.4384 292.854 85.4524C292.631 88.4672 291.222 91.2705 288.935 93.2471L284.928 96.6974L281.3 92.4977L285.269 89.0771C286.442 88.0606 287.164 86.6211 287.278 85.0733C287.392 83.5255 286.888 81.9954 285.878 80.8186L263.684 55.0783L249.861 83.3934L272.314 109.423C274.26 111.682 275.23 114.623 275.01 117.597C274.79 120.571 273.399 123.337 271.142 125.287Z" fill="#FFEB33"/>
<path opacity="0.61" d="M263.736 134.027C267.056 134.027 269.746 131.336 269.746 128.017C269.746 124.698 267.056 122.007 263.736 122.007C260.417 122.007 257.726 124.698 257.726 128.017C257.726 131.336 260.417 134.027 263.736 134.027Z" fill="#FFEB33"/>
<path opacity="0.61" d="M283.644 100.98C286.963 100.98 289.654 98.2883 289.654 94.9693C289.654 91.6496 286.963 88.9591 283.644 88.9591C280.325 88.9591 277.634 91.6496 277.634 94.9693C277.634 98.2883 280.325 100.98 283.644 100.98Z" fill="#FFEB33"/>
</g>
<g opacity="0.61">
<path opacity="0.61" d="M197.372 105.72L193.016 107.59L190.048 100.667C187.97 101.715 185.695 102.316 183.37 102.433C181.427 102.533 179.49 102.147 177.734 101.308C175.978 100.47 174.46 99.2061 173.316 97.6324C171.261 94.9463 170.044 91.4144 169.606 86.8585C168.694 77.9545 170.786 69.1695 173.398 61.7272L170.957 56.0137C170.215 54.3591 169.065 51.5989 170.163 48.8683C170.571 47.9715 171.192 47.1881 171.972 46.5863C172.752 45.9846 173.667 45.5827 174.638 45.4159C175.609 45.2491 176.606 45.3223 177.542 45.6291C178.478 45.936 179.326 46.4673 180.009 47.1766C182.977 50.5007 181.011 55.1902 180.187 57.1936C179.608 58.5811 179.022 60.0502 178.458 61.5787L185.218 77.3683C189.358 74.6675 194.983 75.7582 198.366 79.9208C201.453 83.7273 201.445 88.8248 198.366 93.5365C197.203 95.2802 195.773 96.8295 194.129 98.1295L197.372 105.72ZM176.21 68.3162C174.622 73.9925 173.628 80.1879 174.259 86.354C174.637 90.064 175.55 92.7797 177.063 94.7608C177.755 95.7365 178.682 96.5208 179.76 97.0395C180.837 97.5589 182.028 97.7956 183.222 97.7288C184.963 97.6235 186.663 97.1508 188.208 96.3413L184.379 87.4373C184.29 87.858 184.209 88.2958 184.135 88.7506L179.49 88.0086C179.822 85.6223 180.576 83.3132 181.716 81.1896L176.21 68.3162ZM187.103 81.8055L192.178 93.5736C193.019 92.7812 193.765 91.8945 194.404 90.9321C195.324 89.5297 197.201 85.9384 194.701 82.8591C193.128 80.9225 190.182 79.6982 187.756 81.2935C187.524 81.4464 187.306 81.6178 187.103 81.8055ZM175.03 50.1446C174.803 50.2266 174.615 50.3907 174.503 50.6046C174.162 51.4504 174.711 52.8306 175.245 54.1365L175.794 55.4053C176.492 53.6987 177.33 51.3021 176.44 50.293C176.295 50.1769 176.125 50.0957 175.944 50.0558C175.763 50.0159 175.574 50.0184 175.394 50.063C175.27 50.0764 175.148 50.1038 175.03 50.1446Z" fill="#FFEB33"/>
</g>
</svg>
