<svg width="331" height="77" viewBox="0 0 331 77" fill="none" xmlns="http://www.w3.org/2000/svg">
<rect x="1.38818" y="1.38818" width="327.611" height="73.5736" rx="9.71727" fill="#FFEB33" stroke="black" stroke-width="2.77636"/>
<path d="M95.5684 36.4106V45.7392C94.3579 46.6054 93.0697 47.2551 91.7037 47.6882C90.3377 48.1102 88.8496 48.3212 87.2393 48.3212C85.307 48.3212 83.5579 48.0214 81.992 47.4217C80.4372 46.822 79.1101 45.9835 78.0107 44.9063C76.9112 43.8291 76.0617 42.5408 75.462 41.0416C74.8734 39.5424 74.5791 37.8932 74.5791 36.0941C74.5791 34.2839 74.8623 32.6292 75.4287 31.13C76.0061 29.6196 76.8279 28.3314 77.8941 27.2653C78.9602 26.188 80.2484 25.3551 81.7588 24.7665C83.2802 24.1669 84.9849 23.867 86.8728 23.867C87.8279 23.867 88.7108 23.9392 89.5215 24.0836C90.3433 24.2279 91.104 24.4334 91.8037 24.6999C92.5033 24.9664 93.1474 25.2885 93.736 25.6661C94.3357 26.0326 94.891 26.449 95.4018 26.9155L94.3857 28.5146C94.2302 28.7701 94.0247 28.9311 93.7693 28.9977C93.5139 29.0644 93.2363 29.0033 92.9364 28.8145C92.6477 28.6479 92.3256 28.4536 91.9702 28.2314C91.626 28.0093 91.2095 27.8039 90.7209 27.6151C90.2433 27.4263 89.6825 27.2653 89.0384 27.132C88.3943 26.9987 87.6336 26.9321 86.7562 26.9321C85.4458 26.9321 84.263 27.1487 83.208 27.5818C82.153 28.0038 81.2535 28.6146 80.5094 29.4142C79.7653 30.2138 79.1934 31.1799 78.7936 32.3127C78.3938 33.4344 78.1939 34.6948 78.1939 36.0941C78.1939 37.56 78.4049 38.876 78.8269 40.0421C79.2489 41.1971 79.8431 42.1799 80.6094 42.9906C81.3867 43.7902 82.3251 44.401 83.4246 44.823C84.5351 45.245 85.7734 45.456 87.1394 45.456C87.6724 45.456 88.1666 45.4282 88.6219 45.3727C89.0884 45.3061 89.5326 45.2172 89.9546 45.1062C90.3766 44.9951 90.7819 44.8563 91.1706 44.6897C91.5704 44.5232 91.9647 44.3399 92.3534 44.14V39.1259H88.8218C88.5997 39.1259 88.4165 39.0593 88.2721 38.926C88.1389 38.7927 88.0722 38.6262 88.0722 38.4263V36.4106H95.5684ZM110.698 37.71C110.698 37.0658 110.604 36.4717 110.415 35.9275C110.238 35.3834 109.971 34.9114 109.616 34.5116C109.26 34.1118 108.827 33.8008 108.316 33.5787C107.805 33.3566 107.217 33.2456 106.551 33.2456C105.185 33.2456 104.107 33.6398 103.319 34.4283C102.541 35.2168 102.047 36.3107 101.836 37.71H110.698ZM113.38 45.6393C112.981 46.1057 112.52 46.511 111.998 46.8553C111.476 47.1885 110.921 47.4605 110.332 47.6715C109.743 47.8826 109.133 48.038 108.5 48.138C107.878 48.2379 107.261 48.2879 106.651 48.2879C105.484 48.2879 104.402 48.0936 103.402 47.7049C102.414 47.3051 101.553 46.7276 100.82 45.9724C100.098 45.2061 99.5319 44.2622 99.121 43.1405C98.7212 42.0078 98.5213 40.7084 98.5213 39.2425C98.5213 38.0653 98.7046 36.9714 99.071 35.9608C99.4375 34.9391 99.9595 34.0507 100.637 33.2955C101.325 32.5404 102.164 31.9462 103.152 31.5131C104.141 31.08 105.251 30.8634 106.484 30.8634C107.517 30.8634 108.466 31.0356 109.332 31.3798C110.21 31.713 110.965 32.2016 111.598 32.8458C112.231 33.4899 112.725 34.2839 113.081 35.2279C113.447 36.1718 113.63 37.2491 113.63 38.4596C113.63 38.9593 113.575 39.298 113.464 39.4757C113.353 39.6423 113.147 39.7256 112.847 39.7256H101.753C101.786 40.7362 101.931 41.6191 102.186 42.3742C102.442 43.1183 102.791 43.7402 103.236 44.24C103.691 44.7397 104.23 45.1117 104.851 45.3561C105.473 45.6004 106.167 45.7225 106.934 45.7225C107.656 45.7225 108.277 45.6393 108.799 45.4727C109.332 45.3061 109.788 45.1284 110.165 44.9396C110.554 44.7397 110.876 44.5565 111.132 44.3899C111.398 44.2233 111.631 44.14 111.831 44.14C112.098 44.14 112.303 44.24 112.448 44.4399L113.38 45.6393ZM122.289 48.3212C120.923 48.3212 119.868 47.9381 119.124 47.1718C118.391 46.4055 118.024 45.3116 118.024 43.8901V33.762H116.059C115.87 33.762 115.709 33.7064 115.576 33.5954C115.453 33.4732 115.392 33.2955 115.392 33.0623V31.7463L118.141 31.3632L118.874 26.3158C118.918 26.127 119.002 25.9826 119.124 25.8826C119.257 25.7716 119.424 25.7161 119.624 25.7161H121.273V31.3965H126.07V33.762H121.273V43.6736C121.273 44.3399 121.434 44.8397 121.756 45.1728C122.089 45.4949 122.511 45.6559 123.022 45.6559C123.322 45.6559 123.577 45.617 123.788 45.5393C124.01 45.4616 124.199 45.3783 124.355 45.2894C124.51 45.1895 124.643 45.1006 124.754 45.0229C124.865 44.9452 124.965 44.9063 125.054 44.9063C125.165 44.9063 125.249 44.9341 125.304 44.9896C125.371 45.034 125.437 45.1117 125.504 45.2228L126.47 46.7887C125.937 47.2773 125.304 47.6549 124.571 47.9214C123.838 48.188 123.077 48.3212 122.289 48.3212ZM140.887 31.13V48.0547H137.639V31.13H140.887ZM141.504 25.8993C141.504 26.1992 141.443 26.4879 141.32 26.7655C141.198 27.0321 141.032 27.2708 140.821 27.4818C140.621 27.6817 140.382 27.8428 140.104 27.9649C139.827 28.076 139.538 28.1315 139.238 28.1315C138.938 28.1315 138.655 28.076 138.389 27.9649C138.122 27.8428 137.883 27.6817 137.672 27.4818C137.472 27.2708 137.311 27.0321 137.189 26.7655C137.078 26.4879 137.023 26.1992 137.023 25.8993C137.023 25.5884 137.078 25.2996 137.189 25.0331C137.311 24.7554 137.472 24.5167 137.672 24.3168C137.883 24.1058 138.122 23.9447 138.389 23.8337C138.655 23.7115 138.938 23.6505 139.238 23.6505C139.538 23.6505 139.827 23.7115 140.104 23.8337C140.382 23.9447 140.621 24.1058 140.821 24.3168C141.032 24.5167 141.198 24.7554 141.32 25.0331C141.443 25.2996 141.504 25.5884 141.504 25.8993ZM148.639 33.4788C149.005 33.0901 149.388 32.7347 149.788 32.4127C150.188 32.0906 150.61 31.8185 151.054 31.5964C151.51 31.3632 151.993 31.1855 152.503 31.0633C153.025 30.9301 153.581 30.8634 154.169 30.8634C155.102 30.8634 155.918 31.0189 156.618 31.3299C157.329 31.6408 157.923 32.0795 158.4 32.6459C158.878 33.2011 159.239 33.873 159.483 34.6615C159.728 35.45 159.85 36.3218 159.85 37.2768V48.0547H156.585V37.2768C156.585 36.0663 156.307 35.1279 155.752 34.4616C155.197 33.7842 154.347 33.4455 153.203 33.4455C152.37 33.4455 151.587 33.6454 150.854 34.0452C150.132 34.4338 149.461 34.9669 148.839 35.6443V48.0547H145.59V31.13H147.539C147.995 31.13 148.278 31.3465 148.389 31.7796L148.639 33.4788ZM177.957 48.3212C176.591 48.3212 175.536 47.9381 174.792 47.1718C174.059 46.4055 173.693 45.3116 173.693 43.8901V33.762H171.727C171.538 33.762 171.377 33.7064 171.244 33.5954C171.122 33.4732 171.061 33.2955 171.061 33.0623V31.7463L173.809 31.3632L174.542 26.3158C174.587 26.127 174.67 25.9826 174.792 25.8826C174.925 25.7716 175.092 25.7161 175.292 25.7161H176.941V31.3965H181.739V33.762H176.941V43.6736C176.941 44.3399 177.102 44.8397 177.424 45.1728C177.757 45.4949 178.179 45.6559 178.69 45.6559C178.99 45.6559 179.245 45.617 179.456 45.5393C179.679 45.4616 179.867 45.3783 180.023 45.2894C180.178 45.1895 180.312 45.1006 180.423 45.0229C180.534 44.9452 180.634 44.9063 180.722 44.9063C180.833 44.9063 180.917 44.9341 180.972 44.9896C181.039 45.034 181.106 45.1117 181.172 45.2228L182.138 46.7887C181.605 47.2773 180.972 47.6549 180.239 47.9214C179.506 48.188 178.746 48.3212 177.957 48.3212ZM191.846 30.8634C193.09 30.8634 194.211 31.0689 195.211 31.4798C196.221 31.8796 197.077 32.4626 197.776 33.2289C198.487 33.9841 199.031 34.9003 199.409 35.9775C199.786 37.0436 199.975 38.243 199.975 39.5757C199.975 40.9083 199.786 42.1133 199.409 43.1905C199.031 44.2677 198.487 45.1839 197.776 45.9391C197.077 46.6943 196.221 47.2773 195.211 47.6882C194.211 48.088 193.09 48.2879 191.846 48.2879C190.591 48.2879 189.458 48.088 188.448 47.6882C187.448 47.2773 186.593 46.6943 185.882 45.9391C185.172 45.1839 184.622 44.2677 184.233 43.1905C183.856 42.1133 183.667 40.9083 183.667 39.5757C183.667 38.243 183.856 37.0436 184.233 35.9775C184.622 34.9003 185.172 33.9841 185.882 33.2289C186.593 32.4626 187.448 31.8796 188.448 31.4798C189.458 31.0689 190.591 30.8634 191.846 30.8634ZM191.846 45.7559C193.445 45.7559 194.639 45.2172 195.427 44.14C196.216 43.0628 196.61 41.5469 196.61 39.5923C196.61 37.6378 196.216 36.1219 195.427 35.0446C194.639 33.9563 193.445 33.4121 191.846 33.4121C190.225 33.4121 189.014 33.9563 188.214 35.0446C187.426 36.1219 187.032 37.6378 187.032 39.5923C187.032 41.5469 187.426 43.0628 188.214 44.14C189.014 45.2172 190.225 45.7559 191.846 45.7559ZM217.677 31.13V48.0547H215.728C215.284 48.0547 214.995 47.8381 214.862 47.405L214.629 45.7059C214.262 46.0946 213.879 46.4499 213.479 46.772C213.08 47.0941 212.652 47.3717 212.197 47.6049C211.741 47.827 211.258 47.9992 210.748 48.1213C210.237 48.2546 209.687 48.3212 209.098 48.3212C208.165 48.3212 207.344 48.1657 206.633 47.8548C205.933 47.5438 205.345 47.1107 204.867 46.5555C204.39 45.9891 204.029 45.3116 203.784 44.5232C203.54 43.7347 203.418 42.8629 203.418 41.9078V31.13H206.683V41.9078C206.683 43.1183 206.961 44.0623 207.516 44.7397C208.071 45.406 208.921 45.7392 210.065 45.7392C210.897 45.7392 211.675 45.5449 212.397 45.1562C213.119 44.7564 213.796 44.2122 214.429 43.5237V31.13H217.677ZM234.072 34.295C233.972 34.4172 233.872 34.5171 233.772 34.5949C233.683 34.6615 233.55 34.6948 233.372 34.6948C233.195 34.6948 233.006 34.6282 232.806 34.4949C232.617 34.3506 232.373 34.2006 232.073 34.0452C231.784 33.8786 231.429 33.7286 231.007 33.5954C230.596 33.451 230.085 33.3788 229.474 33.3788C228.675 33.3788 227.97 33.5232 227.359 33.8119C226.748 34.1007 226.237 34.5116 225.826 35.0446C225.426 35.5777 225.121 36.2274 224.91 36.9937C224.699 37.7599 224.594 38.6206 224.594 39.5757C224.594 40.5641 224.705 41.4469 224.927 42.2243C225.149 42.9906 225.465 43.6403 225.876 44.1733C226.287 44.6953 226.787 45.0951 227.375 45.3727C227.964 45.6393 228.619 45.7725 229.341 45.7725C230.041 45.7725 230.618 45.6892 231.074 45.5226C231.529 45.345 231.907 45.1562 232.206 44.9563C232.506 44.7564 232.756 44.5731 232.956 44.4065C233.156 44.2289 233.361 44.14 233.572 44.14C233.839 44.14 234.044 44.24 234.189 44.4399L235.122 45.6393C234.733 46.1168 234.294 46.5221 233.806 46.8553C233.328 47.1885 232.817 47.4605 232.273 47.6715C231.729 47.8826 231.157 48.038 230.557 48.138C229.969 48.2379 229.369 48.2879 228.758 48.2879C227.703 48.2879 226.715 48.0936 225.793 47.7049C224.882 47.3162 224.088 46.7498 223.411 46.0057C222.745 45.2617 222.217 44.351 221.828 43.2738C221.44 42.1855 221.245 40.9527 221.245 39.5757C221.245 38.3208 221.417 37.1602 221.762 36.0941C222.117 35.028 222.633 34.1118 223.311 33.3455C223.999 32.5681 224.843 31.9629 225.843 31.5298C226.842 31.0856 227.986 30.8634 229.275 30.8634C230.485 30.8634 231.551 31.0578 232.473 31.4465C233.395 31.8352 234.216 32.3849 234.938 33.0956L234.072 34.295ZM241.402 33.2789C242.113 32.557 242.896 31.974 243.751 31.5298C244.617 31.0856 245.611 30.8634 246.733 30.8634C247.666 30.8634 248.482 31.0189 249.182 31.3299C249.892 31.6408 250.486 32.0795 250.964 32.6459C251.442 33.2011 251.802 33.873 252.047 34.6615C252.291 35.45 252.413 36.3218 252.413 37.2768V48.0547H249.148V37.2768C249.148 36.0663 248.871 35.1279 248.315 34.4616C247.76 33.7842 246.91 33.4455 245.767 33.4455C244.934 33.4455 244.151 33.6454 243.418 34.0452C242.696 34.4338 242.024 34.9669 241.402 35.6443V48.0547H238.154V23.4672H241.402V33.2789Z" fill="black"/>
</svg>
