<svg width="89" height="76" viewBox="0 0 89 76" fill="none" xmlns="http://www.w3.org/2000/svg">
<path d="M45 7C45 10.866 41.866 14 38 14C34.134 14 31 10.866 31 7C31 3.13401 34.134 0 38 0C41.866 0 45 3.13401 45 7Z" fill="#292929"/>
<path d="M31 33.5C31 42.0604 24.0604 49 15.5 49C6.93959 49 0 42.0604 0 33.5C0 24.9396 6.93959 18 15.5 18C24.0604 18 31 24.9396 31 33.5Z" fill="#292929"/>
<path d="M89 49.5C89 64.1355 76.9117 76 62 76C47.0883 76 35 64.1355 35 49.5C35 34.8645 47.0883 23 62 23C76.9117 23 89 34.8645 89 49.5Z" fill="#292929"/>
</svg>
