<svg width="245" height="62" viewBox="0 0 245 62" fill="none" xmlns="http://www.w3.org/2000/svg">
<rect x="8" y="7.9718" width="236" height="53" rx="7" fill="black" stroke="black" stroke-width="2"/>
<rect x="1" y="1" width="236" height="53" rx="7" fill="#FFEB33" stroke="black" stroke-width="2"/>
<path d="M50.16 31.1491C50.304 31.1491 50.428 31.2051 50.532 31.3171L51.54 32.4211C50.836 33.2531 49.976 33.8971 48.96 34.3531C47.952 34.8091 46.736 35.0371 45.312 35.0371C44.064 35.0371 42.932 34.8211 41.916 34.3891C40.908 33.9571 40.044 33.3531 39.324 32.5771C38.612 31.8011 38.06 30.8731 37.668 29.7931C37.276 28.7131 37.08 27.5251 37.08 26.2291C37.08 24.9331 37.284 23.7451 37.692 22.6651C38.108 21.5851 38.688 20.6571 39.432 19.8811C40.176 19.1051 41.064 18.5011 42.096 18.0691C43.136 17.6371 44.284 17.4211 45.54 17.4211C46.764 17.4211 47.852 17.6211 48.804 18.0211C49.756 18.4211 50.584 18.9531 51.288 19.6171L50.448 20.8051C50.392 20.8931 50.32 20.9651 50.232 21.0211C50.152 21.0771 50.044 21.1051 49.908 21.1051C49.756 21.1051 49.576 21.0291 49.368 20.8771C49.168 20.7251 48.9 20.5571 48.564 20.3731C48.236 20.1811 47.828 20.0091 47.34 19.8571C46.852 19.7051 46.244 19.6291 45.516 19.6291C44.66 19.6291 43.876 19.7811 43.164 20.0851C42.452 20.3811 41.836 20.8131 41.316 21.3811C40.804 21.9411 40.404 22.6331 40.116 23.4571C39.836 24.2731 39.696 25.1971 39.696 26.2291C39.696 27.2771 39.844 28.2091 40.14 29.0251C40.436 29.8411 40.844 30.5331 41.364 31.1011C41.884 31.6691 42.496 32.1011 43.2 32.3971C43.904 32.6931 44.664 32.8411 45.48 32.8411C45.976 32.8411 46.42 32.8131 46.812 32.7571C47.212 32.6931 47.576 32.6011 47.904 32.4811C48.24 32.3611 48.556 32.2091 48.852 32.0251C49.148 31.8331 49.44 31.6051 49.728 31.3411C49.792 31.2851 49.86 31.2411 49.932 31.2091C50.004 31.1691 50.08 31.1491 50.16 31.1491ZM58.59 22.4611C59.486 22.4611 60.294 22.6091 61.014 22.9051C61.742 23.1931 62.358 23.6131 62.862 24.1651C63.374 24.7091 63.766 25.3691 64.038 26.1451C64.31 26.9131 64.446 27.7771 64.446 28.7371C64.446 29.6971 64.31 30.5651 64.038 31.3411C63.766 32.1171 63.374 32.7771 62.862 33.3211C62.358 33.8651 61.742 34.2851 61.014 34.5811C60.294 34.8691 59.486 35.0131 58.59 35.0131C57.686 35.0131 56.87 34.8691 56.142 34.5811C55.422 34.2851 54.806 33.8651 54.294 33.3211C53.782 32.7771 53.386 32.1171 53.106 31.3411C52.834 30.5651 52.698 29.6971 52.698 28.7371C52.698 27.7771 52.834 26.9131 53.106 26.1451C53.386 25.3691 53.782 24.7091 54.294 24.1651C54.806 23.6131 55.422 23.1931 56.142 22.9051C56.87 22.6091 57.686 22.4611 58.59 22.4611ZM58.59 33.1891C59.742 33.1891 60.602 32.8011 61.17 32.0251C61.738 31.2491 62.022 30.1571 62.022 28.7491C62.022 27.3411 61.738 26.2491 61.17 25.4731C60.602 24.6891 59.742 24.2971 58.59 24.2971C57.422 24.2971 56.55 24.6891 55.974 25.4731C55.406 26.2491 55.122 27.3411 55.122 28.7491C55.122 30.1571 55.406 31.2491 55.974 32.0251C56.55 32.8011 57.422 33.1891 58.59 33.1891ZM69.2541 24.3451C69.5181 24.0651 69.7941 23.8091 70.0821 23.5771C70.3701 23.3451 70.6741 23.1491 70.9941 22.9891C71.3221 22.8211 71.6701 22.6931 72.0381 22.6051C72.4141 22.5091 72.8141 22.4611 73.2381 22.4611C73.9101 22.4611 74.4981 22.5731 75.0021 22.7971C75.5141 23.0211 75.9421 23.3371 76.2861 23.7451C76.6301 24.1451 76.8901 24.6291 77.0661 25.1971C77.2421 25.7651 77.3301 26.3931 77.3301 27.0811V34.8451H74.9781V27.0811C74.9781 26.2091 74.7781 25.5331 74.3781 25.0531C73.9781 24.5651 73.3661 24.3211 72.5421 24.3211C71.9421 24.3211 71.3781 24.4651 70.8501 24.7531C70.3301 25.0331 69.8461 25.4171 69.3981 25.9051V34.8451H67.0581V22.6531H68.4621C68.7901 22.6531 68.9941 22.8091 69.0741 23.1211L69.2541 24.3451ZM82.6838 24.3451C82.9478 24.0651 83.2238 23.8091 83.5118 23.5771C83.7998 23.3451 84.1038 23.1491 84.4238 22.9891C84.7518 22.8211 85.0998 22.6931 85.4678 22.6051C85.8438 22.5091 86.2438 22.4611 86.6678 22.4611C87.3398 22.4611 87.9278 22.5731 88.4318 22.7971C88.9438 23.0211 89.3718 23.3371 89.7158 23.7451C90.0598 24.1451 90.3198 24.6291 90.4958 25.1971C90.6718 25.7651 90.7598 26.3931 90.7598 27.0811V34.8451H88.4078V27.0811C88.4078 26.2091 88.2078 25.5331 87.8078 25.0531C87.4078 24.5651 86.7958 24.3211 85.9718 24.3211C85.3718 24.3211 84.8078 24.4651 84.2798 24.7531C83.7598 25.0331 83.2758 25.4171 82.8278 25.9051V34.8451H80.4878V22.6531H81.8918C82.2198 22.6531 82.4238 22.8091 82.5038 23.1211L82.6838 24.3451ZM101.993 27.3931C101.993 26.9291 101.925 26.5011 101.789 26.1091C101.661 25.7171 101.469 25.3771 101.213 25.0891C100.957 24.8011 100.645 24.5771 100.277 24.4171C99.9094 24.2571 99.4854 24.1771 99.0054 24.1771C98.0214 24.1771 97.2454 24.4611 96.6774 25.0291C96.1174 25.5971 95.7614 26.3851 95.6094 27.3931H101.993ZM103.925 33.1051C103.637 33.4411 103.305 33.7331 102.929 33.9811C102.553 34.2211 102.153 34.4171 101.729 34.5691C101.305 34.7211 100.865 34.8331 100.409 34.9051C99.9614 34.9771 99.5174 35.0131 99.0774 35.0131C98.2374 35.0131 97.4574 34.8731 96.7374 34.5931C96.0254 34.3051 95.4054 33.8891 94.8774 33.3451C94.3574 32.7931 93.9494 32.1131 93.6534 31.3051C93.3654 30.4891 93.2214 29.5531 93.2214 28.4971C93.2214 27.6491 93.3534 26.8611 93.6174 26.1331C93.8814 25.3971 94.2574 24.7571 94.7454 24.2131C95.2414 23.6691 95.8454 23.2411 96.5574 22.9291C97.2694 22.6171 98.0694 22.4611 98.9574 22.4611C99.7014 22.4611 100.385 22.5851 101.009 22.8331C101.641 23.0731 102.185 23.4251 102.641 23.8891C103.097 24.3531 103.453 24.9251 103.709 25.6051C103.973 26.2851 104.105 27.0611 104.105 27.9331C104.105 28.2931 104.065 28.5371 103.985 28.6651C103.905 28.7851 103.757 28.8451 103.541 28.8451H95.5494C95.5734 29.5731 95.6774 30.2091 95.8614 30.7531C96.0454 31.2891 96.2974 31.7371 96.6174 32.0971C96.9454 32.4571 97.3334 32.7251 97.7814 32.9011C98.2294 33.0771 98.7294 33.1651 99.2814 33.1651C99.8014 33.1651 100.249 33.1051 100.625 32.9851C101.009 32.8651 101.337 32.7371 101.609 32.6011C101.889 32.4571 102.121 32.3251 102.305 32.2051C102.497 32.0851 102.665 32.0251 102.809 32.0251C103.001 32.0251 103.149 32.0971 103.253 32.2411L103.925 33.1051ZM115.165 24.9331C115.093 25.0211 115.021 25.0931 114.949 25.1491C114.885 25.1971 114.789 25.2211 114.661 25.2211C114.533 25.2211 114.397 25.1731 114.253 25.0771C114.117 24.9731 113.941 24.8651 113.725 24.7531C113.517 24.6331 113.261 24.5251 112.957 24.4291C112.661 24.3251 112.293 24.2731 111.853 24.2731C111.277 24.2731 110.769 24.3771 110.329 24.5851C109.889 24.7931 109.521 25.0891 109.225 25.4731C108.937 25.8571 108.717 26.3251 108.565 26.8771C108.413 27.4291 108.337 28.0491 108.337 28.7371C108.337 29.4491 108.417 30.0851 108.577 30.6451C108.737 31.1971 108.965 31.6651 109.261 32.0491C109.557 32.4251 109.917 32.7131 110.341 32.9131C110.765 33.1051 111.237 33.2011 111.757 33.2011C112.261 33.2011 112.677 33.1411 113.005 33.0211C113.333 32.8931 113.605 32.7571 113.821 32.6131C114.037 32.4691 114.217 32.3371 114.361 32.2171C114.505 32.0891 114.653 32.0251 114.805 32.0251C114.997 32.0251 115.145 32.0971 115.249 32.2411L115.921 33.1051C115.641 33.4491 115.325 33.7411 114.973 33.9811C114.629 34.2211 114.261 34.4171 113.869 34.5691C113.477 34.7211 113.065 34.8331 112.633 34.9051C112.209 34.9771 111.777 35.0131 111.337 35.0131C110.577 35.0131 109.865 34.8731 109.201 34.5931C108.545 34.3131 107.973 33.9051 107.485 33.3691C107.005 32.8331 106.625 32.1771 106.345 31.4011C106.065 30.6171 105.925 29.7291 105.925 28.7371C105.925 27.8331 106.049 26.9971 106.297 26.2291C106.553 25.4611 106.925 24.8011 107.413 24.2491C107.909 23.6891 108.517 23.2531 109.237 22.9411C109.957 22.6211 110.781 22.4611 111.709 22.4611C112.581 22.4611 113.349 22.6011 114.013 22.8811C114.677 23.1611 115.269 23.5571 115.789 24.0691L115.165 24.9331ZM121.921 35.0371C120.937 35.0371 120.177 34.7611 119.641 34.2091C119.113 33.6571 118.849 32.8691 118.849 31.8451V24.5491H117.433C117.297 24.5491 117.181 24.5091 117.085 24.4291C116.997 24.3411 116.953 24.2131 116.953 24.0451V23.0971L118.933 22.8211L119.461 19.1851C119.493 19.0491 119.553 18.9451 119.641 18.8731C119.737 18.7931 119.857 18.7531 120.001 18.7531H121.189V22.8451H124.645V24.5491H121.189V31.6891C121.189 32.1691 121.305 32.5291 121.537 32.7691C121.777 33.0011 122.081 33.1171 122.449 33.1171C122.665 33.1171 122.849 33.0891 123.001 33.0331C123.161 32.9771 123.297 32.9171 123.409 32.8531C123.521 32.7811 123.617 32.7171 123.697 32.6611C123.777 32.6051 123.849 32.5771 123.913 32.5771C123.993 32.5771 124.053 32.5971 124.093 32.6371C124.141 32.6691 124.189 32.7251 124.237 32.8051L124.933 33.9331C124.549 34.2851 124.093 34.5571 123.565 34.7491C123.037 34.9411 122.489 35.0371 121.921 35.0371ZM155.569 17.6131L150.193 34.8451H147.889L143.689 22.0651C143.593 21.8091 143.509 21.5011 143.437 21.1411C143.349 21.5091 143.265 21.8171 143.185 22.0651L138.937 34.8451H136.645L131.269 17.6131H133.405C133.629 17.6131 133.817 17.6691 133.969 17.7811C134.121 17.8851 134.221 18.0291 134.269 18.2131L137.665 29.7451C137.729 29.9691 137.785 30.2131 137.833 30.4771C137.889 30.7411 137.945 31.0171 138.001 31.3051C138.057 31.0171 138.113 30.7411 138.169 30.4771C138.233 30.2131 138.305 29.9691 138.385 29.7451L142.273 18.2131C142.321 18.0531 142.421 17.9131 142.573 17.7931C142.733 17.6731 142.921 17.6131 143.137 17.6131H143.869C144.093 17.6131 144.277 17.6691 144.421 17.7811C144.565 17.8931 144.669 18.0371 144.733 18.2131L148.609 29.7451C148.753 30.1851 148.881 30.6851 148.993 31.2451C149.089 30.6931 149.193 30.1931 149.305 29.7451L152.713 18.2131C152.753 18.0531 152.853 17.9131 153.013 17.7931C153.173 17.6731 153.361 17.6131 153.577 17.6131H155.569ZM162.696 29.4331C161.744 29.4651 160.936 29.5411 160.272 29.6611C159.608 29.7731 159.068 29.9251 158.652 30.1171C158.236 30.3091 157.936 30.5371 157.752 30.8011C157.568 31.0571 157.476 31.3451 157.476 31.6651C157.476 31.9691 157.524 32.2331 157.62 32.4571C157.724 32.6731 157.86 32.8531 158.028 32.9971C158.204 33.1331 158.408 33.2331 158.64 33.2971C158.872 33.3611 159.124 33.3931 159.396 33.3931C159.756 33.3931 160.084 33.3571 160.38 33.2851C160.684 33.2131 160.968 33.1131 161.232 32.9851C161.496 32.8491 161.748 32.6851 161.988 32.4931C162.228 32.3011 162.464 32.0811 162.696 31.8331V29.4331ZM155.832 24.3571C156.512 23.7091 157.248 23.2251 158.04 22.9051C158.84 22.5851 159.716 22.4251 160.668 22.4251C161.364 22.4251 161.98 22.5411 162.516 22.7731C163.052 22.9971 163.504 23.3131 163.872 23.7211C164.24 24.1291 164.516 24.6171 164.7 25.1851C164.892 25.7531 164.988 26.3811 164.988 27.0691V34.8451H163.944C163.712 34.8451 163.536 34.8091 163.416 34.7371C163.296 34.6571 163.2 34.5131 163.128 34.3051L162.876 33.2371C162.564 33.5251 162.256 33.7811 161.952 34.0051C161.648 34.2211 161.328 34.4091 160.992 34.5691C160.664 34.7211 160.312 34.8371 159.936 34.9171C159.56 34.9971 159.144 35.0371 158.688 35.0371C158.208 35.0371 157.756 34.9731 157.332 34.8451C156.916 34.7091 156.552 34.5051 156.24 34.2331C155.928 33.9611 155.68 33.6211 155.496 33.2131C155.32 32.8051 155.232 32.3291 155.232 31.7851C155.232 31.3051 155.36 30.8451 155.616 30.4051C155.88 29.9571 156.304 29.5571 156.888 29.2051C157.48 28.8531 158.248 28.5651 159.192 28.3411C160.144 28.1171 161.312 27.9891 162.696 27.9571V27.0691C162.696 26.1491 162.5 25.4611 162.108 25.0051C161.716 24.5491 161.14 24.3211 160.38 24.3211C159.868 24.3211 159.436 24.3851 159.084 24.5131C158.74 24.6411 158.44 24.7851 158.184 24.9451C157.936 25.0971 157.716 25.2371 157.524 25.3651C157.34 25.4931 157.148 25.5571 156.948 25.5571C156.788 25.5571 156.648 25.5131 156.528 25.4251C156.416 25.3371 156.324 25.2331 156.252 25.1131L155.832 24.3571ZM170.521 17.1331V34.8451H168.169V17.1331H170.521ZM176.263 17.1331V34.8451H173.911V17.1331H176.263ZM187.681 27.3931C187.681 26.9291 187.613 26.5011 187.477 26.1091C187.349 25.7171 187.157 25.3771 186.901 25.0891C186.645 24.8011 186.333 24.5771 185.965 24.4171C185.597 24.2571 185.173 24.1771 184.693 24.1771C183.709 24.1771 182.933 24.4611 182.365 25.0291C181.805 25.5971 181.449 26.3851 181.297 27.3931H187.681ZM189.613 33.1051C189.325 33.4411 188.993 33.7331 188.617 33.9811C188.241 34.2211 187.841 34.4171 187.417 34.5691C186.993 34.7211 186.553 34.8331 186.097 34.9051C185.649 34.9771 185.205 35.0131 184.765 35.0131C183.925 35.0131 183.145 34.8731 182.425 34.5931C181.713 34.3051 181.093 33.8891 180.565 33.3451C180.045 32.7931 179.637 32.1131 179.341 31.3051C179.053 30.4891 178.909 29.5531 178.909 28.4971C178.909 27.6491 179.041 26.8611 179.305 26.1331C179.569 25.3971 179.945 24.7571 180.433 24.2131C180.929 23.6691 181.533 23.2411 182.245 22.9291C182.957 22.6171 183.757 22.4611 184.645 22.4611C185.389 22.4611 186.073 22.5851 186.697 22.8331C187.329 23.0731 187.873 23.4251 188.329 23.8891C188.785 24.3531 189.141 24.9251 189.397 25.6051C189.661 26.2851 189.793 27.0611 189.793 27.9331C189.793 28.2931 189.753 28.5371 189.673 28.6651C189.593 28.7851 189.445 28.8451 189.229 28.8451H181.237C181.261 29.5731 181.365 30.2091 181.549 30.7531C181.733 31.2891 181.985 31.7371 182.305 32.0971C182.633 32.4571 183.021 32.7251 183.469 32.9011C183.917 33.0771 184.417 33.1651 184.969 33.1651C185.489 33.1651 185.937 33.1051 186.313 32.9851C186.697 32.8651 187.025 32.7371 187.297 32.6011C187.577 32.4571 187.809 32.3251 187.993 32.2051C188.185 32.0851 188.353 32.0251 188.497 32.0251C188.689 32.0251 188.837 32.0971 188.941 32.2411L189.613 33.1051ZM196.03 35.0371C195.046 35.0371 194.286 34.7611 193.75 34.2091C193.222 33.6571 192.958 32.8691 192.958 31.8451V24.5491H191.542C191.406 24.5491 191.29 24.5091 191.194 24.4291C191.106 24.3411 191.062 24.2131 191.062 24.0451V23.0971L193.042 22.8211L193.57 19.1851C193.602 19.0491 193.662 18.9451 193.75 18.8731C193.846 18.7931 193.966 18.7531 194.11 18.7531H195.298V22.8451H198.754V24.5491H195.298V31.6891C195.298 32.1691 195.414 32.5291 195.646 32.7691C195.886 33.0011 196.19 33.1171 196.558 33.1171C196.774 33.1171 196.958 33.0891 197.11 33.0331C197.27 32.9771 197.406 32.9171 197.518 32.8531C197.63 32.7811 197.726 32.7171 197.806 32.6611C197.886 32.6051 197.958 32.5771 198.022 32.5771C198.102 32.5771 198.162 32.5971 198.202 32.6371C198.25 32.6691 198.298 32.7251 198.346 32.8051L199.042 33.9331C198.658 34.2851 198.202 34.5571 197.674 34.7491C197.146 34.9411 196.598 35.0371 196.03 35.0371Z" fill="black"/>
</svg>
