<svg width="331" height="77" viewBox="0 0 331 77" fill="none" xmlns="http://www.w3.org/2000/svg">
<rect x="1.38818" y="1.38818" width="327.611" height="73.5736" rx="9.71727" fill="#FFEB33" stroke="black" stroke-width="2.77636"/>
<path d="M69.6313 42.9242C69.8312 42.9242 70.0033 43.0019 70.1477 43.1574L71.547 44.69C70.5697 45.8449 69.3758 46.7389 67.9654 47.3719C66.5662 48.005 64.8781 48.3215 62.9014 48.3215C61.1689 48.3215 59.5975 48.0216 58.1871 47.4219C56.7878 46.8222 55.5884 45.9838 54.5889 44.9065C53.6005 43.8293 52.8343 42.5411 52.2901 41.0418C51.7459 39.5426 51.4738 37.8934 51.4738 36.0944C51.4738 34.2953 51.757 32.6461 52.3234 31.1469C52.9009 29.6476 53.706 28.3594 54.7388 27.2822C55.7717 26.2049 57.0044 25.3665 58.437 24.7668C59.8807 24.1671 61.4743 23.8673 63.2179 23.8673C64.917 23.8673 66.4273 24.1449 67.7489 24.7002C69.0704 25.2554 70.2199 25.9939 71.1971 26.9157L70.0311 28.5649C69.9533 28.687 69.8534 28.787 69.7312 28.8647C69.6202 28.9424 69.4702 28.9813 69.2814 28.9813C69.0704 28.9813 68.8206 28.8758 68.5318 28.6648C68.2542 28.4538 67.8822 28.2206 67.4157 27.9652C66.9604 27.6986 66.394 27.4599 65.7166 27.2489C65.0392 27.0379 64.1951 26.9324 63.1845 26.9324C61.9963 26.9324 60.9079 27.1434 59.9195 27.5654C58.9312 27.9763 58.076 28.576 57.3542 29.3644C56.6434 30.1418 56.0882 31.1025 55.6884 32.2463C55.2997 33.3791 55.1053 34.6618 55.1053 36.0944C55.1053 37.5492 55.3108 38.843 55.7217 39.9757C56.1326 41.1085 56.699 42.0691 57.4208 42.8576C58.1427 43.6461 58.9922 44.2458 59.9695 44.6567C60.9468 45.0676 62.0018 45.273 63.1346 45.273C63.8231 45.273 64.4395 45.2341 64.9836 45.1564C65.5389 45.0676 66.0442 44.9399 66.4995 44.7733C66.966 44.6067 67.4046 44.3957 67.8155 44.1403C68.2264 43.8737 68.6318 43.5572 69.0316 43.1907C69.1204 43.113 69.2148 43.0519 69.3148 43.0075C69.4147 42.952 69.5202 42.9242 69.6313 42.9242ZM81.3336 30.8637C82.5774 30.8637 83.6991 31.0691 84.6986 31.48C85.7092 31.8798 86.5643 32.4629 87.264 33.2291C87.9747 33.9843 88.5189 34.9005 88.8965 35.9777C89.274 37.0439 89.4628 38.2433 89.4628 39.5759C89.4628 40.9086 89.274 42.1135 88.8965 43.1907C88.5189 44.268 87.9747 45.1842 87.264 45.9393C86.5643 46.6945 85.7092 47.2775 84.6986 47.6885C83.6991 48.0882 82.5774 48.2881 81.3336 48.2881C80.0787 48.2881 78.946 48.0882 77.9354 47.6885C76.9359 47.2775 76.0808 46.6945 75.37 45.9393C74.6593 45.1842 74.1095 44.268 73.7208 43.1907C73.3433 42.1135 73.1545 40.9086 73.1545 39.5759C73.1545 38.2433 73.3433 37.0439 73.7208 35.9777C74.1095 34.9005 74.6593 33.9843 75.37 33.2291C76.0808 32.4629 76.9359 31.8798 77.9354 31.48C78.946 31.0691 80.0787 30.8637 81.3336 30.8637ZM81.3336 45.7561C82.9328 45.7561 84.1267 45.2175 84.9151 44.1403C85.7036 43.063 86.0979 41.5471 86.0979 39.5926C86.0979 37.638 85.7036 36.1221 84.9151 35.0449C84.1267 33.9566 82.9328 33.4124 81.3336 33.4124C79.7122 33.4124 78.5017 33.9566 77.7022 35.0449C76.9137 36.1221 76.5194 37.638 76.5194 39.5926C76.5194 41.5471 76.9137 43.063 77.7022 44.1403C78.5017 45.2175 79.7122 45.7561 81.3336 45.7561ZM96.1373 33.479C96.5038 33.0903 96.8869 32.735 97.2867 32.4129C97.6865 32.0908 98.1085 31.8188 98.5527 31.5966C99.0081 31.3634 99.4911 31.1857 100.002 31.0636C100.524 30.9303 101.079 30.8637 101.668 30.8637C102.601 30.8637 103.417 31.0192 104.117 31.3301C104.827 31.6411 105.421 32.0797 105.899 32.6461C106.377 33.2014 106.737 33.8733 106.982 34.6618C107.226 35.4502 107.348 36.322 107.348 37.2771V48.0549H104.083V37.2771C104.083 36.0666 103.806 35.1282 103.25 34.4619C102.695 33.7844 101.846 33.4457 100.702 33.4457C99.8687 33.4457 99.0858 33.6456 98.3528 34.0454C97.631 34.4341 96.9591 34.9672 96.3372 35.6446V48.0549H93.0888V31.1302H95.0379C95.4932 31.1302 95.7764 31.3468 95.8874 31.7799L96.1373 33.479ZM114.78 33.479C115.147 33.0903 115.53 32.735 115.93 32.4129C116.329 32.0908 116.751 31.8188 117.196 31.5966C117.651 31.3634 118.134 31.1857 118.645 31.0636C119.167 30.9303 119.722 30.8637 120.311 30.8637C121.244 30.8637 122.06 31.0192 122.759 31.3301C123.47 31.6411 124.064 32.0797 124.542 32.6461C125.019 33.2014 125.38 33.8733 125.625 34.6618C125.869 35.4502 125.991 36.322 125.991 37.2771V48.0549H122.726V37.2771C122.726 36.0666 122.448 35.1282 121.893 34.4619C121.338 33.7844 120.488 33.4457 119.344 33.4457C118.512 33.4457 117.729 33.6456 116.996 34.0454C116.274 34.4341 115.602 34.9672 114.98 35.6446V48.0549H111.732V31.1302H113.681C114.136 31.1302 114.419 31.3468 114.53 31.7799L114.78 33.479ZM141.586 37.7102C141.586 37.0661 141.491 36.4719 141.302 35.9278C141.125 35.3836 140.858 34.9116 140.503 34.5118C140.147 34.112 139.714 33.8011 139.203 33.579C138.693 33.3569 138.104 33.2458 137.438 33.2458C136.072 33.2458 134.994 33.6401 134.206 34.4285C133.429 35.217 132.934 36.3109 132.723 37.7102H141.586ZM144.267 45.6395C143.868 46.1059 143.407 46.5113 142.885 46.8555C142.363 47.1887 141.808 47.4608 141.219 47.6718C140.63 47.8828 140.02 48.0383 139.387 48.1382C138.765 48.2382 138.148 48.2881 137.538 48.2881C136.371 48.2881 135.289 48.0938 134.289 47.7051C133.301 47.3053 132.44 46.7278 131.707 45.9727C130.985 45.2064 130.419 44.2624 130.008 43.1408C129.608 42.008 129.408 40.7087 129.408 39.2428C129.408 38.0656 129.592 36.9717 129.958 35.9611C130.325 34.9394 130.847 34.051 131.524 33.2958C132.213 32.5406 133.051 31.9465 134.039 31.5134C135.028 31.0802 136.138 30.8637 137.371 30.8637C138.404 30.8637 139.353 31.0358 140.22 31.3801C141.097 31.7133 141.852 32.2019 142.485 32.846C143.118 33.4901 143.612 34.2842 143.968 35.2281C144.334 36.1721 144.517 37.2493 144.517 38.4598C144.517 38.9596 144.462 39.2983 144.351 39.476C144.24 39.6425 144.034 39.7258 143.734 39.7258H132.64C132.673 40.7364 132.818 41.6193 133.073 42.3745C133.329 43.1186 133.678 43.7405 134.123 44.2402C134.578 44.74 135.117 45.112 135.738 45.3563C136.36 45.6006 137.054 45.7228 137.821 45.7228C138.543 45.7228 139.165 45.6395 139.686 45.4729C140.22 45.3063 140.675 45.1286 141.052 44.9399C141.441 44.74 141.763 44.5567 142.019 44.3901C142.285 44.2235 142.518 44.1403 142.718 44.1403C142.985 44.1403 143.19 44.2402 143.335 44.4401L144.267 45.6395ZM159.869 34.2953C159.769 34.4174 159.67 34.5174 159.57 34.5951C159.481 34.6618 159.347 34.6951 159.17 34.6951C158.992 34.6951 158.803 34.6284 158.603 34.4952C158.415 34.3508 158.17 34.2009 157.87 34.0454C157.582 33.8788 157.226 33.7289 156.804 33.5956C156.393 33.4513 155.883 33.3791 155.272 33.3791C154.472 33.3791 153.767 33.5234 153.156 33.8122C152.545 34.1009 152.035 34.5118 151.624 35.0449C151.224 35.578 150.918 36.2276 150.707 36.9939C150.496 37.7602 150.391 38.6208 150.391 39.5759C150.391 40.5643 150.502 41.4472 150.724 42.2246C150.946 42.9908 151.263 43.6405 151.674 44.1736C152.084 44.6955 152.584 45.0953 153.173 45.373C153.761 45.6395 154.417 45.7728 155.138 45.7728C155.838 45.7728 156.416 45.6895 156.871 45.5229C157.326 45.3452 157.704 45.1564 158.004 44.9565C158.304 44.7566 158.553 44.5734 158.753 44.4068C158.953 44.2291 159.159 44.1403 159.37 44.1403C159.636 44.1403 159.842 44.2402 159.986 44.4401L160.919 45.6395C160.53 46.117 160.092 46.5224 159.603 46.8555C159.125 47.1887 158.615 47.4608 158.07 47.6718C157.526 47.8828 156.954 48.0383 156.355 48.1382C155.766 48.2382 155.166 48.2881 154.555 48.2881C153.5 48.2881 152.512 48.0938 151.59 47.7051C150.68 47.3164 149.886 46.75 149.208 46.006C148.542 45.2619 148.014 44.3513 147.626 43.274C147.237 42.1857 147.043 40.953 147.043 39.5759C147.043 38.321 147.215 37.1605 147.559 36.0944C147.914 35.0282 148.431 34.112 149.108 33.3458C149.797 32.5684 150.641 31.9631 151.64 31.53C152.64 31.0858 153.784 30.8637 155.072 30.8637C156.282 30.8637 157.348 31.058 158.27 31.4467C159.192 31.8354 160.014 32.3851 160.736 33.0959L159.869 34.2953ZM169.248 48.3215C167.883 48.3215 166.828 47.9383 166.083 47.172C165.35 46.4058 164.984 45.3119 164.984 43.8904V33.7622H163.018C162.83 33.7622 162.669 33.7067 162.535 33.5956C162.413 33.4735 162.352 33.2958 162.352 33.0626V31.7466L165.101 31.3634L165.834 26.316C165.878 26.1272 165.961 25.9828 166.083 25.8829C166.217 25.7718 166.383 25.7163 166.583 25.7163H168.232V31.3967H173.03V33.7622H168.232V43.6738C168.232 44.3402 168.393 44.8399 168.715 45.1731C169.049 45.4951 169.471 45.6562 169.981 45.6562C170.281 45.6562 170.537 45.6173 170.748 45.5395C170.97 45.4618 171.159 45.3785 171.314 45.2897C171.47 45.1897 171.603 45.1009 171.714 45.0231C171.825 44.9454 171.925 44.9065 172.014 44.9065C172.125 44.9065 172.208 44.9343 172.264 44.9898C172.33 45.0342 172.397 45.112 172.464 45.223L173.43 46.7889C172.897 47.2775 172.264 47.6551 171.531 47.9217C170.798 48.1882 170.037 48.3215 169.248 48.3215ZM215.959 24.1338L208.496 48.0549H205.297L199.467 30.314C199.334 29.9586 199.217 29.531 199.117 29.0313C198.995 29.5421 198.878 29.9697 198.767 30.314L192.87 48.0549H189.689L182.226 24.1338H185.191C185.502 24.1338 185.763 24.2115 185.974 24.367C186.185 24.5114 186.324 24.7113 186.39 24.9667L191.105 40.9752C191.193 41.2862 191.271 41.6249 191.338 41.9914C191.416 42.3578 191.493 42.741 191.571 43.1408C191.649 42.741 191.726 42.3578 191.804 41.9914C191.893 41.6249 191.993 41.2862 192.104 40.9752L197.501 24.9667C197.568 24.7446 197.707 24.5502 197.918 24.3837C198.14 24.2171 198.401 24.1338 198.701 24.1338H199.717C200.028 24.1338 200.283 24.2115 200.483 24.367C200.683 24.5225 200.827 24.7224 200.916 24.9667L206.297 40.9752C206.497 41.586 206.674 42.2801 206.83 43.0575C206.963 42.2912 207.108 41.5971 207.263 40.9752L211.994 24.9667C212.049 24.7446 212.188 24.5502 212.41 24.3837C212.632 24.2171 212.893 24.1338 213.193 24.1338H215.959ZM225.852 40.5421C224.53 40.5865 223.408 40.692 222.487 40.8586C221.565 41.0141 220.815 41.2251 220.238 41.4916C219.66 41.7581 219.244 42.0746 218.989 42.4411C218.733 42.7965 218.605 43.1963 218.605 43.6405C218.605 44.0625 218.672 44.429 218.805 44.74C218.95 45.0398 219.138 45.2897 219.372 45.4896C219.616 45.6784 219.899 45.8172 220.221 45.906C220.543 45.9949 220.893 46.0393 221.271 46.0393C221.77 46.0393 222.226 45.9893 222.637 45.8894C223.059 45.7894 223.453 45.6506 223.819 45.4729C224.186 45.2841 224.536 45.0565 224.869 44.7899C225.202 44.5234 225.53 44.218 225.852 43.8737V40.5421ZM216.323 33.4957C217.267 32.5961 218.289 31.9243 219.388 31.48C220.499 31.0358 221.715 30.8137 223.036 30.8137C224.003 30.8137 224.858 30.9747 225.602 31.2968C226.346 31.6078 226.973 32.0464 227.484 32.6128C227.995 33.1792 228.378 33.8566 228.634 34.6451C228.9 35.4336 229.033 36.3054 229.033 37.2604V48.0549H227.584C227.262 48.0549 227.018 48.005 226.851 47.905C226.685 47.794 226.551 47.5941 226.451 47.3053L226.102 45.8227C225.668 46.2225 225.241 46.5779 224.819 46.8889C224.397 47.1887 223.953 47.4497 223.486 47.6718C223.031 47.8828 222.542 48.0438 222.02 48.1549C221.498 48.2659 220.921 48.3215 220.288 48.3215C219.622 48.3215 218.994 48.2326 218.405 48.0549C217.828 47.8661 217.323 47.5829 216.89 47.2054C216.456 46.8278 216.112 46.3558 215.857 45.7894C215.612 45.223 215.49 44.5623 215.49 43.8071C215.49 43.1408 215.668 42.5022 216.023 41.8914C216.39 41.2695 216.978 40.7142 217.789 40.2256C218.611 39.7369 219.677 39.3371 220.988 39.0262C222.309 38.7152 223.93 38.5376 225.852 38.4931V37.2604C225.852 35.9833 225.58 35.0282 225.035 34.3952C224.491 33.7622 223.692 33.4457 222.637 33.4457C221.926 33.4457 221.326 33.5345 220.838 33.7122C220.36 33.8899 219.944 34.0898 219.588 34.3119C219.244 34.5229 218.939 34.7173 218.672 34.895C218.417 35.0727 218.15 35.1615 217.872 35.1615C217.65 35.1615 217.456 35.1004 217.289 34.9783C217.134 34.8561 217.006 34.7117 216.906 34.5451L216.323 33.4957ZM236.714 23.4675V48.0549H233.449V23.4675H236.714ZM244.685 23.4675V48.0549H241.42V23.4675H244.685ZM260.535 37.7102C260.535 37.0661 260.441 36.4719 260.252 35.9278C260.074 35.3836 259.808 34.9116 259.453 34.5118C259.097 34.112 258.664 33.8011 258.153 33.579C257.642 33.3569 257.054 33.2458 256.387 33.2458C255.021 33.2458 253.944 33.6401 253.156 34.4285C252.378 35.217 251.884 36.3109 251.673 37.7102H260.535ZM263.217 45.6395C262.818 46.1059 262.357 46.5113 261.835 46.8555C261.313 47.1887 260.757 47.4608 260.169 47.6718C259.58 47.8828 258.969 48.0383 258.336 48.1382C257.715 48.2382 257.098 48.2881 256.487 48.2881C255.321 48.2881 254.239 48.0938 253.239 47.7051C252.251 47.3053 251.39 46.7278 250.657 45.9727C249.935 45.2064 249.369 44.2624 248.958 43.1408C248.558 42.008 248.358 40.7087 248.358 39.2428C248.358 38.0656 248.541 36.9717 248.908 35.9611C249.274 34.9394 249.796 34.051 250.474 33.2958C251.162 32.5406 252.001 31.9465 252.989 31.5134C253.978 31.0802 255.088 30.8637 256.321 30.8637C257.354 30.8637 258.303 31.0358 259.169 31.3801C260.047 31.7133 260.802 32.2019 261.435 32.846C262.068 33.4901 262.562 34.2842 262.917 35.2281C263.284 36.1721 263.467 37.2493 263.467 38.4598C263.467 38.9596 263.412 39.2983 263.301 39.476C263.19 39.6425 262.984 39.7258 262.684 39.7258H251.59C251.623 40.7364 251.768 41.6193 252.023 42.3745C252.278 43.1186 252.628 43.7405 253.072 44.2402C253.528 44.74 254.066 45.112 254.688 45.3563C255.31 45.6006 256.004 45.7228 256.771 45.7228C257.492 45.7228 258.114 45.6395 258.636 45.4729C259.169 45.3063 259.625 45.1286 260.002 44.9399C260.391 44.74 260.713 44.5567 260.968 44.3901C261.235 44.2235 261.468 44.1403 261.668 44.1403C261.935 44.1403 262.14 44.2402 262.284 44.4401L263.217 45.6395ZM272.126 48.3215C270.76 48.3215 269.705 47.9383 268.961 47.172C268.228 46.4058 267.861 45.3119 267.861 43.8904V33.7622H265.896C265.707 33.7622 265.546 33.7067 265.413 33.5956C265.29 33.4735 265.229 33.2958 265.229 33.0626V31.7466L267.978 31.3634L268.711 26.316C268.755 26.1272 268.839 25.9828 268.961 25.8829C269.094 25.7718 269.261 25.7163 269.46 25.7163H271.11V31.3967H275.907V33.7622H271.11V43.6738C271.11 44.3402 271.271 44.8399 271.593 45.1731C271.926 45.4951 272.348 45.6562 272.859 45.6562C273.159 45.6562 273.414 45.6173 273.625 45.5395C273.847 45.4618 274.036 45.3785 274.191 45.2897C274.347 45.1897 274.48 45.1009 274.591 45.0231C274.702 44.9454 274.802 44.9065 274.891 44.9065C275.002 44.9065 275.085 44.9343 275.141 44.9898C275.208 45.0342 275.274 45.112 275.341 45.223L276.307 46.7889C275.774 47.2775 275.141 47.6551 274.408 47.9217C273.675 48.1882 272.914 48.3215 272.126 48.3215Z" fill="black"/>
</svg>
