<svg width="331" height="77" viewBox="0 0 331 77" fill="none" xmlns="http://www.w3.org/2000/svg">
<rect x="1.38818" y="1.38818" width="327.611" height="73.5736" rx="9.71727" fill="#FFEB33" stroke="black" stroke-width="2.77636"/>
<path d="M46.269 46.405L46.254 49H32.904V27.46H46.254V30.055H36.114V36.88H44.274V39.385H36.114V46.405H46.269ZM62.3985 49H59.5785C59.3485 49 59.1635 48.94 59.0235 48.82C58.8935 48.69 58.7885 48.555 58.7085 48.415L55.0335 42.61C54.9835 42.76 54.9335 42.905 54.8835 43.045C54.8335 43.185 54.7685 43.315 54.6885 43.435L51.3135 48.415C51.2135 48.555 51.0985 48.69 50.9685 48.82C50.8385 48.94 50.6685 49 50.4585 49H47.8485L53.1585 41.155L48.0585 33.76H50.8785C51.1085 33.76 51.2735 33.795 51.3735 33.865C51.4835 33.935 51.5785 34.04 51.6585 34.18L55.2735 39.745C55.3235 39.595 55.3785 39.45 55.4385 39.31C55.4985 39.16 55.5785 39.005 55.6785 38.845L58.7835 34.24C58.9635 33.92 59.2035 33.76 59.5035 33.76H62.1885L57.0885 41.02L62.3985 49ZM67.6607 45.25C68.1407 45.88 68.6557 46.32 69.2057 46.57C69.7657 46.82 70.3907 46.945 71.0807 46.945C72.4207 46.945 73.4557 46.465 74.1857 45.505C74.9257 44.535 75.2957 43.125 75.2957 41.275C75.2957 40.305 75.2107 39.48 75.0407 38.8C74.8807 38.11 74.6407 37.55 74.3207 37.12C74.0107 36.68 73.6257 36.36 73.1657 36.16C72.7057 35.95 72.1857 35.845 71.6057 35.845C70.7557 35.845 70.0157 36.035 69.3857 36.415C68.7657 36.795 68.1907 37.335 67.6607 38.035V45.25ZM67.5107 36.04C67.8307 35.66 68.1707 35.315 68.5307 35.005C68.9007 34.685 69.2957 34.415 69.7157 34.195C70.1357 33.965 70.5807 33.79 71.0507 33.67C71.5307 33.54 72.0407 33.475 72.5807 33.475C73.4507 33.475 74.2357 33.645 74.9357 33.985C75.6457 34.325 76.2507 34.825 76.7507 35.485C77.2507 36.145 77.6357 36.96 77.9057 37.93C78.1857 38.9 78.3257 40.015 78.3257 41.275C78.3257 42.405 78.1707 43.455 77.8607 44.425C77.5607 45.385 77.1257 46.22 76.5557 46.93C75.9957 47.64 75.3057 48.2 74.4857 48.61C73.6757 49.01 72.7607 49.21 71.7407 49.21C70.8307 49.21 70.0507 49.06 69.4007 48.76C68.7507 48.46 68.1707 48.04 67.6607 47.5V54.115H64.7357V33.76H66.4907C66.9007 33.76 67.1557 33.955 67.2557 34.345L67.5107 36.04ZM84.6107 26.86V49H81.6707V26.86H84.6107ZM95.2834 33.52C96.4034 33.52 97.4134 33.705 98.3134 34.075C99.2234 34.435 99.9934 34.96 100.623 35.65C101.263 36.33 101.753 37.155 102.093 38.125C102.433 39.085 102.603 40.165 102.603 41.365C102.603 42.565 102.433 43.65 102.093 44.62C101.753 45.59 101.263 46.415 100.623 47.095C99.9934 47.775 99.2234 48.3 98.3134 48.67C97.4134 49.03 96.4034 49.21 95.2834 49.21C94.1534 49.21 93.1334 49.03 92.2234 48.67C91.3234 48.3 90.5534 47.775 89.9134 47.095C89.2734 46.415 88.7784 45.59 88.4284 44.62C88.0884 43.65 87.9184 42.565 87.9184 41.365C87.9184 40.165 88.0884 39.085 88.4284 38.125C88.7784 37.155 89.2734 36.33 89.9134 35.65C90.5534 34.96 91.3234 34.435 92.2234 34.075C93.1334 33.705 94.1534 33.52 95.2834 33.52ZM95.2834 46.93C96.7234 46.93 97.7984 46.445 98.5084 45.475C99.2184 44.505 99.5734 43.14 99.5734 41.38C99.5734 39.62 99.2184 38.255 98.5084 37.285C97.7984 36.305 96.7234 35.815 95.2834 35.815C93.8234 35.815 92.7334 36.305 92.0134 37.285C91.3034 38.255 90.9484 39.62 90.9484 41.38C90.9484 43.14 91.3034 44.505 92.0134 45.475C92.7334 46.445 93.8234 46.93 95.2834 46.93ZM108.628 36.685C109.118 35.685 109.708 34.9 110.398 34.33C111.088 33.76 111.918 33.475 112.888 33.475C113.218 33.475 113.528 33.515 113.818 33.595C114.118 33.665 114.378 33.775 114.598 33.925L114.403 36.13C114.333 36.4 114.168 36.535 113.908 36.535C113.768 36.535 113.558 36.51 113.278 36.46C112.998 36.4 112.698 36.37 112.378 36.37C111.908 36.37 111.493 36.44 111.133 36.58C110.773 36.71 110.448 36.91 110.158 37.18C109.878 37.44 109.628 37.765 109.408 38.155C109.188 38.535 108.983 38.97 108.793 39.46V49H105.868V33.76H107.548C107.868 33.76 108.083 33.82 108.193 33.94C108.313 34.05 108.398 34.25 108.448 34.54L108.628 36.685ZM126.393 39.685C126.393 39.105 126.308 38.57 126.138 38.08C125.978 37.59 125.738 37.165 125.418 36.805C125.098 36.445 124.708 36.165 124.248 35.965C123.788 35.765 123.258 35.665 122.658 35.665C121.428 35.665 120.458 36.02 119.748 36.73C119.048 37.44 118.603 38.425 118.413 39.685H126.393ZM128.808 46.825C128.448 47.245 128.033 47.61 127.563 47.92C127.093 48.22 126.593 48.465 126.063 48.655C125.533 48.845 124.983 48.985 124.413 49.075C123.853 49.165 123.298 49.21 122.748 49.21C121.698 49.21 120.723 49.035 119.823 48.685C118.933 48.325 118.158 47.805 117.498 47.125C116.848 46.435 116.338 45.585 115.968 44.575C115.608 43.555 115.428 42.385 115.428 41.065C115.428 40.005 115.593 39.02 115.923 38.11C116.253 37.19 116.723 36.39 117.333 35.71C117.953 35.03 118.708 34.495 119.598 34.105C120.488 33.715 121.488 33.52 122.598 33.52C123.528 33.52 124.383 33.675 125.163 33.985C125.953 34.285 126.633 34.725 127.203 35.305C127.773 35.885 128.218 36.6 128.538 37.45C128.868 38.3 129.033 39.27 129.033 40.36C129.033 40.81 128.983 41.115 128.883 41.275C128.783 41.425 128.598 41.5 128.328 41.5H118.338C118.368 42.41 118.498 43.205 118.728 43.885C118.958 44.555 119.273 45.115 119.673 45.565C120.083 46.015 120.568 46.35 121.128 46.57C121.688 46.79 122.313 46.9 123.003 46.9C123.653 46.9 124.213 46.825 124.683 46.675C125.163 46.525 125.573 46.365 125.913 46.195C126.263 46.015 126.553 45.85 126.783 45.7C127.023 45.55 127.233 45.475 127.413 45.475C127.653 45.475 127.838 45.565 127.968 45.745L128.808 46.825ZM152.695 46.315V49H140.365V27.46H143.56V46.315H152.695ZM163.394 42.235C162.204 42.275 161.194 42.37 160.364 42.52C159.534 42.66 158.859 42.85 158.339 43.09C157.819 43.33 157.444 43.615 157.214 43.945C156.984 44.265 156.869 44.625 156.869 45.025C156.869 45.405 156.929 45.735 157.049 46.015C157.179 46.285 157.349 46.51 157.559 46.69C157.779 46.86 158.034 46.985 158.324 47.065C158.614 47.145 158.929 47.185 159.269 47.185C159.719 47.185 160.129 47.14 160.499 47.05C160.879 46.96 161.234 46.835 161.564 46.675C161.894 46.505 162.209 46.3 162.509 46.06C162.809 45.82 163.104 45.545 163.394 45.235V42.235ZM154.814 35.89C155.664 35.08 156.584 34.475 157.574 34.075C158.574 33.675 159.669 33.475 160.859 33.475C161.729 33.475 162.499 33.62 163.169 33.91C163.839 34.19 164.404 34.585 164.864 35.095C165.324 35.605 165.669 36.215 165.899 36.925C166.139 37.635 166.259 38.42 166.259 39.28V49H164.954C164.664 49 164.444 48.955 164.294 48.865C164.144 48.765 164.024 48.585 163.934 48.325L163.619 46.99C163.229 47.35 162.844 47.67 162.464 47.95C162.084 48.22 161.684 48.455 161.264 48.655C160.854 48.845 160.414 48.99 159.944 49.09C159.474 49.19 158.954 49.24 158.384 49.24C157.784 49.24 157.219 49.16 156.689 49C156.169 48.83 155.714 48.575 155.324 48.235C154.934 47.895 154.624 47.47 154.394 46.96C154.174 46.45 154.064 45.855 154.064 45.175C154.064 44.575 154.224 44 154.544 43.45C154.874 42.89 155.404 42.39 156.134 41.95C156.874 41.51 157.834 41.15 159.014 40.87C160.204 40.59 161.664 40.43 163.394 40.39V39.28C163.394 38.13 163.149 37.27 162.659 36.7C162.169 36.13 161.449 35.845 160.499 35.845C159.859 35.845 159.319 35.925 158.879 36.085C158.449 36.245 158.074 36.425 157.754 36.625C157.444 36.815 157.169 36.99 156.929 37.15C156.699 37.31 156.459 37.39 156.209 37.39C156.009 37.39 155.834 37.335 155.684 37.225C155.544 37.115 155.429 36.985 155.339 36.835L154.814 35.89ZM174.74 49.24C173.51 49.24 172.56 48.895 171.89 48.205C171.23 47.515 170.9 46.53 170.9 45.25V36.13H169.13C168.96 36.13 168.815 36.08 168.695 35.98C168.585 35.87 168.53 35.71 168.53 35.5V34.315L171.005 33.97L171.665 29.425C171.705 29.255 171.78 29.125 171.89 29.035C172.01 28.935 172.16 28.885 172.34 28.885H173.825V34H178.145V36.13H173.825V45.055C173.825 45.655 173.97 46.105 174.26 46.405C174.56 46.695 174.94 46.84 175.4 46.84C175.67 46.84 175.9 46.805 176.09 46.735C176.29 46.665 176.46 46.59 176.6 46.51C176.74 46.42 176.86 46.34 176.96 46.27C177.06 46.2 177.15 46.165 177.23 46.165C177.33 46.165 177.405 46.19 177.455 46.24C177.515 46.28 177.575 46.35 177.635 46.45L178.505 47.86C178.025 48.3 177.455 48.64 176.795 48.88C176.135 49.12 175.45 49.24 174.74 49.24ZM190.846 39.685C190.846 39.105 190.761 38.57 190.591 38.08C190.431 37.59 190.191 37.165 189.871 36.805C189.551 36.445 189.161 36.165 188.701 35.965C188.241 35.765 187.711 35.665 187.111 35.665C185.881 35.665 184.911 36.02 184.201 36.73C183.501 37.44 183.056 38.425 182.866 39.685H190.846ZM193.261 46.825C192.901 47.245 192.486 47.61 192.016 47.92C191.546 48.22 191.046 48.465 190.516 48.655C189.986 48.845 189.436 48.985 188.866 49.075C188.306 49.165 187.751 49.21 187.201 49.21C186.151 49.21 185.176 49.035 184.276 48.685C183.386 48.325 182.611 47.805 181.951 47.125C181.301 46.435 180.791 45.585 180.421 44.575C180.061 43.555 179.881 42.385 179.881 41.065C179.881 40.005 180.046 39.02 180.376 38.11C180.706 37.19 181.176 36.39 181.786 35.71C182.406 35.03 183.161 34.495 184.051 34.105C184.941 33.715 185.941 33.52 187.051 33.52C187.981 33.52 188.836 33.675 189.616 33.985C190.406 34.285 191.086 34.725 191.656 35.305C192.226 35.885 192.671 36.6 192.991 37.45C193.321 38.3 193.486 39.27 193.486 40.36C193.486 40.81 193.436 41.115 193.336 41.275C193.236 41.425 193.051 41.5 192.781 41.5H182.791C182.821 42.41 182.951 43.205 183.181 43.885C183.411 44.555 183.726 45.115 184.126 45.565C184.536 46.015 185.021 46.35 185.581 46.57C186.141 46.79 186.766 46.9 187.456 46.9C188.106 46.9 188.666 46.825 189.136 46.675C189.616 46.525 190.026 46.365 190.366 46.195C190.716 46.015 191.006 45.85 191.236 45.7C191.476 45.55 191.686 45.475 191.866 45.475C192.106 45.475 192.291 45.565 192.421 45.745L193.261 46.825ZM205.615 36.385C205.535 36.515 205.45 36.61 205.36 36.67C205.27 36.72 205.155 36.745 205.015 36.745C204.855 36.745 204.675 36.69 204.475 36.58C204.285 36.47 204.05 36.35 203.77 36.22C203.5 36.09 203.18 35.97 202.81 35.86C202.44 35.75 202 35.695 201.49 35.695C201.07 35.695 200.685 35.75 200.335 35.86C199.995 35.96 199.705 36.105 199.465 36.295C199.225 36.475 199.04 36.695 198.91 36.955C198.78 37.205 198.715 37.475 198.715 37.765C198.715 38.145 198.825 38.46 199.045 38.71C199.275 38.96 199.57 39.175 199.93 39.355C200.3 39.535 200.715 39.7 201.175 39.85C201.645 39.99 202.12 40.14 202.6 40.3C203.09 40.46 203.565 40.645 204.025 40.855C204.495 41.055 204.91 41.31 205.27 41.62C205.64 41.92 205.935 42.285 206.155 42.715C206.385 43.145 206.5 43.67 206.5 44.29C206.5 45 206.37 45.66 206.11 46.27C205.86 46.87 205.485 47.39 204.985 47.83C204.495 48.27 203.885 48.615 203.155 48.865C202.425 49.115 201.59 49.24 200.65 49.24C199.6 49.24 198.63 49.065 197.74 48.715C196.85 48.365 196.105 47.92 195.505 47.38L196.195 46.255C196.275 46.115 196.375 46.01 196.495 45.94C196.615 45.86 196.775 45.82 196.975 45.82C197.165 45.82 197.36 45.89 197.56 46.03C197.76 46.17 198 46.325 198.28 46.495C198.56 46.655 198.9 46.805 199.3 46.945C199.7 47.075 200.2 47.14 200.8 47.14C201.3 47.14 201.735 47.08 202.105 46.96C202.475 46.83 202.78 46.66 203.02 46.45C203.27 46.23 203.455 45.98 203.575 45.7C203.695 45.42 203.755 45.125 203.755 44.815C203.755 44.415 203.64 44.085 203.41 43.825C203.19 43.555 202.895 43.325 202.525 43.135C202.165 42.945 201.75 42.78 201.28 42.64C200.81 42.5 200.33 42.35 199.84 42.19C199.35 42.03 198.87 41.845 198.4 41.635C197.93 41.425 197.51 41.16 197.14 40.84C196.78 40.52 196.485 40.13 196.255 39.67C196.035 39.21 195.925 38.65 195.925 37.99C195.925 37.4 196.045 36.835 196.285 36.295C196.535 35.755 196.89 35.28 197.35 34.87C197.82 34.46 198.395 34.135 199.075 33.895C199.765 33.645 200.55 33.52 201.43 33.52C202.44 33.52 203.35 33.68 204.16 34C204.98 34.32 205.68 34.76 206.26 35.32L205.615 36.385ZM214.437 49.24C213.207 49.24 212.257 48.895 211.587 48.205C210.927 47.515 210.597 46.53 210.597 45.25V36.13H208.827C208.657 36.13 208.512 36.08 208.392 35.98C208.282 35.87 208.227 35.71 208.227 35.5V34.315L210.702 33.97L211.362 29.425C211.402 29.255 211.477 29.125 211.587 29.035C211.707 28.935 211.857 28.885 212.037 28.885H213.522V34H217.842V36.13H213.522V45.055C213.522 45.655 213.667 46.105 213.957 46.405C214.257 46.695 214.637 46.84 215.097 46.84C215.367 46.84 215.597 46.805 215.787 46.735C215.987 46.665 216.157 46.59 216.297 46.51C216.437 46.42 216.557 46.34 216.657 46.27C216.757 46.2 216.847 46.165 216.927 46.165C217.027 46.165 217.102 46.19 217.152 46.24C217.212 46.28 217.272 46.35 217.332 46.45L218.202 47.86C217.722 48.3 217.152 48.64 216.492 48.88C215.832 49.12 215.147 49.24 214.437 49.24ZM247.519 38.23C247.519 39.84 247.259 41.305 246.739 42.625C246.229 43.945 245.504 45.08 244.564 46.03C243.624 46.97 242.499 47.7 241.189 48.22C239.879 48.74 238.424 49 236.824 49H228.724V27.46H236.824C238.424 27.46 239.879 27.72 241.189 28.24C242.499 28.76 243.624 29.495 244.564 30.445C245.504 31.385 246.229 32.52 246.739 33.85C247.259 35.17 247.519 36.63 247.519 38.23ZM244.249 38.23C244.249 36.95 244.074 35.805 243.724 34.795C243.374 33.775 242.874 32.915 242.224 32.215C241.584 31.505 240.804 30.965 239.884 30.595C238.974 30.225 237.954 30.04 236.824 30.04H231.934V46.42H236.824C237.954 46.42 238.974 46.235 239.884 45.865C240.804 45.495 241.584 44.96 242.224 44.26C242.874 43.55 243.374 42.69 243.724 41.68C244.074 40.67 244.249 39.52 244.249 38.23ZM260.837 39.685C260.837 39.105 260.752 38.57 260.582 38.08C260.422 37.59 260.182 37.165 259.862 36.805C259.542 36.445 259.152 36.165 258.692 35.965C258.232 35.765 257.702 35.665 257.102 35.665C255.872 35.665 254.902 36.02 254.192 36.73C253.492 37.44 253.047 38.425 252.857 39.685H260.837ZM263.252 46.825C262.892 47.245 262.477 47.61 262.007 47.92C261.537 48.22 261.037 48.465 260.507 48.655C259.977 48.845 259.427 48.985 258.857 49.075C258.297 49.165 257.742 49.21 257.192 49.21C256.142 49.21 255.167 49.035 254.267 48.685C253.377 48.325 252.602 47.805 251.942 47.125C251.292 46.435 250.782 45.585 250.412 44.575C250.052 43.555 249.872 42.385 249.872 41.065C249.872 40.005 250.037 39.02 250.367 38.11C250.697 37.19 251.167 36.39 251.777 35.71C252.397 35.03 253.152 34.495 254.042 34.105C254.932 33.715 255.932 33.52 257.042 33.52C257.972 33.52 258.827 33.675 259.607 33.985C260.397 34.285 261.077 34.725 261.647 35.305C262.217 35.885 262.662 36.6 262.982 37.45C263.312 38.3 263.477 39.27 263.477 40.36C263.477 40.81 263.427 41.115 263.327 41.275C263.227 41.425 263.042 41.5 262.772 41.5H252.782C252.812 42.41 252.942 43.205 253.172 43.885C253.402 44.555 253.717 45.115 254.117 45.565C254.527 46.015 255.012 46.35 255.572 46.57C256.132 46.79 256.757 46.9 257.447 46.9C258.097 46.9 258.657 46.825 259.127 46.675C259.607 46.525 260.017 46.365 260.357 46.195C260.707 46.015 260.997 45.85 261.227 45.7C261.467 45.55 261.677 45.475 261.857 45.475C262.097 45.475 262.282 45.565 262.412 45.745L263.252 46.825ZM274.81 42.235C273.62 42.275 272.61 42.37 271.78 42.52C270.95 42.66 270.275 42.85 269.755 43.09C269.235 43.33 268.86 43.615 268.63 43.945C268.4 44.265 268.285 44.625 268.285 45.025C268.285 45.405 268.345 45.735 268.465 46.015C268.595 46.285 268.765 46.51 268.975 46.69C269.195 46.86 269.45 46.985 269.74 47.065C270.03 47.145 270.345 47.185 270.685 47.185C271.135 47.185 271.545 47.14 271.915 47.05C272.295 46.96 272.65 46.835 272.98 46.675C273.31 46.505 273.625 46.3 273.925 46.06C274.225 45.82 274.52 45.545 274.81 45.235V42.235ZM266.23 35.89C267.08 35.08 268 34.475 268.99 34.075C269.99 33.675 271.085 33.475 272.275 33.475C273.145 33.475 273.915 33.62 274.585 33.91C275.255 34.19 275.82 34.585 276.28 35.095C276.74 35.605 277.085 36.215 277.315 36.925C277.555 37.635 277.675 38.42 277.675 39.28V49H276.37C276.08 49 275.86 48.955 275.71 48.865C275.56 48.765 275.44 48.585 275.35 48.325L275.035 46.99C274.645 47.35 274.26 47.67 273.88 47.95C273.5 48.22 273.1 48.455 272.68 48.655C272.27 48.845 271.83 48.99 271.36 49.09C270.89 49.19 270.37 49.24 269.8 49.24C269.2 49.24 268.635 49.16 268.105 49C267.585 48.83 267.13 48.575 266.74 48.235C266.35 47.895 266.04 47.47 265.81 46.96C265.59 46.45 265.48 45.855 265.48 45.175C265.48 44.575 265.64 44 265.96 43.45C266.29 42.89 266.82 42.39 267.55 41.95C268.29 41.51 269.25 41.15 270.43 40.87C271.62 40.59 273.08 40.43 274.81 40.39V39.28C274.81 38.13 274.565 37.27 274.075 36.7C273.585 36.13 272.865 35.845 271.915 35.845C271.275 35.845 270.735 35.925 270.295 36.085C269.865 36.245 269.49 36.425 269.17 36.625C268.86 36.815 268.585 36.99 268.345 37.15C268.115 37.31 267.875 37.39 267.625 37.39C267.425 37.39 267.25 37.335 267.1 37.225C266.96 37.115 266.845 36.985 266.755 36.835L266.23 35.89ZM284.591 26.86V49H281.651V26.86H284.591ZM297.754 36.385C297.674 36.515 297.589 36.61 297.499 36.67C297.409 36.72 297.294 36.745 297.154 36.745C296.994 36.745 296.814 36.69 296.614 36.58C296.424 36.47 296.189 36.35 295.909 36.22C295.639 36.09 295.319 35.97 294.949 35.86C294.579 35.75 294.139 35.695 293.629 35.695C293.209 35.695 292.824 35.75 292.474 35.86C292.134 35.96 291.844 36.105 291.604 36.295C291.364 36.475 291.179 36.695 291.049 36.955C290.919 37.205 290.854 37.475 290.854 37.765C290.854 38.145 290.964 38.46 291.184 38.71C291.414 38.96 291.709 39.175 292.069 39.355C292.439 39.535 292.854 39.7 293.314 39.85C293.784 39.99 294.259 40.14 294.739 40.3C295.229 40.46 295.704 40.645 296.164 40.855C296.634 41.055 297.049 41.31 297.409 41.62C297.779 41.92 298.074 42.285 298.294 42.715C298.524 43.145 298.639 43.67 298.639 44.29C298.639 45 298.509 45.66 298.249 46.27C297.999 46.87 297.624 47.39 297.124 47.83C296.634 48.27 296.024 48.615 295.294 48.865C294.564 49.115 293.729 49.24 292.789 49.24C291.739 49.24 290.769 49.065 289.879 48.715C288.989 48.365 288.244 47.92 287.644 47.38L288.334 46.255C288.414 46.115 288.514 46.01 288.634 45.94C288.754 45.86 288.914 45.82 289.114 45.82C289.304 45.82 289.499 45.89 289.699 46.03C289.899 46.17 290.139 46.325 290.419 46.495C290.699 46.655 291.039 46.805 291.439 46.945C291.839 47.075 292.339 47.14 292.939 47.14C293.439 47.14 293.874 47.08 294.244 46.96C294.614 46.83 294.919 46.66 295.159 46.45C295.409 46.23 295.594 45.98 295.714 45.7C295.834 45.42 295.894 45.125 295.894 44.815C295.894 44.415 295.779 44.085 295.549 43.825C295.329 43.555 295.034 43.325 294.664 43.135C294.304 42.945 293.889 42.78 293.419 42.64C292.949 42.5 292.469 42.35 291.979 42.19C291.489 42.03 291.009 41.845 290.539 41.635C290.069 41.425 289.649 41.16 289.279 40.84C288.919 40.52 288.624 40.13 288.394 39.67C288.174 39.21 288.064 38.65 288.064 37.99C288.064 37.4 288.184 36.835 288.424 36.295C288.674 35.755 289.029 35.28 289.489 34.87C289.959 34.46 290.534 34.135 291.214 33.895C291.904 33.645 292.689 33.52 293.569 33.52C294.579 33.52 295.489 33.68 296.299 34C297.119 34.32 297.819 34.76 298.399 35.32L297.754 36.385Z" fill="black"/>
</svg>
