<svg width="267" height="81" viewBox="0 0 267 81" fill="none" xmlns="http://www.w3.org/2000/svg">
<rect x="9" y="7" width="258" height="74" rx="10" fill="#292929"/>
<rect x="9" y="7" width="258" height="74" rx="10" fill="#292929"/>
<rect x="1.5" y="1.5" width="254" height="65" rx="7.5" fill="#FFEB33" stroke="#292929" stroke-width="3"/>
<path d="M33.816 38.924L33.804 41H23.124V23.768H33.804V25.844H25.692V31.304H32.22V33.308H25.692V38.924H33.816ZM46.7196 41H44.4636C44.2796 41 44.1316 40.952 44.0196 40.856C43.9156 40.752 43.8316 40.644 43.7676 40.532L40.8276 35.888C40.7876 36.008 40.7476 36.124 40.7076 36.236C40.6676 36.348 40.6156 36.452 40.5516 36.548L37.8516 40.532C37.7716 40.644 37.6796 40.752 37.5756 40.856C37.4716 40.952 37.3356 41 37.1676 41H35.0796L39.3276 34.724L35.2476 28.808H37.5036C37.6876 28.808 37.8196 28.836 37.8996 28.892C37.9876 28.948 38.0636 29.032 38.1276 29.144L41.0196 33.596C41.0596 33.476 41.1036 33.36 41.1516 33.248C41.1996 33.128 41.2636 33.004 41.3436 32.876L43.8276 29.192C43.9716 28.936 44.1636 28.808 44.4036 28.808H46.5516L42.4716 34.616L46.7196 41ZM50.9293 38C51.3133 38.504 51.7253 38.856 52.1653 39.056C52.6133 39.256 53.1133 39.356 53.6653 39.356C54.7373 39.356 55.5653 38.972 56.1493 38.204C56.7413 37.428 57.0373 36.3 57.0373 34.82C57.0373 34.044 56.9693 33.384 56.8333 32.84C56.7053 32.288 56.5133 31.84 56.2573 31.496C56.0093 31.144 55.7013 30.888 55.3333 30.728C54.9653 30.56 54.5493 30.476 54.0853 30.476C53.4053 30.476 52.8133 30.628 52.3093 30.932C51.8133 31.236 51.3533 31.668 50.9293 32.228V38ZM50.8093 30.632C51.0653 30.328 51.3373 30.052 51.6253 29.804C51.9213 29.548 52.2373 29.332 52.5733 29.156C52.9093 28.972 53.2653 28.832 53.6413 28.736C54.0253 28.632 54.4333 28.58 54.8653 28.58C55.5613 28.58 56.1893 28.716 56.7493 28.988C57.3173 29.26 57.8013 29.66 58.2013 30.188C58.6013 30.716 58.9093 31.368 59.1253 32.144C59.3493 32.92 59.4613 33.812 59.4613 34.82C59.4613 35.724 59.3373 36.564 59.0893 37.34C58.8493 38.108 58.5013 38.776 58.0453 39.344C57.5973 39.912 57.0453 40.36 56.3893 40.688C55.7413 41.008 55.0093 41.168 54.1933 41.168C53.4653 41.168 52.8413 41.048 52.3213 40.808C51.8013 40.568 51.3373 40.232 50.9293 39.8V45.092H48.5893V28.808H49.9933C50.3213 28.808 50.5253 28.964 50.6053 29.276L50.8093 30.632ZM64.4893 23.288V41H62.1373V23.288H64.4893ZM73.0275 28.616C73.9235 28.616 74.7315 28.764 75.4515 29.06C76.1795 29.348 76.7955 29.768 77.2995 30.32C77.8115 30.864 78.2035 31.524 78.4755 32.3C78.7475 33.068 78.8835 33.932 78.8835 34.892C78.8835 35.852 78.7475 36.72 78.4755 37.496C78.2035 38.272 77.8115 38.932 77.2995 39.476C76.7955 40.02 76.1795 40.44 75.4515 40.736C74.7315 41.024 73.9235 41.168 73.0275 41.168C72.1235 41.168 71.3075 41.024 70.5795 40.736C69.8595 40.44 69.2435 40.02 68.7315 39.476C68.2195 38.932 67.8235 38.272 67.5435 37.496C67.2715 36.72 67.1355 35.852 67.1355 34.892C67.1355 33.932 67.2715 33.068 67.5435 32.3C67.8235 31.524 68.2195 30.864 68.7315 30.32C69.2435 29.768 69.8595 29.348 70.5795 29.06C71.3075 28.764 72.1235 28.616 73.0275 28.616ZM73.0275 39.344C74.1795 39.344 75.0395 38.956 75.6075 38.18C76.1755 37.404 76.4595 36.312 76.4595 34.904C76.4595 33.496 76.1755 32.404 75.6075 31.628C75.0395 30.844 74.1795 30.452 73.0275 30.452C71.8595 30.452 70.9875 30.844 70.4115 31.628C69.8435 32.404 69.5595 33.496 69.5595 34.904C69.5595 36.312 69.8435 37.404 70.4115 38.18C70.9875 38.956 71.8595 39.344 73.0275 39.344ZM83.7036 31.148C84.0956 30.348 84.5676 29.72 85.1196 29.264C85.6716 28.808 86.3356 28.58 87.1116 28.58C87.3756 28.58 87.6236 28.612 87.8556 28.676C88.0956 28.732 88.3036 28.82 88.4796 28.94L88.3236 30.704C88.2676 30.92 88.1356 31.028 87.9276 31.028C87.8156 31.028 87.6476 31.008 87.4236 30.968C87.1996 30.92 86.9596 30.896 86.7036 30.896C86.3276 30.896 85.9956 30.952 85.7076 31.064C85.4196 31.168 85.1596 31.328 84.9276 31.544C84.7036 31.752 84.5036 32.012 84.3276 32.324C84.1516 32.628 83.9876 32.976 83.8356 33.368V41H81.4956V28.808H82.8396C83.0956 28.808 83.2676 28.856 83.3556 28.952C83.4516 29.04 83.5196 29.2 83.5596 29.432L83.7036 31.148ZM97.9153 33.548C97.9153 33.084 97.8473 32.656 97.7113 32.264C97.5833 31.872 97.3913 31.532 97.1353 31.244C96.8793 30.956 96.5673 30.732 96.1993 30.572C95.8313 30.412 95.4073 30.332 94.9273 30.332C93.9433 30.332 93.1673 30.616 92.5993 31.184C92.0393 31.752 91.6833 32.54 91.5313 33.548H97.9153ZM99.8473 39.26C99.5593 39.596 99.2273 39.888 98.8513 40.136C98.4753 40.376 98.0753 40.572 97.6513 40.724C97.2273 40.876 96.7873 40.988 96.3313 41.06C95.8833 41.132 95.4393 41.168 94.9993 41.168C94.1593 41.168 93.3793 41.028 92.6593 40.748C91.9473 40.46 91.3273 40.044 90.7993 39.5C90.2793 38.948 89.8713 38.268 89.5753 37.46C89.2873 36.644 89.1433 35.708 89.1433 34.652C89.1433 33.804 89.2753 33.016 89.5393 32.288C89.8033 31.552 90.1793 30.912 90.6673 30.368C91.1633 29.824 91.7673 29.396 92.4793 29.084C93.1913 28.772 93.9913 28.616 94.8793 28.616C95.6233 28.616 96.3073 28.74 96.9313 28.988C97.5633 29.228 98.1073 29.58 98.5633 30.044C99.0193 30.508 99.3753 31.08 99.6313 31.76C99.8953 32.44 100.027 33.216 100.027 34.088C100.027 34.448 99.9873 34.692 99.9073 34.82C99.8273 34.94 99.6793 35 99.4633 35H91.4713C91.4953 35.728 91.5993 36.364 91.7833 36.908C91.9673 37.444 92.2193 37.892 92.5393 38.252C92.8673 38.612 93.2553 38.88 93.7033 39.056C94.1513 39.232 94.6513 39.32 95.2033 39.32C95.7233 39.32 96.1713 39.26 96.5473 39.14C96.9313 39.02 97.2593 38.892 97.5313 38.756C97.8113 38.612 98.0433 38.48 98.2273 38.36C98.4193 38.24 98.5873 38.18 98.7313 38.18C98.9233 38.18 99.0713 38.252 99.1753 38.396L99.8473 39.26ZM118.957 38.852V41H109.093V23.768H111.649V38.852H118.957ZM127.516 35.588C126.564 35.62 125.756 35.696 125.092 35.816C124.428 35.928 123.888 36.08 123.472 36.272C123.056 36.464 122.756 36.692 122.572 36.956C122.388 37.212 122.296 37.5 122.296 37.82C122.296 38.124 122.344 38.388 122.44 38.612C122.544 38.828 122.68 39.008 122.848 39.152C123.024 39.288 123.228 39.388 123.46 39.452C123.692 39.516 123.944 39.548 124.216 39.548C124.576 39.548 124.904 39.512 125.2 39.44C125.504 39.368 125.788 39.268 126.052 39.14C126.316 39.004 126.568 38.84 126.808 38.648C127.048 38.456 127.284 38.236 127.516 37.988V35.588ZM120.652 30.512C121.332 29.864 122.068 29.38 122.86 29.06C123.66 28.74 124.536 28.58 125.488 28.58C126.184 28.58 126.8 28.696 127.336 28.928C127.872 29.152 128.324 29.468 128.692 29.876C129.06 30.284 129.336 30.772 129.52 31.34C129.712 31.908 129.808 32.536 129.808 33.224V41H128.764C128.532 41 128.356 40.964 128.236 40.892C128.116 40.812 128.02 40.668 127.948 40.46L127.696 39.392C127.384 39.68 127.076 39.936 126.772 40.16C126.468 40.376 126.148 40.564 125.812 40.724C125.484 40.876 125.132 40.992 124.756 41.072C124.38 41.152 123.964 41.192 123.508 41.192C123.028 41.192 122.576 41.128 122.152 41C121.736 40.864 121.372 40.66 121.06 40.388C120.748 40.116 120.5 39.776 120.316 39.368C120.14 38.96 120.052 38.484 120.052 37.94C120.052 37.46 120.18 37 120.436 36.56C120.7 36.112 121.124 35.712 121.708 35.36C122.3 35.008 123.068 34.72 124.012 34.496C124.964 34.272 126.132 34.144 127.516 34.112V33.224C127.516 32.304 127.32 31.616 126.928 31.16C126.536 30.704 125.96 30.476 125.2 30.476C124.688 30.476 124.256 30.54 123.904 30.668C123.56 30.796 123.26 30.94 123.004 31.1C122.756 31.252 122.536 31.392 122.344 31.52C122.16 31.648 121.968 31.712 121.768 31.712C121.608 31.712 121.468 31.668 121.348 31.58C121.236 31.492 121.144 31.388 121.072 31.268L120.652 30.512ZM136.593 41.192C135.609 41.192 134.849 40.916 134.313 40.364C133.785 39.812 133.521 39.024 133.521 38V30.704H132.105C131.969 30.704 131.853 30.664 131.757 30.584C131.669 30.496 131.625 30.368 131.625 30.2V29.252L133.605 28.976L134.133 25.34C134.165 25.204 134.225 25.1 134.313 25.028C134.409 24.948 134.529 24.908 134.673 24.908H135.861V29H139.317V30.704H135.861V37.844C135.861 38.324 135.977 38.684 136.209 38.924C136.449 39.156 136.753 39.272 137.121 39.272C137.337 39.272 137.521 39.244 137.673 39.188C137.833 39.132 137.969 39.072 138.081 39.008C138.193 38.936 138.289 38.872 138.369 38.816C138.449 38.76 138.521 38.732 138.585 38.732C138.665 38.732 138.725 38.752 138.765 38.792C138.813 38.824 138.861 38.88 138.909 38.96L139.605 40.088C139.221 40.44 138.765 40.712 138.237 40.904C137.709 41.096 137.161 41.192 136.593 41.192ZM149.478 33.548C149.478 33.084 149.41 32.656 149.274 32.264C149.146 31.872 148.954 31.532 148.698 31.244C148.442 30.956 148.13 30.732 147.762 30.572C147.394 30.412 146.97 30.332 146.49 30.332C145.506 30.332 144.73 30.616 144.162 31.184C143.602 31.752 143.246 32.54 143.094 33.548H149.478ZM151.41 39.26C151.122 39.596 150.79 39.888 150.414 40.136C150.038 40.376 149.638 40.572 149.214 40.724C148.79 40.876 148.35 40.988 147.894 41.06C147.446 41.132 147.002 41.168 146.562 41.168C145.722 41.168 144.942 41.028 144.222 40.748C143.51 40.46 142.89 40.044 142.362 39.5C141.842 38.948 141.434 38.268 141.138 37.46C140.85 36.644 140.706 35.708 140.706 34.652C140.706 33.804 140.838 33.016 141.102 32.288C141.366 31.552 141.742 30.912 142.23 30.368C142.726 29.824 143.33 29.396 144.042 29.084C144.754 28.772 145.554 28.616 146.442 28.616C147.186 28.616 147.87 28.74 148.494 28.988C149.126 29.228 149.67 29.58 150.126 30.044C150.582 30.508 150.938 31.08 151.194 31.76C151.458 32.44 151.59 33.216 151.59 34.088C151.59 34.448 151.55 34.692 151.47 34.82C151.39 34.94 151.242 35 151.026 35H143.034C143.058 35.728 143.162 36.364 143.346 36.908C143.53 37.444 143.782 37.892 144.102 38.252C144.43 38.612 144.818 38.88 145.266 39.056C145.714 39.232 146.214 39.32 146.766 39.32C147.286 39.32 147.734 39.26 148.11 39.14C148.494 39.02 148.822 38.892 149.094 38.756C149.374 38.612 149.606 38.48 149.79 38.36C149.982 38.24 150.15 38.18 150.294 38.18C150.486 38.18 150.634 38.252 150.738 38.396L151.41 39.26ZM161.293 30.908C161.229 31.012 161.161 31.088 161.089 31.136C161.017 31.176 160.925 31.196 160.813 31.196C160.685 31.196 160.541 31.152 160.381 31.064C160.229 30.976 160.041 30.88 159.817 30.776C159.601 30.672 159.345 30.576 159.049 30.488C158.753 30.4 158.401 30.356 157.993 30.356C157.657 30.356 157.349 30.4 157.069 30.488C156.797 30.568 156.565 30.684 156.373 30.836C156.181 30.98 156.033 31.156 155.929 31.364C155.825 31.564 155.773 31.78 155.773 32.012C155.773 32.316 155.861 32.568 156.037 32.768C156.221 32.968 156.457 33.14 156.745 33.284C157.041 33.428 157.373 33.56 157.741 33.68C158.117 33.792 158.497 33.912 158.881 34.04C159.273 34.168 159.653 34.316 160.021 34.484C160.397 34.644 160.729 34.848 161.017 35.096C161.313 35.336 161.549 35.628 161.725 35.972C161.909 36.316 162.001 36.736 162.001 37.232C162.001 37.8 161.897 38.328 161.689 38.816C161.489 39.296 161.189 39.712 160.789 40.064C160.397 40.416 159.909 40.692 159.325 40.892C158.741 41.092 158.073 41.192 157.321 41.192C156.481 41.192 155.705 41.052 154.993 40.772C154.281 40.492 153.685 40.136 153.205 39.704L153.757 38.804C153.821 38.692 153.901 38.608 153.997 38.552C154.093 38.488 154.221 38.456 154.381 38.456C154.533 38.456 154.689 38.512 154.849 38.624C155.009 38.736 155.201 38.86 155.425 38.996C155.649 39.124 155.921 39.244 156.241 39.356C156.561 39.46 156.961 39.512 157.441 39.512C157.841 39.512 158.189 39.464 158.485 39.368C158.781 39.264 159.025 39.128 159.217 38.96C159.417 38.784 159.565 38.584 159.661 38.36C159.757 38.136 159.805 37.9 159.805 37.652C159.805 37.332 159.713 37.068 159.529 36.86C159.353 36.644 159.117 36.46 158.821 36.308C158.533 36.156 158.201 36.024 157.825 35.912C157.449 35.8 157.065 35.68 156.673 35.552C156.281 35.424 155.897 35.276 155.521 35.108C155.145 34.94 154.809 34.728 154.513 34.472C154.225 34.216 153.989 33.904 153.805 33.536C153.629 33.168 153.541 32.72 153.541 32.192C153.541 31.72 153.637 31.268 153.829 30.836C154.029 30.404 154.313 30.024 154.681 29.696C155.057 29.368 155.517 29.108 156.061 28.916C156.613 28.716 157.241 28.616 157.945 28.616C158.753 28.616 159.481 28.744 160.129 29C160.785 29.256 161.345 29.608 161.809 30.056L161.293 30.908ZM168.351 41.192C167.367 41.192 166.607 40.916 166.071 40.364C165.543 39.812 165.279 39.024 165.279 38V30.704H163.863C163.727 30.704 163.611 30.664 163.515 30.584C163.427 30.496 163.383 30.368 163.383 30.2V29.252L165.363 28.976L165.891 25.34C165.923 25.204 165.983 25.1 166.071 25.028C166.167 24.948 166.287 24.908 166.431 24.908H167.619V29H171.075V30.704H167.619V37.844C167.619 38.324 167.735 38.684 167.967 38.924C168.207 39.156 168.511 39.272 168.879 39.272C169.095 39.272 169.279 39.244 169.431 39.188C169.591 39.132 169.727 39.072 169.839 39.008C169.951 38.936 170.047 38.872 170.127 38.816C170.207 38.76 170.279 38.732 170.343 38.732C170.423 38.732 170.483 38.752 170.523 38.792C170.571 38.824 170.619 38.88 170.667 38.96L171.363 40.088C170.979 40.44 170.523 40.712 169.995 40.904C169.467 41.096 168.919 41.192 168.351 41.192ZM194.816 32.384C194.816 33.672 194.608 34.844 194.192 35.9C193.784 36.956 193.204 37.864 192.452 38.624C191.7 39.376 190.8 39.96 189.752 40.376C188.704 40.792 187.54 41 186.26 41H179.78V23.768H186.26C187.54 23.768 188.704 23.976 189.752 24.392C190.8 24.808 191.7 25.396 192.452 26.156C193.204 26.908 193.784 27.816 194.192 28.88C194.608 29.936 194.816 31.104 194.816 32.384ZM192.2 32.384C192.2 31.36 192.06 30.444 191.78 29.636C191.5 28.82 191.1 28.132 190.58 27.572C190.068 27.004 189.444 26.572 188.708 26.276C187.98 25.98 187.164 25.832 186.26 25.832H182.348V38.936H186.26C187.164 38.936 187.98 38.788 188.708 38.492C189.444 38.196 190.068 37.768 190.58 37.208C191.1 36.64 191.5 35.952 191.78 35.144C192.06 34.336 192.2 33.416 192.2 32.384ZM205.47 33.548C205.47 33.084 205.402 32.656 205.266 32.264C205.138 31.872 204.946 31.532 204.69 31.244C204.434 30.956 204.122 30.732 203.754 30.572C203.386 30.412 202.962 30.332 202.482 30.332C201.498 30.332 200.722 30.616 200.154 31.184C199.594 31.752 199.238 32.54 199.086 33.548H205.47ZM207.402 39.26C207.114 39.596 206.782 39.888 206.406 40.136C206.03 40.376 205.63 40.572 205.206 40.724C204.782 40.876 204.342 40.988 203.886 41.06C203.438 41.132 202.994 41.168 202.554 41.168C201.714 41.168 200.934 41.028 200.214 40.748C199.502 40.46 198.882 40.044 198.354 39.5C197.834 38.948 197.426 38.268 197.13 37.46C196.842 36.644 196.698 35.708 196.698 34.652C196.698 33.804 196.83 33.016 197.094 32.288C197.358 31.552 197.734 30.912 198.222 30.368C198.718 29.824 199.322 29.396 200.034 29.084C200.746 28.772 201.546 28.616 202.434 28.616C203.178 28.616 203.862 28.74 204.486 28.988C205.118 29.228 205.662 29.58 206.118 30.044C206.574 30.508 206.93 31.08 207.186 31.76C207.45 32.44 207.582 33.216 207.582 34.088C207.582 34.448 207.542 34.692 207.462 34.82C207.382 34.94 207.234 35 207.018 35H199.026C199.05 35.728 199.154 36.364 199.338 36.908C199.522 37.444 199.774 37.892 200.094 38.252C200.422 38.612 200.81 38.88 201.258 39.056C201.706 39.232 202.206 39.32 202.758 39.32C203.278 39.32 203.726 39.26 204.102 39.14C204.486 39.02 204.814 38.892 205.086 38.756C205.366 38.612 205.598 38.48 205.782 38.36C205.974 38.24 206.142 38.18 206.286 38.18C206.478 38.18 206.626 38.252 206.73 38.396L207.402 39.26ZM216.649 35.588C215.697 35.62 214.889 35.696 214.225 35.816C213.561 35.928 213.021 36.08 212.605 36.272C212.189 36.464 211.889 36.692 211.705 36.956C211.521 37.212 211.429 37.5 211.429 37.82C211.429 38.124 211.477 38.388 211.573 38.612C211.677 38.828 211.813 39.008 211.981 39.152C212.157 39.288 212.361 39.388 212.593 39.452C212.825 39.516 213.077 39.548 213.349 39.548C213.709 39.548 214.037 39.512 214.333 39.44C214.637 39.368 214.921 39.268 215.185 39.14C215.449 39.004 215.701 38.84 215.941 38.648C216.181 38.456 216.417 38.236 216.649 37.988V35.588ZM209.785 30.512C210.465 29.864 211.201 29.38 211.993 29.06C212.793 28.74 213.669 28.58 214.621 28.58C215.317 28.58 215.933 28.696 216.469 28.928C217.005 29.152 217.457 29.468 217.825 29.876C218.193 30.284 218.469 30.772 218.653 31.34C218.845 31.908 218.941 32.536 218.941 33.224V41H217.897C217.665 41 217.489 40.964 217.369 40.892C217.249 40.812 217.153 40.668 217.081 40.46L216.829 39.392C216.517 39.68 216.209 39.936 215.905 40.16C215.601 40.376 215.281 40.564 214.945 40.724C214.617 40.876 214.265 40.992 213.889 41.072C213.513 41.152 213.097 41.192 212.641 41.192C212.161 41.192 211.709 41.128 211.285 41C210.869 40.864 210.505 40.66 210.193 40.388C209.881 40.116 209.633 39.776 209.449 39.368C209.273 38.96 209.185 38.484 209.185 37.94C209.185 37.46 209.313 37 209.569 36.56C209.833 36.112 210.257 35.712 210.841 35.36C211.433 35.008 212.201 34.72 213.145 34.496C214.097 34.272 215.265 34.144 216.649 34.112V33.224C216.649 32.304 216.453 31.616 216.061 31.16C215.669 30.704 215.093 30.476 214.333 30.476C213.821 30.476 213.389 30.54 213.037 30.668C212.693 30.796 212.393 30.94 212.137 31.1C211.889 31.252 211.669 31.392 211.477 31.52C211.293 31.648 211.101 31.712 210.901 31.712C210.741 31.712 210.601 31.668 210.481 31.58C210.369 31.492 210.277 31.388 210.205 31.268L209.785 30.512ZM224.474 23.288V41H222.122V23.288H224.474ZM235.004 30.908C234.94 31.012 234.872 31.088 234.8 31.136C234.728 31.176 234.636 31.196 234.524 31.196C234.396 31.196 234.252 31.152 234.092 31.064C233.94 30.976 233.752 30.88 233.528 30.776C233.312 30.672 233.056 30.576 232.76 30.488C232.464 30.4 232.112 30.356 231.704 30.356C231.368 30.356 231.06 30.4 230.78 30.488C230.508 30.568 230.276 30.684 230.084 30.836C229.892 30.98 229.744 31.156 229.64 31.364C229.536 31.564 229.484 31.78 229.484 32.012C229.484 32.316 229.572 32.568 229.748 32.768C229.932 32.968 230.168 33.14 230.456 33.284C230.752 33.428 231.084 33.56 231.452 33.68C231.828 33.792 232.208 33.912 232.592 34.04C232.984 34.168 233.364 34.316 233.732 34.484C234.108 34.644 234.44 34.848 234.728 35.096C235.024 35.336 235.26 35.628 235.436 35.972C235.62 36.316 235.712 36.736 235.712 37.232C235.712 37.8 235.608 38.328 235.4 38.816C235.2 39.296 234.9 39.712 234.5 40.064C234.108 40.416 233.62 40.692 233.036 40.892C232.452 41.092 231.784 41.192 231.032 41.192C230.192 41.192 229.416 41.052 228.704 40.772C227.992 40.492 227.396 40.136 226.916 39.704L227.468 38.804C227.532 38.692 227.612 38.608 227.708 38.552C227.804 38.488 227.932 38.456 228.092 38.456C228.244 38.456 228.4 38.512 228.56 38.624C228.72 38.736 228.912 38.86 229.136 38.996C229.36 39.124 229.632 39.244 229.952 39.356C230.272 39.46 230.672 39.512 231.152 39.512C231.552 39.512 231.9 39.464 232.196 39.368C232.492 39.264 232.736 39.128 232.928 38.96C233.128 38.784 233.276 38.584 233.372 38.36C233.468 38.136 233.516 37.9 233.516 37.652C233.516 37.332 233.424 37.068 233.24 36.86C233.064 36.644 232.828 36.46 232.532 36.308C232.244 36.156 231.912 36.024 231.536 35.912C231.16 35.8 230.776 35.68 230.384 35.552C229.992 35.424 229.608 35.276 229.232 35.108C228.856 34.94 228.52 34.728 228.224 34.472C227.936 34.216 227.7 33.904 227.516 33.536C227.34 33.168 227.252 32.72 227.252 32.192C227.252 31.72 227.348 31.268 227.54 30.836C227.74 30.404 228.024 30.024 228.392 29.696C228.768 29.368 229.228 29.108 229.772 28.916C230.324 28.716 230.952 28.616 231.656 28.616C232.464 28.616 233.192 28.744 233.84 29C234.496 29.256 235.056 29.608 235.52 30.056L235.004 30.908Z" fill="black"/>
</svg>
