<svg width="336" height="340" viewBox="0 0 336 340" fill="none" xmlns="http://www.w3.org/2000/svg">
<path d="M168 0L191.321 37.7403L226.143 10.2523L235.15 53.6928L277.274 39.7724L270.88 83.6736L315.224 85L294.201 124.067L335.417 140.48L302.3 170L335.417 199.52L294.201 215.933L315.224 255L270.88 256.326L277.274 300.228L235.15 286.307L226.143 329.748L191.321 302.26L168 340L144.679 302.26L109.857 329.748L100.85 286.307L58.7261 300.228L65.1203 256.326L20.7757 255L41.7993 215.933L0.582703 199.52L33.7 170L0.582703 140.48L41.7993 124.067L20.7757 85L65.1203 83.6736L58.7261 39.7724L100.85 53.6928L109.857 10.2523L144.679 37.7403L168 0Z" fill="#FFEB33"/>
<path d="M112.438 144.406C112.25 147.344 112.078 150.25 111.922 153.125C111.766 156 111.563 158.906 111.313 161.844L91.4375 162.875V168.781H108.688L107.75 183.312L91.3438 183.781L91.4375 211.531L67.7188 212L69.2188 144.406H112.438Z" fill="#292929"/>
<path d="M169.766 166.812C169.766 169.25 169.547 171.469 169.109 173.469C168.703 175.437 168.047 177.25 167.141 178.906C166.234 180.562 165.063 182.094 163.625 183.5C162.188 184.906 160.453 186.25 158.422 187.531L169.578 207.406L148.484 211.531L141.266 191.562L135.453 191.75L134.609 211.25H114.453C114.609 204.125 114.75 197.031 114.875 189.969C115.031 182.906 115.203 175.812 115.391 168.688C115.453 165.094 115.516 161.531 115.578 158C115.641 154.469 115.766 150.906 115.953 147.312C118.141 146.5 120.297 145.828 122.422 145.297C124.547 144.766 126.672 144.359 128.797 144.078C130.953 143.766 133.125 143.562 135.313 143.469C137.531 143.344 139.797 143.281 142.109 143.281C145.672 143.281 149.109 143.781 152.422 144.781C155.766 145.75 158.719 147.219 161.281 149.188C163.844 151.156 165.891 153.609 167.422 156.547C168.984 159.484 169.766 162.906 169.766 166.812ZM148.766 168.312C148.766 167 148.578 165.797 148.203 164.703C147.859 163.609 147.328 162.672 146.609 161.891C145.922 161.078 145.047 160.453 143.984 160.016C142.953 159.547 141.734 159.312 140.328 159.312C139.703 159.312 139.094 159.359 138.5 159.453C137.906 159.516 137.328 159.625 136.766 159.781L136.016 177.219H137.141C138.484 177.219 139.844 177.047 141.219 176.703C142.625 176.359 143.875 175.828 144.969 175.109C146.094 174.391 147 173.469 147.688 172.344C148.406 171.219 148.766 169.875 148.766 168.312Z" fill="#292929"/>
<path d="M224.891 174.125C224.891 176.844 224.703 179.563 224.328 182.281C218.984 182.625 213.672 183.188 208.391 183.969C203.109 184.719 197.828 185.469 192.547 186.219C193.359 188.469 194.625 190.266 196.344 191.609C198.094 192.953 200.172 193.625 202.578 193.625C203.828 193.625 205.188 193.391 206.656 192.922C208.156 192.453 209.641 191.875 211.109 191.188C212.578 190.469 213.984 189.703 215.328 188.891C216.672 188.078 217.828 187.344 218.797 186.688L216.547 207.969C215.328 208.906 214 209.703 212.563 210.359C211.156 211.016 209.688 211.547 208.156 211.953C206.625 212.359 205.078 212.656 203.516 212.844C201.953 213.031 200.422 213.125 198.922 213.125C195.828 213.125 193 212.703 190.438 211.859C187.875 211.016 185.547 209.844 183.453 208.344C181.391 206.813 179.578 205.016 178.016 202.953C176.453 200.891 175.156 198.641 174.125 196.203C173.094 193.766 172.313 191.187 171.781 188.469C171.25 185.75 170.984 183 170.984 180.219C170.984 177.313 171.25 174.406 171.781 171.5C172.313 168.594 173.109 165.797 174.172 163.109C175.266 160.422 176.625 157.937 178.25 155.656C179.906 153.344 181.828 151.328 184.016 149.609C186.203 147.891 188.672 146.547 191.422 145.578C194.203 144.609 197.266 144.125 200.609 144.125C203.391 144.125 205.922 144.516 208.203 145.297C210.516 146.047 212.563 147.109 214.344 148.484C216.156 149.828 217.719 151.438 219.031 153.312C220.375 155.187 221.469 157.25 222.313 159.5C223.188 161.719 223.828 164.078 224.234 166.578C224.672 169.047 224.891 171.563 224.891 174.125ZM206.141 171.688C206.141 170.813 206.047 169.922 205.859 169.016C205.672 168.078 205.359 167.234 204.922 166.484C204.516 165.734 203.969 165.125 203.281 164.656C202.594 164.156 201.734 163.906 200.703 163.906C199.453 163.906 198.344 164.25 197.375 164.938C196.438 165.594 195.625 166.438 194.938 167.469C194.25 168.469 193.688 169.563 193.25 170.75C192.813 171.937 192.484 173.031 192.266 174.031L206.141 172.719V171.688Z" fill="#292929"/>
<path d="M280.297 174.125C280.297 176.844 280.109 179.563 279.734 182.281C274.391 182.625 269.078 183.188 263.797 183.969C258.516 184.719 253.234 185.469 247.953 186.219C248.766 188.469 250.031 190.266 251.75 191.609C253.5 192.953 255.578 193.625 257.984 193.625C259.234 193.625 260.594 193.391 262.063 192.922C263.563 192.453 265.047 191.875 266.516 191.188C267.984 190.469 269.391 189.703 270.734 188.891C272.078 188.078 273.234 187.344 274.203 186.688L271.953 207.969C270.734 208.906 269.406 209.703 267.969 210.359C266.563 211.016 265.094 211.547 263.563 211.953C262.031 212.359 260.484 212.656 258.922 212.844C257.359 213.031 255.828 213.125 254.328 213.125C251.234 213.125 248.406 212.703 245.844 211.859C243.281 211.016 240.953 209.844 238.859 208.344C236.797 206.813 234.984 205.016 233.422 202.953C231.859 200.891 230.563 198.641 229.531 196.203C228.5 193.766 227.719 191.187 227.188 188.469C226.656 185.75 226.391 183 226.391 180.219C226.391 177.313 226.656 174.406 227.188 171.5C227.719 168.594 228.516 165.797 229.578 163.109C230.672 160.422 232.031 157.937 233.656 155.656C235.313 153.344 237.234 151.328 239.422 149.609C241.609 147.891 244.078 146.547 246.828 145.578C249.609 144.609 252.672 144.125 256.016 144.125C258.797 144.125 261.328 144.516 263.609 145.297C265.922 146.047 267.969 147.109 269.75 148.484C271.563 149.828 273.125 151.438 274.438 153.312C275.781 155.187 276.875 157.25 277.719 159.5C278.594 161.719 279.234 164.078 279.641 166.578C280.078 169.047 280.297 171.563 280.297 174.125ZM261.547 171.688C261.547 170.813 261.453 169.922 261.266 169.016C261.078 168.078 260.766 167.234 260.328 166.484C259.922 165.734 259.375 165.125 258.688 164.656C258 164.156 257.141 163.906 256.109 163.906C254.859 163.906 253.75 164.25 252.781 164.938C251.844 165.594 251.031 166.438 250.344 167.469C249.656 168.469 249.094 169.563 248.656 170.75C248.219 171.937 247.891 173.031 247.672 174.031L261.547 172.719V171.688Z" fill="#292929"/>
</svg>
