<svg width="606" height="263" viewBox="0 0 606 263" fill="none" xmlns="http://www.w3.org/2000/svg">
<path d="M178.968 177.816C179.694 183.808 179.083 189.093 177.136 193.67C175.269 198.239 172.486 202.242 168.786 205.678C165.087 209.114 160.684 212.072 155.578 214.552C150.542 216.952 145.22 218.978 139.609 220.631C133.999 222.285 128.306 223.581 122.528 224.52C116.831 225.451 111.47 226.166 106.446 226.665C101.503 227.156 96.3374 227.487 90.951 227.656C85.6531 227.89 80.3246 227.872 74.9655 227.6C69.6064 227.329 64.2964 226.797 59.0355 226.005C53.7658 225.14 48.7359 223.923 43.9457 222.353L26.8037 82.9C31.068 80.796 35.6332 78.8448 40.4994 77.0463C45.3568 75.1756 50.3246 73.5497 55.4028 72.1685C60.5519 70.7073 65.6918 69.5026 70.8225 68.5546C75.9444 67.5344 80.9374 66.7827 85.8016 66.2996C91.4632 65.7372 97.204 65.4957 103.024 65.5752C108.924 65.6467 114.637 66.1751 120.163 67.1605C125.69 68.1459 130.914 69.6361 135.837 71.6313C140.75 73.5542 145.136 76.1141 148.993 79.311C152.931 82.4999 156.14 86.3456 158.623 90.848C161.185 95.3425 162.838 100.658 163.582 106.794C164.072 110.837 163.893 114.691 163.046 118.355C162.199 122.019 160.75 125.378 158.699 128.431C156.648 131.484 154.03 134.192 150.846 136.554C147.654 138.843 143.961 140.671 139.769 142.038C145.101 142.75 150.024 144.087 154.539 146.05C159.134 148.005 163.112 150.532 166.474 153.632C169.915 156.724 172.691 160.321 174.802 164.422C176.993 168.515 178.381 172.98 178.968 177.816ZM110.725 122.127C110.471 120.034 109.778 118.312 108.646 116.964C107.506 115.543 106.161 114.434 104.612 113.638C103.143 112.834 101.544 112.299 99.8174 112.032C98.1701 111.757 96.7085 111.683 95.4327 111.81C93.8378 111.969 92.3091 112.34 90.8466 112.923C89.384 113.507 87.97 114.159 86.6047 114.879L88.8004 138.99C90.6344 138.808 92.8895 138.438 95.5657 137.88C98.2419 137.322 100.759 136.451 103.117 135.267C105.547 134.003 107.525 132.345 109.051 130.294C110.569 128.17 111.127 125.448 110.725 122.127ZM98.0183 159.117C95.7058 159.346 93.4993 159.785 91.3988 160.432L93.9125 185.169C95.1348 185.267 96.3173 185.369 97.4599 185.474C98.6735 185.5 99.8385 185.457 100.955 185.346C102.629 185.18 104.446 184.853 106.405 184.367C108.354 183.808 110.149 182.972 111.79 181.859C113.422 180.674 114.695 179.196 115.61 177.425C116.605 175.645 116.937 173.384 116.604 170.641C116.272 167.897 115.402 165.719 113.996 164.105C112.67 162.483 111.113 161.286 109.324 160.514C107.527 159.67 105.615 159.202 103.586 159.112C101.549 158.949 99.6928 158.95 98.0183 159.117Z" fill="black"/>
<path d="M318.038 182.158C318.835 188.727 318.767 195.163 317.836 201.466C316.897 207.696 315.156 213.641 312.614 219.3C310.151 224.952 306.918 230.241 302.916 235.168C298.984 240.016 294.38 244.309 289.103 248.048C283.906 251.778 278.108 254.875 271.708 257.337C265.3 259.727 258.387 261.291 250.971 262.027C243.795 262.74 236.836 262.591 230.097 261.58C223.436 260.561 217.096 258.853 211.076 256.456C205.047 253.986 199.466 250.887 194.334 247.159C189.272 243.351 184.796 239.047 180.906 234.246C177.086 229.365 173.901 224.056 171.349 218.318C168.877 212.573 167.252 206.487 166.474 200.062C165.713 193.781 165.806 187.562 166.755 181.403C167.694 175.173 169.395 169.232 171.858 163.581C174.4 157.922 177.633 152.632 181.556 147.713C185.479 142.793 189.994 138.436 195.103 134.641C200.291 130.838 206.005 127.713 212.245 125.267C218.486 122.82 225.194 121.241 232.371 120.528C243.933 119.379 254.656 119.958 264.539 122.264C274.501 124.562 283.199 128.411 290.632 133.81C298.136 139.128 304.243 145.901 308.952 154.128C313.732 162.274 316.761 171.617 318.038 182.158ZM265.272 190.248C264.896 187.144 264.015 184.199 262.628 181.415C261.313 178.55 259.562 176.094 257.377 174.046C255.184 171.926 252.568 170.322 249.531 169.236C246.566 168.069 243.249 167.668 239.58 168.032C235.833 168.405 232.558 169.351 229.756 170.871C226.955 172.392 224.608 174.342 222.718 176.721C220.898 179.021 219.605 181.67 218.839 184.668C218.064 187.595 217.869 190.646 218.254 193.823C218.621 196.855 219.467 199.839 220.791 202.777C222.116 205.714 223.883 208.314 226.095 210.579C228.306 212.843 230.899 214.595 233.874 215.834C236.928 217.065 240.329 217.494 244.077 217.122C247.825 216.749 251.095 215.767 253.888 214.174C256.752 212.502 259.085 210.443 260.887 208C262.68 205.483 263.956 202.69 264.713 199.619C265.471 196.548 265.657 193.425 265.272 190.248Z" fill="black"/>
<path d="M430.883 121.068C431.679 127.637 431.612 134.073 430.681 140.376C429.741 146.607 428 152.551 425.458 158.211C422.996 163.862 419.763 169.151 415.76 174.078C411.828 178.926 407.224 183.219 401.948 186.958C396.751 190.689 390.952 193.785 384.553 196.247C378.144 198.638 371.232 200.201 363.816 200.938C356.639 201.65 349.681 201.501 342.941 200.49C336.281 199.472 329.941 197.763 323.92 195.366C317.891 192.896 312.311 189.797 307.178 186.07C302.117 182.262 297.641 177.957 293.75 173.156C289.931 168.275 286.745 162.966 284.194 157.228C281.722 151.483 280.097 145.397 279.318 138.972C278.557 132.691 278.651 126.472 279.599 120.314C280.539 114.083 282.24 108.142 284.702 102.491C287.245 96.8319 290.477 91.5426 294.4 86.6231C298.323 81.7036 302.839 77.3462 307.947 73.551C313.136 69.7479 318.85 66.6231 325.09 64.1767C331.33 61.7303 338.039 60.1507 345.215 59.4378C356.778 58.2893 367.5 58.8681 377.383 61.1743C387.346 63.4724 396.044 67.321 403.477 72.7198C410.981 78.0386 417.088 84.8112 421.797 93.0378C426.577 101.184 429.606 110.528 430.883 121.068ZM378.117 129.158C377.741 126.054 376.859 123.11 375.473 120.325C374.157 117.46 372.407 115.004 370.222 112.956C368.028 110.836 365.413 109.232 362.376 108.146C359.41 106.979 356.093 106.578 352.425 106.942C348.677 107.315 345.402 108.261 342.601 109.781C339.799 111.302 337.453 113.252 335.562 115.631C333.743 117.931 332.45 120.58 331.684 123.579C330.908 126.505 330.713 129.556 331.098 132.733C331.466 135.765 332.312 138.75 333.636 141.687C334.96 144.624 336.728 147.224 338.939 149.489C341.151 151.753 343.743 153.505 346.718 154.744C349.772 155.975 353.174 156.404 356.921 156.032C360.669 155.66 363.94 154.677 366.733 153.085C369.596 151.412 371.929 149.354 373.731 146.91C375.525 144.394 376.8 141.6 377.558 138.529C378.316 135.459 378.502 132.335 378.117 129.158Z" fill="black"/>
<path d="M597.739 33.4546L605.999 193.516L551.719 201.1L542.04 117.236L525.589 187.256L504.538 189.347L478.316 130.799L486.581 200.994L431.504 207.999L415.76 58.1063L476.978 49.8336L510.066 119.097L533.388 39.8466L597.739 33.4546Z" fill="black"/>
<mask id="path-2-outside-1_132_2021" maskUnits="userSpaceOnUse" x="0" y="0" width="593" height="243" fill="black">
<rect fill="white" width="593" height="243"/>
<path d="M159.164 151.362C159.89 157.354 159.28 162.638 157.333 167.216C155.465 171.785 152.682 175.787 148.983 179.223C145.283 182.659 140.88 185.617 135.774 188.097C130.739 190.497 125.416 192.524 119.806 194.177C114.196 195.83 108.502 197.126 102.725 198.065C97.027 198.997 91.6664 199.712 86.6427 200.211C81.6988 200.702 76.5336 201.032 71.1473 201.202C65.8494 201.436 60.5209 201.417 55.1618 201.146C49.8026 200.874 44.4926 200.343 39.2318 199.55C33.9621 198.685 28.9322 197.468 24.142 195.898L7 56.4454C11.2643 54.3414 15.8295 52.3902 20.6957 50.5917C25.5531 48.721 30.5209 47.0951 35.5991 45.7139C40.7482 44.2527 45.8881 43.048 51.0188 42.1C56.1407 41.0798 61.1337 40.3282 65.9979 39.845C71.6595 39.2826 77.4003 39.0411 83.2204 39.1206C89.1202 39.1921 94.8333 39.7206 100.36 40.7059C105.886 41.6913 111.11 43.1815 116.033 45.1767C120.946 47.0996 125.332 49.6595 129.19 52.8564C133.127 56.0453 136.337 59.891 138.819 64.3934C141.381 68.888 143.034 74.2034 143.778 80.3398C144.268 84.3826 144.089 88.2361 143.242 91.9002C142.395 95.5644 140.946 98.9231 138.895 101.976C136.844 105.029 134.226 107.737 131.043 110.099C127.85 112.389 124.157 114.217 119.965 115.583C125.297 116.295 130.221 117.633 134.735 119.595C139.33 121.55 143.308 124.077 146.67 127.177C150.111 130.269 152.887 133.866 154.998 137.967C157.189 142.06 158.578 146.525 159.164 151.362ZM90.9211 95.6727C90.6674 93.5791 89.9746 91.8579 88.8428 90.5091C87.7021 89.0881 86.3573 87.9796 84.8082 87.1837C83.3389 86.3798 81.7407 85.8445 80.0137 85.5776C78.3664 85.3029 76.9048 85.2289 75.6289 85.3556C74.0341 85.514 72.5054 85.8851 71.0429 86.4687C69.5803 87.0524 68.1663 87.7043 66.801 88.4244L68.9967 112.536C70.8307 112.354 73.0858 111.984 75.762 111.425C78.4382 110.867 80.9554 109.996 83.3136 108.812C85.7428 107.548 87.7209 105.89 89.2477 103.839C90.7658 101.716 91.3236 98.9935 90.9211 95.6727ZM78.2146 132.662C75.9021 132.892 73.6956 133.33 71.5951 133.977L74.1087 158.715C75.3311 158.812 76.5136 158.914 77.6562 159.02C78.8698 159.045 80.0348 159.003 81.1512 158.892C82.8257 158.725 84.6423 158.399 86.6008 157.912C88.5506 157.353 90.3457 156.517 91.9863 155.404C93.6181 154.219 94.8916 152.741 95.8067 150.97C96.8016 149.191 97.1328 146.929 96.8004 144.186C96.4679 141.443 95.5986 139.264 94.1926 137.65C92.8662 136.029 91.3089 134.832 89.5206 134.06C87.7236 133.215 85.8108 132.748 83.7823 132.657C81.745 132.494 79.8891 132.496 78.2146 132.662Z"/>
<path d="M298.235 155.703C299.031 162.273 298.964 168.709 298.033 175.011C297.093 181.242 295.352 187.187 292.81 192.846C290.347 198.497 287.115 203.786 283.112 208.714C279.18 213.561 274.576 217.854 269.299 221.593C264.102 225.324 258.304 228.42 251.904 230.883C245.496 233.273 238.584 234.836 231.168 235.573C223.991 236.286 217.033 236.137 210.293 235.126C203.633 234.107 197.292 232.399 191.272 230.001C185.243 227.531 179.662 224.433 174.53 220.705C169.468 216.897 164.993 212.592 161.102 207.792C157.282 202.911 154.097 197.601 151.545 191.864C149.074 186.118 147.449 180.033 146.67 173.607C145.909 167.327 146.002 161.107 146.951 154.949C147.89 148.718 149.592 142.777 152.054 137.126C154.596 131.467 157.829 126.178 161.752 121.258C165.675 116.339 170.191 111.981 175.299 108.186C180.487 104.383 186.201 101.258 192.442 98.812C198.682 96.3656 205.39 94.786 212.567 94.0731C224.13 92.9246 234.852 93.5034 244.735 95.8095C254.698 98.1077 263.395 101.956 270.829 107.355C278.333 112.674 284.439 119.446 289.148 127.673C293.929 135.82 296.957 145.163 298.235 155.703ZM245.469 163.794C245.092 160.689 244.211 157.745 242.825 154.96C241.509 152.095 239.759 149.639 237.574 147.591C235.38 145.471 232.765 143.868 229.728 142.781C226.762 141.615 223.445 141.213 219.777 141.578C216.029 141.95 212.754 142.896 209.952 144.417C207.151 145.937 204.805 147.887 202.914 150.267C201.095 152.566 199.802 155.215 199.035 158.214C198.26 161.14 198.065 164.192 198.45 167.368C198.817 170.4 199.663 173.385 200.988 176.322C202.312 179.259 204.08 181.86 206.291 184.124C208.502 186.389 211.095 188.14 214.07 189.379C217.124 190.61 220.525 191.039 224.273 190.667C228.021 190.295 231.291 189.312 234.084 187.72C236.948 186.047 239.281 183.989 241.083 181.545C242.876 179.029 244.152 176.235 244.91 173.165C245.667 170.094 245.854 166.97 245.469 163.794Z"/>
<path d="M411.079 94.6131C411.876 101.183 411.808 107.619 410.877 113.922C409.938 120.152 408.197 126.097 405.654 131.756C403.192 137.407 399.959 142.696 395.957 147.624C392.025 152.471 387.421 156.764 382.144 160.503C376.947 164.234 371.149 167.331 364.749 169.793C358.34 172.183 351.428 173.746 344.012 174.483C336.836 175.196 329.877 175.047 323.137 174.036C316.477 173.017 310.137 171.309 304.117 168.911C298.088 166.441 292.507 163.343 287.374 159.615C282.313 155.807 277.837 151.503 273.947 146.702C270.127 141.821 266.941 136.511 264.39 130.774C261.918 125.028 260.293 118.943 259.515 112.518C258.753 106.237 258.847 100.017 259.795 93.859C260.735 87.6284 262.436 81.6876 264.899 76.0364C267.441 70.3773 270.673 65.088 274.596 60.1685C278.52 55.249 283.035 50.8916 288.144 47.0964C293.332 43.2933 299.046 40.1686 305.286 37.7222C311.527 35.2758 318.235 33.6961 325.412 32.9833C336.974 31.8348 347.697 32.4136 357.58 34.7197C367.542 37.0179 376.24 40.8664 383.673 46.2652C391.177 51.584 397.284 58.3566 401.993 66.5832C406.773 74.7297 409.802 84.073 411.079 94.6131ZM358.313 102.704C357.937 99.5996 357.056 96.6551 355.669 93.8703C354.353 91.0055 352.603 88.5491 350.418 86.5012C348.224 84.3811 345.609 82.7778 342.572 81.6913C339.606 80.5247 336.289 80.1236 332.621 80.4879C328.874 80.8602 325.599 81.8065 322.797 83.3268C319.995 84.8472 317.649 86.7972 315.759 89.1768C313.939 91.4763 312.646 94.1254 311.88 97.124C311.105 100.05 310.91 103.102 311.294 106.278C311.662 109.31 312.508 112.295 313.832 115.232C315.156 118.169 316.924 120.77 319.136 123.034C321.347 125.299 323.94 127.05 326.914 128.289C329.969 129.52 333.37 129.949 337.118 129.577C340.866 129.205 344.136 128.223 346.929 126.63C349.793 124.957 352.126 122.899 353.928 120.455C355.721 117.939 356.997 115.146 357.754 112.075C358.512 109.004 358.698 105.88 358.313 102.704Z"/>
<path d="M577.935 7L586.196 167.062L531.915 174.645L522.236 90.7818L505.786 160.802L484.734 162.893L458.513 104.345L466.777 174.54L411.701 181.545L395.957 31.6517L457.174 23.379L490.262 92.6427L513.584 13.392L577.935 7Z"/>
</mask>
<path d="M159.164 151.362C159.89 157.354 159.28 162.638 157.333 167.216C155.465 171.785 152.682 175.787 148.983 179.223C145.283 182.659 140.88 185.617 135.774 188.097C130.739 190.497 125.416 192.524 119.806 194.177C114.196 195.83 108.502 197.126 102.725 198.065C97.027 198.997 91.6664 199.712 86.6427 200.211C81.6988 200.702 76.5336 201.032 71.1473 201.202C65.8494 201.436 60.5209 201.417 55.1618 201.146C49.8026 200.874 44.4926 200.343 39.2318 199.55C33.9621 198.685 28.9322 197.468 24.142 195.898L7 56.4454C11.2643 54.3414 15.8295 52.3902 20.6957 50.5917C25.5531 48.721 30.5209 47.0951 35.5991 45.7139C40.7482 44.2527 45.8881 43.048 51.0188 42.1C56.1407 41.0798 61.1337 40.3282 65.9979 39.845C71.6595 39.2826 77.4003 39.0411 83.2204 39.1206C89.1202 39.1921 94.8333 39.7206 100.36 40.7059C105.886 41.6913 111.11 43.1815 116.033 45.1767C120.946 47.0996 125.332 49.6595 129.19 52.8564C133.127 56.0453 136.337 59.891 138.819 64.3934C141.381 68.888 143.034 74.2034 143.778 80.3398C144.268 84.3826 144.089 88.2361 143.242 91.9002C142.395 95.5644 140.946 98.9231 138.895 101.976C136.844 105.029 134.226 107.737 131.043 110.099C127.85 112.389 124.157 114.217 119.965 115.583C125.297 116.295 130.221 117.633 134.735 119.595C139.33 121.55 143.308 124.077 146.67 127.177C150.111 130.269 152.887 133.866 154.998 137.967C157.189 142.06 158.578 146.525 159.164 151.362ZM90.9211 95.6727C90.6674 93.5791 89.9746 91.8579 88.8428 90.5091C87.7021 89.0881 86.3573 87.9796 84.8082 87.1837C83.3389 86.3798 81.7407 85.8445 80.0137 85.5776C78.3664 85.3029 76.9048 85.2289 75.6289 85.3556C74.0341 85.514 72.5054 85.8851 71.0429 86.4687C69.5803 87.0524 68.1663 87.7043 66.801 88.4244L68.9967 112.536C70.8307 112.354 73.0858 111.984 75.762 111.425C78.4382 110.867 80.9554 109.996 83.3136 108.812C85.7428 107.548 87.7209 105.89 89.2477 103.839C90.7658 101.716 91.3236 98.9935 90.9211 95.6727ZM78.2146 132.662C75.9021 132.892 73.6956 133.33 71.5951 133.977L74.1087 158.715C75.3311 158.812 76.5136 158.914 77.6562 159.02C78.8698 159.045 80.0348 159.003 81.1512 158.892C82.8257 158.725 84.6423 158.399 86.6008 157.912C88.5506 157.353 90.3457 156.517 91.9863 155.404C93.6181 154.219 94.8916 152.741 95.8067 150.97C96.8016 149.191 97.1328 146.929 96.8004 144.186C96.4679 141.443 95.5986 139.264 94.1926 137.65C92.8662 136.029 91.3089 134.832 89.5206 134.06C87.7236 133.215 85.8108 132.748 83.7823 132.657C81.745 132.494 79.8891 132.496 78.2146 132.662Z" fill="#FFEB33"/>
<path d="M298.235 155.703C299.031 162.273 298.964 168.709 298.033 175.011C297.093 181.242 295.352 187.187 292.81 192.846C290.347 198.497 287.115 203.786 283.112 208.714C279.18 213.561 274.576 217.854 269.299 221.593C264.102 225.324 258.304 228.42 251.904 230.883C245.496 233.273 238.584 234.836 231.168 235.573C223.991 236.286 217.033 236.137 210.293 235.126C203.633 234.107 197.292 232.399 191.272 230.001C185.243 227.531 179.662 224.433 174.53 220.705C169.468 216.897 164.993 212.592 161.102 207.792C157.282 202.911 154.097 197.601 151.545 191.864C149.074 186.118 147.449 180.033 146.67 173.607C145.909 167.327 146.002 161.107 146.951 154.949C147.89 148.718 149.592 142.777 152.054 137.126C154.596 131.467 157.829 126.178 161.752 121.258C165.675 116.339 170.191 111.981 175.299 108.186C180.487 104.383 186.201 101.258 192.442 98.812C198.682 96.3656 205.39 94.786 212.567 94.0731C224.13 92.9246 234.852 93.5034 244.735 95.8095C254.698 98.1077 263.395 101.956 270.829 107.355C278.333 112.674 284.439 119.446 289.148 127.673C293.929 135.82 296.957 145.163 298.235 155.703ZM245.469 163.794C245.092 160.689 244.211 157.745 242.825 154.96C241.509 152.095 239.759 149.639 237.574 147.591C235.38 145.471 232.765 143.868 229.728 142.781C226.762 141.615 223.445 141.213 219.777 141.578C216.029 141.95 212.754 142.896 209.952 144.417C207.151 145.937 204.805 147.887 202.914 150.267C201.095 152.566 199.802 155.215 199.035 158.214C198.26 161.14 198.065 164.192 198.45 167.368C198.817 170.4 199.663 173.385 200.988 176.322C202.312 179.259 204.08 181.86 206.291 184.124C208.502 186.389 211.095 188.14 214.07 189.379C217.124 190.61 220.525 191.039 224.273 190.667C228.021 190.295 231.291 189.312 234.084 187.72C236.948 186.047 239.281 183.989 241.083 181.545C242.876 179.029 244.152 176.235 244.91 173.165C245.667 170.094 245.854 166.97 245.469 163.794Z" fill="#FFEB33"/>
<path d="M411.079 94.6131C411.876 101.183 411.808 107.619 410.877 113.922C409.938 120.152 408.197 126.097 405.654 131.756C403.192 137.407 399.959 142.696 395.957 147.624C392.025 152.471 387.421 156.764 382.144 160.503C376.947 164.234 371.149 167.331 364.749 169.793C358.34 172.183 351.428 173.746 344.012 174.483C336.836 175.196 329.877 175.047 323.137 174.036C316.477 173.017 310.137 171.309 304.117 168.911C298.088 166.441 292.507 163.343 287.374 159.615C282.313 155.807 277.837 151.503 273.947 146.702C270.127 141.821 266.941 136.511 264.39 130.774C261.918 125.028 260.293 118.943 259.515 112.518C258.753 106.237 258.847 100.017 259.795 93.859C260.735 87.6284 262.436 81.6876 264.899 76.0364C267.441 70.3773 270.673 65.088 274.596 60.1685C278.52 55.249 283.035 50.8916 288.144 47.0964C293.332 43.2933 299.046 40.1686 305.286 37.7222C311.527 35.2758 318.235 33.6961 325.412 32.9833C336.974 31.8348 347.697 32.4136 357.58 34.7197C367.542 37.0179 376.24 40.8664 383.673 46.2652C391.177 51.584 397.284 58.3566 401.993 66.5832C406.773 74.7297 409.802 84.073 411.079 94.6131ZM358.313 102.704C357.937 99.5996 357.056 96.6551 355.669 93.8703C354.353 91.0055 352.603 88.5491 350.418 86.5012C348.224 84.3811 345.609 82.7778 342.572 81.6913C339.606 80.5247 336.289 80.1236 332.621 80.4879C328.874 80.8602 325.599 81.8065 322.797 83.3268C319.995 84.8472 317.649 86.7972 315.759 89.1768C313.939 91.4763 312.646 94.1254 311.88 97.124C311.105 100.05 310.91 103.102 311.294 106.278C311.662 109.31 312.508 112.295 313.832 115.232C315.156 118.169 316.924 120.77 319.136 123.034C321.347 125.299 323.94 127.05 326.914 128.289C329.969 129.52 333.37 129.949 337.118 129.577C340.866 129.205 344.136 128.223 346.929 126.63C349.793 124.957 352.126 122.899 353.928 120.455C355.721 117.939 356.997 115.146 357.754 112.075C358.512 109.004 358.698 105.88 358.313 102.704Z" fill="#FFEB33"/>
<path d="M577.935 7L586.196 167.062L531.915 174.645L522.236 90.7818L505.786 160.802L484.734 162.893L458.513 104.345L466.777 174.54L411.701 181.545L395.957 31.6517L457.174 23.379L490.262 92.6427L513.584 13.392L577.935 7Z" fill="#FFEB33"/>
<path d="M159.164 151.362C159.89 157.354 159.28 162.638 157.333 167.216C155.465 171.785 152.682 175.787 148.983 179.223C145.283 182.659 140.88 185.617 135.774 188.097C130.739 190.497 125.416 192.524 119.806 194.177C114.196 195.83 108.502 197.126 102.725 198.065C97.027 198.997 91.6664 199.712 86.6427 200.211C81.6988 200.702 76.5336 201.032 71.1473 201.202C65.8494 201.436 60.5209 201.417 55.1618 201.146C49.8026 200.874 44.4926 200.343 39.2318 199.55C33.9621 198.685 28.9322 197.468 24.142 195.898L7 56.4454C11.2643 54.3414 15.8295 52.3902 20.6957 50.5917C25.5531 48.721 30.5209 47.0951 35.5991 45.7139C40.7482 44.2527 45.8881 43.048 51.0188 42.1C56.1407 41.0798 61.1337 40.3282 65.9979 39.845C71.6595 39.2826 77.4003 39.0411 83.2204 39.1206C89.1202 39.1921 94.8333 39.7206 100.36 40.7059C105.886 41.6913 111.11 43.1815 116.033 45.1767C120.946 47.0996 125.332 49.6595 129.19 52.8564C133.127 56.0453 136.337 59.891 138.819 64.3934C141.381 68.888 143.034 74.2034 143.778 80.3398C144.268 84.3826 144.089 88.2361 143.242 91.9002C142.395 95.5644 140.946 98.9231 138.895 101.976C136.844 105.029 134.226 107.737 131.043 110.099C127.85 112.389 124.157 114.217 119.965 115.583C125.297 116.295 130.221 117.633 134.735 119.595C139.33 121.55 143.308 124.077 146.67 127.177C150.111 130.269 152.887 133.866 154.998 137.967C157.189 142.06 158.578 146.525 159.164 151.362ZM90.9211 95.6727C90.6674 93.5791 89.9746 91.8579 88.8428 90.5091C87.7021 89.0881 86.3573 87.9796 84.8082 87.1837C83.3389 86.3798 81.7407 85.8445 80.0137 85.5776C78.3664 85.3029 76.9048 85.2289 75.6289 85.3556C74.0341 85.514 72.5054 85.8851 71.0429 86.4687C69.5803 87.0524 68.1663 87.7043 66.801 88.4244L68.9967 112.536C70.8307 112.354 73.0858 111.984 75.762 111.425C78.4382 110.867 80.9554 109.996 83.3136 108.812C85.7428 107.548 87.7209 105.89 89.2477 103.839C90.7658 101.716 91.3236 98.9935 90.9211 95.6727ZM78.2146 132.662C75.9021 132.892 73.6956 133.33 71.5951 133.977L74.1087 158.715C75.3311 158.812 76.5136 158.914 77.6562 159.02C78.8698 159.045 80.0348 159.003 81.1512 158.892C82.8257 158.725 84.6423 158.399 86.6008 157.912C88.5506 157.353 90.3457 156.517 91.9863 155.404C93.6181 154.219 94.8916 152.741 95.8067 150.97C96.8016 149.191 97.1328 146.929 96.8004 144.186C96.4679 141.443 95.5986 139.264 94.1926 137.65C92.8662 136.029 91.3089 134.832 89.5206 134.06C87.7236 133.215 85.8108 132.748 83.7823 132.657C81.745 132.494 79.8891 132.496 78.2146 132.662Z" stroke="black" stroke-width="12" mask="url(#path-2-outside-1_132_2021)"/>
<path d="M298.235 155.703C299.031 162.273 298.964 168.709 298.033 175.011C297.093 181.242 295.352 187.187 292.81 192.846C290.347 198.497 287.115 203.786 283.112 208.714C279.18 213.561 274.576 217.854 269.299 221.593C264.102 225.324 258.304 228.42 251.904 230.883C245.496 233.273 238.584 234.836 231.168 235.573C223.991 236.286 217.033 236.137 210.293 235.126C203.633 234.107 197.292 232.399 191.272 230.001C185.243 227.531 179.662 224.433 174.53 220.705C169.468 216.897 164.993 212.592 161.102 207.792C157.282 202.911 154.097 197.601 151.545 191.864C149.074 186.118 147.449 180.033 146.67 173.607C145.909 167.327 146.002 161.107 146.951 154.949C147.89 148.718 149.592 142.777 152.054 137.126C154.596 131.467 157.829 126.178 161.752 121.258C165.675 116.339 170.191 111.981 175.299 108.186C180.487 104.383 186.201 101.258 192.442 98.812C198.682 96.3656 205.39 94.786 212.567 94.0731C224.13 92.9246 234.852 93.5034 244.735 95.8095C254.698 98.1077 263.395 101.956 270.829 107.355C278.333 112.674 284.439 119.446 289.148 127.673C293.929 135.82 296.957 145.163 298.235 155.703ZM245.469 163.794C245.092 160.689 244.211 157.745 242.825 154.96C241.509 152.095 239.759 149.639 237.574 147.591C235.38 145.471 232.765 143.868 229.728 142.781C226.762 141.615 223.445 141.213 219.777 141.578C216.029 141.95 212.754 142.896 209.952 144.417C207.151 145.937 204.805 147.887 202.914 150.267C201.095 152.566 199.802 155.215 199.035 158.214C198.26 161.14 198.065 164.192 198.45 167.368C198.817 170.4 199.663 173.385 200.988 176.322C202.312 179.259 204.08 181.86 206.291 184.124C208.502 186.389 211.095 188.14 214.07 189.379C217.124 190.61 220.525 191.039 224.273 190.667C228.021 190.295 231.291 189.312 234.084 187.72C236.948 186.047 239.281 183.989 241.083 181.545C242.876 179.029 244.152 176.235 244.91 173.165C245.667 170.094 245.854 166.97 245.469 163.794Z" stroke="black" stroke-width="12" mask="url(#path-2-outside-1_132_2021)"/>
<path d="M411.079 94.6131C411.876 101.183 411.808 107.619 410.877 113.922C409.938 120.152 408.197 126.097 405.654 131.756C403.192 137.407 399.959 142.696 395.957 147.624C392.025 152.471 387.421 156.764 382.144 160.503C376.947 164.234 371.149 167.331 364.749 169.793C358.34 172.183 351.428 173.746 344.012 174.483C336.836 175.196 329.877 175.047 323.137 174.036C316.477 173.017 310.137 171.309 304.117 168.911C298.088 166.441 292.507 163.343 287.374 159.615C282.313 155.807 277.837 151.503 273.947 146.702C270.127 141.821 266.941 136.511 264.39 130.774C261.918 125.028 260.293 118.943 259.515 112.518C258.753 106.237 258.847 100.017 259.795 93.859C260.735 87.6284 262.436 81.6876 264.899 76.0364C267.441 70.3773 270.673 65.088 274.596 60.1685C278.52 55.249 283.035 50.8916 288.144 47.0964C293.332 43.2933 299.046 40.1686 305.286 37.7222C311.527 35.2758 318.235 33.6961 325.412 32.9833C336.974 31.8348 347.697 32.4136 357.58 34.7197C367.542 37.0179 376.24 40.8664 383.673 46.2652C391.177 51.584 397.284 58.3566 401.993 66.5832C406.773 74.7297 409.802 84.073 411.079 94.6131ZM358.313 102.704C357.937 99.5996 357.056 96.6551 355.669 93.8703C354.353 91.0055 352.603 88.5491 350.418 86.5012C348.224 84.3811 345.609 82.7778 342.572 81.6913C339.606 80.5247 336.289 80.1236 332.621 80.4879C328.874 80.8602 325.599 81.8065 322.797 83.3268C319.995 84.8472 317.649 86.7972 315.759 89.1768C313.939 91.4763 312.646 94.1254 311.88 97.124C311.105 100.05 310.91 103.102 311.294 106.278C311.662 109.31 312.508 112.295 313.832 115.232C315.156 118.169 316.924 120.77 319.136 123.034C321.347 125.299 323.94 127.05 326.914 128.289C329.969 129.52 333.37 129.949 337.118 129.577C340.866 129.205 344.136 128.223 346.929 126.63C349.793 124.957 352.126 122.899 353.928 120.455C355.721 117.939 356.997 115.146 357.754 112.075C358.512 109.004 358.698 105.88 358.313 102.704Z" stroke="black" stroke-width="12" mask="url(#path-2-outside-1_132_2021)"/>
<path d="M577.935 7L586.196 167.062L531.915 174.645L522.236 90.7818L505.786 160.802L484.734 162.893L458.513 104.345L466.777 174.54L411.701 181.545L395.957 31.6517L457.174 23.379L490.262 92.6427L513.584 13.392L577.935 7Z" stroke="black" stroke-width="12" mask="url(#path-2-outside-1_132_2021)"/>
</svg>
