<svg width="166" height="73" viewBox="0 0 166 73" fill="none" xmlns="http://www.w3.org/2000/svg">
<path d="M49.7331 49.5078C49.9308 51.1392 49.7646 52.578 49.2345 53.8242C48.7261 55.0682 47.9683 56.158 46.9611 57.0935C45.9539 58.0291 44.7552 58.8344 43.3648 59.5096C41.9939 60.163 40.5447 60.7148 39.0172 61.1649C37.4898 61.615 35.9395 61.9679 34.3666 62.2236C32.8153 62.4771 31.3558 62.6718 29.988 62.8077C28.6419 62.9414 27.2356 63.0314 25.7691 63.0776C24.3266 63.1413 22.8759 63.1362 21.4168 63.0623C19.9576 62.9884 18.5119 62.8436 17.0795 62.6278C15.6448 62.3924 14.2753 62.061 12.9711 61.6335L8.30386 23.6651C9.46488 23.0922 10.7078 22.561 12.0327 22.0713C13.3553 21.562 14.7078 21.1193 16.0905 20.7433C17.4924 20.3454 18.8918 20.0174 20.2887 19.7593C21.6833 19.4815 23.0427 19.2769 24.3671 19.1453C25.9085 18.9922 27.4716 18.9265 29.0562 18.9481C30.6625 18.9676 32.218 19.1115 33.7227 19.3797C35.2273 19.648 36.6497 20.0538 37.99 20.597C39.3278 21.1205 40.5218 21.8175 41.5721 22.6879C42.6441 23.5562 43.5181 24.6032 44.194 25.8291C44.8916 27.0528 45.3416 28.5 45.5441 30.1708C45.6775 31.2715 45.6288 32.3207 45.3982 33.3183C45.1675 34.3159 44.773 35.2304 44.2146 36.0617C43.6561 36.8929 42.9435 37.6301 42.0766 38.2732C41.2074 38.8966 40.202 39.3943 39.0606 39.7663C40.5123 39.9603 41.8528 40.3245 43.0821 40.8588C44.3331 41.391 45.4162 42.0791 46.3315 42.9231C47.2684 43.765 48.0243 44.7442 48.599 45.8608C49.1955 46.9752 49.5735 48.1908 49.7331 49.5078ZM31.1529 34.3454C31.0838 33.7754 30.8952 33.3068 30.587 32.9395C30.2764 32.5526 29.9103 32.2508 29.4885 32.0341C29.0885 31.8153 28.6533 31.6695 28.1831 31.5969C27.7346 31.5221 27.3367 31.5019 26.9893 31.5364C26.5551 31.5795 26.1389 31.6806 25.7407 31.8395C25.3424 31.9984 24.9575 32.1759 24.5857 32.3719L25.1835 38.9367C25.6829 38.8871 26.2969 38.7863 27.0255 38.6344C27.7542 38.4824 28.4395 38.2453 29.0816 37.9229C29.743 37.5787 30.2815 37.1274 30.6972 36.5689C31.1106 35.9907 31.2624 35.2496 31.1529 34.3454ZM27.6933 44.4164C27.0637 44.4789 26.4629 44.5983 25.891 44.7744L26.5754 51.5097C26.9082 51.5363 27.2302 51.564 27.5413 51.5927C27.8717 51.5997 28.1889 51.5881 28.4928 51.5579C28.9487 51.5126 29.4433 51.4237 29.9766 51.2912C30.5074 51.139 30.9962 50.9114 31.4429 50.6084C31.8872 50.2858 32.2339 49.8833 32.4831 49.4011C32.7539 48.9166 32.8441 48.301 32.7536 47.5541C32.6631 46.8071 32.4264 46.214 32.0436 45.7746C31.6824 45.333 31.2584 45.0072 30.7715 44.7969C30.2823 44.567 29.7615 44.4397 29.2092 44.415C28.6545 44.3706 28.1492 44.3711 27.6933 44.4164Z" fill="#292929"/>
<path d="M87.5976 50.6897C87.8144 52.4784 87.7961 54.2307 87.5426 55.9468C87.2868 57.6431 86.8128 59.2617 86.1206 60.8025C85.4502 62.3411 84.57 63.7812 83.4802 65.1228C82.4097 66.4426 81.1561 67.6114 79.7195 68.6294C78.3045 69.6452 76.7258 70.4883 74.9834 71.1587C73.2385 71.8094 71.3566 72.2351 69.3375 72.4356C67.3835 72.6297 65.489 72.5892 63.6539 72.3139C61.8405 72.0365 60.1143 71.5714 58.4752 70.9187C56.8336 70.2462 55.3142 69.4025 53.9168 68.3876C52.5388 67.3508 51.3201 66.1789 50.2608 64.8717C49.2209 63.5428 48.3536 62.0972 47.6589 60.535C46.9859 58.9707 46.5435 57.3139 46.3315 55.5645C46.1242 53.8545 46.1497 52.1611 46.4079 50.4844C46.6638 48.788 47.1269 47.1705 47.7974 45.6319C48.4895 44.0911 49.3697 42.651 50.4378 41.3115C51.5059 39.9721 52.7354 38.7858 54.1262 37.7525C55.5388 36.717 57.0946 35.8662 58.7936 35.2001C60.4927 34.5341 62.3192 34.104 64.2731 33.9099C67.4212 33.5972 70.3406 33.7548 73.0314 34.3827C75.7439 35.0084 78.112 36.0562 80.1358 37.5261C82.1789 38.9743 83.8416 40.8182 85.1237 43.0581C86.4252 45.2761 87.2499 47.82 87.5976 50.6897ZM73.2311 52.8925C73.1287 52.0473 72.8887 51.2456 72.5112 50.4875C72.153 49.7074 71.6765 49.0387 71.0816 48.4811C70.4843 47.9039 69.7722 47.4673 68.9454 47.1715C68.1379 46.8539 67.2348 46.7447 66.2361 46.8439C65.2157 46.9452 64.3241 47.2029 63.5612 47.6168C62.7984 48.0308 62.1597 48.5617 61.6449 49.2096C61.1495 49.8357 60.7975 50.5569 60.5888 51.3733C60.3778 52.1701 60.3247 53.0009 60.4295 53.8658C60.5295 54.6913 60.7598 55.5039 61.1204 56.3036C61.481 57.1032 61.9623 57.8113 62.5643 58.4279C63.1664 59.0444 63.8724 59.5213 64.6823 59.8586C65.5139 60.1937 66.4399 60.3106 67.4603 60.2093C68.4807 60.1079 69.3711 59.8404 70.1315 59.4068C70.9113 58.9514 71.5465 58.391 72.0371 57.7256C72.5254 57.0406 72.8727 56.28 73.0789 55.4439C73.2852 54.6079 73.336 53.7574 73.2311 52.8925Z" fill="#292929"/>
<path d="M118.322 34.0569C118.538 35.8456 118.52 37.5979 118.267 39.314C118.011 41.0103 117.537 42.6289 116.845 44.1697C116.174 45.7083 115.294 47.1484 114.204 48.49C113.134 49.8098 111.88 50.9787 110.443 51.9966C109.028 53.0124 107.45 53.8555 105.707 54.5259C103.962 55.1767 102.08 55.6023 100.061 55.8029C98.1074 55.997 96.2129 55.9564 94.3778 55.6811C92.5645 55.4037 90.8382 54.9386 89.1991 54.2859C87.5576 53.6135 86.0381 52.7698 84.6407 51.7548C83.2627 50.7181 82.044 49.5461 80.9847 48.239C79.9448 46.91 79.0775 45.4644 78.3828 43.9023C77.7099 42.3379 77.2674 40.6811 77.0554 38.9317C76.8481 37.2217 76.8736 35.5283 77.1318 33.8516C77.3877 32.1552 77.8508 30.5377 78.5213 28.9991C79.2134 27.4583 80.0936 26.0182 81.1617 24.6788C82.2298 23.3393 83.4593 22.153 84.8502 21.1197C86.2627 20.0842 87.8185 19.2334 89.5175 18.5674C91.2166 17.9013 93.0431 17.4712 94.997 17.2771C98.1451 16.9644 101.065 17.122 103.755 17.7499C106.468 18.3756 108.836 19.4234 110.86 20.8934C112.903 22.3415 114.566 24.1855 115.848 26.4253C117.149 28.6433 117.974 31.1872 118.322 34.0569ZM103.955 36.2598C103.853 35.4146 103.613 34.6129 103.235 33.8547C102.877 33.0747 102.4 32.4059 101.805 31.8483C101.208 31.2711 100.496 30.8346 99.6693 30.5387C98.8618 30.2211 97.9587 30.1119 96.96 30.2111C95.9396 30.3124 95.048 30.5701 94.2852 30.984C93.5224 31.398 92.8836 31.9289 92.3689 32.5768C91.8735 33.2029 91.5214 33.9241 91.3127 34.7406C91.1017 35.5373 91.0486 36.3681 91.1534 37.233C91.2534 38.0585 91.4837 38.8711 91.8443 39.6708C92.2049 40.4704 92.6862 41.1786 93.2882 41.7951C93.8903 42.4116 94.5963 42.8885 95.4062 43.2258C96.2378 43.561 97.1638 43.6779 98.1842 43.5765C99.2046 43.4751 100.095 43.2077 100.855 42.7741C101.635 42.3187 102.27 41.7583 102.761 41.0929C103.249 40.4078 103.597 39.6472 103.803 38.8112C104.009 37.9751 104.06 37.1246 103.955 36.2598Z" fill="#292929"/>
<path d="M163.751 10.2027L166 53.7823L151.221 55.847L148.586 33.0138L144.107 52.0779L138.375 52.6473L131.236 36.7065L133.486 55.8184L118.491 57.7256L114.204 16.9146L130.872 14.6622L139.881 33.5204L146.23 11.9431L163.751 10.2027Z" fill="#292929"/>
<mask id="path-2-outside-1_6_32" maskUnits="userSpaceOnUse" x="0" y="0" width="163" height="68" fill="black">
<rect fill="white" width="163" height="68"/>
<path d="M44.4293 42.305C44.627 43.9365 44.4608 45.3753 43.9307 46.6215C43.4223 47.8655 42.6645 48.9553 41.6573 49.8908C40.65 50.8264 39.4513 51.6317 38.061 52.3069C36.69 52.9603 35.2408 53.512 33.7133 53.9622C32.1859 54.4123 30.6357 54.7652 29.0627 55.0209C27.5114 55.2744 26.0519 55.4691 24.6841 55.605C23.3381 55.7387 21.9318 55.8287 20.4652 55.8749C19.0228 55.9386 17.572 55.9335 16.1129 55.8596C14.6538 55.7857 13.208 55.6409 11.7757 55.4251C10.3409 55.1897 8.97143 54.8582 7.66722 54.4308L3 16.4624C4.16102 15.8895 5.40398 15.3583 6.72888 14.8686C8.05141 14.3593 9.40398 13.9166 10.7866 13.5406C12.1885 13.1427 13.588 12.8147 14.9849 12.5566C16.3794 12.2788 17.7389 12.0742 19.0632 11.9426C20.6047 11.7895 22.1677 11.7238 23.7523 11.7454C25.3587 11.7649 26.9142 11.9087 28.4188 12.177C29.9234 12.4453 31.3459 12.8511 32.6861 13.3943C34.0239 13.9178 35.218 14.6148 36.2683 15.4852C37.3403 16.3535 38.2142 17.4005 38.8901 18.6264C39.5877 19.8501 40.0377 21.2973 40.2402 22.968C40.3736 24.0688 40.325 25.1179 40.0943 26.1156C39.8637 27.1132 39.4691 28.0277 38.9107 28.8589C38.3523 29.6902 37.6396 30.4274 36.7728 31.0705C35.9035 31.6939 34.8982 32.1916 33.7568 32.5636C35.2085 32.7576 36.5489 33.1217 37.7782 33.6561C39.0292 34.1883 40.1123 34.8764 41.0276 35.7204C41.9646 36.5623 42.7204 37.5415 43.2952 38.658C43.8916 39.7724 44.2697 40.9881 44.4293 42.305ZM25.849 27.1427C25.7799 26.5727 25.5913 26.104 25.2831 25.7368C24.9726 25.3499 24.6064 25.0481 24.1847 24.8314C23.7846 24.6125 23.3495 24.4668 22.8793 24.3941C22.4307 24.3193 22.0328 24.2992 21.6854 24.3337C21.2512 24.3768 20.835 24.4778 20.4368 24.6368C20.0386 24.7957 19.6536 24.9731 19.2819 25.1692L19.8797 31.734C20.379 31.6844 20.993 31.5836 21.7217 31.4317C22.4503 31.2797 23.1357 31.0426 23.7777 30.7202C24.4391 30.376 24.9777 29.9246 25.3934 29.3662C25.8067 28.788 25.9586 28.0468 25.849 27.1427ZM22.3894 37.2137C21.7598 37.2762 21.159 37.3956 20.5871 37.5717L21.2715 44.3069C21.6043 44.3336 21.9263 44.3613 22.2374 44.39C22.5678 44.397 22.885 44.3854 23.189 44.3552C23.6449 44.3099 24.1395 44.221 24.6727 44.0885C25.2036 43.9363 25.6923 43.7087 26.139 43.4057C26.5833 43.0831 26.93 42.6806 27.1792 42.1984C27.4501 41.7139 27.5402 41.0983 27.4497 40.3513C27.3592 39.6044 27.1225 39.0113 26.7397 38.5719C26.3786 38.1303 25.9546 37.8044 25.4677 37.5942C24.9784 37.3643 24.4576 37.237 23.9053 37.2123C23.3506 37.1679 22.8453 37.1684 22.3894 37.2137Z"/>
<path d="M82.2938 43.487C82.5105 45.2757 82.4922 47.028 82.2387 48.744C81.9829 50.4404 81.5089 52.059 80.8167 53.5998C80.1463 55.1384 79.2662 56.5785 78.1763 57.9201C77.1058 59.2399 75.8522 60.4087 74.4156 61.4267C73.0006 62.4425 71.422 63.2856 69.6795 63.956C67.9347 64.6067 66.0527 65.0324 64.0336 65.2329C62.0796 65.427 60.1851 65.3864 58.35 65.1112C56.5367 64.8338 54.8104 64.3687 53.1713 63.7159C51.5298 63.0435 50.0103 62.1998 48.613 61.1849C47.2349 60.1481 46.0162 58.9762 44.957 57.669C43.917 56.3401 43.0497 54.8945 42.355 53.3323C41.6821 51.768 41.2396 50.1112 41.0276 48.3618C40.8204 46.6518 40.8459 44.9584 41.1041 43.2817C41.3599 41.5853 41.8231 39.9678 42.4935 38.4292C43.1857 36.8884 44.0658 35.4483 45.1339 34.1088C46.202 32.7694 47.4315 31.5831 48.8224 30.5497C50.2349 29.5143 51.7907 28.6635 53.4898 27.9974C55.1888 27.3314 57.0153 26.9013 58.9693 26.7072C62.1173 26.3945 65.0368 26.5521 67.7275 27.1799C70.44 27.8057 72.8082 28.8535 74.832 30.3234C76.8751 31.7715 78.5377 33.6155 79.8199 35.8553C81.1214 38.0734 81.946 40.6172 82.2938 43.487ZM67.9273 45.6898C67.8249 44.8446 67.5849 44.0429 67.2074 43.2847C66.8492 42.5047 66.3726 41.8359 65.7777 41.2784C65.1804 40.7012 64.4684 40.2646 63.6415 39.9688C62.834 39.6512 61.9309 39.5419 60.9322 39.6411C59.9118 39.7425 59.0202 40.0002 58.2574 40.4141C57.4946 40.828 56.8558 41.359 56.3411 42.0069C55.8457 42.6329 55.4936 43.3542 55.285 44.1706C55.0739 44.9674 55.0208 45.7982 55.1256 46.6631C55.2256 47.4886 55.456 48.3012 55.8165 49.1009C56.1771 49.9005 56.6584 50.6086 57.2605 51.2252C57.8625 51.8417 58.5685 52.3186 59.3784 52.6559C60.21 52.991 61.136 53.1079 62.1564 53.0066C63.1768 52.9052 64.0672 52.6377 64.8277 52.2041C65.6074 51.7487 66.2426 51.1883 66.7333 50.5229C67.2215 49.8379 67.5688 49.0773 67.7751 48.2412C67.9814 47.4051 68.0321 46.5547 67.9273 45.6898Z"/>
<path d="M113.018 26.8542C113.234 28.6429 113.216 30.3952 112.963 32.1113C112.707 33.8076 112.233 35.4262 111.541 36.967C110.87 38.5056 109.99 39.9457 108.9 41.2873C107.83 42.6071 106.576 43.7759 105.14 44.7939C103.725 45.8097 102.146 46.6528 100.403 47.3232C98.6586 47.9739 96.7766 48.3996 94.7575 48.6002C92.8035 48.7943 90.909 48.7537 89.074 48.4784C87.2606 48.201 85.5343 47.7359 83.8952 47.0832C82.2537 46.4107 80.7343 45.5671 79.3369 44.5521C77.9588 43.5153 76.7401 42.3434 75.6809 41.0362C74.6409 39.7073 73.7736 38.2617 73.079 36.6996C72.406 35.1352 71.9635 33.4784 71.7515 31.729C71.5443 30.019 71.5698 28.3256 71.828 26.6489C72.0838 24.9525 72.547 23.335 73.2174 21.7964C73.9096 20.2556 74.7897 18.8155 75.8578 17.4761C76.926 16.1366 78.1554 14.9503 79.5463 13.917C80.9589 12.8815 82.5147 12.0307 84.2137 11.3646C85.9127 10.6986 87.7392 10.2685 89.6932 10.0744C92.8412 9.7617 95.7607 9.91929 98.4514 10.5472C101.164 11.1729 103.532 12.2207 105.556 13.6906C107.599 15.1388 109.262 16.9827 110.544 19.2226C111.845 21.4406 112.67 23.9845 113.018 26.8542ZM98.6512 29.0571C98.5488 28.2119 98.3088 27.4102 97.9313 26.652C97.5731 25.872 97.0965 25.2032 96.5016 24.6456C95.9043 24.0684 95.1923 23.6318 94.3654 23.336C93.5579 23.0184 92.6548 22.9092 91.6561 23.0084C90.6357 23.1097 89.7441 23.3674 88.9813 23.7813C88.2185 24.1953 87.5797 24.7262 87.065 25.3741C86.5696 26.0002 86.2175 26.7214 86.0089 27.5378C85.7978 28.3346 85.7447 29.1654 85.8495 30.0303C85.9496 30.8558 86.1799 31.6684 86.5404 32.4681C86.901 33.2677 87.3823 33.9758 87.9844 34.5924C88.5864 35.2089 89.2924 35.6858 90.1023 36.0231C90.9339 36.3583 91.8599 36.4751 92.8803 36.3738C93.9007 36.2724 94.7912 36.005 95.5516 35.5714C96.3313 35.1159 96.9665 34.5555 97.4572 33.8901C97.9454 33.2051 98.2927 32.4445 98.499 31.6084C98.7053 30.7724 98.756 29.9219 98.6512 29.0571Z"/>
<path d="M158.447 3L160.696 46.5796L145.917 48.6443L143.282 25.8111L138.803 44.8752L133.071 45.4445L125.932 29.5038L128.182 48.6156L113.187 50.5229L108.9 9.71185L125.568 7.45947L134.577 26.3177L140.926 4.74034L158.447 3Z"/>
</mask>
<path d="M44.4293 42.305C44.627 43.9365 44.4608 45.3753 43.9307 46.6215C43.4223 47.8655 42.6645 48.9553 41.6573 49.8908C40.65 50.8264 39.4513 51.6317 38.061 52.3069C36.69 52.9603 35.2408 53.512 33.7133 53.9622C32.1859 54.4123 30.6357 54.7652 29.0627 55.0209C27.5114 55.2744 26.0519 55.4691 24.6841 55.605C23.3381 55.7387 21.9318 55.8287 20.4652 55.8749C19.0228 55.9386 17.572 55.9335 16.1129 55.8596C14.6538 55.7857 13.208 55.6409 11.7757 55.4251C10.3409 55.1897 8.97143 54.8582 7.66722 54.4308L3 16.4624C4.16102 15.8895 5.40398 15.3583 6.72888 14.8686C8.05141 14.3593 9.40398 13.9166 10.7866 13.5406C12.1885 13.1427 13.588 12.8147 14.9849 12.5566C16.3794 12.2788 17.7389 12.0742 19.0632 11.9426C20.6047 11.7895 22.1677 11.7238 23.7523 11.7454C25.3587 11.7649 26.9142 11.9087 28.4188 12.177C29.9234 12.4453 31.3459 12.8511 32.6861 13.3943C34.0239 13.9178 35.218 14.6148 36.2683 15.4852C37.3403 16.3535 38.2142 17.4005 38.8901 18.6264C39.5877 19.8501 40.0377 21.2973 40.2402 22.968C40.3736 24.0688 40.325 25.1179 40.0943 26.1156C39.8637 27.1132 39.4691 28.0277 38.9107 28.8589C38.3523 29.6902 37.6396 30.4274 36.7728 31.0705C35.9035 31.6939 34.8982 32.1916 33.7568 32.5636C35.2085 32.7576 36.5489 33.1217 37.7782 33.6561C39.0292 34.1883 40.1123 34.8764 41.0276 35.7204C41.9646 36.5623 42.7204 37.5415 43.2952 38.658C43.8916 39.7724 44.2697 40.9881 44.4293 42.305ZM25.849 27.1427C25.7799 26.5727 25.5913 26.104 25.2831 25.7368C24.9726 25.3499 24.6064 25.0481 24.1847 24.8314C23.7846 24.6125 23.3495 24.4668 22.8793 24.3941C22.4307 24.3193 22.0328 24.2992 21.6854 24.3337C21.2512 24.3768 20.835 24.4778 20.4368 24.6368C20.0386 24.7957 19.6536 24.9731 19.2819 25.1692L19.8797 31.734C20.379 31.6844 20.993 31.5836 21.7217 31.4317C22.4503 31.2797 23.1357 31.0426 23.7777 30.7202C24.4391 30.376 24.9777 29.9246 25.3934 29.3662C25.8067 28.788 25.9586 28.0468 25.849 27.1427ZM22.3894 37.2137C21.7598 37.2762 21.159 37.3956 20.5871 37.5717L21.2715 44.3069C21.6043 44.3336 21.9263 44.3613 22.2374 44.39C22.5678 44.397 22.885 44.3854 23.189 44.3552C23.6449 44.3099 24.1395 44.221 24.6727 44.0885C25.2036 43.9363 25.6923 43.7087 26.139 43.4057C26.5833 43.0831 26.93 42.6806 27.1792 42.1984C27.4501 41.7139 27.5402 41.0983 27.4497 40.3513C27.3592 39.6044 27.1225 39.0113 26.7397 38.5719C26.3786 38.1303 25.9546 37.8044 25.4677 37.5942C24.9784 37.3643 24.4576 37.237 23.9053 37.2123C23.3506 37.1679 22.8453 37.1684 22.3894 37.2137Z" fill="#FFEB33"/>
<path d="M82.2938 43.487C82.5105 45.2757 82.4922 47.028 82.2387 48.744C81.9829 50.4404 81.5089 52.059 80.8167 53.5998C80.1463 55.1384 79.2662 56.5785 78.1763 57.9201C77.1058 59.2399 75.8522 60.4087 74.4156 61.4267C73.0006 62.4425 71.422 63.2856 69.6795 63.956C67.9347 64.6067 66.0527 65.0324 64.0336 65.2329C62.0796 65.427 60.1851 65.3864 58.35 65.1112C56.5367 64.8338 54.8104 64.3687 53.1713 63.7159C51.5298 63.0435 50.0103 62.1998 48.613 61.1849C47.2349 60.1481 46.0162 58.9762 44.957 57.669C43.917 56.3401 43.0497 54.8945 42.355 53.3323C41.6821 51.768 41.2396 50.1112 41.0276 48.3618C40.8204 46.6518 40.8459 44.9584 41.1041 43.2817C41.3599 41.5853 41.8231 39.9678 42.4935 38.4292C43.1857 36.8884 44.0658 35.4483 45.1339 34.1088C46.202 32.7694 47.4315 31.5831 48.8224 30.5497C50.2349 29.5143 51.7907 28.6635 53.4898 27.9974C55.1888 27.3314 57.0153 26.9013 58.9693 26.7072C62.1173 26.3945 65.0368 26.5521 67.7275 27.1799C70.44 27.8057 72.8082 28.8535 74.832 30.3234C76.8751 31.7715 78.5377 33.6155 79.8199 35.8553C81.1214 38.0734 81.946 40.6172 82.2938 43.487ZM67.9273 45.6898C67.8249 44.8446 67.5849 44.0429 67.2074 43.2847C66.8492 42.5047 66.3726 41.8359 65.7777 41.2784C65.1804 40.7012 64.4684 40.2646 63.6415 39.9688C62.834 39.6512 61.9309 39.5419 60.9322 39.6411C59.9118 39.7425 59.0202 40.0002 58.2574 40.4141C57.4946 40.828 56.8558 41.359 56.3411 42.0069C55.8457 42.6329 55.4936 43.3542 55.285 44.1706C55.0739 44.9674 55.0208 45.7982 55.1256 46.6631C55.2256 47.4886 55.456 48.3012 55.8165 49.1009C56.1771 49.9005 56.6584 50.6086 57.2605 51.2252C57.8625 51.8417 58.5685 52.3186 59.3784 52.6559C60.21 52.991 61.136 53.1079 62.1564 53.0066C63.1768 52.9052 64.0672 52.6377 64.8277 52.2041C65.6074 51.7487 66.2426 51.1883 66.7333 50.5229C67.2215 49.8379 67.5688 49.0773 67.7751 48.2412C67.9814 47.4051 68.0321 46.5547 67.9273 45.6898Z" fill="#FFEB33"/>
<path d="M113.018 26.8542C113.234 28.6429 113.216 30.3952 112.963 32.1113C112.707 33.8076 112.233 35.4262 111.541 36.967C110.87 38.5056 109.99 39.9457 108.9 41.2873C107.83 42.6071 106.576 43.7759 105.14 44.7939C103.725 45.8097 102.146 46.6528 100.403 47.3232C98.6586 47.9739 96.7766 48.3996 94.7575 48.6002C92.8035 48.7943 90.909 48.7537 89.074 48.4784C87.2606 48.201 85.5343 47.7359 83.8952 47.0832C82.2537 46.4107 80.7343 45.5671 79.3369 44.5521C77.9588 43.5153 76.7401 42.3434 75.6809 41.0362C74.6409 39.7073 73.7736 38.2617 73.079 36.6996C72.406 35.1352 71.9635 33.4784 71.7515 31.729C71.5443 30.019 71.5698 28.3256 71.828 26.6489C72.0838 24.9525 72.547 23.335 73.2174 21.7964C73.9096 20.2556 74.7897 18.8155 75.8578 17.4761C76.926 16.1366 78.1554 14.9503 79.5463 13.917C80.9589 12.8815 82.5147 12.0307 84.2137 11.3646C85.9127 10.6986 87.7392 10.2685 89.6932 10.0744C92.8412 9.7617 95.7607 9.91929 98.4514 10.5472C101.164 11.1729 103.532 12.2207 105.556 13.6906C107.599 15.1388 109.262 16.9827 110.544 19.2226C111.845 21.4406 112.67 23.9845 113.018 26.8542ZM98.6512 29.0571C98.5488 28.2119 98.3088 27.4102 97.9313 26.652C97.5731 25.872 97.0965 25.2032 96.5016 24.6456C95.9043 24.0684 95.1923 23.6318 94.3654 23.336C93.5579 23.0184 92.6548 22.9092 91.6561 23.0084C90.6357 23.1097 89.7441 23.3674 88.9813 23.7813C88.2185 24.1953 87.5797 24.7262 87.065 25.3741C86.5696 26.0002 86.2175 26.7214 86.0089 27.5378C85.7978 28.3346 85.7447 29.1654 85.8495 30.0303C85.9496 30.8558 86.1799 31.6684 86.5404 32.4681C86.901 33.2677 87.3823 33.9758 87.9844 34.5924C88.5864 35.2089 89.2924 35.6858 90.1023 36.0231C90.9339 36.3583 91.8599 36.4751 92.8803 36.3738C93.9007 36.2724 94.7912 36.005 95.5516 35.5714C96.3313 35.1159 96.9665 34.5555 97.4572 33.8901C97.9454 33.2051 98.2927 32.4445 98.499 31.6084C98.7053 30.7724 98.756 29.9219 98.6512 29.0571Z" fill="#FFEB33"/>
<path d="M158.447 3L160.696 46.5796L145.917 48.6443L143.282 25.8111L138.803 44.8752L133.071 45.4445L125.932 29.5038L128.182 48.6156L113.187 50.5229L108.9 9.71185L125.568 7.45947L134.577 26.3177L140.926 4.74034L158.447 3Z" fill="#FFEB33"/>
<path d="M44.4293 42.305C44.627 43.9365 44.4608 45.3753 43.9307 46.6215C43.4223 47.8655 42.6645 48.9553 41.6573 49.8908C40.65 50.8264 39.4513 51.6317 38.061 52.3069C36.69 52.9603 35.2408 53.512 33.7133 53.9622C32.1859 54.4123 30.6357 54.7652 29.0627 55.0209C27.5114 55.2744 26.0519 55.4691 24.6841 55.605C23.3381 55.7387 21.9318 55.8287 20.4652 55.8749C19.0228 55.9386 17.572 55.9335 16.1129 55.8596C14.6538 55.7857 13.208 55.6409 11.7757 55.4251C10.3409 55.1897 8.97143 54.8582 7.66722 54.4308L3 16.4624C4.16102 15.8895 5.40398 15.3583 6.72888 14.8686C8.05141 14.3593 9.40398 13.9166 10.7866 13.5406C12.1885 13.1427 13.588 12.8147 14.9849 12.5566C16.3794 12.2788 17.7389 12.0742 19.0632 11.9426C20.6047 11.7895 22.1677 11.7238 23.7523 11.7454C25.3587 11.7649 26.9142 11.9087 28.4188 12.177C29.9234 12.4453 31.3459 12.8511 32.6861 13.3943C34.0239 13.9178 35.218 14.6148 36.2683 15.4852C37.3403 16.3535 38.2142 17.4005 38.8901 18.6264C39.5877 19.8501 40.0377 21.2973 40.2402 22.968C40.3736 24.0688 40.325 25.1179 40.0943 26.1156C39.8637 27.1132 39.4691 28.0277 38.9107 28.8589C38.3523 29.6902 37.6396 30.4274 36.7728 31.0705C35.9035 31.6939 34.8982 32.1916 33.7568 32.5636C35.2085 32.7576 36.5489 33.1217 37.7782 33.6561C39.0292 34.1883 40.1123 34.8764 41.0276 35.7204C41.9646 36.5623 42.7204 37.5415 43.2952 38.658C43.8916 39.7724 44.2697 40.9881 44.4293 42.305ZM25.849 27.1427C25.7799 26.5727 25.5913 26.104 25.2831 25.7368C24.9726 25.3499 24.6064 25.0481 24.1847 24.8314C23.7846 24.6125 23.3495 24.4668 22.8793 24.3941C22.4307 24.3193 22.0328 24.2992 21.6854 24.3337C21.2512 24.3768 20.835 24.4778 20.4368 24.6368C20.0386 24.7957 19.6536 24.9731 19.2819 25.1692L19.8797 31.734C20.379 31.6844 20.993 31.5836 21.7217 31.4317C22.4503 31.2797 23.1357 31.0426 23.7777 30.7202C24.4391 30.376 24.9777 29.9246 25.3934 29.3662C25.8067 28.788 25.9586 28.0468 25.849 27.1427ZM22.3894 37.2137C21.7598 37.2762 21.159 37.3956 20.5871 37.5717L21.2715 44.3069C21.6043 44.3336 21.9263 44.3613 22.2374 44.39C22.5678 44.397 22.885 44.3854 23.189 44.3552C23.6449 44.3099 24.1395 44.221 24.6727 44.0885C25.2036 43.9363 25.6923 43.7087 26.139 43.4057C26.5833 43.0831 26.93 42.6806 27.1792 42.1984C27.4501 41.7139 27.5402 41.0983 27.4497 40.3513C27.3592 39.6044 27.1225 39.0113 26.7397 38.5719C26.3786 38.1303 25.9546 37.8044 25.4677 37.5942C24.9784 37.3643 24.4576 37.237 23.9053 37.2123C23.3506 37.1679 22.8453 37.1684 22.3894 37.2137Z" stroke="#292929" stroke-width="4" mask="url(#path-2-outside-1_6_32)"/>
<path d="M82.2938 43.487C82.5105 45.2757 82.4922 47.028 82.2387 48.744C81.9829 50.4404 81.5089 52.059 80.8167 53.5998C80.1463 55.1384 79.2662 56.5785 78.1763 57.9201C77.1058 59.2399 75.8522 60.4087 74.4156 61.4267C73.0006 62.4425 71.422 63.2856 69.6795 63.956C67.9347 64.6067 66.0527 65.0324 64.0336 65.2329C62.0796 65.427 60.1851 65.3864 58.35 65.1112C56.5367 64.8338 54.8104 64.3687 53.1713 63.7159C51.5298 63.0435 50.0103 62.1998 48.613 61.1849C47.2349 60.1481 46.0162 58.9762 44.957 57.669C43.917 56.3401 43.0497 54.8945 42.355 53.3323C41.6821 51.768 41.2396 50.1112 41.0276 48.3618C40.8204 46.6518 40.8459 44.9584 41.1041 43.2817C41.3599 41.5853 41.8231 39.9678 42.4935 38.4292C43.1857 36.8884 44.0658 35.4483 45.1339 34.1088C46.202 32.7694 47.4315 31.5831 48.8224 30.5497C50.2349 29.5143 51.7907 28.6635 53.4898 27.9974C55.1888 27.3314 57.0153 26.9013 58.9693 26.7072C62.1173 26.3945 65.0368 26.5521 67.7275 27.1799C70.44 27.8057 72.8082 28.8535 74.832 30.3234C76.8751 31.7715 78.5377 33.6155 79.8199 35.8553C81.1214 38.0734 81.946 40.6172 82.2938 43.487ZM67.9273 45.6898C67.8249 44.8446 67.5849 44.0429 67.2074 43.2847C66.8492 42.5047 66.3726 41.8359 65.7777 41.2784C65.1804 40.7012 64.4684 40.2646 63.6415 39.9688C62.834 39.6512 61.9309 39.5419 60.9322 39.6411C59.9118 39.7425 59.0202 40.0002 58.2574 40.4141C57.4946 40.828 56.8558 41.359 56.3411 42.0069C55.8457 42.6329 55.4936 43.3542 55.285 44.1706C55.0739 44.9674 55.0208 45.7982 55.1256 46.6631C55.2256 47.4886 55.456 48.3012 55.8165 49.1009C56.1771 49.9005 56.6584 50.6086 57.2605 51.2252C57.8625 51.8417 58.5685 52.3186 59.3784 52.6559C60.21 52.991 61.136 53.1079 62.1564 53.0066C63.1768 52.9052 64.0672 52.6377 64.8277 52.2041C65.6074 51.7487 66.2426 51.1883 66.7333 50.5229C67.2215 49.8379 67.5688 49.0773 67.7751 48.2412C67.9814 47.4051 68.0321 46.5547 67.9273 45.6898Z" stroke="#292929" stroke-width="4" mask="url(#path-2-outside-1_6_32)"/>
<path d="M113.018 26.8542C113.234 28.6429 113.216 30.3952 112.963 32.1113C112.707 33.8076 112.233 35.4262 111.541 36.967C110.87 38.5056 109.99 39.9457 108.9 41.2873C107.83 42.6071 106.576 43.7759 105.14 44.7939C103.725 45.8097 102.146 46.6528 100.403 47.3232C98.6586 47.9739 96.7766 48.3996 94.7575 48.6002C92.8035 48.7943 90.909 48.7537 89.074 48.4784C87.2606 48.201 85.5343 47.7359 83.8952 47.0832C82.2537 46.4107 80.7343 45.5671 79.3369 44.5521C77.9588 43.5153 76.7401 42.3434 75.6809 41.0362C74.6409 39.7073 73.7736 38.2617 73.079 36.6996C72.406 35.1352 71.9635 33.4784 71.7515 31.729C71.5443 30.019 71.5698 28.3256 71.828 26.6489C72.0838 24.9525 72.547 23.335 73.2174 21.7964C73.9096 20.2556 74.7897 18.8155 75.8578 17.4761C76.926 16.1366 78.1554 14.9503 79.5463 13.917C80.9589 12.8815 82.5147 12.0307 84.2137 11.3646C85.9127 10.6986 87.7392 10.2685 89.6932 10.0744C92.8412 9.7617 95.7607 9.91929 98.4514 10.5472C101.164 11.1729 103.532 12.2207 105.556 13.6906C107.599 15.1388 109.262 16.9827 110.544 19.2226C111.845 21.4406 112.67 23.9845 113.018 26.8542ZM98.6512 29.0571C98.5488 28.2119 98.3088 27.4102 97.9313 26.652C97.5731 25.872 97.0965 25.2032 96.5016 24.6456C95.9043 24.0684 95.1923 23.6318 94.3654 23.336C93.5579 23.0184 92.6548 22.9092 91.6561 23.0084C90.6357 23.1097 89.7441 23.3674 88.9813 23.7813C88.2185 24.1953 87.5797 24.7262 87.065 25.3741C86.5696 26.0002 86.2175 26.7214 86.0089 27.5378C85.7978 28.3346 85.7447 29.1654 85.8495 30.0303C85.9496 30.8558 86.1799 31.6684 86.5404 32.4681C86.901 33.2677 87.3823 33.9758 87.9844 34.5924C88.5864 35.2089 89.2924 35.6858 90.1023 36.0231C90.9339 36.3583 91.8599 36.4751 92.8803 36.3738C93.9007 36.2724 94.7912 36.005 95.5516 35.5714C96.3313 35.1159 96.9665 34.5555 97.4572 33.8901C97.9454 33.2051 98.2927 32.4445 98.499 31.6084C98.7053 30.7724 98.756 29.9219 98.6512 29.0571Z" stroke="#292929" stroke-width="4" mask="url(#path-2-outside-1_6_32)"/>
<path d="M158.447 3L160.696 46.5796L145.917 48.6443L143.282 25.8111L138.803 44.8752L133.071 45.4445L125.932 29.5038L128.182 48.6156L113.187 50.5229L108.9 9.71185L125.568 7.45947L134.577 26.3177L140.926 4.74034L158.447 3Z" stroke="#292929" stroke-width="4" mask="url(#path-2-outside-1_6_32)"/>
</svg>
