<svg
  fill="none"
  xmlns="http://www.w3.org/2000/svg"
  viewBox="50.09 31.79 302.92 227.64"
> <mask id="path-1-inside-1_259_1278" fill="white"> <path
      d="M72.0865 124.433C85.3281 101.544 104.791 82.8513 128.311 70.4341C151.831 58.017 178.488 52.3615 205.317 54.0964C232.146 55.8312 258.097 64.8884 280.285 80.2612C302.474 95.6339 320.03 116.72 331.002 141.175L198.442 197.529L72.0865 124.433Z"
    /> </mask> <path
    d="M72.0865 124.433C85.3281 101.544 104.791 82.8513 128.311 70.4341C151.831 58.017 178.488 52.3615 205.317 54.0964C232.146 55.8312 258.097 64.8884 280.285 80.2612C302.474 95.6339 320.03 116.72 331.002 141.175L198.442 197.529L72.0865 124.433Z"
    stroke="#292929"
    stroke-width="44"
    mask="url(#path-1-inside-1_259_1278)"
  /> <path
    d="M91.4486 135.634C99.4102 121.872 110.061 109.845 122.794 100.24C135.526 90.6358 150.091 83.6419 165.656 79.6578C181.221 75.6736 197.481 74.7774 213.509 77.0202C229.537 79.2629 245.018 84.6008 259.069 92.729C273.119 100.857 285.464 111.617 295.398 124.393C305.332 137.169 312.661 151.712 316.967 167.191C321.272 182.67 322.47 198.782 320.491 214.608C318.512 230.433 313.396 245.662 305.435 259.425L198.442 197.529L91.4486 135.634Z"
    fill="white"
  /> <path
    d="M105.817 144.946C112.709 133.032 121.93 122.62 132.953 114.305C143.975 105.991 156.584 99.9359 170.059 96.4868C183.533 93.0377 197.61 92.2618 211.486 94.2034C225.361 96.145 238.763 100.766 250.927 107.803C263.091 114.839 273.778 124.154 282.378 135.214C290.978 146.275 297.323 158.865 301.05 172.265C304.777 185.666 305.814 199.614 304.101 213.314C302.388 227.015 297.959 240.198 291.066 252.113L198.442 198.529L105.817 144.946Z"
    fill="#292929"
  /> </svg>
