<svg width="337" height="707" viewBox="0 0 337 707" fill="none" xmlns="http://www.w3.org/2000/svg">
<rect width="337" height="707" rx="9" fill="white"/>
<rect x="1.5" y="1.5" width="334" height="704" rx="7.5" stroke="black" stroke-opacity="0.6" stroke-width="3" stroke-dasharray="6 6"/>
<path d="M128.461 406.706C128.317 406.958 128.161 407.144 127.993 407.264C127.837 407.372 127.639 407.426 127.399 407.426C127.147 407.426 126.871 407.336 126.571 407.156C126.283 406.964 125.935 406.754 125.527 406.526C125.119 406.298 124.639 406.094 124.087 405.914C123.547 405.722 122.905 405.626 122.161 405.626C121.489 405.626 120.901 405.71 120.397 405.878C119.893 406.034 119.467 406.256 119.119 406.544C118.783 406.832 118.531 407.18 118.363 407.588C118.195 407.984 118.111 408.422 118.111 408.902C118.111 409.514 118.279 410.024 118.615 410.432C118.963 410.84 119.419 411.188 119.983 411.476C120.547 411.764 121.189 412.022 121.909 412.25C122.629 412.478 123.367 412.724 124.123 412.988C124.879 413.24 125.617 413.54 126.337 413.888C127.057 414.224 127.699 414.656 128.263 415.184C128.827 415.7 129.277 416.336 129.613 417.092C129.961 417.848 130.135 418.766 130.135 419.846C130.135 421.022 129.931 422.126 129.523 423.158C129.127 424.178 128.539 425.072 127.759 425.84C126.991 426.596 126.049 427.196 124.933 427.64C123.817 428.072 122.539 428.288 121.099 428.288C120.271 428.288 119.455 428.204 118.651 428.036C117.847 427.88 117.073 427.652 116.329 427.352C115.597 427.052 114.907 426.692 114.259 426.272C113.611 425.852 113.035 425.384 112.531 424.868L113.953 422.546C114.073 422.378 114.229 422.24 114.421 422.132C114.613 422.012 114.817 421.952 115.033 421.952C115.333 421.952 115.657 422.078 116.005 422.33C116.353 422.57 116.767 422.84 117.247 423.14C117.727 423.44 118.285 423.716 118.921 423.968C119.569 424.208 120.343 424.328 121.243 424.328C122.623 424.328 123.691 424.004 124.447 423.356C125.203 422.696 125.581 421.754 125.581 420.53C125.581 419.846 125.407 419.288 125.059 418.856C124.723 418.424 124.273 418.064 123.709 417.776C123.145 417.476 122.503 417.224 121.783 417.02C121.063 416.816 120.331 416.594 119.587 416.354C118.843 416.114 118.111 415.826 117.391 415.49C116.671 415.154 116.029 414.716 115.465 414.176C114.901 413.636 114.445 412.964 114.097 412.16C113.761 411.344 113.593 410.342 113.593 409.154C113.593 408.206 113.779 407.282 114.151 406.382C114.535 405.482 115.087 404.684 115.807 403.988C116.527 403.292 117.415 402.734 118.471 402.314C119.527 401.894 120.739 401.684 122.107 401.684C123.643 401.684 125.059 401.924 126.355 402.404C127.651 402.884 128.755 403.556 129.667 404.42L128.461 406.706ZM145.485 416.642C145.485 416.066 145.401 415.526 145.233 415.022C145.077 414.506 144.837 414.056 144.513 413.672C144.189 413.288 143.775 412.988 143.271 412.772C142.779 412.544 142.203 412.43 141.543 412.43C140.259 412.43 139.245 412.796 138.501 413.528C137.769 414.26 137.301 415.298 137.097 416.642H145.485ZM137.007 419.324C137.079 420.272 137.247 421.094 137.511 421.79C137.775 422.474 138.123 423.044 138.555 423.5C138.987 423.944 139.497 424.28 140.085 424.508C140.685 424.724 141.345 424.832 142.065 424.832C142.785 424.832 143.403 424.748 143.919 424.58C144.447 424.412 144.903 424.226 145.287 424.022C145.683 423.818 146.025 423.632 146.313 423.464C146.613 423.296 146.901 423.212 147.177 423.212C147.549 423.212 147.825 423.35 148.005 423.626L149.283 425.246C148.791 425.822 148.239 426.308 147.627 426.704C147.015 427.088 146.373 427.4 145.701 427.64C145.041 427.868 144.363 428.03 143.667 428.126C142.983 428.222 142.317 428.27 141.669 428.27C140.385 428.27 139.191 428.06 138.087 427.64C136.983 427.208 136.023 426.578 135.207 425.75C134.391 424.91 133.749 423.878 133.281 422.654C132.813 421.418 132.579 419.99 132.579 418.37C132.579 417.11 132.783 415.928 133.191 414.824C133.599 413.708 134.181 412.742 134.937 411.926C135.705 411.098 136.635 410.444 137.727 409.964C138.831 409.484 140.073 409.244 141.453 409.244C142.617 409.244 143.691 409.43 144.675 409.802C145.659 410.174 146.505 410.72 147.213 411.44C147.921 412.148 148.473 413.024 148.869 414.068C149.277 415.1 149.481 416.282 149.481 417.614C149.481 418.286 149.409 418.742 149.265 418.982C149.121 419.21 148.845 419.324 148.437 419.324H137.007ZM157.317 401.252V428H152.871V401.252H157.317ZM173.645 416.642C173.645 416.066 173.561 415.526 173.393 415.022C173.237 414.506 172.997 414.056 172.673 413.672C172.349 413.288 171.935 412.988 171.431 412.772C170.939 412.544 170.363 412.43 169.703 412.43C168.419 412.43 167.405 412.796 166.661 413.528C165.929 414.26 165.461 415.298 165.257 416.642H173.645ZM165.167 419.324C165.239 420.272 165.407 421.094 165.671 421.79C165.935 422.474 166.283 423.044 166.715 423.5C167.147 423.944 167.657 424.28 168.245 424.508C168.845 424.724 169.505 424.832 170.225 424.832C170.945 424.832 171.563 424.748 172.079 424.58C172.607 424.412 173.063 424.226 173.447 424.022C173.843 423.818 174.185 423.632 174.473 423.464C174.773 423.296 175.061 423.212 175.337 423.212C175.709 423.212 175.985 423.35 176.165 423.626L177.443 425.246C176.951 425.822 176.399 426.308 175.787 426.704C175.175 427.088 174.533 427.4 173.861 427.64C173.201 427.868 172.523 428.03 171.827 428.126C171.143 428.222 170.477 428.27 169.829 428.27C168.545 428.27 167.351 428.06 166.247 427.64C165.143 427.208 164.183 426.578 163.367 425.75C162.551 424.91 161.909 423.878 161.441 422.654C160.973 421.418 160.739 419.99 160.739 418.37C160.739 417.11 160.943 415.928 161.351 414.824C161.759 413.708 162.341 412.742 163.097 411.926C163.865 411.098 164.795 410.444 165.887 409.964C166.991 409.484 168.233 409.244 169.613 409.244C170.777 409.244 171.851 409.43 172.835 409.802C173.819 410.174 174.665 410.72 175.373 411.44C176.081 412.148 176.633 413.024 177.029 414.068C177.437 415.1 177.641 416.282 177.641 417.614C177.641 418.286 177.569 418.742 177.425 418.982C177.281 419.21 177.005 419.324 176.597 419.324H165.167ZM194.207 413.438C194.075 413.606 193.943 413.738 193.811 413.834C193.691 413.93 193.511 413.978 193.271 413.978C193.043 413.978 192.821 413.912 192.605 413.78C192.389 413.636 192.131 413.48 191.831 413.312C191.531 413.132 191.171 412.976 190.751 412.844C190.343 412.7 189.833 412.628 189.221 412.628C188.441 412.628 187.757 412.772 187.169 413.06C186.581 413.336 186.089 413.738 185.693 414.266C185.309 414.794 185.021 415.436 184.829 416.192C184.637 416.936 184.541 417.782 184.541 418.73C184.541 419.714 184.643 420.59 184.847 421.358C185.063 422.126 185.369 422.774 185.765 423.302C186.161 423.818 186.641 424.214 187.205 424.49C187.769 424.754 188.405 424.886 189.113 424.886C189.821 424.886 190.391 424.802 190.823 424.634C191.267 424.454 191.639 424.262 191.939 424.058C192.239 423.842 192.497 423.65 192.713 423.482C192.941 423.302 193.193 423.212 193.469 423.212C193.829 423.212 194.099 423.35 194.279 423.626L195.557 425.246C195.065 425.822 194.531 426.308 193.955 426.704C193.379 427.088 192.779 427.4 192.155 427.64C191.543 427.868 190.907 428.03 190.247 428.126C189.599 428.222 188.951 428.27 188.303 428.27C187.163 428.27 186.089 428.06 185.081 427.64C184.073 427.208 183.191 426.584 182.435 425.768C181.679 424.952 181.079 423.956 180.635 422.78C180.203 421.592 179.987 420.242 179.987 418.73C179.987 417.374 180.179 416.12 180.563 414.968C180.959 413.804 181.535 412.802 182.291 411.962C183.047 411.11 183.983 410.444 185.099 409.964C186.215 409.484 187.499 409.244 188.951 409.244C190.331 409.244 191.537 409.466 192.569 409.91C193.613 410.354 194.549 410.99 195.377 411.818L194.207 413.438ZM204.5 428.288C202.892 428.288 201.656 427.838 200.792 426.938C199.94 426.026 199.514 424.772 199.514 423.176V412.862H197.624C197.384 412.862 197.18 412.784 197.012 412.628C196.844 412.472 196.76 412.238 196.76 411.926V410.162L199.73 409.676L200.666 404.636C200.726 404.396 200.84 404.21 201.008 404.078C201.176 403.946 201.392 403.88 201.656 403.88H203.96V409.694H208.892V412.862H203.96V422.87C203.96 423.446 204.098 423.896 204.374 424.22C204.662 424.544 205.052 424.706 205.544 424.706C205.82 424.706 206.048 424.676 206.228 424.616C206.42 424.544 206.582 424.472 206.714 424.4C206.858 424.328 206.984 424.262 207.092 424.202C207.2 424.13 207.308 424.094 207.416 424.094C207.548 424.094 207.656 424.13 207.74 424.202C207.824 424.262 207.914 424.358 208.01 424.49L209.342 426.65C208.694 427.19 207.95 427.598 207.11 427.874C206.27 428.15 205.4 428.288 204.5 428.288ZM122.842 464.862C123.106 464.862 123.34 464.964 123.544 465.168L125.452 467.238C124.396 468.546 123.094 469.548 121.546 470.244C120.01 470.94 118.162 471.288 116.002 471.288C114.07 471.288 112.33 470.958 110.782 470.298C109.246 469.638 107.932 468.72 106.84 467.544C105.748 466.368 104.908 464.964 104.32 463.332C103.744 461.7 103.456 459.918 103.456 457.986C103.456 456.03 103.768 454.242 104.392 452.622C105.016 450.99 105.892 449.586 107.02 448.41C108.16 447.234 109.516 446.322 111.088 445.674C112.66 445.014 114.4 444.684 116.308 444.684C118.204 444.684 119.884 444.996 121.348 445.62C122.824 446.244 124.078 447.06 125.11 448.068L123.49 450.318C123.394 450.462 123.268 450.588 123.112 450.696C122.968 450.804 122.764 450.858 122.5 450.858C122.32 450.858 122.134 450.81 121.942 450.714C121.75 450.606 121.54 450.48 121.312 450.336C121.084 450.18 120.82 450.012 120.52 449.832C120.22 449.652 119.872 449.49 119.476 449.346C119.08 449.19 118.618 449.064 118.09 448.968C117.574 448.86 116.974 448.806 116.29 448.806C115.126 448.806 114.058 449.016 113.086 449.436C112.126 449.844 111.298 450.444 110.602 451.236C109.906 452.016 109.366 452.976 108.982 454.116C108.598 455.244 108.406 456.534 108.406 457.986C108.406 459.45 108.61 460.752 109.018 461.892C109.438 463.032 110.002 463.992 110.71 464.772C111.418 465.552 112.252 466.152 113.212 466.572C114.172 466.98 115.204 467.184 116.308 467.184C116.968 467.184 117.562 467.148 118.09 467.076C118.63 467.004 119.122 466.89 119.566 466.734C120.022 466.578 120.448 466.38 120.844 466.14C121.252 465.888 121.654 465.582 122.05 465.222C122.17 465.114 122.296 465.03 122.428 464.97C122.56 464.898 122.698 464.862 122.842 464.862ZM135.852 452.244C137.22 452.244 138.462 452.466 139.578 452.91C140.706 453.354 141.666 453.984 142.458 454.8C143.262 455.616 143.88 456.612 144.312 457.788C144.744 458.964 144.96 460.278 144.96 461.73C144.96 463.194 144.744 464.514 144.312 465.69C143.88 466.866 143.262 467.868 142.458 468.696C141.666 469.524 140.706 470.16 139.578 470.604C138.462 471.048 137.22 471.27 135.852 471.27C134.472 471.27 133.218 471.048 132.09 470.604C130.962 470.16 129.996 469.524 129.192 468.696C128.4 467.868 127.782 466.866 127.338 465.69C126.906 464.514 126.69 463.194 126.69 461.73C126.69 460.278 126.906 458.964 127.338 457.788C127.782 456.612 128.4 455.616 129.192 454.8C129.996 453.984 130.962 453.354 132.09 452.91C133.218 452.466 134.472 452.244 135.852 452.244ZM135.852 467.85C137.388 467.85 138.522 467.334 139.254 466.302C139.998 465.27 140.37 463.758 140.37 461.766C140.37 459.774 139.998 458.256 139.254 457.212C138.522 456.168 137.388 455.646 135.852 455.646C134.292 455.646 133.134 456.174 132.378 457.23C131.634 458.274 131.262 459.786 131.262 461.766C131.262 463.746 131.634 465.258 132.378 466.302C133.134 467.334 134.292 467.85 135.852 467.85ZM164.264 452.532V471H161.546C160.958 471 160.586 470.73 160.43 470.19L160.124 468.714C159.368 469.482 158.534 470.106 157.622 470.586C156.71 471.054 155.636 471.288 154.4 471.288C153.392 471.288 152.498 471.12 151.718 470.784C150.95 470.436 150.302 469.95 149.774 469.326C149.246 468.702 148.844 467.964 148.568 467.112C148.304 466.248 148.172 465.3 148.172 464.268V452.532H152.618V464.268C152.618 465.396 152.876 466.272 153.392 466.896C153.92 467.508 154.706 467.814 155.75 467.814C156.518 467.814 157.238 467.646 157.91 467.31C158.582 466.962 159.218 466.488 159.818 465.888V452.532H164.264ZM173.119 466.212C173.623 466.824 174.169 467.256 174.757 467.508C175.357 467.76 176.005 467.886 176.701 467.886C177.373 467.886 177.979 467.76 178.519 467.508C179.059 467.256 179.515 466.872 179.887 466.356C180.271 465.84 180.565 465.192 180.769 464.412C180.973 463.62 181.075 462.69 181.075 461.622C181.075 460.542 180.985 459.63 180.805 458.886C180.637 458.13 180.391 457.518 180.067 457.05C179.743 456.582 179.347 456.24 178.879 456.024C178.423 455.808 177.901 455.7 177.313 455.7C176.389 455.7 175.603 455.898 174.955 456.294C174.307 456.678 173.695 457.224 173.119 457.932V466.212ZM172.885 455.052C173.641 454.2 174.499 453.51 175.459 452.982C176.419 452.454 177.547 452.19 178.843 452.19C179.851 452.19 180.769 452.4 181.597 452.82C182.437 453.24 183.157 453.852 183.757 454.656C184.369 455.448 184.837 456.432 185.161 457.608C185.497 458.772 185.665 460.11 185.665 461.622C185.665 463.002 185.479 464.28 185.107 465.456C184.735 466.632 184.201 467.652 183.505 468.516C182.821 469.38 181.987 470.058 181.003 470.55C180.031 471.03 178.939 471.27 177.727 471.27C176.695 471.27 175.813 471.114 175.081 470.802C174.349 470.478 173.695 470.034 173.119 469.47V477.03H168.673V452.532H171.391C171.967 452.532 172.345 452.802 172.525 453.342L172.885 455.052ZM197.306 452.244C198.674 452.244 199.916 452.466 201.032 452.91C202.16 453.354 203.12 453.984 203.912 454.8C204.715 455.616 205.333 456.612 205.766 457.788C206.198 458.964 206.414 460.278 206.414 461.73C206.414 463.194 206.198 464.514 205.766 465.69C205.333 466.866 204.715 467.868 203.912 468.696C203.12 469.524 202.16 470.16 201.032 470.604C199.916 471.048 198.674 471.27 197.306 471.27C195.926 471.27 194.672 471.048 193.544 470.604C192.416 470.16 191.45 469.524 190.646 468.696C189.854 467.868 189.236 466.866 188.792 465.69C188.36 464.514 188.144 463.194 188.144 461.73C188.144 460.278 188.36 458.964 188.792 457.788C189.236 456.612 189.854 455.616 190.646 454.8C191.45 453.984 192.416 453.354 193.544 452.91C194.672 452.466 195.926 452.244 197.306 452.244ZM197.306 467.85C198.842 467.85 199.976 467.334 200.708 466.302C201.452 465.27 201.824 463.758 201.824 461.766C201.824 459.774 201.452 458.256 200.708 457.212C199.976 456.168 198.842 455.646 197.306 455.646C195.746 455.646 194.588 456.174 193.832 457.23C193.088 458.274 192.716 459.786 192.716 461.766C192.716 463.746 193.088 465.258 193.832 466.302C194.588 467.334 195.746 467.85 197.306 467.85ZM213.963 454.8C214.335 454.428 214.725 454.086 215.133 453.774C215.553 453.45 215.991 453.18 216.447 452.964C216.915 452.736 217.413 452.562 217.941 452.442C218.469 452.31 219.045 452.244 219.669 452.244C220.677 452.244 221.571 452.418 222.351 452.766C223.131 453.102 223.779 453.582 224.295 454.206C224.823 454.818 225.219 455.556 225.483 456.42C225.759 457.272 225.897 458.214 225.897 459.246V471H221.451V459.246C221.451 458.118 221.193 457.248 220.677 456.636C220.161 456.012 219.375 455.7 218.319 455.7C217.551 455.7 216.831 455.874 216.159 456.222C215.487 456.57 214.851 457.044 214.251 457.644V471H209.805V452.532H212.523C213.099 452.532 213.477 452.802 213.657 453.342L213.963 454.8Z" fill="black" fill-opacity="0.6"/>
<path d="M331 167H4" stroke="black" stroke-opacity="0.6" stroke-width="3" stroke-dasharray="6 6"/>
</svg>
