<svg width="285" height="142" viewBox="0 0 285 142" fill="none" xmlns="http://www.w3.org/2000/svg">
<mask id="path-1-inside-1_766_3065" fill="white">
<path fill-rule="evenodd" clip-rule="evenodd" d="M52 0C23.2812 0 0 23.2812 0 52V68.521C0 97.2398 23.2812 120.521 52 120.521H229.478C254.167 125.576 274.774 135.263 283.855 142V79.4223C284.605 75.907 285 72.2601 285 68.521V52C285 23.2812 261.719 0 233 0H52Z"/>
</mask>
<path fill-rule="evenodd" clip-rule="evenodd" d="M52 0C23.2812 0 0 23.2812 0 52V68.521C0 97.2398 23.2812 120.521 52 120.521H229.478C254.167 125.576 274.774 135.263 283.855 142V79.4223C284.605 75.907 285 72.2601 285 68.521V52C285 23.2812 261.719 0 233 0H52Z" fill="white"/>
<path d="M229.478 120.521L230.08 117.582L229.782 117.521H229.478V120.521ZM283.855 142L282.068 144.409L286.855 147.961V142H283.855ZM283.855 79.4223L280.921 78.7964L280.855 79.1059V79.4223H283.855ZM3 52C3 24.9381 24.938 3 52 3V-3C21.6243 -3 -3 21.6243 -3 52H3ZM3 68.521V52H-3V68.521H3ZM52 117.521C24.938 117.521 3 95.583 3 68.521H-3C-3 98.8967 21.6243 123.521 52 123.521V117.521ZM229.478 117.521H52V123.521H229.478V117.521ZM228.876 123.46C253.247 128.45 273.42 137.994 282.068 144.409L285.643 139.59C276.129 132.533 255.087 122.702 230.08 117.582L228.876 123.46ZM286.855 142V79.4223H280.855V142H286.855ZM282 68.521C282 72.0484 281.628 75.4856 280.921 78.7964L286.789 80.0482C287.583 76.3284 288 72.4717 288 68.521H282ZM282 52V68.521H288V52H282ZM233 3C260.062 3 282 24.938 282 52H288C288 21.6243 263.376 -3 233 -3V3ZM52 3H233V-3H52V3Z" fill="black" mask="url(#path-1-inside-1_766_3065)"/>
<path d="M46.38 30.27C46.2867 30.4233 46.19 30.5367 46.09 30.61C45.9967 30.6767 45.8733 30.71 45.72 30.71C45.5733 30.71 45.4133 30.66 45.24 30.56C45.0733 30.4533 44.8767 30.34 44.65 30.22C44.4233 30.1 44.1633 29.99 43.87 29.89C43.5767 29.7833 43.2333 29.73 42.84 29.73C42.1467 29.73 41.6267 29.8867 41.28 30.2C40.9333 30.5067 40.76 30.91 40.76 31.41C40.76 31.73 40.8533 31.9967 41.04 32.21C41.2333 32.4167 41.4833 32.5967 41.79 32.75C42.1033 32.9033 42.4567 33.04 42.85 33.16C43.2433 33.28 43.6467 33.4133 44.06 33.56C44.4733 33.7 44.8767 33.8667 45.27 34.06C45.6633 34.2533 46.0133 34.4967 46.32 34.79C46.6333 35.0833 46.8833 35.4433 47.07 35.87C47.2633 36.29 47.36 36.8033 47.36 37.41C47.36 38.07 47.2433 38.69 47.01 39.27C46.7833 39.8433 46.4533 40.3467 46.02 40.78C45.5867 41.2067 45.05 41.5433 44.41 41.79C43.7767 42.0367 43.0567 42.16 42.25 42.16C41.79 42.16 41.33 42.1133 40.87 42.02C40.4167 41.9267 39.9767 41.7967 39.55 41.63C39.13 41.4633 38.7333 41.2633 38.36 41.03C37.9867 40.7967 37.66 40.5367 37.38 40.25L38.26 38.83C38.3333 38.7233 38.43 38.6367 38.55 38.57C38.67 38.4967 38.7967 38.46 38.93 38.46C39.11 38.46 39.3 38.5267 39.5 38.66C39.7 38.7933 39.93 38.94 40.19 39.1C40.45 39.26 40.75 39.4067 41.09 39.54C41.4367 39.6733 41.85 39.74 42.33 39.74C43.03 39.74 43.57 39.58 43.95 39.26C44.3367 38.94 44.53 38.4633 44.53 37.83C44.53 37.4633 44.4333 37.1667 44.24 36.94C44.0533 36.7133 43.8067 36.5233 43.5 36.37C43.1933 36.2167 42.8433 36.0867 42.45 35.98C42.0567 35.8667 41.6533 35.7433 41.24 35.61C40.8267 35.4767 40.4233 35.3167 40.03 35.13C39.6367 34.9433 39.2867 34.6967 38.98 34.39C38.6733 34.0833 38.4233 33.7033 38.23 33.25C38.0433 32.7967 37.95 32.2333 37.95 31.56C37.95 31.02 38.0567 30.4967 38.27 29.99C38.4833 29.4833 38.7967 29.0333 39.21 28.64C39.6233 28.2467 40.13 27.93 40.73 27.69C41.3367 27.45 42.03 27.33 42.81 27.33C43.6833 27.33 44.49 27.4667 45.23 27.74C45.9767 28.0067 46.6067 28.38 47.12 28.86L46.38 30.27ZM59.8056 29.91H55.5656V42H52.5556V29.91H48.3156V27.49H59.8056V29.91ZM64.6259 29.84V33.57H69.4659V35.84H64.6259V39.65H70.8459V42H61.6059V27.49H70.8459V29.84H64.6259ZM77.9903 34.71C78.9303 34.71 79.617 34.4833 80.0503 34.03C80.4903 33.5767 80.7103 32.9567 80.7103 32.17C80.7103 31.81 80.6536 31.4833 80.5403 31.19C80.4336 30.89 80.267 30.6367 80.0403 30.43C79.8203 30.2167 79.5403 30.0533 79.2003 29.94C78.8603 29.8267 78.457 29.77 77.9903 29.77H76.0903V34.71H77.9903ZM77.9903 27.49C78.9836 27.49 79.8403 27.6067 80.5603 27.84C81.287 28.0733 81.8836 28.4 82.3503 28.82C82.817 29.2333 83.1603 29.7267 83.3803 30.3C83.607 30.8733 83.7203 31.4967 83.7203 32.17C83.7203 32.8833 83.6036 33.5367 83.3703 34.13C83.137 34.7233 82.7836 35.2333 82.3103 35.66C81.837 36.0867 81.2403 36.42 80.5203 36.66C79.8003 36.8933 78.957 37.01 77.9903 37.01H76.0903V42H73.0903V27.49H77.9903ZM89.2791 31.58C89.3857 30.8733 89.5857 30.2533 89.8791 29.72C90.1724 29.1867 90.5391 28.7433 90.9791 28.39C91.4191 28.0367 91.9191 27.7733 92.4791 27.6C93.0457 27.42 93.6557 27.33 94.3091 27.33C95.0024 27.33 95.6224 27.43 96.1691 27.63C96.7224 27.8233 97.1891 28.09 97.5691 28.43C97.9491 28.77 98.2391 29.1667 98.4391 29.62C98.6457 30.0733 98.7491 30.56 98.7491 31.08C98.7491 31.54 98.6991 31.9467 98.5991 32.3C98.5057 32.6467 98.3624 32.95 98.1691 33.21C97.9824 33.47 97.7491 33.69 97.4691 33.87C97.1957 34.05 96.8791 34.2 96.5191 34.32C98.1857 34.8667 99.0191 35.9767 99.0191 37.65C99.0191 38.39 98.8824 39.0433 98.6091 39.61C98.3357 40.17 97.9691 40.64 97.5091 41.02C97.0491 41.4 96.5124 41.6867 95.8991 41.88C95.2924 42.0667 94.6557 42.16 93.9891 42.16C93.2824 42.16 92.6591 42.08 92.1191 41.92C91.5791 41.76 91.1024 41.52 90.6891 41.2C90.2824 40.88 89.9324 40.48 89.6391 40C89.3457 39.5133 89.0891 38.9467 88.8691 38.3L90.0891 37.8C90.4091 37.6667 90.7057 37.63 90.9791 37.69C91.2591 37.75 91.4591 37.8967 91.5791 38.13C91.7124 38.3833 91.8524 38.6167 91.9991 38.83C92.1524 39.0433 92.3224 39.23 92.5091 39.39C92.6957 39.5433 92.9057 39.6633 93.1391 39.75C93.3791 39.8367 93.6524 39.88 93.9591 39.88C94.3457 39.88 94.6824 39.8167 94.9691 39.69C95.2557 39.5633 95.4957 39.4 95.6891 39.2C95.8824 38.9933 96.0257 38.7633 96.1191 38.51C96.2191 38.25 96.2691 37.9933 96.2691 37.74C96.2691 37.4067 96.2391 37.1067 96.1791 36.84C96.1191 36.5667 95.9791 36.3367 95.7591 36.15C95.5457 35.9567 95.2257 35.81 94.7991 35.71C94.3791 35.6033 93.8057 35.55 93.0791 35.55V33.61C93.6857 33.61 94.1824 33.56 94.5691 33.46C94.9557 33.36 95.2591 33.22 95.4791 33.04C95.6991 32.86 95.8491 32.6433 95.9291 32.39C96.0157 32.1367 96.0591 31.86 96.0591 31.56C96.0591 30.9267 95.8924 30.4433 95.5591 30.11C95.2324 29.7767 94.7657 29.61 94.1591 29.61C93.8924 29.61 93.6457 29.65 93.4191 29.73C93.1991 29.8033 92.9991 29.9067 92.8191 30.04C92.6457 30.1733 92.4957 30.33 92.3691 30.51C92.2424 30.69 92.1491 30.8867 92.0891 31.1C91.9624 31.4333 91.7991 31.6567 91.5991 31.77C91.3991 31.8767 91.1091 31.9 90.7291 31.84L89.2791 31.58Z" fill="black"/>
<path d="M44.174 72.614C44.672 72.614 45.101 72.557 45.461 72.443C45.821 72.329 46.115 72.17 46.343 71.966C46.577 71.756 46.748 71.51 46.856 71.228C46.964 70.94 47.018 70.625 47.018 70.283C47.018 69.617 46.781 69.092 46.307 68.708C45.833 68.318 45.122 68.123 44.174 68.123H41.384V72.614H44.174ZM41.384 62.48V66.881H43.688C44.18 66.881 44.606 66.827 44.966 66.719C45.332 66.611 45.632 66.461 45.866 66.269C46.106 66.077 46.283 65.846 46.397 65.576C46.511 65.3 46.568 65 46.568 64.676C46.568 63.914 46.34 63.359 45.884 63.011C45.428 62.657 44.72 62.48 43.76 62.48H41.384ZM43.76 61.103C44.552 61.103 45.233 61.181 45.803 61.337C46.379 61.493 46.85 61.715 47.216 62.003C47.588 62.291 47.861 62.645 48.035 63.065C48.209 63.479 48.296 63.947 48.296 64.469C48.296 64.787 48.245 65.093 48.143 65.387C48.047 65.675 47.9 65.945 47.702 66.197C47.504 66.449 47.252 66.677 46.946 66.881C46.646 67.079 46.292 67.241 45.884 67.367C46.832 67.547 47.543 67.886 48.017 68.384C48.497 68.876 48.737 69.524 48.737 70.328C48.737 70.874 48.635 71.372 48.431 71.822C48.233 72.272 47.939 72.659 47.549 72.983C47.165 73.307 46.691 73.559 46.127 73.739C45.563 73.913 44.921 74 44.201 74H39.647V61.103H43.76ZM57.9569 69.212L55.9319 63.965C55.8719 63.809 55.8089 63.629 55.7429 63.425C55.6769 63.215 55.6139 62.993 55.5539 62.759C55.4279 63.245 55.2989 63.65 55.1669 63.974L53.1419 69.212H57.9569ZM61.5929 74H60.2429C60.0869 74 59.9609 73.961 59.8649 73.883C59.7689 73.805 59.6969 73.706 59.6489 73.586L58.4429 70.472H52.6559L51.4499 73.586C51.4139 73.694 51.3449 73.79 51.2429 73.874C51.1409 73.958 51.0149 74 50.8649 74H49.5149L54.6719 61.103H56.4359L61.5929 74ZM76.7086 61.103V74H75.1786V64.523C75.1786 64.397 75.1816 64.262 75.1876 64.118C75.1996 63.974 75.2116 63.827 75.2236 63.677L70.7956 71.741C70.6576 72.011 70.4476 72.146 70.1656 72.146H69.9136C69.6316 72.146 69.4216 72.011 69.2836 71.741L64.7656 63.641C64.8016 63.959 64.8196 64.253 64.8196 64.523V74H63.2896V61.103H64.5766C64.7326 61.103 64.8526 61.118 64.9366 61.148C65.0206 61.178 65.1016 61.262 65.1796 61.4L69.6346 69.338C69.7066 69.482 69.7756 69.632 69.8416 69.788C69.9136 69.944 69.9796 70.103 70.0396 70.265C70.0996 70.103 70.1626 69.944 70.2286 69.788C70.2946 69.626 70.3666 69.473 70.4446 69.329L74.8186 61.4C74.8906 61.262 74.9686 61.178 75.0526 61.148C75.1426 61.118 75.2656 61.103 75.4216 61.103H76.7086ZM81.5544 61.103V66.251C81.5544 66.521 81.5484 66.785 81.5364 67.043C81.5244 67.301 81.5094 67.562 81.4914 67.826C81.4734 68.084 81.4494 68.351 81.4194 68.627C81.3954 68.897 81.3654 69.188 81.3294 69.5H80.2494C80.2134 69.188 80.1804 68.897 80.1504 68.627C80.1264 68.351 80.1054 68.084 80.0874 67.826C80.0694 67.562 80.0544 67.301 80.0424 67.043C80.0304 66.785 80.0244 66.521 80.0244 66.251V61.103H81.5544ZM79.6374 73.01C79.6374 72.854 79.6644 72.707 79.7184 72.569C79.7784 72.431 79.8594 72.311 79.9614 72.209C80.0634 72.107 80.1804 72.026 80.3124 71.966C80.4504 71.906 80.6004 71.876 80.7624 71.876C80.9184 71.876 81.0624 71.906 81.1944 71.966C81.3324 72.026 81.4524 72.107 81.5544 72.209C81.6564 72.311 81.7374 72.431 81.7974 72.569C81.8574 72.707 81.8874 72.854 81.8874 73.01C81.8874 73.172 81.8574 73.322 81.7974 73.46C81.7374 73.592 81.6564 73.709 81.5544 73.811C81.4524 73.913 81.3324 73.991 81.1944 74.045C81.0624 74.105 80.9184 74.135 80.7624 74.135C80.6004 74.135 80.4504 74.105 80.3124 74.045C80.1804 73.991 80.0634 73.913 79.9614 73.811C79.8594 73.709 79.7784 73.592 79.7184 73.46C79.6644 73.322 79.6374 73.172 79.6374 73.01ZM97.4018 72.578L97.3928 74H89.4458V61.103H97.3928V62.525H91.1918V66.809H96.2138V68.177H91.1918V72.578H97.4018ZM100.722 66.206C100.92 65.984 101.13 65.783 101.352 65.603C101.574 65.423 101.808 65.27 102.054 65.144C102.306 65.012 102.57 64.913 102.846 64.847C103.128 64.775 103.431 64.739 103.755 64.739C104.253 64.739 104.691 64.823 105.069 64.991C105.453 65.153 105.771 65.387 106.023 65.693C106.281 65.993 106.476 66.356 106.608 66.782C106.74 67.208 106.806 67.679 106.806 68.195V74H105.195V68.195C105.195 67.505 105.036 66.971 104.718 66.593C104.406 66.209 103.929 66.017 103.287 66.017C102.813 66.017 102.369 66.131 101.955 66.359C101.547 66.587 101.169 66.896 100.821 67.286V74H99.2104V64.883H100.173C100.401 64.883 100.542 64.994 100.596 65.216L100.722 66.206ZM110.94 64.883V74.675C110.94 75.041 110.892 75.38 110.796 75.692C110.7 76.01 110.547 76.286 110.337 76.52C110.127 76.754 109.857 76.937 109.527 77.069C109.203 77.207 108.813 77.276 108.357 77.276C108.165 77.276 107.988 77.261 107.826 77.231C107.664 77.201 107.502 77.156 107.34 77.096L107.403 76.232C107.415 76.178 107.436 76.136 107.466 76.106C107.49 76.082 107.526 76.067 107.574 76.061C107.622 76.055 107.685 76.052 107.763 76.052C107.835 76.058 107.928 76.061 108.042 76.061C108.51 76.061 108.843 75.95 109.041 75.728C109.239 75.512 109.338 75.161 109.338 74.675V64.883H110.94ZM111.273 62.021C111.273 62.177 111.24 62.324 111.174 62.462C111.114 62.594 111.03 62.714 110.922 62.822C110.82 62.924 110.7 63.005 110.562 63.065C110.424 63.125 110.277 63.155 110.121 63.155C109.965 63.155 109.818 63.125 109.68 63.065C109.548 63.005 109.431 62.924 109.329 62.822C109.227 62.714 109.146 62.594 109.086 62.462C109.026 62.324 108.996 62.177 108.996 62.021C108.996 61.865 109.026 61.718 109.086 61.58C109.146 61.436 109.227 61.313 109.329 61.211C109.431 61.103 109.548 61.019 109.68 60.959C109.818 60.899 109.965 60.869 110.121 60.869C110.277 60.869 110.424 60.899 110.562 60.959C110.7 61.019 110.82 61.103 110.922 61.211C111.03 61.313 111.114 61.436 111.174 61.58C111.24 61.718 111.273 61.865 111.273 62.021ZM117.415 64.739C118.081 64.739 118.681 64.85 119.215 65.072C119.749 65.294 120.205 65.609 120.583 66.017C120.961 66.425 121.249 66.92 121.447 67.502C121.651 68.078 121.753 68.723 121.753 69.437C121.753 70.157 121.651 70.805 121.447 71.381C121.249 71.957 120.961 72.449 120.583 72.857C120.205 73.265 119.749 73.58 119.215 73.802C118.681 74.018 118.081 74.126 117.415 74.126C116.743 74.126 116.137 74.018 115.597 73.802C115.063 73.58 114.607 73.265 114.229 72.857C113.851 72.449 113.56 71.957 113.356 71.381C113.158 70.805 113.059 70.157 113.059 69.437C113.059 68.723 113.158 68.078 113.356 67.502C113.56 66.92 113.851 66.425 114.229 66.017C114.607 65.609 115.063 65.294 115.597 65.072C116.137 64.85 116.743 64.739 117.415 64.739ZM117.415 72.875C118.315 72.875 118.987 72.575 119.431 71.975C119.875 71.369 120.097 70.526 120.097 69.446C120.097 68.36 119.875 67.514 119.431 66.908C118.987 66.302 118.315 65.999 117.415 65.999C116.959 65.999 116.56 66.077 116.218 66.233C115.882 66.389 115.6 66.614 115.372 66.908C115.15 67.202 114.982 67.565 114.868 67.997C114.76 68.423 114.706 68.906 114.706 69.446C114.706 70.526 114.928 71.369 115.372 71.975C115.822 72.575 116.503 72.875 117.415 72.875ZM131.369 64.883L126.284 76.691C126.23 76.811 126.161 76.907 126.077 76.979C125.999 77.051 125.876 77.087 125.708 77.087H124.52L126.185 73.469L122.423 64.883H123.809C123.947 64.883 124.055 64.919 124.133 64.991C124.217 65.057 124.274 65.132 124.304 65.216L126.743 70.958C126.839 71.21 126.92 71.474 126.986 71.75C127.07 71.468 127.16 71.201 127.256 70.949L129.623 65.216C129.659 65.12 129.719 65.042 129.803 64.982C129.893 64.916 129.992 64.883 130.1 64.883H131.369ZM138.562 71.804C138.856 72.2 139.177 72.479 139.525 72.641C139.879 72.803 140.266 72.884 140.686 72.884C141.544 72.884 142.201 72.581 142.657 71.975C143.113 71.369 143.341 70.466 143.341 69.266C143.341 68.15 143.137 67.331 142.729 66.809C142.327 66.281 141.751 66.017 141.001 66.017C140.479 66.017 140.023 66.137 139.633 66.377C139.249 66.617 138.892 66.956 138.562 67.394V71.804ZM138.562 66.197C138.946 65.753 139.378 65.399 139.858 65.135C140.344 64.871 140.902 64.739 141.532 64.739C142.066 64.739 142.546 64.841 142.972 65.045C143.404 65.249 143.77 65.546 144.07 65.936C144.37 66.32 144.598 66.788 144.754 67.34C144.916 67.892 144.997 68.513 144.997 69.203C144.997 69.941 144.907 70.613 144.727 71.219C144.547 71.825 144.286 72.344 143.944 72.776C143.608 73.202 143.197 73.535 142.711 73.775C142.225 74.009 141.679 74.126 141.073 74.126C140.473 74.126 139.966 74.015 139.552 73.793C139.144 73.565 138.787 73.244 138.481 72.83L138.4 73.658C138.352 73.886 138.214 74 137.986 74H136.951V60.743H138.562V66.197ZM153.125 68.447C153.125 68.075 153.071 67.736 152.963 67.43C152.861 67.118 152.708 66.851 152.504 66.629C152.306 66.401 152.063 66.227 151.775 66.107C151.487 65.981 151.16 65.918 150.794 65.918C150.026 65.918 149.417 66.143 148.967 66.593C148.523 67.037 148.247 67.655 148.139 68.447H153.125ZM154.421 72.722C154.223 72.962 153.986 73.172 153.71 73.352C153.434 73.526 153.137 73.67 152.819 73.784C152.507 73.898 152.183 73.982 151.847 74.036C151.511 74.096 151.178 74.126 150.848 74.126C150.218 74.126 149.636 74.021 149.102 73.811C148.574 73.595 148.115 73.283 147.725 72.875C147.341 72.461 147.041 71.951 146.825 71.345C146.609 70.739 146.501 70.043 146.501 69.257C146.501 68.621 146.597 68.027 146.789 67.475C146.987 66.923 147.269 66.446 147.635 66.044C148.001 65.636 148.448 65.318 148.976 65.09C149.504 64.856 150.098 64.739 150.758 64.739C151.304 64.739 151.808 64.832 152.27 65.018C152.738 65.198 153.14 65.462 153.476 65.81C153.818 66.152 154.085 66.578 154.277 67.088C154.469 67.592 154.565 68.168 154.565 68.816C154.565 69.068 154.538 69.236 154.484 69.32C154.43 69.404 154.328 69.446 154.178 69.446H148.085C148.103 70.022 148.181 70.523 148.319 70.949C148.463 71.375 148.661 71.732 148.913 72.02C149.165 72.302 149.465 72.515 149.813 72.659C150.161 72.797 150.551 72.866 150.983 72.866C151.385 72.866 151.73 72.821 152.018 72.731C152.312 72.635 152.564 72.533 152.774 72.425C152.984 72.317 153.158 72.218 153.296 72.128C153.44 72.032 153.563 71.984 153.665 71.984C153.797 71.984 153.899 72.035 153.971 72.137L154.421 72.722ZM158.225 64.883V74H156.623V64.883H158.225ZM158.567 62.021C158.567 62.177 158.534 62.324 158.468 62.462C158.408 62.594 158.324 62.714 158.216 62.822C158.114 62.924 157.991 63.005 157.847 63.065C157.709 63.125 157.562 63.155 157.406 63.155C157.25 63.155 157.103 63.125 156.965 63.065C156.833 63.005 156.716 62.924 156.614 62.822C156.512 62.714 156.431 62.594 156.371 62.462C156.311 62.324 156.281 62.177 156.281 62.021C156.281 61.865 156.311 61.718 156.371 61.58C156.431 61.436 156.512 61.313 156.614 61.211C156.716 61.103 156.833 61.019 156.965 60.959C157.103 60.899 157.25 60.869 157.406 60.869C157.562 60.869 157.709 60.899 157.847 60.959C157.991 61.019 158.114 61.103 158.216 61.211C158.324 61.313 158.408 61.436 158.468 61.58C158.534 61.718 158.567 61.865 158.567 62.021ZM162.369 66.206C162.567 65.984 162.777 65.783 162.999 65.603C163.221 65.423 163.455 65.27 163.701 65.144C163.953 65.012 164.217 64.913 164.493 64.847C164.775 64.775 165.078 64.739 165.402 64.739C165.9 64.739 166.338 64.823 166.716 64.991C167.1 65.153 167.418 65.387 167.67 65.693C167.928 65.993 168.123 66.356 168.255 66.782C168.387 67.208 168.453 67.679 168.453 68.195V74H166.842V68.195C166.842 67.505 166.683 66.971 166.365 66.593C166.053 66.209 165.576 66.017 164.934 66.017C164.46 66.017 164.016 66.131 163.602 66.359C163.194 66.587 162.816 66.896 162.468 67.286V74H160.857V64.883H161.82C162.048 64.883 162.189 64.994 162.243 65.216L162.369 66.206ZM174.071 69.545C174.395 69.545 174.68 69.5 174.926 69.41C175.172 69.32 175.379 69.194 175.547 69.032C175.715 68.87 175.841 68.678 175.925 68.456C176.009 68.228 176.051 67.979 176.051 67.709C176.051 67.151 175.88 66.707 175.538 66.377C175.202 66.047 174.713 65.882 174.071 65.882C173.423 65.882 172.928 66.047 172.586 66.377C172.25 66.707 172.082 67.151 172.082 67.709C172.082 67.979 172.124 68.228 172.208 68.456C172.298 68.678 172.427 68.87 172.595 69.032C172.763 69.194 172.97 69.32 173.216 69.41C173.462 69.5 173.747 69.545 174.071 69.545ZM176.96 74.495C176.96 74.273 176.897 74.093 176.771 73.955C176.645 73.817 176.474 73.709 176.258 73.631C176.048 73.553 175.802 73.499 175.52 73.469C175.238 73.433 174.938 73.406 174.62 73.388C174.308 73.37 173.99 73.352 173.666 73.334C173.342 73.316 173.03 73.286 172.73 73.244C172.394 73.4 172.118 73.598 171.902 73.838C171.692 74.072 171.587 74.348 171.587 74.666C171.587 74.87 171.638 75.059 171.74 75.233C171.848 75.413 172.01 75.566 172.226 75.692C172.442 75.824 172.712 75.926 173.036 75.998C173.366 76.076 173.753 76.115 174.197 76.115C174.629 76.115 175.016 76.076 175.358 75.998C175.7 75.92 175.988 75.809 176.222 75.665C176.462 75.521 176.645 75.35 176.771 75.152C176.897 74.954 176.96 74.735 176.96 74.495ZM178.589 65.243V65.837C178.589 66.035 178.463 66.161 178.211 66.215L177.176 66.35C177.38 66.746 177.482 67.184 177.482 67.664C177.482 68.108 177.395 68.513 177.221 68.879C177.053 69.239 176.819 69.548 176.519 69.806C176.219 70.064 175.859 70.262 175.439 70.4C175.019 70.538 174.563 70.607 174.071 70.607C173.645 70.607 173.243 70.556 172.865 70.454C172.673 70.574 172.526 70.703 172.424 70.841C172.322 70.973 172.271 71.108 172.271 71.246C172.271 71.462 172.358 71.627 172.532 71.741C172.712 71.849 172.946 71.927 173.234 71.975C173.522 72.023 173.849 72.053 174.215 72.065C174.587 72.077 174.965 72.098 175.349 72.128C175.739 72.152 176.117 72.197 176.483 72.263C176.855 72.329 177.185 72.437 177.473 72.587C177.761 72.737 177.992 72.944 178.166 73.208C178.346 73.472 178.436 73.814 178.436 74.234C178.436 74.624 178.337 75.002 178.139 75.368C177.947 75.734 177.668 76.058 177.302 76.34C176.936 76.628 176.486 76.856 175.952 77.024C175.424 77.198 174.827 77.285 174.161 77.285C173.495 77.285 172.913 77.219 172.415 77.087C171.917 76.955 171.503 76.778 171.173 76.556C170.843 76.334 170.594 76.076 170.426 75.782C170.264 75.494 170.183 75.191 170.183 74.873C170.183 74.423 170.324 74.042 170.606 73.73C170.888 73.418 171.275 73.169 171.767 72.983C171.497 72.863 171.281 72.704 171.119 72.506C170.963 72.302 170.885 72.029 170.885 71.687C170.885 71.555 170.909 71.42 170.957 71.282C171.005 71.138 171.077 70.997 171.173 70.859C171.275 70.715 171.398 70.58 171.542 70.454C171.686 70.328 171.854 70.217 172.046 70.121C171.596 69.869 171.245 69.536 170.993 69.122C170.741 68.702 170.615 68.216 170.615 67.664C170.615 67.22 170.699 66.818 170.867 66.458C171.041 66.092 171.281 65.783 171.587 65.531C171.893 65.273 172.256 65.075 172.676 64.937C173.102 64.799 173.567 64.73 174.071 64.73C174.467 64.73 174.836 64.775 175.178 64.865C175.52 64.949 175.832 65.075 176.114 65.243H178.589ZM187.65 74.144C186.93 74.144 186.375 73.943 185.985 73.541C185.601 73.139 185.409 72.56 185.409 71.804V66.224H184.311C184.215 66.224 184.134 66.197 184.068 66.143C184.002 66.083 183.969 65.993 183.969 65.873V65.234L185.463 65.045L185.832 62.228C185.85 62.138 185.889 62.066 185.949 62.012C186.015 61.952 186.099 61.922 186.201 61.922H187.011V65.063H189.648V66.224H187.011V71.696C187.011 72.08 187.104 72.365 187.29 72.551C187.476 72.737 187.716 72.83 188.01 72.83C188.178 72.83 188.322 72.809 188.442 72.767C188.568 72.719 188.676 72.668 188.766 72.614C188.856 72.56 188.931 72.512 188.991 72.47C189.057 72.422 189.114 72.398 189.162 72.398C189.246 72.398 189.321 72.449 189.387 72.551L189.855 73.316C189.579 73.574 189.246 73.778 188.856 73.928C188.466 74.072 188.064 74.144 187.65 74.144ZM192.913 66.098C193.303 65.684 193.735 65.354 194.209 65.108C194.683 64.862 195.229 64.739 195.847 64.739C196.345 64.739 196.783 64.823 197.161 64.991C197.545 65.153 197.863 65.387 198.115 65.693C198.373 65.993 198.568 66.356 198.7 66.782C198.832 67.208 198.898 67.679 198.898 68.195V74H197.287V68.195C197.287 67.505 197.128 66.971 196.81 66.593C196.498 66.209 196.021 66.017 195.379 66.017C194.905 66.017 194.461 66.131 194.047 66.359C193.639 66.587 193.261 66.896 192.913 67.286V74H191.302V60.743H192.913V66.098ZM207.441 68.447C207.441 68.075 207.387 67.736 207.279 67.43C207.177 67.118 207.024 66.851 206.82 66.629C206.622 66.401 206.379 66.227 206.091 66.107C205.803 65.981 205.476 65.918 205.11 65.918C204.342 65.918 203.733 66.143 203.283 66.593C202.839 67.037 202.563 67.655 202.455 68.447H207.441ZM208.737 72.722C208.539 72.962 208.302 73.172 208.026 73.352C207.75 73.526 207.453 73.67 207.135 73.784C206.823 73.898 206.499 73.982 206.163 74.036C205.827 74.096 205.494 74.126 205.164 74.126C204.534 74.126 203.952 74.021 203.418 73.811C202.89 73.595 202.431 73.283 202.041 72.875C201.657 72.461 201.357 71.951 201.141 71.345C200.925 70.739 200.817 70.043 200.817 69.257C200.817 68.621 200.913 68.027 201.105 67.475C201.303 66.923 201.585 66.446 201.951 66.044C202.317 65.636 202.764 65.318 203.292 65.09C203.82 64.856 204.414 64.739 205.074 64.739C205.62 64.739 206.124 64.832 206.586 65.018C207.054 65.198 207.456 65.462 207.792 65.81C208.134 66.152 208.401 66.578 208.593 67.088C208.785 67.592 208.881 68.168 208.881 68.816C208.881 69.068 208.854 69.236 208.8 69.32C208.746 69.404 208.644 69.446 208.494 69.446H202.401C202.419 70.022 202.497 70.523 202.635 70.949C202.779 71.375 202.977 71.732 203.229 72.02C203.481 72.302 203.781 72.515 204.129 72.659C204.477 72.797 204.867 72.866 205.299 72.866C205.701 72.866 206.046 72.821 206.334 72.731C206.628 72.635 206.88 72.533 207.09 72.425C207.3 72.317 207.474 72.218 207.612 72.128C207.756 72.032 207.879 71.984 207.981 71.984C208.113 71.984 208.215 72.035 208.287 72.137L208.737 72.722ZM217.066 71.804C217.36 72.2 217.681 72.479 218.029 72.641C218.377 72.803 218.767 72.884 219.199 72.884C220.051 72.884 220.705 72.581 221.161 71.975C221.617 71.369 221.845 70.505 221.845 69.383C221.845 68.789 221.791 68.279 221.683 67.853C221.581 67.427 221.431 67.079 221.233 66.809C221.035 66.533 220.792 66.332 220.504 66.206C220.216 66.08 219.889 66.017 219.523 66.017C219.001 66.017 218.542 66.137 218.146 66.377C217.756 66.617 217.396 66.956 217.066 67.394V71.804ZM216.985 66.296C217.369 65.822 217.813 65.441 218.317 65.153C218.821 64.865 219.397 64.721 220.045 64.721C220.573 64.721 221.05 64.823 221.476 65.027C221.902 65.225 222.265 65.522 222.565 65.918C222.865 66.308 223.096 66.794 223.258 67.376C223.42 67.958 223.501 68.627 223.501 69.383C223.501 70.055 223.411 70.682 223.231 71.264C223.051 71.84 222.79 72.341 222.448 72.767C222.112 73.187 221.698 73.52 221.206 73.766C220.72 74.006 220.171 74.126 219.559 74.126C219.001 74.126 218.521 74.033 218.119 73.847C217.723 73.655 217.372 73.391 217.066 73.055V77.087H215.455V64.883H216.418C216.646 64.883 216.787 64.994 216.841 65.216L216.985 66.296ZM230.485 69.896C229.747 69.92 229.117 69.98 228.595 70.076C228.079 70.166 227.656 70.286 227.326 70.436C227.002 70.586 226.765 70.763 226.615 70.967C226.471 71.171 226.399 71.399 226.399 71.651C226.399 71.891 226.438 72.098 226.516 72.272C226.594 72.446 226.699 72.59 226.831 72.704C226.969 72.812 227.128 72.893 227.308 72.947C227.494 72.995 227.692 73.019 227.902 73.019C228.184 73.019 228.442 72.992 228.676 72.938C228.91 72.878 229.129 72.794 229.333 72.686C229.543 72.578 229.741 72.449 229.927 72.299C230.119 72.149 230.305 71.978 230.485 71.786V69.896ZM225.31 66.17C225.814 65.684 226.357 65.321 226.939 65.081C227.521 64.841 228.166 64.721 228.874 64.721C229.384 64.721 229.837 64.805 230.233 64.973C230.629 65.141 230.962 65.375 231.232 65.675C231.502 65.975 231.706 66.338 231.844 66.764C231.982 67.19 232.051 67.658 232.051 68.168V74H231.34C231.184 74 231.064 73.976 230.98 73.928C230.896 73.874 230.83 73.772 230.782 73.622L230.602 72.758C230.362 72.98 230.128 73.178 229.9 73.352C229.672 73.52 229.432 73.664 229.18 73.784C228.928 73.898 228.658 73.985 228.37 74.045C228.088 74.111 227.773 74.144 227.425 74.144C227.071 74.144 226.738 74.096 226.426 74C226.114 73.898 225.841 73.748 225.607 73.55C225.379 73.352 225.196 73.103 225.058 72.803C224.926 72.497 224.86 72.137 224.86 71.723C224.86 71.363 224.959 71.018 225.157 70.688C225.355 70.352 225.676 70.055 226.12 69.797C226.564 69.539 227.143 69.329 227.857 69.167C228.571 68.999 229.447 68.903 230.485 68.879V68.168C230.485 67.46 230.332 66.926 230.026 66.566C229.72 66.2 229.273 66.017 228.685 66.017C228.289 66.017 227.956 66.068 227.686 66.17C227.422 66.266 227.191 66.377 226.993 66.503C226.801 66.623 226.633 66.734 226.489 66.836C226.351 66.932 226.213 66.98 226.075 66.98C225.967 66.98 225.874 66.953 225.796 66.899C225.718 66.839 225.652 66.767 225.598 66.683L225.31 66.17ZM236.013 66.71C236.301 66.086 236.655 65.6 237.075 65.252C237.495 64.898 238.008 64.721 238.614 64.721C238.806 64.721 238.989 64.742 239.163 64.784C239.343 64.826 239.502 64.892 239.64 64.982L239.523 66.179C239.487 66.329 239.397 66.404 239.253 66.404C239.169 66.404 239.046 66.386 238.884 66.35C238.722 66.314 238.539 66.296 238.335 66.296C238.047 66.296 237.789 66.338 237.561 66.422C237.339 66.506 237.138 66.632 236.958 66.8C236.784 66.962 236.625 67.166 236.481 67.412C236.343 67.652 236.217 67.928 236.103 68.24V74H234.492V64.883H235.41C235.584 64.883 235.704 64.916 235.77 64.982C235.836 65.048 235.881 65.162 235.905 65.324L236.013 66.71ZM243.847 74.144C243.127 74.144 242.572 73.943 242.182 73.541C241.798 73.139 241.606 72.56 241.606 71.804V66.224H240.508C240.412 66.224 240.331 66.197 240.265 66.143C240.199 66.083 240.166 65.993 240.166 65.873V65.234L241.66 65.045L242.029 62.228C242.047 62.138 242.086 62.066 242.146 62.012C242.212 61.952 242.296 61.922 242.398 61.922H243.208V65.063H245.845V66.224H243.208V71.696C243.208 72.08 243.301 72.365 243.487 72.551C243.673 72.737 243.913 72.83 244.207 72.83C244.375 72.83 244.519 72.809 244.639 72.767C244.765 72.719 244.873 72.668 244.963 72.614C245.053 72.56 245.128 72.512 245.188 72.47C245.254 72.422 245.311 72.398 245.359 72.398C245.443 72.398 245.518 72.449 245.584 72.551L246.052 73.316C245.776 73.574 245.443 73.778 245.053 73.928C244.663 74.072 244.261 74.144 243.847 74.144ZM43.112 86.739C43.778 86.739 44.378 86.85 44.912 87.072C45.446 87.294 45.902 87.609 46.28 88.017C46.658 88.425 46.946 88.92 47.144 89.502C47.348 90.078 47.45 90.723 47.45 91.437C47.45 92.157 47.348 92.805 47.144 93.381C46.946 93.957 46.658 94.449 46.28 94.857C45.902 95.265 45.446 95.58 44.912 95.802C44.378 96.018 43.778 96.126 43.112 96.126C42.44 96.126 41.834 96.018 41.294 95.802C40.76 95.58 40.304 95.265 39.926 94.857C39.548 94.449 39.257 93.957 39.053 93.381C38.855 92.805 38.756 92.157 38.756 91.437C38.756 90.723 38.855 90.078 39.053 89.502C39.257 88.92 39.548 88.425 39.926 88.017C40.304 87.609 40.76 87.294 41.294 87.072C41.834 86.85 42.44 86.739 43.112 86.739ZM43.112 94.875C44.012 94.875 44.684 94.575 45.128 93.975C45.572 93.369 45.794 92.526 45.794 91.446C45.794 90.36 45.572 89.514 45.128 88.908C44.684 88.302 44.012 87.999 43.112 87.999C42.656 87.999 42.257 88.077 41.915 88.233C41.579 88.389 41.297 88.614 41.069 88.908C40.847 89.202 40.679 89.565 40.565 89.997C40.457 90.423 40.403 90.906 40.403 91.446C40.403 92.526 40.625 93.369 41.069 93.975C41.519 94.575 42.2 94.875 43.112 94.875ZM49.8825 96V88.251L48.8745 88.134C48.7485 88.104 48.6435 88.059 48.5595 87.999C48.4815 87.933 48.4425 87.84 48.4425 87.72V87.063H49.8825V86.181C49.8825 85.659 49.9545 85.197 50.0985 84.795C50.2485 84.387 50.4585 84.045 50.7285 83.769C51.0045 83.487 51.3345 83.274 51.7185 83.13C52.1025 82.986 52.5345 82.914 53.0145 82.914C53.4225 82.914 53.7975 82.974 54.1395 83.094L54.1035 83.895C54.0915 84.039 54.0105 84.117 53.8605 84.129C53.7165 84.141 53.5215 84.147 53.2755 84.147C52.9995 84.147 52.7475 84.183 52.5195 84.255C52.2975 84.327 52.1055 84.444 51.9435 84.606C51.7815 84.768 51.6555 84.981 51.5655 85.245C51.4815 85.509 51.4395 85.836 51.4395 86.226V87.063H54.0675V88.224H51.4935V96H49.8825ZM64.8116 91.896C64.0736 91.92 63.4436 91.98 62.9216 92.076C62.4056 92.166 61.9826 92.286 61.6526 92.436C61.3286 92.586 61.0916 92.763 60.9416 92.967C60.7976 93.171 60.7256 93.399 60.7256 93.651C60.7256 93.891 60.7646 94.098 60.8426 94.272C60.9206 94.446 61.0256 94.59 61.1576 94.704C61.2956 94.812 61.4546 94.893 61.6346 94.947C61.8206 94.995 62.0186 95.019 62.2286 95.019C62.5106 95.019 62.7686 94.992 63.0026 94.938C63.2366 94.878 63.4556 94.794 63.6596 94.686C63.8696 94.578 64.0676 94.449 64.2536 94.299C64.4456 94.149 64.6316 93.978 64.8116 93.786V91.896ZM59.6366 88.17C60.1406 87.684 60.6836 87.321 61.2656 87.081C61.8476 86.841 62.4926 86.721 63.2006 86.721C63.7106 86.721 64.1636 86.805 64.5596 86.973C64.9556 87.141 65.2886 87.375 65.5586 87.675C65.8286 87.975 66.0326 88.338 66.1706 88.764C66.3086 89.19 66.3776 89.658 66.3776 90.168V96H65.6666C65.5106 96 65.3906 95.976 65.3066 95.928C65.2226 95.874 65.1566 95.772 65.1086 95.622L64.9286 94.758C64.6886 94.98 64.4546 95.178 64.2266 95.352C63.9986 95.52 63.7586 95.664 63.5066 95.784C63.2546 95.898 62.9846 95.985 62.6966 96.045C62.4146 96.111 62.0996 96.144 61.7516 96.144C61.3976 96.144 61.0646 96.096 60.7526 96C60.4406 95.898 60.1676 95.748 59.9336 95.55C59.7056 95.352 59.5226 95.103 59.3846 94.803C59.2526 94.497 59.1866 94.137 59.1866 93.723C59.1866 93.363 59.2856 93.018 59.4836 92.688C59.6816 92.352 60.0026 92.055 60.4466 91.797C60.8906 91.539 61.4696 91.329 62.1836 91.167C62.8976 90.999 63.7736 90.903 64.8116 90.879V90.168C64.8116 89.46 64.6586 88.926 64.3526 88.566C64.0466 88.2 63.5996 88.017 63.0116 88.017C62.6156 88.017 62.2826 88.068 62.0126 88.17C61.7486 88.266 61.5176 88.377 61.3196 88.503C61.1276 88.623 60.9596 88.734 60.8156 88.836C60.6776 88.932 60.5396 88.98 60.4016 88.98C60.2936 88.98 60.2006 88.953 60.1226 88.899C60.0446 88.839 59.9786 88.767 59.9246 88.683L59.6366 88.17ZM70.3298 88.206C70.5278 87.984 70.7378 87.783 70.9598 87.603C71.1818 87.423 71.4158 87.27 71.6618 87.144C71.9138 87.012 72.1778 86.913 72.4538 86.847C72.7358 86.775 73.0388 86.739 73.3628 86.739C73.8608 86.739 74.2988 86.823 74.6768 86.991C75.0608 87.153 75.3788 87.387 75.6308 87.693C75.8888 87.993 76.0838 88.356 76.2158 88.782C76.3478 89.208 76.4138 89.679 76.4138 90.195V96H74.8028V90.195C74.8028 89.505 74.6438 88.971 74.3258 88.593C74.0138 88.209 73.5368 88.017 72.8948 88.017C72.4208 88.017 71.9768 88.131 71.5628 88.359C71.1548 88.587 70.7768 88.896 70.4288 89.286V96H68.8178V86.883H69.7808C70.0088 86.883 70.1498 86.994 70.2038 87.216L70.3298 88.206ZM88.4014 91.896C87.6634 91.92 87.0334 91.98 86.5114 92.076C85.9954 92.166 85.5724 92.286 85.2424 92.436C84.9184 92.586 84.6814 92.763 84.5314 92.967C84.3874 93.171 84.3154 93.399 84.3154 93.651C84.3154 93.891 84.3544 94.098 84.4324 94.272C84.5104 94.446 84.6154 94.59 84.7474 94.704C84.8854 94.812 85.0444 94.893 85.2244 94.947C85.4104 94.995 85.6084 95.019 85.8184 95.019C86.1004 95.019 86.3584 94.992 86.5924 94.938C86.8264 94.878 87.0454 94.794 87.2494 94.686C87.4594 94.578 87.6574 94.449 87.8434 94.299C88.0354 94.149 88.2214 93.978 88.4014 93.786V91.896ZM83.2264 88.17C83.7304 87.684 84.2734 87.321 84.8554 87.081C85.4374 86.841 86.0824 86.721 86.7904 86.721C87.3004 86.721 87.7534 86.805 88.1494 86.973C88.5454 87.141 88.8784 87.375 89.1484 87.675C89.4184 87.975 89.6224 88.338 89.7604 88.764C89.8984 89.19 89.9674 89.658 89.9674 90.168V96H89.2564C89.1004 96 88.9804 95.976 88.8964 95.928C88.8124 95.874 88.7464 95.772 88.6984 95.622L88.5184 94.758C88.2784 94.98 88.0444 95.178 87.8164 95.352C87.5884 95.52 87.3484 95.664 87.0964 95.784C86.8444 95.898 86.5744 95.985 86.2864 96.045C86.0044 96.111 85.6894 96.144 85.3414 96.144C84.9874 96.144 84.6544 96.096 84.3424 96C84.0304 95.898 83.7574 95.748 83.5234 95.55C83.2954 95.352 83.1124 95.103 82.9744 94.803C82.8424 94.497 82.7764 94.137 82.7764 93.723C82.7764 93.363 82.8754 93.018 83.0734 92.688C83.2714 92.352 83.5924 92.055 84.0364 91.797C84.4804 91.539 85.0594 91.329 85.7734 91.167C86.4874 90.999 87.3634 90.903 88.4014 90.879V90.168C88.4014 89.46 88.2484 88.926 87.9424 88.566C87.6364 88.2 87.1894 88.017 86.6014 88.017C86.2054 88.017 85.8724 88.068 85.6024 88.17C85.3384 88.266 85.1074 88.377 84.9094 88.503C84.7174 88.623 84.5494 88.734 84.4054 88.836C84.2674 88.932 84.1294 88.98 83.9914 88.98C83.8834 88.98 83.7904 88.953 83.7124 88.899C83.6344 88.839 83.5684 88.767 83.5144 88.683L83.2264 88.17ZM92.4077 96V86.883H93.3707C93.5987 86.883 93.7397 86.994 93.7937 87.216L93.9107 88.152C94.2467 87.738 94.6247 87.399 95.0447 87.135C95.4647 86.871 95.9507 86.739 96.5027 86.739C97.1147 86.739 97.6097 86.91 97.9877 87.252C98.3717 87.594 98.6477 88.056 98.8157 88.638C98.9477 88.308 99.1157 88.023 99.3197 87.783C99.5297 87.543 99.7637 87.345 100.022 87.189C100.28 87.033 100.553 86.919 100.841 86.847C101.135 86.775 101.432 86.739 101.732 86.739C102.212 86.739 102.638 86.817 103.01 86.973C103.388 87.123 103.706 87.345 103.964 87.639C104.228 87.933 104.429 88.296 104.567 88.728C104.705 89.154 104.774 89.643 104.774 90.195V96H103.163V90.195C103.163 89.481 103.007 88.941 102.695 88.575C102.383 88.203 101.933 88.017 101.345 88.017C101.081 88.017 100.829 88.065 100.589 88.161C100.355 88.251 100.148 88.386 99.9677 88.566C99.7877 88.746 99.6437 88.974 99.5357 89.25C99.4337 89.52 99.3827 89.835 99.3827 90.195V96H97.7717V90.195C97.7717 89.463 97.6247 88.917 97.3307 88.557C97.0367 88.197 96.6077 88.017 96.0437 88.017C95.6477 88.017 95.2817 88.125 94.9457 88.341C94.6097 88.551 94.3007 88.839 94.0187 89.205V96H92.4077ZM112.149 91.896C111.411 91.92 110.781 91.98 110.259 92.076C109.743 92.166 109.32 92.286 108.99 92.436C108.666 92.586 108.429 92.763 108.279 92.967C108.135 93.171 108.063 93.399 108.063 93.651C108.063 93.891 108.102 94.098 108.18 94.272C108.258 94.446 108.363 94.59 108.495 94.704C108.633 94.812 108.792 94.893 108.972 94.947C109.158 94.995 109.356 95.019 109.566 95.019C109.848 95.019 110.106 94.992 110.34 94.938C110.574 94.878 110.793 94.794 110.997 94.686C111.207 94.578 111.405 94.449 111.591 94.299C111.783 94.149 111.969 93.978 112.149 93.786V91.896ZM106.974 88.17C107.478 87.684 108.021 87.321 108.603 87.081C109.185 86.841 109.83 86.721 110.538 86.721C111.048 86.721 111.501 86.805 111.897 86.973C112.293 87.141 112.626 87.375 112.896 87.675C113.166 87.975 113.37 88.338 113.508 88.764C113.646 89.19 113.715 89.658 113.715 90.168V96H113.004C112.848 96 112.728 95.976 112.644 95.928C112.56 95.874 112.494 95.772 112.446 95.622L112.266 94.758C112.026 94.98 111.792 95.178 111.564 95.352C111.336 95.52 111.096 95.664 110.844 95.784C110.592 95.898 110.322 95.985 110.034 96.045C109.752 96.111 109.437 96.144 109.089 96.144C108.735 96.144 108.402 96.096 108.09 96C107.778 95.898 107.505 95.748 107.271 95.55C107.043 95.352 106.86 95.103 106.722 94.803C106.59 94.497 106.524 94.137 106.524 93.723C106.524 93.363 106.623 93.018 106.821 92.688C107.019 92.352 107.34 92.055 107.784 91.797C108.228 91.539 108.807 91.329 109.521 91.167C110.235 90.999 111.111 90.903 112.149 90.879V90.168C112.149 89.46 111.996 88.926 111.69 88.566C111.384 88.2 110.937 88.017 110.349 88.017C109.953 88.017 109.62 88.068 109.35 88.17C109.086 88.266 108.855 88.377 108.657 88.503C108.465 88.623 108.297 88.734 108.153 88.836C108.015 88.932 107.877 88.98 107.739 88.98C107.631 88.98 107.538 88.953 107.46 88.899C107.382 88.839 107.316 88.767 107.262 88.683L106.974 88.17ZM122.447 87.567C122.447 87.681 122.426 87.792 122.384 87.9C122.348 88.008 122.297 88.101 122.231 88.179L117.29 94.749H122.276V96H115.409V95.334C115.409 95.256 115.427 95.166 115.463 95.064C115.499 94.956 115.553 94.854 115.625 94.758L120.593 88.143H115.688V86.883H122.447V87.567ZM125.986 86.883V96H124.384V86.883H125.986ZM126.328 84.021C126.328 84.177 126.295 84.324 126.229 84.462C126.169 84.594 126.085 84.714 125.977 84.822C125.875 84.924 125.752 85.005 125.608 85.065C125.47 85.125 125.323 85.155 125.167 85.155C125.011 85.155 124.864 85.125 124.726 85.065C124.594 85.005 124.477 84.924 124.375 84.822C124.273 84.714 124.192 84.594 124.132 84.462C124.072 84.324 124.042 84.177 124.042 84.021C124.042 83.865 124.072 83.718 124.132 83.58C124.192 83.436 124.273 83.313 124.375 83.211C124.477 83.103 124.594 83.019 124.726 82.959C124.864 82.899 125.011 82.869 125.167 82.869C125.323 82.869 125.47 82.899 125.608 82.959C125.752 83.019 125.875 83.103 125.977 83.211C126.085 83.313 126.169 83.436 126.229 83.58C126.295 83.718 126.328 83.865 126.328 84.021ZM130.131 88.206C130.329 87.984 130.539 87.783 130.761 87.603C130.983 87.423 131.217 87.27 131.463 87.144C131.715 87.012 131.979 86.913 132.255 86.847C132.537 86.775 132.84 86.739 133.164 86.739C133.662 86.739 134.1 86.823 134.478 86.991C134.862 87.153 135.18 87.387 135.432 87.693C135.69 87.993 135.885 88.356 136.017 88.782C136.149 89.208 136.215 89.679 136.215 90.195V96H134.604V90.195C134.604 89.505 134.445 88.971 134.127 88.593C133.815 88.209 133.338 88.017 132.696 88.017C132.222 88.017 131.778 88.131 131.364 88.359C130.956 88.587 130.578 88.896 130.23 89.286V96H128.619V86.883H129.582C129.81 86.883 129.951 86.994 130.005 87.216L130.131 88.206ZM141.833 91.545C142.157 91.545 142.442 91.5 142.688 91.41C142.934 91.32 143.141 91.194 143.309 91.032C143.477 90.87 143.603 90.678 143.687 90.456C143.771 90.228 143.813 89.979 143.813 89.709C143.813 89.151 143.642 88.707 143.3 88.377C142.964 88.047 142.475 87.882 141.833 87.882C141.185 87.882 140.69 88.047 140.348 88.377C140.012 88.707 139.844 89.151 139.844 89.709C139.844 89.979 139.886 90.228 139.97 90.456C140.06 90.678 140.189 90.87 140.357 91.032C140.525 91.194 140.732 91.32 140.978 91.41C141.224 91.5 141.509 91.545 141.833 91.545ZM144.722 96.495C144.722 96.273 144.659 96.093 144.533 95.955C144.407 95.817 144.236 95.709 144.02 95.631C143.81 95.553 143.564 95.499 143.282 95.469C143 95.433 142.7 95.406 142.382 95.388C142.07 95.37 141.752 95.352 141.428 95.334C141.104 95.316 140.792 95.286 140.492 95.244C140.156 95.4 139.88 95.598 139.664 95.838C139.454 96.072 139.349 96.348 139.349 96.666C139.349 96.87 139.4 97.059 139.502 97.233C139.61 97.413 139.772 97.566 139.988 97.692C140.204 97.824 140.474 97.926 140.798 97.998C141.128 98.076 141.515 98.115 141.959 98.115C142.391 98.115 142.778 98.076 143.12 97.998C143.462 97.92 143.75 97.809 143.984 97.665C144.224 97.521 144.407 97.35 144.533 97.152C144.659 96.954 144.722 96.735 144.722 96.495ZM146.351 87.243V87.837C146.351 88.035 146.225 88.161 145.973 88.215L144.938 88.35C145.142 88.746 145.244 89.184 145.244 89.664C145.244 90.108 145.157 90.513 144.983 90.879C144.815 91.239 144.581 91.548 144.281 91.806C143.981 92.064 143.621 92.262 143.201 92.4C142.781 92.538 142.325 92.607 141.833 92.607C141.407 92.607 141.005 92.556 140.627 92.454C140.435 92.574 140.288 92.703 140.186 92.841C140.084 92.973 140.033 93.108 140.033 93.246C140.033 93.462 140.12 93.627 140.294 93.741C140.474 93.849 140.708 93.927 140.996 93.975C141.284 94.023 141.611 94.053 141.977 94.065C142.349 94.077 142.727 94.098 143.111 94.128C143.501 94.152 143.879 94.197 144.245 94.263C144.617 94.329 144.947 94.437 145.235 94.587C145.523 94.737 145.754 94.944 145.928 95.208C146.108 95.472 146.198 95.814 146.198 96.234C146.198 96.624 146.099 97.002 145.901 97.368C145.709 97.734 145.43 98.058 145.064 98.34C144.698 98.628 144.248 98.856 143.714 99.024C143.186 99.198 142.589 99.285 141.923 99.285C141.257 99.285 140.675 99.219 140.177 99.087C139.679 98.955 139.265 98.778 138.935 98.556C138.605 98.334 138.356 98.076 138.188 97.782C138.026 97.494 137.945 97.191 137.945 96.873C137.945 96.423 138.086 96.042 138.368 95.73C138.65 95.418 139.037 95.169 139.529 94.983C139.259 94.863 139.043 94.704 138.881 94.506C138.725 94.302 138.647 94.029 138.647 93.687C138.647 93.555 138.671 93.42 138.719 93.282C138.767 93.138 138.839 92.997 138.935 92.859C139.037 92.715 139.16 92.58 139.304 92.454C139.448 92.328 139.616 92.217 139.808 92.121C139.358 91.869 139.007 91.536 138.755 91.122C138.503 90.702 138.377 90.216 138.377 89.664C138.377 89.22 138.461 88.818 138.629 88.458C138.803 88.092 139.043 87.783 139.349 87.531C139.655 87.273 140.018 87.075 140.438 86.937C140.864 86.799 141.329 86.73 141.833 86.73C142.229 86.73 142.598 86.775 142.94 86.865C143.282 86.949 143.594 87.075 143.876 87.243H146.351ZM158.958 88.503C158.91 88.569 158.862 88.62 158.814 88.656C158.766 88.692 158.7 88.71 158.616 88.71C158.526 88.71 158.427 88.674 158.319 88.602C158.211 88.524 158.076 88.44 157.914 88.35C157.758 88.26 157.563 88.179 157.329 88.107C157.101 88.029 156.819 87.99 156.483 87.99C156.033 87.99 155.637 88.071 155.295 88.233C154.953 88.389 154.665 88.617 154.431 88.917C154.203 89.217 154.029 89.58 153.909 90.006C153.795 90.432 153.738 90.909 153.738 91.437C153.738 91.989 153.801 92.481 153.927 92.913C154.053 93.339 154.23 93.699 154.458 93.993C154.692 94.281 154.971 94.503 155.295 94.659C155.625 94.809 155.994 94.884 156.402 94.884C156.792 94.884 157.113 94.839 157.365 94.749C157.617 94.653 157.824 94.548 157.986 94.434C158.154 94.32 158.292 94.218 158.4 94.128C158.514 94.032 158.625 93.984 158.733 93.984C158.865 93.984 158.967 94.035 159.039 94.137L159.489 94.722C159.291 94.968 159.066 95.178 158.814 95.352C158.562 95.526 158.289 95.673 157.995 95.793C157.707 95.907 157.404 95.991 157.086 96.045C156.768 96.099 156.444 96.126 156.114 96.126C155.544 96.126 155.013 96.021 154.521 95.811C154.035 95.601 153.612 95.298 153.252 94.902C152.892 94.5 152.61 94.008 152.406 93.426C152.202 92.844 152.1 92.181 152.1 91.437C152.1 90.759 152.193 90.132 152.379 89.556C152.571 88.98 152.847 88.485 153.207 88.071C153.573 87.651 154.02 87.324 154.548 87.09C155.082 86.856 155.694 86.739 156.384 86.739C157.026 86.739 157.59 86.844 158.076 87.054C158.568 87.258 159.003 87.549 159.381 87.927L158.958 88.503ZM164.893 86.739C165.559 86.739 166.159 86.85 166.693 87.072C167.227 87.294 167.683 87.609 168.061 88.017C168.439 88.425 168.727 88.92 168.925 89.502C169.129 90.078 169.231 90.723 169.231 91.437C169.231 92.157 169.129 92.805 168.925 93.381C168.727 93.957 168.439 94.449 168.061 94.857C167.683 95.265 167.227 95.58 166.693 95.802C166.159 96.018 165.559 96.126 164.893 96.126C164.221 96.126 163.615 96.018 163.075 95.802C162.541 95.58 162.085 95.265 161.707 94.857C161.329 94.449 161.038 93.957 160.834 93.381C160.636 92.805 160.537 92.157 160.537 91.437C160.537 90.723 160.636 90.078 160.834 89.502C161.038 88.92 161.329 88.425 161.707 88.017C162.085 87.609 162.541 87.294 163.075 87.072C163.615 86.85 164.221 86.739 164.893 86.739ZM164.893 94.875C165.793 94.875 166.465 94.575 166.909 93.975C167.353 93.369 167.575 92.526 167.575 91.446C167.575 90.36 167.353 89.514 166.909 88.908C166.465 88.302 165.793 87.999 164.893 87.999C164.437 87.999 164.038 88.077 163.696 88.233C163.36 88.389 163.078 88.614 162.85 88.908C162.628 89.202 162.46 89.565 162.346 89.997C162.238 90.423 162.184 90.906 162.184 91.446C162.184 92.526 162.406 93.369 162.85 93.975C163.3 94.575 163.981 94.875 164.893 94.875ZM171.263 96V86.883H172.226C172.454 86.883 172.595 86.994 172.649 87.216L172.766 88.152C173.102 87.738 173.48 87.399 173.9 87.135C174.32 86.871 174.806 86.739 175.358 86.739C175.97 86.739 176.465 86.91 176.843 87.252C177.227 87.594 177.503 88.056 177.671 88.638C177.803 88.308 177.971 88.023 178.175 87.783C178.385 87.543 178.619 87.345 178.877 87.189C179.135 87.033 179.408 86.919 179.696 86.847C179.99 86.775 180.287 86.739 180.587 86.739C181.067 86.739 181.493 86.817 181.865 86.973C182.243 87.123 182.561 87.345 182.819 87.639C183.083 87.933 183.284 88.296 183.422 88.728C183.56 89.154 183.629 89.643 183.629 90.195V96H182.018V90.195C182.018 89.481 181.862 88.941 181.55 88.575C181.238 88.203 180.788 88.017 180.2 88.017C179.936 88.017 179.684 88.065 179.444 88.161C179.21 88.251 179.003 88.386 178.823 88.566C178.643 88.746 178.499 88.974 178.391 89.25C178.289 89.52 178.238 89.835 178.238 90.195V96H176.627V90.195C176.627 89.463 176.48 88.917 176.186 88.557C175.892 88.197 175.463 88.017 174.899 88.017C174.503 88.017 174.137 88.125 173.801 88.341C173.465 88.551 173.156 88.839 172.874 89.205V96H171.263ZM186.064 96V86.883H187.027C187.255 86.883 187.396 86.994 187.45 87.216L187.567 88.152C187.903 87.738 188.281 87.399 188.701 87.135C189.121 86.871 189.607 86.739 190.159 86.739C190.771 86.739 191.266 86.91 191.644 87.252C192.028 87.594 192.304 88.056 192.472 88.638C192.604 88.308 192.772 88.023 192.976 87.783C193.186 87.543 193.42 87.345 193.678 87.189C193.936 87.033 194.209 86.919 194.497 86.847C194.791 86.775 195.088 86.739 195.388 86.739C195.868 86.739 196.294 86.817 196.666 86.973C197.044 87.123 197.362 87.345 197.62 87.639C197.884 87.933 198.085 88.296 198.223 88.728C198.361 89.154 198.43 89.643 198.43 90.195V96H196.819V90.195C196.819 89.481 196.663 88.941 196.351 88.575C196.039 88.203 195.589 88.017 195.001 88.017C194.737 88.017 194.485 88.065 194.245 88.161C194.011 88.251 193.804 88.386 193.624 88.566C193.444 88.746 193.3 88.974 193.192 89.25C193.09 89.52 193.039 89.835 193.039 90.195V96H191.428V90.195C191.428 89.463 191.281 88.917 190.987 88.557C190.693 88.197 190.264 88.017 189.7 88.017C189.304 88.017 188.938 88.125 188.602 88.341C188.266 88.551 187.957 88.839 187.675 89.205V96H186.064ZM208.362 86.883V96H207.408C207.18 96 207.036 95.889 206.976 95.667L206.85 94.686C206.454 95.124 206.01 95.478 205.518 95.748C205.026 96.012 204.462 96.144 203.826 96.144C203.328 96.144 202.887 96.063 202.503 95.901C202.125 95.733 201.807 95.499 201.549 95.199C201.291 94.899 201.096 94.536 200.964 94.11C200.838 93.684 200.775 93.213 200.775 92.697V86.883H202.377V92.697C202.377 93.387 202.533 93.921 202.845 94.299C203.163 94.677 203.646 94.866 204.294 94.866C204.768 94.866 205.209 94.755 205.617 94.533C206.031 94.305 206.412 93.993 206.76 93.597V86.883H208.362ZM212.414 88.206C212.612 87.984 212.822 87.783 213.044 87.603C213.266 87.423 213.5 87.27 213.746 87.144C213.998 87.012 214.262 86.913 214.538 86.847C214.82 86.775 215.123 86.739 215.447 86.739C215.945 86.739 216.383 86.823 216.761 86.991C217.145 87.153 217.463 87.387 217.715 87.693C217.973 87.993 218.168 88.356 218.3 88.782C218.432 89.208 218.498 89.679 218.498 90.195V96H216.887V90.195C216.887 89.505 216.728 88.971 216.41 88.593C216.098 88.209 215.621 88.017 214.979 88.017C214.505 88.017 214.061 88.131 213.647 88.359C213.239 88.587 212.861 88.896 212.513 89.286V96H210.902V86.883H211.865C212.093 86.883 212.234 86.994 212.288 87.216L212.414 88.206ZM222.631 86.883V96H221.029V86.883H222.631ZM222.973 84.021C222.973 84.177 222.94 84.324 222.874 84.462C222.814 84.594 222.73 84.714 222.622 84.822C222.52 84.924 222.397 85.005 222.253 85.065C222.115 85.125 221.968 85.155 221.812 85.155C221.656 85.155 221.509 85.125 221.371 85.065C221.239 85.005 221.122 84.924 221.02 84.822C220.918 84.714 220.837 84.594 220.777 84.462C220.717 84.324 220.687 84.177 220.687 84.021C220.687 83.865 220.717 83.718 220.777 83.58C220.837 83.436 220.918 83.313 221.02 83.211C221.122 83.103 221.239 83.019 221.371 82.959C221.509 82.899 221.656 82.869 221.812 82.869C221.968 82.869 222.115 82.899 222.253 82.959C222.397 83.019 222.52 83.103 222.622 83.211C222.73 83.313 222.814 83.436 222.874 83.58C222.94 83.718 222.973 83.865 222.973 84.021ZM228.062 96.144C227.342 96.144 226.787 95.943 226.397 95.541C226.013 95.139 225.821 94.56 225.821 93.804V88.224H224.723C224.627 88.224 224.546 88.197 224.48 88.143C224.414 88.083 224.381 87.993 224.381 87.873V87.234L225.875 87.045L226.244 84.228C226.262 84.138 226.301 84.066 226.361 84.012C226.427 83.952 226.511 83.922 226.613 83.922H227.423V87.063H230.06V88.224H227.423V93.696C227.423 94.08 227.516 94.365 227.702 94.551C227.888 94.737 228.128 94.83 228.422 94.83C228.59 94.83 228.734 94.809 228.854 94.767C228.98 94.719 229.088 94.668 229.178 94.614C229.268 94.56 229.343 94.512 229.403 94.47C229.469 94.422 229.526 94.398 229.574 94.398C229.658 94.398 229.733 94.449 229.799 94.551L230.267 95.316C229.991 95.574 229.658 95.778 229.268 95.928C228.878 96.072 228.476 96.144 228.062 96.144ZM239.58 86.883L234.495 98.691C234.441 98.811 234.372 98.907 234.288 98.979C234.21 99.051 234.087 99.087 233.919 99.087H232.731L234.396 95.469L230.634 86.883H232.02C232.158 86.883 232.266 86.919 232.344 86.991C232.428 87.057 232.485 87.132 232.515 87.216L234.954 92.958C235.05 93.21 235.131 93.474 235.197 93.75C235.281 93.468 235.371 93.201 235.467 92.949L237.834 87.216C237.87 87.12 237.93 87.042 238.014 86.982C238.104 86.916 238.203 86.883 238.311 86.883H239.58Z" fill="black"/>
</svg>
