<svg width="249" height="142" viewBox="0 0 249 142" fill="none" xmlns="http://www.w3.org/2000/svg">
<mask id="path-1-inside-1_766_3063" fill="white">
<path fill-rule="evenodd" clip-rule="evenodd" d="M52 0C23.2812 0 0 23.2812 0 52V68.521C0 97.2398 23.2812 120.521 52 120.521H197C198.041 120.521 199.075 120.49 200.101 120.43C221.844 125.459 240.018 135.223 248 142V78.7208C248.656 75.4226 249 72.012 249 68.521V52C249 23.2812 225.719 0 197 0H52Z"/>
</mask>
<path fill-rule="evenodd" clip-rule="evenodd" d="M52 0C23.2812 0 0 23.2812 0 52V68.521C0 97.2398 23.2812 120.521 52 120.521H197C198.041 120.521 199.075 120.49 200.101 120.43C221.844 125.459 240.018 135.223 248 142V78.7208C248.656 75.4226 249 72.012 249 68.521V52C249 23.2812 225.719 0 197 0H52Z" fill="white"/>
<path d="M200.101 120.43L200.777 117.507L200.356 117.41L199.924 117.435L200.101 120.43ZM248 142L246.058 144.287L251 148.483V142H248ZM248 78.7208L245.058 78.1357L245 78.4254V78.7208H248ZM3 52C3 24.9381 24.938 3 52 3V-3C21.6243 -3 -3 21.6243 -3 52H3ZM3 68.521V52H-3V68.521H3ZM52 117.521C24.9381 117.521 3 95.583 3 68.521H-3C-3 98.8967 21.6243 123.521 52 123.521V117.521ZM197 117.521H52V123.521H197V117.521ZM199.924 117.435C198.957 117.492 197.982 117.521 197 117.521V123.521C198.1 123.521 199.192 123.489 200.277 123.425L199.924 117.435ZM199.425 123.353C220.797 128.296 238.509 137.877 246.058 144.287L249.942 139.713C241.526 132.568 222.891 122.622 200.777 117.507L199.425 123.353ZM251 142V78.7208H245V142H251ZM246 68.521C246 71.8144 245.676 75.0291 245.058 78.1357L250.942 79.306C251.636 75.8161 252 72.2095 252 68.521H246ZM246 52V68.521H252V52H246ZM197 3C224.062 3 246 24.938 246 52H252C252 21.6243 227.376 -3 197 -3V3ZM52 3H197V-3H52V3Z" fill="black" mask="url(#path-1-inside-1_766_3063)"/>
<path d="M46.38 30.27C46.2867 30.4233 46.19 30.5367 46.09 30.61C45.9967 30.6767 45.8733 30.71 45.72 30.71C45.5733 30.71 45.4133 30.66 45.24 30.56C45.0733 30.4533 44.8767 30.34 44.65 30.22C44.4233 30.1 44.1633 29.99 43.87 29.89C43.5767 29.7833 43.2333 29.73 42.84 29.73C42.1467 29.73 41.6267 29.8867 41.28 30.2C40.9333 30.5067 40.76 30.91 40.76 31.41C40.76 31.73 40.8533 31.9967 41.04 32.21C41.2333 32.4167 41.4833 32.5967 41.79 32.75C42.1033 32.9033 42.4567 33.04 42.85 33.16C43.2433 33.28 43.6467 33.4133 44.06 33.56C44.4733 33.7 44.8767 33.8667 45.27 34.06C45.6633 34.2533 46.0133 34.4967 46.32 34.79C46.6333 35.0833 46.8833 35.4433 47.07 35.87C47.2633 36.29 47.36 36.8033 47.36 37.41C47.36 38.07 47.2433 38.69 47.01 39.27C46.7833 39.8433 46.4533 40.3467 46.02 40.78C45.5867 41.2067 45.05 41.5433 44.41 41.79C43.7767 42.0367 43.0567 42.16 42.25 42.16C41.79 42.16 41.33 42.1133 40.87 42.02C40.4167 41.9267 39.9767 41.7967 39.55 41.63C39.13 41.4633 38.7333 41.2633 38.36 41.03C37.9867 40.7967 37.66 40.5367 37.38 40.25L38.26 38.83C38.3333 38.7233 38.43 38.6367 38.55 38.57C38.67 38.4967 38.7967 38.46 38.93 38.46C39.11 38.46 39.3 38.5267 39.5 38.66C39.7 38.7933 39.93 38.94 40.19 39.1C40.45 39.26 40.75 39.4067 41.09 39.54C41.4367 39.6733 41.85 39.74 42.33 39.74C43.03 39.74 43.57 39.58 43.95 39.26C44.3367 38.94 44.53 38.4633 44.53 37.83C44.53 37.4633 44.4333 37.1667 44.24 36.94C44.0533 36.7133 43.8067 36.5233 43.5 36.37C43.1933 36.2167 42.8433 36.0867 42.45 35.98C42.0567 35.8667 41.6533 35.7433 41.24 35.61C40.8267 35.4767 40.4233 35.3167 40.03 35.13C39.6367 34.9433 39.2867 34.6967 38.98 34.39C38.6733 34.0833 38.4233 33.7033 38.23 33.25C38.0433 32.7967 37.95 32.2333 37.95 31.56C37.95 31.02 38.0567 30.4967 38.27 29.99C38.4833 29.4833 38.7967 29.0333 39.21 28.64C39.6233 28.2467 40.13 27.93 40.73 27.69C41.3367 27.45 42.03 27.33 42.81 27.33C43.6833 27.33 44.49 27.4667 45.23 27.74C45.9767 28.0067 46.6067 28.38 47.12 28.86L46.38 30.27ZM59.8056 29.91H55.5656V42H52.5556V29.91H48.3156V27.49H59.8056V29.91ZM64.6259 29.84V33.57H69.4659V35.84H64.6259V39.65H70.8459V42H61.6059V27.49H70.8459V29.84H64.6259ZM77.9903 34.71C78.9303 34.71 79.617 34.4833 80.0503 34.03C80.4903 33.5767 80.7103 32.9567 80.7103 32.17C80.7103 31.81 80.6536 31.4833 80.5403 31.19C80.4336 30.89 80.267 30.6367 80.0403 30.43C79.8203 30.2167 79.5403 30.0533 79.2003 29.94C78.8603 29.8267 78.457 29.77 77.9903 29.77H76.0903V34.71H77.9903ZM77.9903 27.49C78.9836 27.49 79.8403 27.6067 80.5603 27.84C81.287 28.0733 81.8836 28.4 82.3503 28.82C82.817 29.2333 83.1603 29.7267 83.3803 30.3C83.607 30.8733 83.7203 31.4967 83.7203 32.17C83.7203 32.8833 83.6036 33.5367 83.3703 34.13C83.137 34.7233 82.7836 35.2333 82.3103 35.66C81.837 36.0867 81.2403 36.42 80.5203 36.66C79.8003 36.8933 78.957 37.01 77.9903 37.01H76.0903V42H73.0903V27.49H77.9903ZM98.0791 39.47C98.3791 39.47 98.6124 39.5533 98.7791 39.72C98.9524 39.8867 99.0391 40.1067 99.0391 40.38V42H88.9791V41.1C88.9791 40.9267 89.0157 40.74 89.0891 40.54C89.1624 40.3333 89.2857 40.1467 89.4591 39.98L93.7591 35.67C94.1257 35.3033 94.4491 34.9533 94.7291 34.62C95.0091 34.28 95.2424 33.95 95.4291 33.63C95.6157 33.3033 95.7557 32.9733 95.8491 32.64C95.9424 32.3067 95.9891 31.9567 95.9891 31.59C95.9891 30.9433 95.8224 30.4533 95.4891 30.12C95.1557 29.78 94.6857 29.61 94.0791 29.61C93.8124 29.61 93.5657 29.65 93.3391 29.73C93.1191 29.8033 92.9191 29.9067 92.7391 30.04C92.5657 30.1733 92.4157 30.33 92.2891 30.51C92.1624 30.69 92.0691 30.8867 92.0091 31.1C91.8891 31.4333 91.7257 31.6567 91.5191 31.77C91.3191 31.8767 91.0324 31.9 90.6591 31.84L89.1991 31.58C89.3057 30.8733 89.5057 30.2533 89.7991 29.72C90.0924 29.1867 90.4591 28.7433 90.8991 28.39C91.3391 28.0367 91.8424 27.7733 92.4091 27.6C92.9757 27.42 93.5857 27.33 94.2391 27.33C94.9257 27.33 95.5491 27.4333 96.1091 27.64C96.6757 27.84 97.1591 28.1233 97.5591 28.49C97.9591 28.85 98.2691 29.2867 98.4891 29.8C98.7091 30.3133 98.8191 30.88 98.8191 31.5C98.8191 32.0333 98.7424 32.5267 98.5891 32.98C98.4357 33.4333 98.2257 33.8667 97.9591 34.28C97.6991 34.6867 97.3957 35.0833 97.0491 35.47C96.7024 35.8567 96.3357 36.2467 95.9491 36.64L92.8691 39.79C93.2091 39.69 93.5457 39.6133 93.8791 39.56C94.2124 39.5 94.5257 39.47 94.8191 39.47H98.0791Z" fill="black"/>
<path d="M46.244 63.119C46.19 63.209 46.13 63.278 46.064 63.326C46.004 63.368 45.929 63.389 45.839 63.389C45.737 63.389 45.617 63.338 45.479 63.236C45.341 63.134 45.167 63.023 44.957 62.903C44.753 62.777 44.504 62.663 44.21 62.561C43.922 62.459 43.571 62.408 43.157 62.408C42.767 62.408 42.422 62.462 42.122 62.57C41.828 62.672 41.579 62.813 41.375 62.993C41.177 63.173 41.027 63.386 40.925 63.632C40.823 63.872 40.772 64.133 40.772 64.415C40.772 64.775 40.859 65.075 41.033 65.315C41.213 65.549 41.447 65.75 41.735 65.918C42.029 66.086 42.359 66.233 42.725 66.359C43.097 66.479 43.475 66.605 43.859 66.737C44.249 66.869 44.627 67.019 44.993 67.187C45.365 67.349 45.695 67.556 45.983 67.808C46.277 68.06 46.511 68.369 46.685 68.735C46.865 69.101 46.955 69.551 46.955 70.085C46.955 70.649 46.859 71.18 46.667 71.678C46.475 72.17 46.193 72.599 45.821 72.965C45.455 73.331 45.002 73.619 44.462 73.829C43.928 74.039 43.319 74.144 42.635 74.144C41.795 74.144 41.033 73.994 40.349 73.694C39.665 73.388 39.08 72.977 38.594 72.461L39.098 71.633C39.146 71.567 39.203 71.513 39.269 71.471C39.341 71.423 39.419 71.399 39.503 71.399C39.581 71.399 39.668 71.432 39.764 71.498C39.866 71.558 39.98 71.636 40.106 71.732C40.232 71.828 40.376 71.933 40.538 72.047C40.7 72.161 40.883 72.266 41.087 72.362C41.297 72.458 41.534 72.539 41.798 72.605C42.062 72.665 42.359 72.695 42.689 72.695C43.103 72.695 43.472 72.638 43.796 72.524C44.12 72.41 44.393 72.251 44.615 72.047C44.843 71.837 45.017 71.588 45.137 71.3C45.257 71.012 45.317 70.691 45.317 70.337C45.317 69.947 45.227 69.629 45.047 69.383C44.873 69.131 44.642 68.921 44.354 68.753C44.066 68.585 43.736 68.444 43.364 68.33C42.992 68.21 42.614 68.09 42.23 67.97C41.846 67.844 41.468 67.7 41.096 67.538C40.724 67.376 40.394 67.166 40.106 66.908C39.818 66.65 39.584 66.329 39.404 65.945C39.23 65.555 39.143 65.075 39.143 64.505C39.143 64.049 39.23 63.608 39.404 63.182C39.584 62.756 39.842 62.378 40.178 62.048C40.52 61.718 40.937 61.454 41.429 61.256C41.927 61.058 42.497 60.959 43.139 60.959C43.859 60.959 44.513 61.073 45.101 61.301C45.695 61.529 46.217 61.859 46.667 62.291L46.244 63.119ZM55.0917 68.447C55.0917 68.075 55.0377 67.736 54.9297 67.43C54.8277 67.118 54.6747 66.851 54.4707 66.629C54.2727 66.401 54.0297 66.227 53.7417 66.107C53.4537 65.981 53.1267 65.918 52.7607 65.918C51.9927 65.918 51.3837 66.143 50.9337 66.593C50.4897 67.037 50.2137 67.655 50.1057 68.447H55.0917ZM56.3877 72.722C56.1897 72.962 55.9527 73.172 55.6767 73.352C55.4007 73.526 55.1037 73.67 54.7857 73.784C54.4737 73.898 54.1497 73.982 53.8137 74.036C53.4777 74.096 53.1447 74.126 52.8147 74.126C52.1847 74.126 51.6027 74.021 51.0687 73.811C50.5407 73.595 50.0817 73.283 49.6917 72.875C49.3077 72.461 49.0077 71.951 48.7917 71.345C48.5757 70.739 48.4677 70.043 48.4677 69.257C48.4677 68.621 48.5637 68.027 48.7557 67.475C48.9537 66.923 49.2357 66.446 49.6017 66.044C49.9677 65.636 50.4147 65.318 50.9427 65.09C51.4707 64.856 52.0647 64.739 52.7247 64.739C53.2707 64.739 53.7747 64.832 54.2367 65.018C54.7047 65.198 55.1067 65.462 55.4427 65.81C55.7847 66.152 56.0517 66.578 56.2437 67.088C56.4357 67.592 56.5317 68.168 56.5317 68.816C56.5317 69.068 56.5047 69.236 56.4507 69.32C56.3967 69.404 56.2947 69.446 56.1447 69.446H50.0517C50.0697 70.022 50.1477 70.523 50.2857 70.949C50.4297 71.375 50.6277 71.732 50.8797 72.02C51.1317 72.302 51.4317 72.515 51.7797 72.659C52.1277 72.797 52.5177 72.866 52.9497 72.866C53.3517 72.866 53.6967 72.821 53.9847 72.731C54.2787 72.635 54.5307 72.533 54.7407 72.425C54.9507 72.317 55.1247 72.218 55.2627 72.128C55.4067 72.032 55.5297 71.984 55.6317 71.984C55.7637 71.984 55.8657 72.035 55.9377 72.137L56.3877 72.722ZM63.4405 69.896C62.7025 69.92 62.0725 69.98 61.5505 70.076C61.0345 70.166 60.6115 70.286 60.2815 70.436C59.9575 70.586 59.7205 70.763 59.5705 70.967C59.4265 71.171 59.3545 71.399 59.3545 71.651C59.3545 71.891 59.3935 72.098 59.4715 72.272C59.5495 72.446 59.6545 72.59 59.7865 72.704C59.9245 72.812 60.0835 72.893 60.2635 72.947C60.4495 72.995 60.6475 73.019 60.8575 73.019C61.1395 73.019 61.3975 72.992 61.6315 72.938C61.8655 72.878 62.0845 72.794 62.2885 72.686C62.4985 72.578 62.6965 72.449 62.8825 72.299C63.0745 72.149 63.2605 71.978 63.4405 71.786V69.896ZM58.2655 66.17C58.7695 65.684 59.3125 65.321 59.8945 65.081C60.4765 64.841 61.1215 64.721 61.8295 64.721C62.3395 64.721 62.7925 64.805 63.1885 64.973C63.5845 65.141 63.9175 65.375 64.1875 65.675C64.4575 65.975 64.6615 66.338 64.7995 66.764C64.9375 67.19 65.0065 67.658 65.0065 68.168V74H64.2955C64.1395 74 64.0195 73.976 63.9355 73.928C63.8515 73.874 63.7855 73.772 63.7375 73.622L63.5575 72.758C63.3175 72.98 63.0835 73.178 62.8555 73.352C62.6275 73.52 62.3875 73.664 62.1355 73.784C61.8835 73.898 61.6135 73.985 61.3255 74.045C61.0435 74.111 60.7285 74.144 60.3805 74.144C60.0265 74.144 59.6935 74.096 59.3815 74C59.0695 73.898 58.7965 73.748 58.5625 73.55C58.3345 73.352 58.1515 73.103 58.0135 72.803C57.8815 72.497 57.8155 72.137 57.8155 71.723C57.8155 71.363 57.9145 71.018 58.1125 70.688C58.3105 70.352 58.6315 70.055 59.0755 69.797C59.5195 69.539 60.0985 69.329 60.8125 69.167C61.5265 68.999 62.4025 68.903 63.4405 68.879V68.168C63.4405 67.46 63.2875 66.926 62.9815 66.566C62.6755 66.2 62.2285 66.017 61.6405 66.017C61.2445 66.017 60.9115 66.068 60.6415 66.17C60.3775 66.266 60.1465 66.377 59.9485 66.503C59.7565 66.623 59.5885 66.734 59.4445 66.836C59.3065 66.932 59.1685 66.98 59.0305 66.98C58.9225 66.98 58.8295 66.953 58.7515 66.899C58.6735 66.839 58.6075 66.767 58.5535 66.683L58.2655 66.17ZM68.9677 66.71C69.2557 66.086 69.6097 65.6 70.0297 65.252C70.4497 64.898 70.9627 64.721 71.5687 64.721C71.7607 64.721 71.9437 64.742 72.1177 64.784C72.2977 64.826 72.4567 64.892 72.5947 64.982L72.4777 66.179C72.4417 66.329 72.3517 66.404 72.2077 66.404C72.1237 66.404 72.0007 66.386 71.8387 66.35C71.6767 66.314 71.4937 66.296 71.2897 66.296C71.0017 66.296 70.7437 66.338 70.5157 66.422C70.2937 66.506 70.0927 66.632 69.9127 66.8C69.7387 66.962 69.5797 67.166 69.4357 67.412C69.2977 67.652 69.1717 67.928 69.0577 68.24V74H67.4467V64.883H68.3647C68.5387 64.883 68.6587 64.916 68.7247 64.982C68.7907 65.048 68.8357 65.162 68.8597 65.324L68.9677 66.71ZM79.9792 66.503C79.9312 66.569 79.8832 66.62 79.8352 66.656C79.7872 66.692 79.7212 66.71 79.6372 66.71C79.5472 66.71 79.4482 66.674 79.3402 66.602C79.2322 66.524 79.0972 66.44 78.9352 66.35C78.7792 66.26 78.5842 66.179 78.3502 66.107C78.1222 66.029 77.8402 65.99 77.5042 65.99C77.0542 65.99 76.6582 66.071 76.3162 66.233C75.9742 66.389 75.6862 66.617 75.4522 66.917C75.2242 67.217 75.0502 67.58 74.9302 68.006C74.8162 68.432 74.7592 68.909 74.7592 69.437C74.7592 69.989 74.8222 70.481 74.9482 70.913C75.0742 71.339 75.2512 71.699 75.4792 71.993C75.7132 72.281 75.9922 72.503 76.3162 72.659C76.6462 72.809 77.0152 72.884 77.4232 72.884C77.8132 72.884 78.1342 72.839 78.3862 72.749C78.6382 72.653 78.8452 72.548 79.0072 72.434C79.1752 72.32 79.3132 72.218 79.4212 72.128C79.5352 72.032 79.6462 71.984 79.7542 71.984C79.8862 71.984 79.9882 72.035 80.0602 72.137L80.5102 72.722C80.3122 72.968 80.0872 73.178 79.8352 73.352C79.5832 73.526 79.3102 73.673 79.0162 73.793C78.7282 73.907 78.4252 73.991 78.1072 74.045C77.7892 74.099 77.4652 74.126 77.1352 74.126C76.5652 74.126 76.0342 74.021 75.5422 73.811C75.0562 73.601 74.6332 73.298 74.2732 72.902C73.9132 72.5 73.6312 72.008 73.4272 71.426C73.2232 70.844 73.1212 70.181 73.1212 69.437C73.1212 68.759 73.2142 68.132 73.4002 67.556C73.5922 66.98 73.8682 66.485 74.2282 66.071C74.5942 65.651 75.0412 65.324 75.5692 65.09C76.1032 64.856 76.7152 64.739 77.4052 64.739C78.0472 64.739 78.6112 64.844 79.0972 65.054C79.5892 65.258 80.0242 65.549 80.4022 65.927L79.9792 66.503ZM83.8409 66.098C84.2309 65.684 84.6629 65.354 85.1369 65.108C85.6109 64.862 86.1569 64.739 86.7749 64.739C87.2729 64.739 87.7109 64.823 88.0889 64.991C88.4729 65.153 88.7909 65.387 89.0429 65.693C89.3009 65.993 89.4959 66.356 89.6279 66.782C89.7599 67.208 89.8259 67.679 89.8259 68.195V74H88.2149V68.195C88.2149 67.505 88.0559 66.971 87.7379 66.593C87.4259 66.209 86.9489 66.017 86.3069 66.017C85.8329 66.017 85.3889 66.131 84.9749 66.359C84.5669 66.587 84.1889 66.896 83.8409 67.286V74H82.2299V60.743H83.8409V66.098ZM97.4665 74V66.251L96.4585 66.134C96.3325 66.104 96.2275 66.059 96.1435 65.999C96.0655 65.933 96.0265 65.84 96.0265 65.72V65.063H97.4665V64.181C97.4665 63.659 97.5385 63.197 97.6825 62.795C97.8325 62.387 98.0425 62.045 98.3125 61.769C98.5885 61.487 98.9185 61.274 99.3025 61.13C99.6865 60.986 100.119 60.914 100.599 60.914C101.007 60.914 101.382 60.974 101.724 61.094L101.688 61.895C101.676 62.039 101.595 62.117 101.445 62.129C101.301 62.141 101.106 62.147 100.86 62.147C100.584 62.147 100.332 62.183 100.104 62.255C99.8815 62.327 99.6895 62.444 99.5275 62.606C99.3655 62.768 99.2395 62.981 99.1495 63.245C99.0655 63.509 99.0235 63.836 99.0235 64.226V65.063H101.652V66.224H99.0775V74H97.4665ZM106.727 64.739C107.393 64.739 107.993 64.85 108.527 65.072C109.061 65.294 109.517 65.609 109.895 66.017C110.273 66.425 110.561 66.92 110.759 67.502C110.963 68.078 111.065 68.723 111.065 69.437C111.065 70.157 110.963 70.805 110.759 71.381C110.561 71.957 110.273 72.449 109.895 72.857C109.517 73.265 109.061 73.58 108.527 73.802C107.993 74.018 107.393 74.126 106.727 74.126C106.055 74.126 105.449 74.018 104.909 73.802C104.375 73.58 103.919 73.265 103.541 72.857C103.163 72.449 102.872 71.957 102.668 71.381C102.47 70.805 102.371 70.157 102.371 69.437C102.371 68.723 102.47 68.078 102.668 67.502C102.872 66.92 103.163 66.425 103.541 66.017C103.919 65.609 104.375 65.294 104.909 65.072C105.449 64.85 106.055 64.739 106.727 64.739ZM106.727 72.875C107.627 72.875 108.299 72.575 108.743 71.975C109.187 71.369 109.409 70.526 109.409 69.446C109.409 68.36 109.187 67.514 108.743 66.908C108.299 66.302 107.627 65.999 106.727 65.999C106.271 65.999 105.872 66.077 105.53 66.233C105.194 66.389 104.912 66.614 104.684 66.908C104.462 67.202 104.294 67.565 104.18 67.997C104.072 68.423 104.018 68.906 104.018 69.446C104.018 70.526 104.24 71.369 104.684 71.975C105.134 72.575 105.815 72.875 106.727 72.875ZM114.618 66.71C114.906 66.086 115.26 65.6 115.68 65.252C116.1 64.898 116.613 64.721 117.219 64.721C117.411 64.721 117.594 64.742 117.768 64.784C117.948 64.826 118.107 64.892 118.245 64.982L118.128 66.179C118.092 66.329 118.002 66.404 117.858 66.404C117.774 66.404 117.651 66.386 117.489 66.35C117.327 66.314 117.144 66.296 116.94 66.296C116.652 66.296 116.394 66.338 116.166 66.422C115.944 66.506 115.743 66.632 115.563 66.8C115.389 66.962 115.23 67.166 115.086 67.412C114.948 67.652 114.822 67.928 114.708 68.24V74H113.097V64.883H114.015C114.189 64.883 114.309 64.916 114.375 64.982C114.441 65.048 114.486 65.162 114.51 65.324L114.618 66.71ZM126.672 74.144C125.952 74.144 125.397 73.943 125.007 73.541C124.623 73.139 124.431 72.56 124.431 71.804V66.224H123.333C123.237 66.224 123.156 66.197 123.09 66.143C123.024 66.083 122.991 65.993 122.991 65.873V65.234L124.485 65.045L124.854 62.228C124.872 62.138 124.911 62.066 124.971 62.012C125.037 61.952 125.121 61.922 125.223 61.922H126.033V65.063H128.67V66.224H126.033V71.696C126.033 72.08 126.126 72.365 126.312 72.551C126.498 72.737 126.738 72.83 127.032 72.83C127.2 72.83 127.344 72.809 127.464 72.767C127.59 72.719 127.698 72.668 127.788 72.614C127.878 72.56 127.953 72.512 128.013 72.47C128.079 72.422 128.136 72.398 128.184 72.398C128.268 72.398 128.343 72.449 128.409 72.551L128.877 73.316C128.601 73.574 128.268 73.778 127.878 73.928C127.488 74.072 127.086 74.144 126.672 74.144ZM131.935 66.098C132.325 65.684 132.757 65.354 133.231 65.108C133.705 64.862 134.251 64.739 134.869 64.739C135.367 64.739 135.805 64.823 136.183 64.991C136.567 65.153 136.885 65.387 137.137 65.693C137.395 65.993 137.59 66.356 137.722 66.782C137.854 67.208 137.92 67.679 137.92 68.195V74H136.309V68.195C136.309 67.505 136.15 66.971 135.832 66.593C135.52 66.209 135.043 66.017 134.401 66.017C133.927 66.017 133.483 66.131 133.069 66.359C132.661 66.587 132.283 66.896 131.935 67.286V74H130.324V60.743H131.935V66.098ZM146.463 68.447C146.463 68.075 146.409 67.736 146.301 67.43C146.199 67.118 146.046 66.851 145.842 66.629C145.644 66.401 145.401 66.227 145.113 66.107C144.825 65.981 144.498 65.918 144.132 65.918C143.364 65.918 142.755 66.143 142.305 66.593C141.861 67.037 141.585 67.655 141.477 68.447H146.463ZM147.759 72.722C147.561 72.962 147.324 73.172 147.048 73.352C146.772 73.526 146.475 73.67 146.157 73.784C145.845 73.898 145.521 73.982 145.185 74.036C144.849 74.096 144.516 74.126 144.186 74.126C143.556 74.126 142.974 74.021 142.44 73.811C141.912 73.595 141.453 73.283 141.063 72.875C140.679 72.461 140.379 71.951 140.163 71.345C139.947 70.739 139.839 70.043 139.839 69.257C139.839 68.621 139.935 68.027 140.127 67.475C140.325 66.923 140.607 66.446 140.973 66.044C141.339 65.636 141.786 65.318 142.314 65.09C142.842 64.856 143.436 64.739 144.096 64.739C144.642 64.739 145.146 64.832 145.608 65.018C146.076 65.198 146.478 65.462 146.814 65.81C147.156 66.152 147.423 66.578 147.615 67.088C147.807 67.592 147.903 68.168 147.903 68.816C147.903 69.068 147.876 69.236 147.822 69.32C147.768 69.404 147.666 69.446 147.516 69.446H141.423C141.441 70.022 141.519 70.523 141.657 70.949C141.801 71.375 141.999 71.732 142.251 72.02C142.503 72.302 142.803 72.515 143.151 72.659C143.499 72.797 143.889 72.866 144.321 72.866C144.723 72.866 145.068 72.821 145.356 72.731C145.65 72.635 145.902 72.533 146.112 72.425C146.322 72.317 146.496 72.218 146.634 72.128C146.778 72.032 146.901 71.984 147.003 71.984C147.135 71.984 147.237 72.035 147.309 72.137L147.759 72.722ZM154.476 74V64.883H155.439C155.667 64.883 155.808 64.994 155.862 65.216L155.979 66.152C156.315 65.738 156.693 65.399 157.113 65.135C157.533 64.871 158.019 64.739 158.571 64.739C159.183 64.739 159.678 64.91 160.056 65.252C160.44 65.594 160.716 66.056 160.884 66.638C161.016 66.308 161.184 66.023 161.388 65.783C161.598 65.543 161.832 65.345 162.09 65.189C162.348 65.033 162.621 64.919 162.909 64.847C163.203 64.775 163.5 64.739 163.8 64.739C164.28 64.739 164.706 64.817 165.078 64.973C165.456 65.123 165.774 65.345 166.032 65.639C166.296 65.933 166.497 66.296 166.635 66.728C166.773 67.154 166.842 67.643 166.842 68.195V74H165.231V68.195C165.231 67.481 165.075 66.941 164.763 66.575C164.451 66.203 164.001 66.017 163.413 66.017C163.149 66.017 162.897 66.065 162.657 66.161C162.423 66.251 162.216 66.386 162.036 66.566C161.856 66.746 161.712 66.974 161.604 67.25C161.502 67.52 161.451 67.835 161.451 68.195V74H159.84V68.195C159.84 67.463 159.693 66.917 159.399 66.557C159.105 66.197 158.676 66.017 158.112 66.017C157.716 66.017 157.35 66.125 157.014 66.341C156.678 66.551 156.369 66.839 156.087 67.205V74H154.476ZM173.12 64.739C173.786 64.739 174.386 64.85 174.92 65.072C175.454 65.294 175.91 65.609 176.288 66.017C176.666 66.425 176.954 66.92 177.152 67.502C177.356 68.078 177.458 68.723 177.458 69.437C177.458 70.157 177.356 70.805 177.152 71.381C176.954 71.957 176.666 72.449 176.288 72.857C175.91 73.265 175.454 73.58 174.92 73.802C174.386 74.018 173.786 74.126 173.12 74.126C172.448 74.126 171.842 74.018 171.302 73.802C170.768 73.58 170.312 73.265 169.934 72.857C169.556 72.449 169.265 71.957 169.061 71.381C168.863 70.805 168.764 70.157 168.764 69.437C168.764 68.723 168.863 68.078 169.061 67.502C169.265 66.92 169.556 66.425 169.934 66.017C170.312 65.609 170.768 65.294 171.302 65.072C171.842 64.85 172.448 64.739 173.12 64.739ZM173.12 72.875C174.02 72.875 174.692 72.575 175.136 71.975C175.58 71.369 175.802 70.526 175.802 69.446C175.802 68.36 175.58 67.514 175.136 66.908C174.692 66.302 174.02 65.999 173.12 65.999C172.664 65.999 172.265 66.077 171.923 66.233C171.587 66.389 171.305 66.614 171.077 66.908C170.855 67.202 170.687 67.565 170.573 67.997C170.465 68.423 170.411 68.906 170.411 69.446C170.411 70.526 170.633 71.369 171.077 71.975C171.527 72.575 172.208 72.875 173.12 72.875ZM184.8 66.386C184.728 66.518 184.617 66.584 184.467 66.584C184.377 66.584 184.275 66.551 184.161 66.485C184.047 66.419 183.906 66.347 183.738 66.269C183.576 66.185 183.381 66.11 183.153 66.044C182.925 65.972 182.655 65.936 182.343 65.936C182.073 65.936 181.83 65.972 181.614 66.044C181.398 66.11 181.212 66.203 181.056 66.323C180.906 66.443 180.789 66.584 180.705 66.746C180.627 66.902 180.588 67.073 180.588 67.259C180.588 67.493 180.654 67.688 180.786 67.844C180.924 68 181.104 68.135 181.326 68.249C181.548 68.363 181.8 68.465 182.082 68.555C182.364 68.639 182.652 68.732 182.946 68.834C183.246 68.93 183.537 69.038 183.819 69.158C184.101 69.278 184.353 69.428 184.575 69.608C184.797 69.788 184.974 70.01 185.106 70.274C185.244 70.532 185.313 70.844 185.313 71.21C185.313 71.63 185.238 72.02 185.088 72.38C184.938 72.734 184.716 73.043 184.422 73.307C184.128 73.565 183.768 73.769 183.342 73.919C182.916 74.069 182.424 74.144 181.866 74.144C181.23 74.144 180.654 74.042 180.138 73.838C179.622 73.628 179.184 73.361 178.824 73.037L179.202 72.425C179.25 72.347 179.307 72.287 179.373 72.245C179.439 72.203 179.523 72.182 179.625 72.182C179.733 72.182 179.847 72.224 179.967 72.308C180.087 72.392 180.231 72.485 180.399 72.587C180.573 72.689 180.783 72.782 181.029 72.866C181.275 72.95 181.581 72.992 181.947 72.992C182.259 72.992 182.532 72.953 182.766 72.875C183 72.791 183.195 72.68 183.351 72.542C183.507 72.404 183.621 72.245 183.693 72.065C183.771 71.885 183.81 71.693 183.81 71.489C183.81 71.237 183.741 71.03 183.603 70.868C183.471 70.7 183.294 70.559 183.072 70.445C182.85 70.325 182.595 70.223 182.307 70.139C182.025 70.049 181.734 69.956 181.434 69.86C181.14 69.764 180.849 69.656 180.561 69.536C180.279 69.41 180.027 69.254 179.805 69.068C179.583 68.882 179.403 68.654 179.265 68.384C179.133 68.108 179.067 67.775 179.067 67.385C179.067 67.037 179.139 66.704 179.283 66.386C179.427 66.062 179.637 65.78 179.913 65.54C180.189 65.294 180.528 65.099 180.93 64.955C181.332 64.811 181.791 64.739 182.307 64.739C182.907 64.739 183.444 64.835 183.918 65.027C184.398 65.213 184.812 65.471 185.16 65.801L184.8 66.386ZM190.076 74.144C189.356 74.144 188.801 73.943 188.411 73.541C188.027 73.139 187.835 72.56 187.835 71.804V66.224H186.737C186.641 66.224 186.56 66.197 186.494 66.143C186.428 66.083 186.395 65.993 186.395 65.873V65.234L187.889 65.045L188.258 62.228C188.276 62.138 188.315 62.066 188.375 62.012C188.441 61.952 188.525 61.922 188.627 61.922H189.437V65.063H192.074V66.224H189.437V71.696C189.437 72.08 189.53 72.365 189.716 72.551C189.902 72.737 190.142 72.83 190.436 72.83C190.604 72.83 190.748 72.809 190.868 72.767C190.994 72.719 191.102 72.668 191.192 72.614C191.282 72.56 191.357 72.512 191.417 72.47C191.483 72.422 191.54 72.398 191.588 72.398C191.672 72.398 191.747 72.449 191.813 72.551L192.281 73.316C192.005 73.574 191.672 73.778 191.282 73.928C190.892 74.072 190.49 74.144 190.076 74.144ZM44.579 88.386C44.507 88.518 44.396 88.584 44.246 88.584C44.156 88.584 44.054 88.551 43.94 88.485C43.826 88.419 43.685 88.347 43.517 88.269C43.355 88.185 43.16 88.11 42.932 88.044C42.704 87.972 42.434 87.936 42.122 87.936C41.852 87.936 41.609 87.972 41.393 88.044C41.177 88.11 40.991 88.203 40.835 88.323C40.685 88.443 40.568 88.584 40.484 88.746C40.406 88.902 40.367 89.073 40.367 89.259C40.367 89.493 40.433 89.688 40.565 89.844C40.703 90 40.883 90.135 41.105 90.249C41.327 90.363 41.579 90.465 41.861 90.555C42.143 90.639 42.431 90.732 42.725 90.834C43.025 90.93 43.316 91.038 43.598 91.158C43.88 91.278 44.132 91.428 44.354 91.608C44.576 91.788 44.753 92.01 44.885 92.274C45.023 92.532 45.092 92.844 45.092 93.21C45.092 93.63 45.017 94.02 44.867 94.38C44.717 94.734 44.495 95.043 44.201 95.307C43.907 95.565 43.547 95.769 43.121 95.919C42.695 96.069 42.203 96.144 41.645 96.144C41.009 96.144 40.433 96.042 39.917 95.838C39.401 95.628 38.963 95.361 38.603 95.037L38.981 94.425C39.029 94.347 39.086 94.287 39.152 94.245C39.218 94.203 39.302 94.182 39.404 94.182C39.512 94.182 39.626 94.224 39.746 94.308C39.866 94.392 40.01 94.485 40.178 94.587C40.352 94.689 40.562 94.782 40.808 94.866C41.054 94.95 41.36 94.992 41.726 94.992C42.038 94.992 42.311 94.953 42.545 94.875C42.779 94.791 42.974 94.68 43.13 94.542C43.286 94.404 43.4 94.245 43.472 94.065C43.55 93.885 43.589 93.693 43.589 93.489C43.589 93.237 43.52 93.03 43.382 92.868C43.25 92.7 43.073 92.559 42.851 92.445C42.629 92.325 42.374 92.223 42.086 92.139C41.804 92.049 41.513 91.956 41.213 91.86C40.919 91.764 40.628 91.656 40.34 91.536C40.058 91.41 39.806 91.254 39.584 91.068C39.362 90.882 39.182 90.654 39.044 90.384C38.912 90.108 38.846 89.775 38.846 89.385C38.846 89.037 38.918 88.704 39.062 88.386C39.206 88.062 39.416 87.78 39.692 87.54C39.968 87.294 40.307 87.099 40.709 86.955C41.111 86.811 41.57 86.739 42.086 86.739C42.686 86.739 43.223 86.835 43.697 87.027C44.177 87.213 44.591 87.471 44.939 87.801L44.579 88.386ZM54.5531 86.883V96H53.5991C53.3711 96 53.2271 95.889 53.1671 95.667L53.0411 94.686C52.6451 95.124 52.2011 95.478 51.7091 95.748C51.2171 96.012 50.6531 96.144 50.0171 96.144C49.5191 96.144 49.0781 96.063 48.6941 95.901C48.3161 95.733 47.9981 95.499 47.7401 95.199C47.4821 94.899 47.2871 94.536 47.1551 94.11C47.0291 93.684 46.9661 93.213 46.9661 92.697V86.883H48.5681V92.697C48.5681 93.387 48.7241 93.921 49.0361 94.299C49.3541 94.677 49.8371 94.866 50.4851 94.866C50.9591 94.866 51.4001 94.755 51.8081 94.533C52.2221 94.305 52.6031 93.993 52.9511 93.597V86.883H54.5531ZM58.7852 86.883V96H57.1832V86.883H58.7852ZM59.1272 84.021C59.1272 84.177 59.0942 84.324 59.0282 84.462C58.9682 84.594 58.8842 84.714 58.7762 84.822C58.6742 84.924 58.5512 85.005 58.4072 85.065C58.2692 85.125 58.1222 85.155 57.9662 85.155C57.8102 85.155 57.6632 85.125 57.5252 85.065C57.3932 85.005 57.2762 84.924 57.1742 84.822C57.0722 84.714 56.9912 84.594 56.9312 84.462C56.8712 84.324 56.8412 84.177 56.8412 84.021C56.8412 83.865 56.8712 83.718 56.9312 83.58C56.9912 83.436 57.0722 83.313 57.1742 83.211C57.2762 83.103 57.3932 83.019 57.5252 82.959C57.6632 82.899 57.8102 82.869 57.9662 82.869C58.1222 82.869 58.2692 82.899 58.4072 82.959C58.5512 83.019 58.6742 83.103 58.7762 83.211C58.8842 83.313 58.9682 83.436 59.0282 83.58C59.0942 83.718 59.1272 83.865 59.1272 84.021ZM64.2164 96.144C63.4964 96.144 62.9414 95.943 62.5514 95.541C62.1674 95.139 61.9754 94.56 61.9754 93.804V88.224H60.8774C60.7814 88.224 60.7004 88.197 60.6344 88.143C60.5684 88.083 60.5354 87.993 60.5354 87.873V87.234L62.0294 87.045L62.3984 84.228C62.4164 84.138 62.4554 84.066 62.5154 84.012C62.5814 83.952 62.6654 83.922 62.7674 83.922H63.5774V87.063H66.2144V88.224H63.5774V93.696C63.5774 94.08 63.6704 94.365 63.8564 94.551C64.0424 94.737 64.2824 94.83 64.5764 94.83C64.7444 94.83 64.8884 94.809 65.0084 94.767C65.1344 94.719 65.2424 94.668 65.3324 94.614C65.4224 94.56 65.4974 94.512 65.5574 94.47C65.6234 94.422 65.6804 94.398 65.7284 94.398C65.8124 94.398 65.8874 94.449 65.9534 94.551L66.4214 95.316C66.1454 95.574 65.8124 95.778 65.4224 95.928C65.0324 96.072 64.6304 96.144 64.2164 96.144ZM72.8096 91.896C72.0716 91.92 71.4416 91.98 70.9196 92.076C70.4036 92.166 69.9806 92.286 69.6506 92.436C69.3266 92.586 69.0896 92.763 68.9396 92.967C68.7956 93.171 68.7236 93.399 68.7236 93.651C68.7236 93.891 68.7626 94.098 68.8406 94.272C68.9186 94.446 69.0236 94.59 69.1556 94.704C69.2936 94.812 69.4526 94.893 69.6326 94.947C69.8186 94.995 70.0166 95.019 70.2266 95.019C70.5086 95.019 70.7666 94.992 71.0006 94.938C71.2346 94.878 71.4536 94.794 71.6576 94.686C71.8676 94.578 72.0656 94.449 72.2516 94.299C72.4436 94.149 72.6296 93.978 72.8096 93.786V91.896ZM67.6346 88.17C68.1386 87.684 68.6816 87.321 69.2636 87.081C69.8456 86.841 70.4906 86.721 71.1986 86.721C71.7086 86.721 72.1616 86.805 72.5576 86.973C72.9536 87.141 73.2866 87.375 73.5566 87.675C73.8266 87.975 74.0306 88.338 74.1686 88.764C74.3066 89.19 74.3756 89.658 74.3756 90.168V96H73.6646C73.5086 96 73.3886 95.976 73.3046 95.928C73.2206 95.874 73.1546 95.772 73.1066 95.622L72.9266 94.758C72.6866 94.98 72.4526 95.178 72.2246 95.352C71.9966 95.52 71.7566 95.664 71.5046 95.784C71.2526 95.898 70.9826 95.985 70.6946 96.045C70.4126 96.111 70.0976 96.144 69.7496 96.144C69.3956 96.144 69.0626 96.096 68.7506 96C68.4386 95.898 68.1656 95.748 67.9316 95.55C67.7036 95.352 67.5206 95.103 67.3826 94.803C67.2506 94.497 67.1846 94.137 67.1846 93.723C67.1846 93.363 67.2836 93.018 67.4816 92.688C67.6796 92.352 68.0006 92.055 68.4446 91.797C68.8886 91.539 69.4676 91.329 70.1816 91.167C70.8956 90.999 71.7716 90.903 72.8096 90.879V90.168C72.8096 89.46 72.6566 88.926 72.3506 88.566C72.0446 88.2 71.5976 88.017 71.0096 88.017C70.6136 88.017 70.2806 88.068 70.0106 88.17C69.7466 88.266 69.5156 88.377 69.3176 88.503C69.1256 88.623 68.9576 88.734 68.8136 88.836C68.6756 88.932 68.5376 88.98 68.3996 88.98C68.2916 88.98 68.1986 88.953 68.1206 88.899C68.0426 88.839 67.9766 88.767 67.9226 88.683L67.6346 88.17ZM78.4269 93.804C78.7209 94.2 79.0419 94.479 79.3899 94.641C79.7439 94.803 80.1309 94.884 80.5509 94.884C81.4089 94.884 82.0659 94.581 82.5219 93.975C82.9779 93.369 83.2059 92.466 83.2059 91.266C83.2059 90.15 83.0019 89.331 82.5939 88.809C82.1919 88.281 81.6159 88.017 80.8659 88.017C80.3439 88.017 79.8879 88.137 79.4979 88.377C79.1139 88.617 78.7569 88.956 78.4269 89.394V93.804ZM78.4269 88.197C78.8109 87.753 79.2429 87.399 79.7229 87.135C80.2089 86.871 80.7669 86.739 81.3969 86.739C81.9309 86.739 82.4109 86.841 82.8369 87.045C83.2689 87.249 83.6349 87.546 83.9349 87.936C84.2349 88.32 84.4629 88.788 84.6189 89.34C84.7809 89.892 84.8619 90.513 84.8619 91.203C84.8619 91.941 84.7719 92.613 84.5919 93.219C84.4119 93.825 84.1509 94.344 83.8089 94.776C83.4729 95.202 83.0619 95.535 82.5759 95.775C82.0899 96.009 81.5439 96.126 80.9379 96.126C80.3379 96.126 79.8309 96.015 79.4169 95.793C79.0089 95.565 78.6519 95.244 78.3459 94.83L78.2649 95.658C78.2169 95.886 78.0789 96 77.8509 96H76.8159V82.743H78.4269V88.197ZM88.5441 82.743V96H86.9421V82.743H88.5441ZM97.244 90.447C97.244 90.075 97.19 89.736 97.082 89.43C96.98 89.118 96.827 88.851 96.623 88.629C96.425 88.401 96.182 88.227 95.894 88.107C95.606 87.981 95.279 87.918 94.913 87.918C94.145 87.918 93.536 88.143 93.086 88.593C92.642 89.037 92.366 89.655 92.258 90.447H97.244ZM98.54 94.722C98.342 94.962 98.105 95.172 97.829 95.352C97.553 95.526 97.256 95.67 96.938 95.784C96.626 95.898 96.302 95.982 95.966 96.036C95.63 96.096 95.297 96.126 94.967 96.126C94.337 96.126 93.755 96.021 93.221 95.811C92.693 95.595 92.234 95.283 91.844 94.875C91.46 94.461 91.16 93.951 90.944 93.345C90.728 92.739 90.62 92.043 90.62 91.257C90.62 90.621 90.716 90.027 90.908 89.475C91.106 88.923 91.388 88.446 91.754 88.044C92.12 87.636 92.567 87.318 93.095 87.09C93.623 86.856 94.217 86.739 94.877 86.739C95.423 86.739 95.927 86.832 96.389 87.018C96.857 87.198 97.259 87.462 97.595 87.81C97.937 88.152 98.204 88.578 98.396 89.088C98.588 89.592 98.684 90.168 98.684 90.816C98.684 91.068 98.657 91.236 98.603 91.32C98.549 91.404 98.447 91.446 98.297 91.446H92.204C92.222 92.022 92.3 92.523 92.438 92.949C92.582 93.375 92.78 93.732 93.032 94.02C93.284 94.302 93.584 94.515 93.932 94.659C94.28 94.797 94.67 94.866 95.102 94.866C95.504 94.866 95.849 94.821 96.137 94.731C96.431 94.635 96.683 94.533 96.893 94.425C97.103 94.317 97.277 94.218 97.415 94.128C97.559 94.032 97.682 93.984 97.784 93.984C97.916 93.984 98.018 94.035 98.09 94.137L98.54 94.722ZM109.1 86.739C109.766 86.739 110.366 86.85 110.9 87.072C111.434 87.294 111.89 87.609 112.268 88.017C112.646 88.425 112.934 88.92 113.132 89.502C113.336 90.078 113.438 90.723 113.438 91.437C113.438 92.157 113.336 92.805 113.132 93.381C112.934 93.957 112.646 94.449 112.268 94.857C111.89 95.265 111.434 95.58 110.9 95.802C110.366 96.018 109.766 96.126 109.1 96.126C108.428 96.126 107.822 96.018 107.282 95.802C106.748 95.58 106.292 95.265 105.914 94.857C105.536 94.449 105.245 93.957 105.041 93.381C104.843 92.805 104.744 92.157 104.744 91.437C104.744 90.723 104.843 90.078 105.041 89.502C105.245 88.92 105.536 88.425 105.914 88.017C106.292 87.609 106.748 87.294 107.282 87.072C107.822 86.85 108.428 86.739 109.1 86.739ZM109.1 94.875C110 94.875 110.672 94.575 111.116 93.975C111.56 93.369 111.782 92.526 111.782 91.446C111.782 90.36 111.56 89.514 111.116 88.908C110.672 88.302 110 87.999 109.1 87.999C108.644 87.999 108.245 88.077 107.903 88.233C107.567 88.389 107.285 88.614 107.057 88.908C106.835 89.202 106.667 89.565 106.553 89.997C106.445 90.423 106.391 90.906 106.391 91.446C106.391 92.526 106.613 93.369 107.057 93.975C107.507 94.575 108.188 94.875 109.1 94.875ZM115.871 96V88.251L114.863 88.134C114.737 88.104 114.632 88.059 114.548 87.999C114.47 87.933 114.431 87.84 114.431 87.72V87.063H115.871V86.316C115.871 85.794 115.943 85.332 116.087 84.93C116.237 84.522 116.447 84.18 116.717 83.904C116.993 83.622 117.323 83.409 117.707 83.265C118.091 83.121 118.523 83.049 119.003 83.049C119.411 83.049 119.786 83.109 120.128 83.229L120.092 84.039C120.08 84.183 119.999 84.261 119.849 84.273C119.705 84.285 119.51 84.291 119.264 84.291C118.988 84.291 118.736 84.327 118.508 84.399C118.286 84.465 118.094 84.579 117.932 84.741C117.77 84.903 117.644 85.119 117.554 85.389C117.47 85.653 117.428 85.98 117.428 86.37V87.063H121.541V86.082C121.541 85.56 121.613 85.098 121.757 84.696C121.907 84.288 122.117 83.946 122.387 83.67C122.663 83.388 122.993 83.175 123.377 83.031C123.761 82.887 124.193 82.815 124.673 82.815C125.075 82.815 125.45 82.875 125.798 82.995L125.762 83.796C125.75 83.94 125.669 84.018 125.519 84.03C125.375 84.042 125.18 84.048 124.934 84.048C124.658 84.048 124.406 84.084 124.178 84.156C123.956 84.228 123.764 84.345 123.602 84.507C123.44 84.669 123.314 84.882 123.224 85.146C123.14 85.41 123.098 85.737 123.098 86.127V87.063H125.726V88.224H123.152V96H121.541V88.224H117.482V96H115.871ZM133.051 90.447C133.051 90.075 132.997 89.736 132.889 89.43C132.787 89.118 132.634 88.851 132.43 88.629C132.232 88.401 131.989 88.227 131.701 88.107C131.413 87.981 131.086 87.918 130.72 87.918C129.952 87.918 129.343 88.143 128.893 88.593C128.449 89.037 128.173 89.655 128.065 90.447H133.051ZM134.347 94.722C134.149 94.962 133.912 95.172 133.636 95.352C133.36 95.526 133.063 95.67 132.745 95.784C132.433 95.898 132.109 95.982 131.773 96.036C131.437 96.096 131.104 96.126 130.774 96.126C130.144 96.126 129.562 96.021 129.028 95.811C128.5 95.595 128.041 95.283 127.651 94.875C127.267 94.461 126.967 93.951 126.751 93.345C126.535 92.739 126.427 92.043 126.427 91.257C126.427 90.621 126.523 90.027 126.715 89.475C126.913 88.923 127.195 88.446 127.561 88.044C127.927 87.636 128.374 87.318 128.902 87.09C129.43 86.856 130.024 86.739 130.684 86.739C131.23 86.739 131.734 86.832 132.196 87.018C132.664 87.198 133.066 87.462 133.402 87.81C133.744 88.152 134.011 88.578 134.203 89.088C134.395 89.592 134.491 90.168 134.491 90.816C134.491 91.068 134.464 91.236 134.41 91.32C134.356 91.404 134.254 91.446 134.104 91.446H128.011C128.029 92.022 128.107 92.523 128.245 92.949C128.389 93.375 128.587 93.732 128.839 94.02C129.091 94.302 129.391 94.515 129.739 94.659C130.087 94.797 130.477 94.866 130.909 94.866C131.311 94.866 131.656 94.821 131.944 94.731C132.238 94.635 132.49 94.533 132.7 94.425C132.91 94.317 133.084 94.218 133.222 94.128C133.366 94.032 133.489 93.984 133.591 93.984C133.723 93.984 133.825 94.035 133.897 94.137L134.347 94.722ZM137.979 88.71C138.267 88.086 138.621 87.6 139.041 87.252C139.461 86.898 139.974 86.721 140.58 86.721C140.772 86.721 140.955 86.742 141.129 86.784C141.309 86.826 141.468 86.892 141.606 86.982L141.489 88.179C141.453 88.329 141.363 88.404 141.219 88.404C141.135 88.404 141.012 88.386 140.85 88.35C140.688 88.314 140.505 88.296 140.301 88.296C140.013 88.296 139.755 88.338 139.527 88.422C139.305 88.506 139.104 88.632 138.924 88.8C138.75 88.962 138.591 89.166 138.447 89.412C138.309 89.652 138.183 89.928 138.069 90.24V96H136.458V86.883H137.376C137.55 86.883 137.67 86.916 137.736 86.982C137.802 87.048 137.847 87.162 137.871 87.324L137.979 88.71Z" fill="black"/>
</svg>
