<svg width="382" height="142" viewBox="0 0 382 142" fill="none" xmlns="http://www.w3.org/2000/svg">
<mask id="path-1-inside-1_807_2878" fill="white">
<path fill-rule="evenodd" clip-rule="evenodd" d="M6.75165 0C3.02281 0 0 3.02281 0 6.75165V135.033C0 138.762 3.02283 141.785 6.75166 141.785H375.023C378.752 141.785 381.775 138.762 381.775 135.033L381.775 71.1991L381.775 6.75165C381.775 3.02282 378.752 0 375.023 0H6.75165Z"/>
</mask>
<path fill-rule="evenodd" clip-rule="evenodd" d="M6.75165 0C3.02281 0 0 3.02281 0 6.75165V135.033C0 138.762 3.02283 141.785 6.75166 141.785H375.023C378.752 141.785 381.775 138.762 381.775 135.033L381.775 71.1991L381.775 6.75165C381.775 3.02282 378.752 0 375.023 0H6.75165Z" fill="white"/>
<path d="M381.775 135.033L379.934 135.033V135.033H381.775ZM381.775 71.1991L383.616 71.1991L383.616 71.1991L381.775 71.1991ZM381.775 6.75165L379.934 6.75165L379.934 6.75165L381.775 6.75165ZM1.84136 6.75165C1.84136 4.03977 4.03977 1.84136 6.75165 1.84136V-1.84136C2.00586 -1.84136 -1.84136 2.00586 -1.84136 6.75165H1.84136ZM1.84136 135.033V6.75165H-1.84136V135.033H1.84136ZM6.75166 139.943C4.03978 139.943 1.84136 137.745 1.84136 135.033H-1.84136C-1.84136 139.779 2.00589 143.626 6.75166 143.626V139.943ZM375.023 139.943H6.75166V143.626H375.023V139.943ZM379.934 135.033C379.934 137.745 377.735 139.943 375.023 139.943V143.626C379.769 143.626 383.616 139.779 383.616 135.033H379.934ZM379.934 71.1991L379.934 135.033L383.616 135.033L383.616 71.1991L379.934 71.1991ZM379.934 6.75165L379.934 71.1991L383.616 71.1991L383.616 6.75165L379.934 6.75165ZM375.023 1.84136C377.735 1.84136 379.934 4.03978 379.934 6.75165H383.616C383.616 2.00585 379.769 -1.84136 375.023 -1.84136V1.84136ZM6.75165 1.84136H375.023V-1.84136H6.75165V1.84136Z" fill="white" mask="url(#path-1-inside-1_807_2878)"/>
<rect x="32.1055" y="39.0663" width="327.611" height="73.5736" rx="9.71727" fill="black" stroke="black" stroke-width="2.77636"/>
<rect x="22.3882" y="29.3882" width="327.611" height="73.5736" rx="9.71727" fill="#FFEB33" stroke="black" stroke-width="2.77636"/>
<path d="M90.6313 70.9242C90.8312 70.9242 91.0033 71.0019 91.1477 71.1574L92.547 72.69C91.5697 73.8449 90.3758 74.7389 88.9654 75.3719C87.5662 76.005 85.8781 76.3215 83.9014 76.3215C82.1689 76.3215 80.5975 76.0216 79.1871 75.4219C77.7878 74.8222 76.5884 73.9838 75.5889 72.9065C74.6005 71.8293 73.8343 70.5411 73.2901 69.0418C72.7459 67.5426 72.4738 65.8934 72.4738 64.0944C72.4738 62.2953 72.757 60.6461 73.3234 59.1469C73.9009 57.6476 74.706 56.3594 75.7388 55.2822C76.7717 54.2049 78.0044 53.3665 79.437 52.7668C80.8807 52.1671 82.4743 51.8673 84.2179 51.8673C85.917 51.8673 87.4273 52.1449 88.7489 52.7002C90.0704 53.2554 91.2199 53.9939 92.1971 54.9157L91.0311 56.5649C90.9533 56.687 90.8534 56.787 90.7312 56.8647C90.6202 56.9424 90.4702 56.9813 90.2814 56.9813C90.0704 56.9813 89.8206 56.8758 89.5318 56.6648C89.2542 56.4538 88.8822 56.2206 88.4157 55.9652C87.9604 55.6986 87.394 55.4599 86.7166 55.2489C86.0392 55.0379 85.1951 54.9324 84.1845 54.9324C82.9963 54.9324 81.9079 55.1434 80.9195 55.5654C79.9312 55.9763 79.076 56.576 78.3542 57.3644C77.6434 58.1418 77.0882 59.1025 76.6884 60.2463C76.2997 61.3791 76.1053 62.6618 76.1053 64.0944C76.1053 65.5492 76.3108 66.843 76.7217 67.9757C77.1326 69.1085 77.699 70.0691 78.4208 70.8576C79.1427 71.6461 79.9922 72.2458 80.9695 72.6567C81.9468 73.0676 83.0018 73.273 84.1346 73.273C84.8231 73.273 85.4395 73.2341 85.9836 73.1564C86.5389 73.0676 87.0442 72.9399 87.4995 72.7733C87.966 72.6067 88.4046 72.3957 88.8155 72.1403C89.2264 71.8737 89.6318 71.5572 90.0316 71.1907C90.1204 71.113 90.2148 71.0519 90.3148 71.0075C90.4147 70.952 90.5202 70.9242 90.6313 70.9242ZM102.334 58.8637C103.577 58.8637 104.699 59.0691 105.699 59.48C106.709 59.8798 107.564 60.4629 108.264 61.2291C108.975 61.9843 109.519 62.9005 109.896 63.9777C110.274 65.0439 110.463 66.2433 110.463 67.5759C110.463 68.9086 110.274 70.1135 109.896 71.1907C109.519 72.268 108.975 73.1842 108.264 73.9393C107.564 74.6945 106.709 75.2775 105.699 75.6885C104.699 76.0882 103.577 76.2881 102.334 76.2881C101.079 76.2881 99.946 76.0882 98.9354 75.6885C97.9359 75.2775 97.0808 74.6945 96.37 73.9393C95.6593 73.1842 95.1095 72.268 94.7208 71.1907C94.3433 70.1135 94.1545 68.9086 94.1545 67.5759C94.1545 66.2433 94.3433 65.0439 94.7208 63.9777C95.1095 62.9005 95.6593 61.9843 96.37 61.2291C97.0808 60.4629 97.9359 59.8798 98.9354 59.48C99.946 59.0691 101.079 58.8637 102.334 58.8637ZM102.334 73.7561C103.933 73.7561 105.127 73.2175 105.915 72.1403C106.704 71.063 107.098 69.5471 107.098 67.5926C107.098 65.638 106.704 64.1221 105.915 63.0449C105.127 61.9566 103.933 61.4124 102.334 61.4124C100.712 61.4124 99.5017 61.9566 98.7022 63.0449C97.9137 64.1221 97.5194 65.638 97.5194 67.5926C97.5194 69.5471 97.9137 71.063 98.7022 72.1403C99.5017 73.2175 100.712 73.7561 102.334 73.7561ZM117.137 61.479C117.504 61.0903 117.887 60.735 118.287 60.4129C118.687 60.0908 119.109 59.8188 119.553 59.5966C120.008 59.3634 120.491 59.1857 121.002 59.0636C121.524 58.9303 122.079 58.8637 122.668 58.8637C123.601 58.8637 124.417 59.0192 125.117 59.3301C125.827 59.6411 126.421 60.0797 126.899 60.6461C127.377 61.2014 127.737 61.8733 127.982 62.6618C128.226 63.4502 128.348 64.322 128.348 65.2771V76.0549H125.083V65.2771C125.083 64.0666 124.806 63.1282 124.25 62.4619C123.695 61.7844 122.846 61.4457 121.702 61.4457C120.869 61.4457 120.086 61.6456 119.353 62.0454C118.631 62.4341 117.959 62.9672 117.337 63.6446V76.0549H114.089V59.1302H116.038C116.493 59.1302 116.776 59.3468 116.887 59.7799L117.137 61.479ZM135.78 61.479C136.147 61.0903 136.53 60.735 136.93 60.4129C137.329 60.0908 137.751 59.8188 138.196 59.5966C138.651 59.3634 139.134 59.1857 139.645 59.0636C140.167 58.9303 140.722 58.8637 141.311 58.8637C142.244 58.8637 143.06 59.0192 143.759 59.3301C144.47 59.6411 145.064 60.0797 145.542 60.6461C146.019 61.2014 146.38 61.8733 146.625 62.6618C146.869 63.4502 146.991 64.322 146.991 65.2771V76.0549H143.726V65.2771C143.726 64.0666 143.448 63.1282 142.893 62.4619C142.338 61.7844 141.488 61.4457 140.344 61.4457C139.512 61.4457 138.729 61.6456 137.996 62.0454C137.274 62.4341 136.602 62.9672 135.98 63.6446V76.0549H132.732V59.1302H134.681C135.136 59.1302 135.419 59.3468 135.53 59.7799L135.78 61.479ZM162.586 65.7102C162.586 65.0661 162.491 64.4719 162.302 63.9278C162.125 63.3836 161.858 62.9116 161.503 62.5118C161.147 62.112 160.714 61.8011 160.203 61.579C159.693 61.3569 159.104 61.2458 158.438 61.2458C157.072 61.2458 155.994 61.6401 155.206 62.4285C154.429 63.217 153.934 64.3109 153.723 65.7102H162.586ZM165.267 73.6395C164.868 74.1059 164.407 74.5113 163.885 74.8555C163.363 75.1887 162.808 75.4608 162.219 75.6718C161.63 75.8828 161.02 76.0383 160.387 76.1382C159.765 76.2382 159.148 76.2881 158.538 76.2881C157.371 76.2881 156.289 76.0938 155.289 75.7051C154.301 75.3053 153.44 74.7278 152.707 73.9727C151.985 73.2064 151.419 72.2624 151.008 71.1408C150.608 70.008 150.408 68.7087 150.408 67.2428C150.408 66.0656 150.592 64.9717 150.958 63.9611C151.325 62.9394 151.847 62.051 152.524 61.2958C153.213 60.5406 154.051 59.9465 155.039 59.5134C156.028 59.0802 157.138 58.8637 158.371 58.8637C159.404 58.8637 160.353 59.0358 161.22 59.3801C162.097 59.7133 162.852 60.2019 163.485 60.846C164.118 61.4901 164.612 62.2842 164.968 63.2281C165.334 64.1721 165.517 65.2493 165.517 66.4598C165.517 66.9596 165.462 67.2983 165.351 67.476C165.24 67.6425 165.034 67.7258 164.734 67.7258H153.64C153.673 68.7364 153.818 69.6193 154.073 70.3745C154.329 71.1186 154.678 71.7405 155.123 72.2402C155.578 72.74 156.117 73.112 156.738 73.3563C157.36 73.6006 158.054 73.7228 158.821 73.7228C159.543 73.7228 160.165 73.6395 160.686 73.4729C161.22 73.3063 161.675 73.1286 162.052 72.9399C162.441 72.74 162.763 72.5567 163.019 72.3901C163.285 72.2235 163.518 72.1403 163.718 72.1403C163.985 72.1403 164.19 72.2402 164.335 72.4401L165.267 73.6395ZM180.869 62.2953C180.769 62.4174 180.67 62.5174 180.57 62.5951C180.481 62.6618 180.347 62.6951 180.17 62.6951C179.992 62.6951 179.803 62.6284 179.603 62.4952C179.415 62.3508 179.17 62.2009 178.87 62.0454C178.582 61.8788 178.226 61.7289 177.804 61.5956C177.393 61.4513 176.883 61.3791 176.272 61.3791C175.472 61.3791 174.767 61.5234 174.156 61.8122C173.545 62.1009 173.035 62.5118 172.624 63.0449C172.224 63.578 171.918 64.2276 171.707 64.9939C171.496 65.7602 171.391 66.6208 171.391 67.5759C171.391 68.5643 171.502 69.4472 171.724 70.2246C171.946 70.9908 172.263 71.6405 172.674 72.1736C173.084 72.6955 173.584 73.0953 174.173 73.373C174.761 73.6395 175.417 73.7728 176.138 73.7728C176.838 73.7728 177.416 73.6895 177.871 73.5229C178.326 73.3452 178.704 73.1564 179.004 72.9565C179.304 72.7566 179.553 72.5734 179.753 72.4068C179.953 72.2291 180.159 72.1403 180.37 72.1403C180.636 72.1403 180.842 72.2402 180.986 72.4401L181.919 73.6395C181.53 74.117 181.092 74.5224 180.603 74.8555C180.125 75.1887 179.615 75.4608 179.07 75.6718C178.526 75.8828 177.954 76.0383 177.355 76.1382C176.766 76.2382 176.166 76.2881 175.555 76.2881C174.5 76.2881 173.512 76.0938 172.59 75.7051C171.68 75.3164 170.886 74.75 170.208 74.006C169.542 73.2619 169.014 72.3513 168.626 71.274C168.237 70.1857 168.043 68.953 168.043 67.5759C168.043 66.321 168.215 65.1605 168.559 64.0944C168.914 63.0282 169.431 62.112 170.108 61.3458C170.797 60.5684 171.641 59.9631 172.64 59.53C173.64 59.0858 174.784 58.8637 176.072 58.8637C177.282 58.8637 178.348 59.058 179.27 59.4467C180.192 59.8354 181.014 60.3851 181.736 61.0959L180.869 62.2953ZM190.248 76.3215C188.883 76.3215 187.828 75.9383 187.083 75.172C186.35 74.4058 185.984 73.3119 185.984 71.8904V61.7622H184.018C183.83 61.7622 183.669 61.7067 183.535 61.5956C183.413 61.4735 183.352 61.2958 183.352 61.0626V59.7466L186.101 59.3634L186.834 54.316C186.878 54.1272 186.961 53.9828 187.083 53.8829C187.217 53.7718 187.383 53.7163 187.583 53.7163H189.232V59.3967H194.03V61.7622H189.232V71.6738C189.232 72.3402 189.393 72.8399 189.715 73.1731C190.049 73.4951 190.471 73.6562 190.981 73.6562C191.281 73.6562 191.537 73.6173 191.748 73.5395C191.97 73.4618 192.159 73.3785 192.314 73.2897C192.47 73.1897 192.603 73.1009 192.714 73.0231C192.825 72.9454 192.925 72.9065 193.014 72.9065C193.125 72.9065 193.208 72.9343 193.264 72.9898C193.33 73.0342 193.397 73.112 193.464 73.223L194.43 74.7889C193.897 75.2775 193.264 75.6551 192.531 75.9217C191.798 76.1882 191.037 76.3215 190.248 76.3215ZM236.959 52.1338L229.496 76.0549H226.297L220.467 58.314C220.334 57.9586 220.217 57.531 220.117 57.0313C219.995 57.5421 219.878 57.9697 219.767 58.314L213.87 76.0549H210.689L203.226 52.1338H206.191C206.502 52.1338 206.763 52.2115 206.974 52.367C207.185 52.5114 207.324 52.7113 207.39 52.9667L212.105 68.9752C212.193 69.2862 212.271 69.6249 212.338 69.9914C212.416 70.3578 212.493 70.741 212.571 71.1408C212.649 70.741 212.726 70.3578 212.804 69.9914C212.893 69.6249 212.993 69.2862 213.104 68.9752L218.501 52.9667C218.568 52.7446 218.707 52.5502 218.918 52.3837C219.14 52.2171 219.401 52.1338 219.701 52.1338H220.717C221.028 52.1338 221.283 52.2115 221.483 52.367C221.683 52.5225 221.827 52.7224 221.916 52.9667L227.297 68.9752C227.497 69.586 227.674 70.2801 227.83 71.0575C227.963 70.2912 228.108 69.5971 228.263 68.9752L232.994 52.9667C233.049 52.7446 233.188 52.5502 233.41 52.3837C233.632 52.2171 233.893 52.1338 234.193 52.1338H236.959ZM246.852 68.5421C245.53 68.5865 244.408 68.692 243.487 68.8586C242.565 69.0141 241.815 69.2251 241.238 69.4916C240.66 69.7581 240.244 70.0746 239.989 70.4411C239.733 70.7965 239.605 71.1963 239.605 71.6405C239.605 72.0625 239.672 72.429 239.805 72.74C239.95 73.0398 240.138 73.2897 240.372 73.4896C240.616 73.6784 240.899 73.8172 241.221 73.906C241.543 73.9949 241.893 74.0393 242.271 74.0393C242.77 74.0393 243.226 73.9893 243.637 73.8894C244.059 73.7894 244.453 73.6506 244.819 73.4729C245.186 73.2841 245.536 73.0565 245.869 72.7899C246.202 72.5234 246.53 72.218 246.852 71.8737V68.5421ZM237.323 61.4957C238.267 60.5961 239.289 59.9243 240.388 59.48C241.499 59.0358 242.715 58.8137 244.036 58.8137C245.003 58.8137 245.858 58.9747 246.602 59.2968C247.346 59.6078 247.973 60.0464 248.484 60.6128C248.995 61.1792 249.378 61.8566 249.634 62.6451C249.9 63.4336 250.033 64.3054 250.033 65.2604V76.0549H248.584C248.262 76.0549 248.018 76.005 247.851 75.905C247.685 75.794 247.551 75.5941 247.451 75.3053L247.102 73.8227C246.668 74.2225 246.241 74.5779 245.819 74.8889C245.397 75.1887 244.953 75.4497 244.486 75.6718C244.031 75.8828 243.542 76.0438 243.02 76.1549C242.498 76.2659 241.921 76.3215 241.288 76.3215C240.622 76.3215 239.994 76.2326 239.405 76.0549C238.828 75.8661 238.323 75.5829 237.89 75.2054C237.456 74.8278 237.112 74.3558 236.857 73.7894C236.612 73.223 236.49 72.5623 236.49 71.8071C236.49 71.1408 236.668 70.5022 237.023 69.8914C237.39 69.2695 237.978 68.7142 238.789 68.2256C239.611 67.7369 240.677 67.3371 241.988 67.0262C243.309 66.7152 244.93 66.5376 246.852 66.4931V65.2604C246.852 63.9833 246.58 63.0282 246.035 62.3952C245.491 61.7622 244.692 61.4457 243.637 61.4457C242.926 61.4457 242.326 61.5345 241.838 61.7122C241.36 61.8899 240.944 62.0898 240.588 62.3119C240.244 62.5229 239.939 62.7173 239.672 62.895C239.417 63.0727 239.15 63.1615 238.872 63.1615C238.65 63.1615 238.456 63.1004 238.289 62.9783C238.134 62.8561 238.006 62.7117 237.906 62.5451L237.323 61.4957ZM257.714 51.4675V76.0549H254.449V51.4675H257.714ZM265.685 51.4675V76.0549H262.42V51.4675H265.685ZM281.535 65.7102C281.535 65.0661 281.441 64.4719 281.252 63.9278C281.074 63.3836 280.808 62.9116 280.453 62.5118C280.097 62.112 279.664 61.8011 279.153 61.579C278.642 61.3569 278.054 61.2458 277.387 61.2458C276.021 61.2458 274.944 61.6401 274.156 62.4285C273.378 63.217 272.884 64.3109 272.673 65.7102H281.535ZM284.217 73.6395C283.818 74.1059 283.357 74.5113 282.835 74.8555C282.313 75.1887 281.757 75.4608 281.169 75.6718C280.58 75.8828 279.969 76.0383 279.336 76.1382C278.715 76.2382 278.098 76.2881 277.487 76.2881C276.321 76.2881 275.239 76.0938 274.239 75.7051C273.251 75.3053 272.39 74.7278 271.657 73.9727C270.935 73.2064 270.369 72.2624 269.958 71.1408C269.558 70.008 269.358 68.7087 269.358 67.2428C269.358 66.0656 269.541 64.9717 269.908 63.9611C270.274 62.9394 270.796 62.051 271.474 61.2958C272.162 60.5406 273.001 59.9465 273.989 59.5134C274.978 59.0802 276.088 58.8637 277.321 58.8637C278.354 58.8637 279.303 59.0358 280.169 59.3801C281.047 59.7133 281.802 60.2019 282.435 60.846C283.068 61.4901 283.562 62.2842 283.917 63.2281C284.284 64.1721 284.467 65.2493 284.467 66.4598C284.467 66.9596 284.412 67.2983 284.301 67.476C284.19 67.6425 283.984 67.7258 283.684 67.7258H272.59C272.623 68.7364 272.768 69.6193 273.023 70.3745C273.278 71.1186 273.628 71.7405 274.072 72.2402C274.528 72.74 275.066 73.112 275.688 73.3563C276.31 73.6006 277.004 73.7228 277.771 73.7228C278.492 73.7228 279.114 73.6395 279.636 73.4729C280.169 73.3063 280.625 73.1286 281.002 72.9399C281.391 72.74 281.713 72.5567 281.968 72.3901C282.235 72.2235 282.468 72.1403 282.668 72.1403C282.935 72.1403 283.14 72.2402 283.284 72.4401L284.217 73.6395ZM293.126 76.3215C291.76 76.3215 290.705 75.9383 289.961 75.172C289.228 74.4058 288.861 73.3119 288.861 71.8904V61.7622H286.896C286.707 61.7622 286.546 61.7067 286.413 61.5956C286.29 61.4735 286.229 61.2958 286.229 61.0626V59.7466L288.978 59.3634L289.711 54.316C289.755 54.1272 289.839 53.9828 289.961 53.8829C290.094 53.7718 290.261 53.7163 290.46 53.7163H292.11V59.3967H296.907V61.7622H292.11V71.6738C292.11 72.3402 292.271 72.8399 292.593 73.1731C292.926 73.4951 293.348 73.6562 293.859 73.6562C294.159 73.6562 294.414 73.6173 294.625 73.5395C294.847 73.4618 295.036 73.3785 295.191 73.2897C295.347 73.1897 295.48 73.1009 295.591 73.0231C295.702 72.9454 295.802 72.9065 295.891 72.9065C296.002 72.9065 296.085 72.9343 296.141 72.9898C296.208 73.0342 296.274 73.112 296.341 73.223L297.307 74.7889C296.774 75.2775 296.141 75.6551 295.408 75.9217C294.675 76.1882 293.914 76.3215 293.126 76.3215Z" fill="black"/>
</svg>
