<svg width="227" height="230" viewBox="0 0 227 230" fill="none" xmlns="http://www.w3.org/2000/svg">
<path d="M113.5 0L129.31 25.5302L152.918 6.93535L159.024 36.3216L187.582 26.9049L183.247 56.6027L213.31 57.5L199.057 83.9275L227 95.0305L204.548 115L227 134.97L199.057 146.073L213.31 172.5L183.247 173.397L187.582 203.095L159.024 193.678L152.918 223.065L129.31 204.47L113.5 230L97.6896 204.47L74.0819 223.065L67.9759 193.678L39.4181 203.095L43.753 173.397L13.6898 172.5L27.9427 146.073L0 134.97L22.4518 115L0 95.0305L27.9427 83.9275L13.6898 57.5L43.753 56.6027L39.4181 26.9049L67.9759 36.3216L74.0819 6.93535L97.6896 25.5302L113.5 0Z" fill="#FFEB33"/>
<path d="M75.8316 97.6866C75.7045 99.6737 75.588 101.64 75.482 103.585C75.3761 105.529 75.2384 107.495 75.0689 109.483L61.5947 110.18V114.176H73.2893L72.6537 124.006L61.5312 124.323L61.5947 143.095L45.5147 143.412L46.5316 97.6866H75.8316Z" fill="#292929"/>
<path d="M114.697 112.844C114.697 114.493 114.549 115.994 114.252 117.347C113.977 118.678 113.532 119.904 112.917 121.025C112.303 122.145 111.509 123.181 110.534 124.132C109.559 125.084 108.384 125.993 107.007 126.859L114.57 140.304L100.269 143.095L95.3755 129.586L91.435 129.713L90.863 142.904H77.1981C77.304 138.085 77.3994 133.286 77.4841 128.508C77.59 123.731 77.7066 118.932 77.8337 114.112C77.876 111.681 77.9184 109.271 77.9608 106.882C78.0032 104.494 78.0879 102.084 78.215 99.6526C79.698 99.1029 81.1598 98.6484 82.6005 98.2891C84.0411 97.9297 85.4818 97.6549 86.9224 97.4646C88.3842 97.2532 89.8566 97.1158 91.3396 97.0524C92.8438 96.9678 94.3798 96.9255 95.9476 96.9255C98.3627 96.9255 100.693 97.2638 102.939 97.9403C105.206 98.5956 107.208 99.5892 108.945 100.921C110.682 102.253 112.07 103.912 113.108 105.899C114.167 107.886 114.697 110.201 114.697 112.844ZM100.46 113.858C100.46 112.971 100.333 112.157 100.079 111.417C99.8458 110.677 99.4856 110.043 98.9983 109.514C98.5322 108.965 97.939 108.542 97.2187 108.246C96.5196 107.929 95.6933 107.77 94.74 107.77C94.3163 107.77 93.9031 107.802 93.5006 107.865C93.0981 107.908 92.7061 107.982 92.3248 108.087L91.8163 119.883H92.579C93.49 119.883 94.4116 119.767 95.3438 119.534C96.2971 119.302 97.1446 118.943 97.8861 118.456C98.6488 117.97 99.2631 117.347 99.7292 116.585C100.217 115.824 100.46 114.915 100.46 113.858Z" fill="#292929"/>
<path d="M152.069 117.79C152.069 119.63 151.942 121.469 151.687 123.308C148.065 123.54 144.463 123.921 140.883 124.449C137.302 124.957 133.722 125.464 130.141 125.972C130.692 127.494 131.55 128.709 132.716 129.618C133.902 130.527 135.311 130.982 136.942 130.982C137.79 130.982 138.711 130.823 139.707 130.506C140.724 130.189 141.73 129.798 142.726 129.333C143.722 128.847 144.675 128.329 145.586 127.779C146.497 127.229 147.281 126.733 147.938 126.289L146.412 140.685C145.586 141.319 144.686 141.858 143.711 142.302C142.758 142.746 141.762 143.105 140.724 143.38C139.686 143.655 138.637 143.856 137.578 143.983C136.518 144.109 135.48 144.173 134.463 144.173C132.366 144.173 130.449 143.887 128.711 143.317C126.974 142.746 125.396 141.953 123.976 140.938C122.578 139.903 121.349 138.687 120.29 137.292C119.231 135.897 118.352 134.375 117.652 132.726C116.953 131.077 116.424 129.333 116.064 127.494C115.703 125.654 115.523 123.794 115.523 121.913C115.523 119.947 115.703 117.981 116.064 116.015C116.424 114.049 116.964 112.157 117.684 110.339C118.426 108.521 119.347 106.84 120.449 105.297C121.572 103.733 122.875 102.369 124.358 101.206C125.841 100.044 127.514 99.1346 129.379 98.4793C131.264 97.824 133.341 97.4963 135.607 97.4963C137.493 97.4963 139.209 97.7606 140.756 98.2891C142.323 98.7964 143.711 99.5152 144.919 100.445C146.147 101.354 147.207 102.443 148.096 103.711C149.007 104.98 149.749 106.375 150.321 107.897C150.914 109.398 151.349 110.994 151.624 112.685C151.921 114.355 152.069 116.057 152.069 117.79ZM139.357 116.142C139.357 115.55 139.294 114.947 139.167 114.334C139.04 113.7 138.828 113.129 138.531 112.622C138.256 112.114 137.885 111.702 137.419 111.385C136.953 111.047 136.37 110.878 135.671 110.878C134.824 110.878 134.071 111.11 133.415 111.575C132.779 112.019 132.228 112.59 131.762 113.288C131.296 113.964 130.915 114.704 130.618 115.507C130.322 116.311 130.099 117.051 129.951 117.727L139.357 116.839V116.142Z" fill="#292929"/>
<path d="M189.631 117.79C189.631 119.63 189.504 121.469 189.25 123.308C185.627 123.54 182.026 123.921 178.445 124.449C174.865 124.957 171.284 125.464 167.704 125.972C168.255 127.494 169.113 128.709 170.278 129.618C171.464 130.527 172.873 130.982 174.505 130.982C175.352 130.982 176.274 130.823 177.269 130.506C178.286 130.189 179.293 129.798 180.288 129.333C181.284 128.847 182.237 128.329 183.148 127.779C184.059 127.229 184.843 126.733 185.5 126.289L183.975 140.685C183.148 141.319 182.248 141.858 181.274 142.302C180.32 142.746 179.324 143.105 178.286 143.38C177.248 143.655 176.199 143.856 175.14 143.983C174.081 144.109 173.043 144.173 172.026 144.173C169.928 144.173 168.011 143.887 166.274 143.317C164.537 142.746 162.958 141.953 161.539 140.938C160.141 139.903 158.912 138.687 157.853 137.292C156.793 135.897 155.914 134.375 155.215 132.726C154.516 131.077 153.986 129.333 153.626 127.494C153.266 125.654 153.086 123.794 153.086 121.913C153.086 119.947 153.266 117.981 153.626 116.015C153.986 114.049 154.526 112.157 155.247 110.339C155.988 108.521 156.91 106.84 158.011 105.297C159.134 103.733 160.437 102.369 161.92 101.206C163.403 100.044 165.077 99.1346 166.941 98.4793C168.827 97.824 170.903 97.4963 173.17 97.4963C175.055 97.4963 176.772 97.7606 178.318 98.2891C179.886 98.7964 181.274 99.5152 182.481 100.445C183.71 101.354 184.769 102.443 185.659 103.711C186.57 104.98 187.311 106.375 187.883 107.897C188.477 109.398 188.911 110.994 189.186 112.685C189.483 114.355 189.631 116.057 189.631 117.79ZM176.92 116.142C176.92 115.55 176.856 114.947 176.729 114.334C176.602 113.7 176.39 113.129 176.094 112.622C175.818 112.114 175.447 111.702 174.981 111.385C174.515 111.047 173.933 110.878 173.233 110.878C172.386 110.878 171.634 111.11 170.977 111.575C170.342 112.019 169.791 112.59 169.325 113.288C168.859 113.964 168.477 114.704 168.181 115.507C167.884 116.311 167.662 117.051 167.513 117.727L176.92 116.839V116.142Z" fill="#292929"/>
</svg>
