<svg width="249" height="119" viewBox="0 0 249 119" fill="none" xmlns="http://www.w3.org/2000/svg">
<mask id="path-1-inside-1_766_3064" fill="white">
<path fill-rule="evenodd" clip-rule="evenodd" d="M50.5 0C22.6096 0 0 22.6096 0 50.5C0 78.3904 22.6096 101 50.5 101H198.5C199.111 101 199.72 100.989 200.325 100.968C221.969 105.195 240.045 113.34 248 119V60.5496C248.656 57.3018 249 53.9411 249 50.5C249 22.6096 226.39 0 198.5 0H50.5Z"/>
</mask>
<path fill-rule="evenodd" clip-rule="evenodd" d="M50.5 0C22.6096 0 0 22.6096 0 50.5C0 78.3904 22.6096 101 50.5 101H198.5C199.111 101 199.72 100.989 200.325 100.968C221.969 105.195 240.045 113.34 248 119V60.5496C248.656 57.3018 249 53.9411 249 50.5C249 22.6096 226.39 0 198.5 0H50.5Z" fill="white"/>
<path d="M200.325 100.968L200.9 98.0232L200.563 97.9573L200.219 97.9695L200.325 100.968ZM248 119L246.261 121.444L251 124.817V119H248ZM248 60.5496L245.059 59.9558L245 60.2497V60.5496H248ZM3 50.5C3 24.2665 24.2665 3 50.5 3V-3C20.9528 -3 -3 20.9528 -3 50.5H3ZM50.5 98C24.2665 98 3 76.7335 3 50.5H-3C-3 80.0472 20.9528 104 50.5 104V98ZM198.5 98H50.5V104H198.5V98ZM200.219 97.9695C199.649 97.9898 199.076 98 198.5 98V104C199.147 104 199.791 103.989 200.432 103.966L200.219 97.9695ZM199.75 103.912C221.089 108.079 238.738 116.092 246.261 121.444L249.739 116.556C241.353 110.588 222.85 102.31 200.9 98.0232L199.75 103.912ZM251 119V60.5496H245V119H251ZM246 50.5C246 53.7406 245.676 56.9024 245.059 59.9558L250.941 61.1433C251.636 57.7012 252 54.1416 252 50.5H246ZM198.5 3C224.734 3 246 24.2665 246 50.5H252C252 20.9528 228.047 -3 198.5 -3V3ZM50.5 3H198.5V-3H50.5V3Z" fill="black" mask="url(#path-1-inside-1_766_3064)"/>
<path d="M46.38 30.27C46.2867 30.4233 46.19 30.5367 46.09 30.61C45.9967 30.6767 45.8733 30.71 45.72 30.71C45.5733 30.71 45.4133 30.66 45.24 30.56C45.0733 30.4533 44.8767 30.34 44.65 30.22C44.4233 30.1 44.1633 29.99 43.87 29.89C43.5767 29.7833 43.2333 29.73 42.84 29.73C42.1467 29.73 41.6267 29.8867 41.28 30.2C40.9333 30.5067 40.76 30.91 40.76 31.41C40.76 31.73 40.8533 31.9967 41.04 32.21C41.2333 32.4167 41.4833 32.5967 41.79 32.75C42.1033 32.9033 42.4567 33.04 42.85 33.16C43.2433 33.28 43.6467 33.4133 44.06 33.56C44.4733 33.7 44.8767 33.8667 45.27 34.06C45.6633 34.2533 46.0133 34.4967 46.32 34.79C46.6333 35.0833 46.8833 35.4433 47.07 35.87C47.2633 36.29 47.36 36.8033 47.36 37.41C47.36 38.07 47.2433 38.69 47.01 39.27C46.7833 39.8433 46.4533 40.3467 46.02 40.78C45.5867 41.2067 45.05 41.5433 44.41 41.79C43.7767 42.0367 43.0567 42.16 42.25 42.16C41.79 42.16 41.33 42.1133 40.87 42.02C40.4167 41.9267 39.9767 41.7967 39.55 41.63C39.13 41.4633 38.7333 41.2633 38.36 41.03C37.9867 40.7967 37.66 40.5367 37.38 40.25L38.26 38.83C38.3333 38.7233 38.43 38.6367 38.55 38.57C38.67 38.4967 38.7967 38.46 38.93 38.46C39.11 38.46 39.3 38.5267 39.5 38.66C39.7 38.7933 39.93 38.94 40.19 39.1C40.45 39.26 40.75 39.4067 41.09 39.54C41.4367 39.6733 41.85 39.74 42.33 39.74C43.03 39.74 43.57 39.58 43.95 39.26C44.3367 38.94 44.53 38.4633 44.53 37.83C44.53 37.4633 44.4333 37.1667 44.24 36.94C44.0533 36.7133 43.8067 36.5233 43.5 36.37C43.1933 36.2167 42.8433 36.0867 42.45 35.98C42.0567 35.8667 41.6533 35.7433 41.24 35.61C40.8267 35.4767 40.4233 35.3167 40.03 35.13C39.6367 34.9433 39.2867 34.6967 38.98 34.39C38.6733 34.0833 38.4233 33.7033 38.23 33.25C38.0433 32.7967 37.95 32.2333 37.95 31.56C37.95 31.02 38.0567 30.4967 38.27 29.99C38.4833 29.4833 38.7967 29.0333 39.21 28.64C39.6233 28.2467 40.13 27.93 40.73 27.69C41.3367 27.45 42.03 27.33 42.81 27.33C43.6833 27.33 44.49 27.4667 45.23 27.74C45.9767 28.0067 46.6067 28.38 47.12 28.86L46.38 30.27ZM59.8056 29.91H55.5656V42H52.5556V29.91H48.3156V27.49H59.8056V29.91ZM64.6259 29.84V33.57H69.4659V35.84H64.6259V39.65H70.8459V42H61.6059V27.49H70.8459V29.84H64.6259ZM77.9903 34.71C78.9303 34.71 79.617 34.4833 80.0503 34.03C80.4903 33.5767 80.7103 32.9567 80.7103 32.17C80.7103 31.81 80.6536 31.4833 80.5403 31.19C80.4336 30.89 80.267 30.6367 80.0403 30.43C79.8203 30.2167 79.5403 30.0533 79.2003 29.94C78.8603 29.8267 78.457 29.77 77.9903 29.77H76.0903V34.71H77.9903ZM77.9903 27.49C78.9836 27.49 79.8403 27.6067 80.5603 27.84C81.287 28.0733 81.8836 28.4 82.3503 28.82C82.817 29.2333 83.1603 29.7267 83.3803 30.3C83.607 30.8733 83.7203 31.4967 83.7203 32.17C83.7203 32.8833 83.6036 33.5367 83.3703 34.13C83.137 34.7233 82.7836 35.2333 82.3103 35.66C81.837 36.0867 81.2403 36.42 80.5203 36.66C79.8003 36.8933 78.957 37.01 77.9903 37.01H76.0903V42H73.0903V27.49H77.9903ZM98.0791 39.47C98.3791 39.47 98.6124 39.5533 98.7791 39.72C98.9524 39.8867 99.0391 40.1067 99.0391 40.38V42H88.9791V41.1C88.9791 40.9267 89.0157 40.74 89.0891 40.54C89.1624 40.3333 89.2857 40.1467 89.4591 39.98L93.7591 35.67C94.1257 35.3033 94.4491 34.9533 94.7291 34.62C95.0091 34.28 95.2424 33.95 95.4291 33.63C95.6157 33.3033 95.7557 32.9733 95.8491 32.64C95.9424 32.3067 95.9891 31.9567 95.9891 31.59C95.9891 30.9433 95.8224 30.4533 95.4891 30.12C95.1557 29.78 94.6857 29.61 94.0791 29.61C93.8124 29.61 93.5657 29.65 93.3391 29.73C93.1191 29.8033 92.9191 29.9067 92.7391 30.04C92.5657 30.1733 92.4157 30.33 92.2891 30.51C92.1624 30.69 92.0691 30.8867 92.0091 31.1C91.8891 31.4333 91.7257 31.6567 91.5191 31.77C91.3191 31.8767 91.0324 31.9 90.6591 31.84L89.1991 31.58C89.3057 30.8733 89.5057 30.2533 89.7991 29.72C90.0924 29.1867 90.4591 28.7433 90.8991 28.39C91.3391 28.0367 91.8424 27.7733 92.4091 27.6C92.9757 27.42 93.5857 27.33 94.2391 27.33C94.9257 27.33 95.5491 27.4333 96.1091 27.64C96.6757 27.84 97.1591 28.1233 97.5591 28.49C97.9591 28.85 98.2691 29.2867 98.4891 29.8C98.7091 30.3133 98.8191 30.88 98.8191 31.5C98.8191 32.0333 98.7424 32.5267 98.5891 32.98C98.4357 33.4333 98.2257 33.8667 97.9591 34.28C97.6991 34.6867 97.3957 35.0833 97.0491 35.47C96.7024 35.8567 96.3357 36.2467 95.9491 36.64L92.8691 39.79C93.2091 39.69 93.5457 39.6133 93.8791 39.56C94.2124 39.5 94.5257 39.47 94.8191 39.47H98.0791Z" fill="black"/>
<path d="M47.25 70.54L45.49 65.73C45.4033 65.5167 45.3133 65.2633 45.22 64.97C45.1267 64.6767 45.0333 64.36 44.94 64.02C44.8533 64.36 44.7633 64.68 44.67 64.98C44.5767 65.2733 44.4867 65.53 44.4 65.75L42.65 70.54H47.25ZM52 76H49.92C49.6867 76 49.4967 75.9433 49.35 75.83C49.2033 75.71 49.0933 75.5633 49.02 75.39L47.94 72.44H41.95L40.87 75.39C40.8167 75.5433 40.7133 75.6833 40.56 75.81C40.4067 75.9367 40.2167 76 39.99 76H37.89L43.58 61.54H46.32L52 76ZM61.5169 65.74L57.4469 76H55.2069L51.1369 65.74H53.1769C53.3635 65.74 53.5169 65.7833 53.6369 65.87C53.7635 65.9567 53.8469 66.0667 53.8869 66.2L55.8669 71.68C55.9735 72 56.0669 72.3133 56.1469 72.62C56.2269 72.9267 56.2969 73.2333 56.3569 73.54C56.4235 73.2333 56.4969 72.9267 56.5769 72.62C56.6569 72.3133 56.7535 72 56.8669 71.68L58.8869 66.2C58.9335 66.0667 59.0169 65.9567 59.1369 65.87C59.2569 65.7833 59.4002 65.74 59.5669 65.74H61.5169ZM67.9994 71.62C67.286 71.6533 66.686 71.7167 66.1994 71.81C65.7127 71.8967 65.3227 72.01 65.0294 72.15C64.736 72.29 64.526 72.4533 64.3994 72.64C64.2727 72.8267 64.2094 73.03 64.2094 73.25C64.2094 73.6833 64.336 73.9933 64.5894 74.18C64.8494 74.3667 65.186 74.46 65.5994 74.46C66.106 74.46 66.5427 74.37 66.9094 74.19C67.2827 74.0033 67.646 73.7233 67.9994 73.35V71.62ZM62.3394 67.17C63.5194 66.09 64.9394 65.55 66.5994 65.55C67.1994 65.55 67.736 65.65 68.2094 65.85C68.6827 66.0433 69.0827 66.3167 69.4094 66.67C69.736 67.0167 69.9827 67.4333 70.1494 67.92C70.3227 68.4067 70.4094 68.94 70.4094 69.52V76H69.2894C69.056 76 68.876 75.9667 68.7494 75.9C68.6227 75.8267 68.5227 75.6833 68.4494 75.47L68.2294 74.73C67.9694 74.9633 67.716 75.17 67.4694 75.35C67.2227 75.5233 66.966 75.67 66.6994 75.79C66.4327 75.91 66.146 76 65.8394 76.06C65.5394 76.1267 65.206 76.16 64.8394 76.16C64.406 76.16 64.006 76.1033 63.6394 75.99C63.2727 75.87 62.956 75.6933 62.6894 75.46C62.4227 75.2267 62.216 74.9367 62.0694 74.59C61.9227 74.2433 61.8494 73.84 61.8494 73.38C61.8494 73.12 61.8927 72.8633 61.9794 72.61C62.066 72.35 62.206 72.1033 62.3994 71.87C62.5994 71.6367 62.856 71.4167 63.1694 71.21C63.4827 71.0033 63.866 70.8233 64.3194 70.67C64.7794 70.5167 65.3127 70.3933 65.9194 70.3C66.526 70.2 67.2194 70.14 67.9994 70.12V69.52C67.9994 68.8333 67.8527 68.3267 67.5594 68C67.266 67.6667 66.8427 67.5 66.2894 67.5C65.8894 67.5 65.556 67.5467 65.2894 67.64C65.0294 67.7333 64.7994 67.84 64.5994 67.96C64.3994 68.0733 64.216 68.1767 64.0494 68.27C63.8894 68.3633 63.7094 68.41 63.5094 68.41C63.336 68.41 63.1894 68.3667 63.0694 68.28C62.9494 68.1867 62.8527 68.08 62.7794 67.96L62.3394 67.17ZM75.2956 65.74V76H72.8156V65.74H75.2956ZM75.6356 62.75C75.6356 62.9633 75.5923 63.1633 75.5056 63.35C75.419 63.5367 75.3023 63.7 75.1556 63.84C75.0156 63.98 74.849 64.0933 74.6556 64.18C74.4623 64.26 74.2556 64.3 74.0356 64.3C73.8223 64.3 73.619 64.26 73.4256 64.18C73.239 64.0933 73.0756 63.98 72.9356 63.84C72.7956 63.7 72.6823 63.5367 72.5956 63.35C72.5156 63.1633 72.4756 62.9633 72.4756 62.75C72.4756 62.53 72.5156 62.3233 72.5956 62.13C72.6823 61.9367 72.7956 61.77 72.9356 61.63C73.0756 61.49 73.239 61.38 73.4256 61.3C73.619 61.2133 73.8223 61.17 74.0356 61.17C74.2556 61.17 74.4623 61.2133 74.6556 61.3C74.849 61.38 75.0156 61.49 75.1556 61.63C75.3023 61.77 75.419 61.9367 75.5056 62.13C75.5923 62.3233 75.6356 62.53 75.6356 62.75ZM80.3138 61.14V76H77.8438V61.14H80.3138ZM91.058 76.16C90.1646 76.16 89.478 75.91 88.998 75.41C88.5246 74.9033 88.288 74.2067 88.288 73.32V67.59H87.238C87.1046 67.59 86.9913 67.5467 86.898 67.46C86.8046 67.3733 86.758 67.2433 86.758 67.07V66.09L88.408 65.82L88.928 63.02C88.9613 62.8867 89.0246 62.7833 89.118 62.71C89.2113 62.6367 89.3313 62.6 89.478 62.6H90.758V65.83H93.498V67.59H90.758V73.15C90.758 73.47 90.8346 73.72 90.988 73.9C91.148 74.08 91.3646 74.17 91.638 74.17C91.7913 74.17 91.918 74.1533 92.018 74.12C92.1246 74.08 92.2146 74.04 92.288 74C92.368 73.96 92.438 73.9233 92.498 73.89C92.558 73.85 92.618 73.83 92.678 73.83C92.7513 73.83 92.8113 73.85 92.858 73.89C92.9046 73.9233 92.9546 73.9767 93.008 74.05L93.748 75.25C93.388 75.55 92.9746 75.7767 92.508 75.93C92.0413 76.0833 91.558 76.16 91.058 76.16ZM97.5494 66.84C97.9494 66.4667 98.3894 66.1633 98.8694 65.93C99.3494 65.6967 99.9127 65.58 100.559 65.58C101.119 65.58 101.616 65.6767 102.049 65.87C102.483 66.0567 102.843 66.3233 103.129 66.67C103.423 67.01 103.643 67.42 103.789 67.9C103.943 68.3733 104.019 68.8967 104.019 69.47V76H101.549V69.47C101.549 68.8433 101.406 68.36 101.119 68.02C100.833 67.6733 100.396 67.5 99.8094 67.5C99.3827 67.5 98.9827 67.5967 98.6094 67.79C98.236 67.9833 97.8827 68.2467 97.5494 68.58V76H95.0794V61.14H97.5494V66.84ZM112.978 69.69C112.978 69.37 112.932 69.07 112.838 68.79C112.752 68.5033 112.618 68.2533 112.438 68.04C112.258 67.8267 112.028 67.66 111.748 67.54C111.475 67.4133 111.155 67.35 110.788 67.35C110.075 67.35 109.512 67.5533 109.098 67.96C108.692 68.3667 108.432 68.9433 108.318 69.69H112.978ZM108.268 71.18C108.308 71.7067 108.402 72.1633 108.548 72.55C108.695 72.93 108.888 73.2467 109.128 73.5C109.368 73.7467 109.652 73.9333 109.978 74.06C110.312 74.18 110.678 74.24 111.078 74.24C111.478 74.24 111.822 74.1933 112.108 74.1C112.402 74.0067 112.655 73.9033 112.868 73.79C113.088 73.6767 113.278 73.5733 113.438 73.48C113.605 73.3867 113.765 73.34 113.918 73.34C114.125 73.34 114.278 73.4167 114.378 73.57L115.088 74.47C114.815 74.79 114.508 75.06 114.168 75.28C113.828 75.4933 113.472 75.6667 113.098 75.8C112.732 75.9267 112.355 76.0167 111.968 76.07C111.588 76.1233 111.218 76.15 110.858 76.15C110.145 76.15 109.482 76.0333 108.868 75.8C108.255 75.56 107.722 75.21 107.268 74.75C106.815 74.2833 106.458 73.71 106.198 73.03C105.938 72.3433 105.808 71.55 105.808 70.65C105.808 69.95 105.922 69.2933 106.148 68.68C106.375 68.06 106.698 67.5233 107.118 67.07C107.545 66.61 108.062 66.2467 108.668 65.98C109.282 65.7133 109.972 65.58 110.738 65.58C111.385 65.58 111.982 65.6833 112.528 65.89C113.075 66.0967 113.545 66.4 113.938 66.8C114.332 67.1933 114.638 67.68 114.858 68.26C115.085 68.8333 115.198 69.49 115.198 70.23C115.198 70.6033 115.158 70.8567 115.078 70.99C114.998 71.1167 114.845 71.18 114.618 71.18H108.268ZM126.455 65.58C127.215 65.58 127.905 65.7033 128.525 65.95C129.152 66.1967 129.685 66.5467 130.125 67C130.572 67.4533 130.915 68.0067 131.155 68.66C131.395 69.3133 131.515 70.0433 131.515 70.85C131.515 71.6633 131.395 72.3967 131.155 73.05C130.915 73.7033 130.572 74.26 130.125 74.72C129.685 75.18 129.152 75.5333 128.525 75.78C127.905 76.0267 127.215 76.15 126.455 76.15C125.689 76.15 124.992 76.0267 124.365 75.78C123.739 75.5333 123.202 75.18 122.755 74.72C122.315 74.26 121.972 73.7033 121.725 73.05C121.485 72.3967 121.365 71.6633 121.365 70.85C121.365 70.0433 121.485 69.3133 121.725 68.66C121.972 68.0067 122.315 67.4533 122.755 67C123.202 66.5467 123.739 66.1967 124.365 65.95C124.992 65.7033 125.689 65.58 126.455 65.58ZM126.455 74.25C127.309 74.25 127.939 73.9633 128.345 73.39C128.759 72.8167 128.965 71.9767 128.965 70.87C128.965 69.7633 128.759 68.92 128.345 68.34C127.939 67.76 127.309 67.47 126.455 67.47C125.589 67.47 124.945 67.7633 124.525 68.35C124.112 68.93 123.905 69.77 123.905 70.87C123.905 71.97 124.112 72.81 124.525 73.39C124.945 73.9633 125.589 74.25 126.455 74.25ZM133.866 76V67.6L132.976 67.46C132.782 67.42 132.626 67.3533 132.506 67.26C132.392 67.16 132.336 67.02 132.336 66.84V65.83H133.866V65.25C133.866 64.6633 133.952 64.1367 134.126 63.67C134.306 63.2033 134.559 62.8067 134.886 62.48C135.219 62.1533 135.622 61.9033 136.096 61.73C136.569 61.5567 137.102 61.47 137.696 61.47C138.169 61.47 138.609 61.5333 139.016 61.66L138.966 62.89C138.959 62.9833 138.932 63.06 138.886 63.12C138.839 63.18 138.776 63.2267 138.696 63.26C138.622 63.2867 138.536 63.3067 138.436 63.32C138.336 63.3267 138.229 63.33 138.116 63.33C137.822 63.33 137.559 63.3633 137.326 63.43C137.099 63.49 136.906 63.6 136.746 63.76C136.586 63.9133 136.462 64.12 136.376 64.38C136.296 64.6333 136.256 64.95 136.256 65.33V65.83H140.346V64.92C140.346 64.3333 140.432 63.8067 140.606 63.34C140.786 62.8733 141.039 62.4767 141.366 62.15C141.699 61.8233 142.102 61.5733 142.576 61.4C143.049 61.2267 143.582 61.14 144.176 61.14C144.409 61.14 144.632 61.1567 144.846 61.19C145.066 61.2167 145.282 61.26 145.496 61.32L145.436 62.56C145.422 62.7533 145.332 62.8767 145.166 62.93C145.006 62.9767 144.816 63 144.596 63C144.302 63 144.039 63.0333 143.806 63.1C143.579 63.16 143.386 63.27 143.226 63.43C143.066 63.5833 142.942 63.79 142.856 64.05C142.776 64.3033 142.736 64.62 142.736 65V65.83H145.396V67.59H142.816V76H140.346V67.59H136.336V76H133.866ZM153.135 69.69C153.135 69.37 153.088 69.07 152.995 68.79C152.908 68.5033 152.775 68.2533 152.595 68.04C152.415 67.8267 152.185 67.66 151.905 67.54C151.631 67.4133 151.311 67.35 150.945 67.35C150.231 67.35 149.668 67.5533 149.255 67.96C148.848 68.3667 148.588 68.9433 148.475 69.69H153.135ZM148.425 71.18C148.465 71.7067 148.558 72.1633 148.705 72.55C148.851 72.93 149.045 73.2467 149.285 73.5C149.525 73.7467 149.808 73.9333 150.135 74.06C150.468 74.18 150.835 74.24 151.235 74.24C151.635 74.24 151.978 74.1933 152.265 74.1C152.558 74.0067 152.811 73.9033 153.025 73.79C153.245 73.6767 153.435 73.5733 153.595 73.48C153.761 73.3867 153.921 73.34 154.075 73.34C154.281 73.34 154.435 73.4167 154.535 73.57L155.245 74.47C154.971 74.79 154.665 75.06 154.325 75.28C153.985 75.4933 153.628 75.6667 153.255 75.8C152.888 75.9267 152.511 76.0167 152.125 76.07C151.745 76.1233 151.375 76.15 151.015 76.15C150.301 76.15 149.638 76.0333 149.025 75.8C148.411 75.56 147.878 75.21 147.425 74.75C146.971 74.2833 146.615 73.71 146.355 73.03C146.095 72.3433 145.965 71.55 145.965 70.65C145.965 69.95 146.078 69.2933 146.305 68.68C146.531 68.06 146.855 67.5233 147.275 67.07C147.701 66.61 148.218 66.2467 148.825 65.98C149.438 65.7133 150.128 65.58 150.895 65.58C151.541 65.58 152.138 65.6833 152.685 65.89C153.231 66.0967 153.701 66.4 154.095 66.8C154.488 67.1933 154.795 67.68 155.015 68.26C155.241 68.8333 155.355 69.49 155.355 70.23C155.355 70.6033 155.315 70.8567 155.235 70.99C155.155 71.1167 155.001 71.18 154.775 71.18H148.425ZM159.538 67.52C159.858 66.9067 160.238 66.4267 160.678 66.08C161.118 65.7267 161.638 65.55 162.238 65.55C162.712 65.55 163.092 65.6533 163.378 65.86L163.218 67.71C163.185 67.83 163.135 67.9167 163.068 67.97C163.008 68.0167 162.925 68.04 162.818 68.04C162.718 68.04 162.568 68.0233 162.368 67.99C162.175 67.9567 161.985 67.94 161.798 67.94C161.525 67.94 161.282 67.98 161.068 68.06C160.855 68.14 160.662 68.2567 160.488 68.41C160.322 68.5567 160.172 68.7367 160.038 68.95C159.912 69.1633 159.792 69.4067 159.678 69.68V76H157.208V65.74H158.658C158.912 65.74 159.088 65.7867 159.188 65.88C159.288 65.9667 159.355 66.1267 159.388 66.36L159.538 67.52Z" fill="black"/>
</svg>
