<svg width="249" height="119" viewBox="0 0 249 119" fill="none" xmlns="http://www.w3.org/2000/svg">
<mask id="path-1-inside-1_766_3064" fill="white">
<path fill-rule="evenodd" clip-rule="evenodd" d="M50.5 0C22.6096 0 0 22.6096 0 50.5C0 78.3904 22.6096 101 50.5 101H198.5C199.111 101 199.72 100.989 200.325 100.968C221.969 105.195 240.045 113.34 248 119V60.5496C248.656 57.3018 249 53.9411 249 50.5C249 22.6096 226.39 0 198.5 0H50.5Z"/>
</mask>
<path fill-rule="evenodd" clip-rule="evenodd" d="M50.5 0C22.6096 0 0 22.6096 0 50.5C0 78.3904 22.6096 101 50.5 101H198.5C199.111 101 199.72 100.989 200.325 100.968C221.969 105.195 240.045 113.34 248 119V60.5496C248.656 57.3018 249 53.9411 249 50.5C249 22.6096 226.39 0 198.5 0H50.5Z" fill="white"/>
<path d="M200.325 100.968L200.9 98.0232L200.563 97.9573L200.219 97.9695L200.325 100.968ZM248 119L246.261 121.444L251 124.817V119H248ZM248 60.5496L245.059 59.9558L245 60.2497V60.5496H248ZM3 50.5C3 24.2665 24.2665 3 50.5 3V-3C20.9528 -3 -3 20.9528 -3 50.5H3ZM50.5 98C24.2665 98 3 76.7335 3 50.5H-3C-3 80.0472 20.9528 104 50.5 104V98ZM198.5 98H50.5V104H198.5V98ZM200.219 97.9695C199.649 97.9898 199.076 98 198.5 98V104C199.147 104 199.791 103.989 200.432 103.966L200.219 97.9695ZM199.75 103.912C221.089 108.079 238.738 116.092 246.261 121.444L249.739 116.556C241.353 110.588 222.85 102.31 200.9 98.0232L199.75 103.912ZM251 119V60.5496H245V119H251ZM246 50.5C246 53.7406 245.676 56.9024 245.059 59.9558L250.941 61.1433C251.636 57.7012 252 54.1416 252 50.5H246ZM198.5 3C224.734 3 246 24.2665 246 50.5H252C252 20.9528 228.047 -3 198.5 -3V3ZM50.5 3H198.5V-3H50.5V3Z" fill="black" mask="url(#path-1-inside-1_766_3064)"/>
<path d="M46.38 30.27C46.2867 30.4233 46.19 30.5367 46.09 30.61C45.9967 30.6767 45.8733 30.71 45.72 30.71C45.5733 30.71 45.4133 30.66 45.24 30.56C45.0733 30.4533 44.8767 30.34 44.65 30.22C44.4233 30.1 44.1633 29.99 43.87 29.89C43.5767 29.7833 43.2333 29.73 42.84 29.73C42.1467 29.73 41.6267 29.8867 41.28 30.2C40.9333 30.5067 40.76 30.91 40.76 31.41C40.76 31.73 40.8533 31.9967 41.04 32.21C41.2333 32.4167 41.4833 32.5967 41.79 32.75C42.1033 32.9033 42.4567 33.04 42.85 33.16C43.2433 33.28 43.6467 33.4133 44.06 33.56C44.4733 33.7 44.8767 33.8667 45.27 34.06C45.6633 34.2533 46.0133 34.4967 46.32 34.79C46.6333 35.0833 46.8833 35.4433 47.07 35.87C47.2633 36.29 47.36 36.8033 47.36 37.41C47.36 38.07 47.2433 38.69 47.01 39.27C46.7833 39.8433 46.4533 40.3467 46.02 40.78C45.5867 41.2067 45.05 41.5433 44.41 41.79C43.7767 42.0367 43.0567 42.16 42.25 42.16C41.79 42.16 41.33 42.1133 40.87 42.02C40.4167 41.9267 39.9767 41.7967 39.55 41.63C39.13 41.4633 38.7333 41.2633 38.36 41.03C37.9867 40.7967 37.66 40.5367 37.38 40.25L38.26 38.83C38.3333 38.7233 38.43 38.6367 38.55 38.57C38.67 38.4967 38.7967 38.46 38.93 38.46C39.11 38.46 39.3 38.5267 39.5 38.66C39.7 38.7933 39.93 38.94 40.19 39.1C40.45 39.26 40.75 39.4067 41.09 39.54C41.4367 39.6733 41.85 39.74 42.33 39.74C43.03 39.74 43.57 39.58 43.95 39.26C44.3367 38.94 44.53 38.4633 44.53 37.83C44.53 37.4633 44.4333 37.1667 44.24 36.94C44.0533 36.7133 43.8067 36.5233 43.5 36.37C43.1933 36.2167 42.8433 36.0867 42.45 35.98C42.0567 35.8667 41.6533 35.7433 41.24 35.61C40.8267 35.4767 40.4233 35.3167 40.03 35.13C39.6367 34.9433 39.2867 34.6967 38.98 34.39C38.6733 34.0833 38.4233 33.7033 38.23 33.25C38.0433 32.7967 37.95 32.2333 37.95 31.56C37.95 31.02 38.0567 30.4967 38.27 29.99C38.4833 29.4833 38.7967 29.0333 39.21 28.64C39.6233 28.2467 40.13 27.93 40.73 27.69C41.3367 27.45 42.03 27.33 42.81 27.33C43.6833 27.33 44.49 27.4667 45.23 27.74C45.9767 28.0067 46.6067 28.38 47.12 28.86L46.38 30.27ZM59.8056 29.91H55.5656V42H52.5556V29.91H48.3156V27.49H59.8056V29.91ZM64.6259 29.84V33.57H69.4659V35.84H64.6259V39.65H70.8459V42H61.6059V27.49H70.8459V29.84H64.6259ZM77.9903 34.71C78.9303 34.71 79.617 34.4833 80.0503 34.03C80.4903 33.5767 80.7103 32.9567 80.7103 32.17C80.7103 31.81 80.6536 31.4833 80.5403 31.19C80.4336 30.89 80.267 30.6367 80.0403 30.43C79.8203 30.2167 79.5403 30.0533 79.2003 29.94C78.8603 29.8267 78.457 29.77 77.9903 29.77H76.0903V34.71H77.9903ZM77.9903 27.49C78.9836 27.49 79.8403 27.6067 80.5603 27.84C81.287 28.0733 81.8836 28.4 82.3503 28.82C82.817 29.2333 83.1603 29.7267 83.3803 30.3C83.607 30.8733 83.7203 31.4967 83.7203 32.17C83.7203 32.8833 83.6036 33.5367 83.3703 34.13C83.137 34.7233 82.7836 35.2333 82.3103 35.66C81.837 36.0867 81.2403 36.42 80.5203 36.66C79.8003 36.8933 78.957 37.01 77.9903 37.01H76.0903V42H73.0903V27.49H77.9903ZM89.2791 31.58C89.3857 30.8733 89.5857 30.2533 89.8791 29.72C90.1724 29.1867 90.5391 28.7433 90.9791 28.39C91.4191 28.0367 91.9191 27.7733 92.4791 27.6C93.0457 27.42 93.6557 27.33 94.3091 27.33C95.0024 27.33 95.6224 27.43 96.1691 27.63C96.7224 27.8233 97.1891 28.09 97.5691 28.43C97.9491 28.77 98.2391 29.1667 98.4391 29.62C98.6457 30.0733 98.7491 30.56 98.7491 31.08C98.7491 31.54 98.6991 31.9467 98.5991 32.3C98.5057 32.6467 98.3624 32.95 98.1691 33.21C97.9824 33.47 97.7491 33.69 97.4691 33.87C97.1957 34.05 96.8791 34.2 96.5191 34.32C98.1857 34.8667 99.0191 35.9767 99.0191 37.65C99.0191 38.39 98.8824 39.0433 98.6091 39.61C98.3357 40.17 97.9691 40.64 97.5091 41.02C97.0491 41.4 96.5124 41.6867 95.8991 41.88C95.2924 42.0667 94.6557 42.16 93.9891 42.16C93.2824 42.16 92.6591 42.08 92.1191 41.92C91.5791 41.76 91.1024 41.52 90.6891 41.2C90.2824 40.88 89.9324 40.48 89.6391 40C89.3457 39.5133 89.0891 38.9467 88.8691 38.3L90.0891 37.8C90.4091 37.6667 90.7057 37.63 90.9791 37.69C91.2591 37.75 91.4591 37.8967 91.5791 38.13C91.7124 38.3833 91.8524 38.6167 91.9991 38.83C92.1524 39.0433 92.3224 39.23 92.5091 39.39C92.6957 39.5433 92.9057 39.6633 93.1391 39.75C93.3791 39.8367 93.6524 39.88 93.9591 39.88C94.3457 39.88 94.6824 39.8167 94.9691 39.69C95.2557 39.5633 95.4957 39.4 95.6891 39.2C95.8824 38.9933 96.0257 38.7633 96.1191 38.51C96.2191 38.25 96.2691 37.9933 96.2691 37.74C96.2691 37.4067 96.2391 37.1067 96.1791 36.84C96.1191 36.5667 95.9791 36.3367 95.7591 36.15C95.5457 35.9567 95.2257 35.81 94.7991 35.71C94.3791 35.6033 93.8057 35.55 93.0791 35.55V33.61C93.6857 33.61 94.1824 33.56 94.5691 33.46C94.9557 33.36 95.2591 33.22 95.4791 33.04C95.6991 32.86 95.8491 32.6433 95.9291 32.39C96.0157 32.1367 96.0591 31.86 96.0591 31.56C96.0591 30.9267 95.8924 30.4433 95.5591 30.11C95.2324 29.7767 94.7657 29.61 94.1591 29.61C93.8924 29.61 93.6457 29.65 93.4191 29.73C93.1991 29.8033 92.9991 29.9067 92.8191 30.04C92.6457 30.1733 92.4957 30.33 92.3691 30.51C92.2424 30.69 92.1491 30.8867 92.0891 31.1C91.9624 31.4333 91.7991 31.6567 91.5991 31.77C91.3991 31.8767 91.1091 31.9 90.7291 31.84L89.2791 31.58Z" fill="black"/>
<path d="M47.44 70.68L45.19 64.85C45.1233 64.6767 45.0533 64.4767 44.98 64.25C44.9067 64.0167 44.8367 63.77 44.77 63.51C44.63 64.05 44.4867 64.5 44.34 64.86L42.09 70.68H47.44ZM51.48 76H49.98C49.8067 76 49.6667 75.9567 49.56 75.87C49.4533 75.7833 49.3733 75.6733 49.32 75.54L47.98 72.08H41.55L40.21 75.54C40.17 75.66 40.0933 75.7667 39.98 75.86C39.8667 75.9533 39.7267 76 39.56 76H38.06L43.79 61.67H45.75L51.48 76ZM60.8244 65.87L56.6944 76H55.0944L50.9644 65.87H52.4144C52.561 65.87 52.681 65.9067 52.7744 65.98C52.8677 66.0533 52.931 66.14 52.9644 66.24L55.5344 72.76C55.6144 73.0067 55.6844 73.2467 55.7444 73.48C55.8044 73.7133 55.861 73.9467 55.9144 74.18C55.9677 73.9467 56.0244 73.7133 56.0844 73.48C56.1444 73.2467 56.2177 73.0067 56.3044 72.76L58.9044 66.24C58.9444 66.1333 59.011 66.0467 59.1044 65.98C59.1977 65.9067 59.3077 65.87 59.4344 65.87H60.8244ZM67.732 71.44C66.912 71.4667 66.212 71.5333 65.632 71.64C65.0587 71.74 64.5887 71.8733 64.222 72.04C63.862 72.2067 63.5987 72.4033 63.432 72.63C63.272 72.8567 63.192 73.11 63.192 73.39C63.192 73.6567 63.2354 73.8867 63.322 74.08C63.4087 74.2733 63.5254 74.4333 63.672 74.56C63.8254 74.68 64.002 74.77 64.202 74.83C64.4087 74.8833 64.6287 74.91 64.862 74.91C65.1754 74.91 65.462 74.88 65.722 74.82C65.982 74.7533 66.2254 74.66 66.452 74.54C66.6854 74.42 66.9054 74.2767 67.112 74.11C67.3254 73.9433 67.532 73.7533 67.732 73.54V71.44ZM61.982 67.3C62.542 66.76 63.1454 66.3567 63.792 66.09C64.4387 65.8233 65.1554 65.69 65.942 65.69C66.5087 65.69 67.012 65.7833 67.452 65.97C67.892 66.1567 68.262 66.4167 68.562 66.75C68.862 67.0833 69.0887 67.4867 69.242 67.96C69.3954 68.4333 69.472 68.9533 69.472 69.52V76H68.682C68.5087 76 68.3754 75.9733 68.282 75.92C68.1887 75.86 68.1154 75.7467 68.062 75.58L67.862 74.62C67.5954 74.8667 67.3354 75.0867 67.082 75.28C66.8287 75.4667 66.562 75.6267 66.282 75.76C66.002 75.8867 65.702 75.9833 65.382 76.05C65.0687 76.1233 64.7187 76.16 64.332 76.16C63.9387 76.16 63.5687 76.1067 63.222 76C62.8754 75.8867 62.572 75.72 62.312 75.5C62.0587 75.28 61.8554 75.0033 61.702 74.67C61.5554 74.33 61.482 73.93 61.482 73.47C61.482 73.07 61.592 72.6867 61.812 72.32C62.032 71.9467 62.3887 71.6167 62.882 71.33C63.3754 71.0433 64.0187 70.81 64.812 70.63C65.6054 70.4433 66.5787 70.3367 67.732 70.31V69.52C67.732 68.7333 67.562 68.14 67.222 67.74C66.882 67.3333 66.3854 67.13 65.732 67.13C65.292 67.13 64.922 67.1867 64.622 67.3C64.3287 67.4067 64.072 67.53 63.852 67.67C63.6387 67.8033 63.452 67.9267 63.292 68.04C63.1387 68.1467 62.9854 68.2 62.832 68.2C62.712 68.2 62.6087 68.17 62.522 68.11C62.4354 68.0433 62.362 67.9633 62.302 67.87L61.982 67.3ZM74.0634 65.87V76H72.2834V65.87H74.0634ZM74.4434 62.69C74.4434 62.8633 74.4068 63.0267 74.3334 63.18C74.2668 63.3267 74.1734 63.46 74.0534 63.58C73.9401 63.6933 73.8034 63.7833 73.6434 63.85C73.4901 63.9167 73.3268 63.95 73.1534 63.95C72.9801 63.95 72.8168 63.9167 72.6634 63.85C72.5168 63.7833 72.3868 63.6933 72.2734 63.58C72.1601 63.46 72.0701 63.3267 72.0034 63.18C71.9368 63.0267 71.9034 62.8633 71.9034 62.69C71.9034 62.5167 71.9368 62.3533 72.0034 62.2C72.0701 62.04 72.1601 61.9033 72.2734 61.79C72.3868 61.67 72.5168 61.5767 72.6634 61.51C72.8168 61.4433 72.9801 61.41 73.1534 61.41C73.3268 61.41 73.4901 61.4433 73.6434 61.51C73.8034 61.5767 73.9401 61.67 74.0534 61.79C74.1734 61.9033 74.2668 62.04 74.3334 62.2C74.4068 62.3533 74.4434 62.5167 74.4434 62.69ZM78.8281 61.27V76H77.0481V61.27H78.8281ZM89.9419 76.16C89.1419 76.16 88.5252 75.9367 88.0919 75.49C87.6652 75.0433 87.4519 74.4 87.4519 73.56V67.36H86.2319C86.1252 67.36 86.0352 67.33 85.9619 67.27C85.8885 67.2033 85.8519 67.1033 85.8519 66.97V66.26L87.5119 66.05L87.9219 62.92C87.9419 62.82 87.9852 62.74 88.0519 62.68C88.1252 62.6133 88.2185 62.58 88.3319 62.58H89.2319V66.07H92.1619V67.36H89.2319V73.44C89.2319 73.8667 89.3352 74.1833 89.5419 74.39C89.7485 74.5967 90.0152 74.7 90.3419 74.7C90.5285 74.7 90.6885 74.6767 90.8219 74.63C90.9619 74.5767 91.0819 74.52 91.1819 74.46C91.2819 74.4 91.3652 74.3467 91.4319 74.3C91.5052 74.2467 91.5685 74.22 91.6219 74.22C91.7152 74.22 91.7985 74.2767 91.8719 74.39L92.3919 75.24C92.0852 75.5267 91.7152 75.7533 91.2819 75.92C90.8485 76.08 90.4019 76.16 89.9419 76.16ZM95.7898 67.22C96.2232 66.76 96.7032 66.3933 97.2298 66.12C97.7565 65.8467 98.3632 65.71 99.0498 65.71C99.6032 65.71 100.09 65.8033 100.51 65.99C100.937 66.17 101.29 66.43 101.57 66.77C101.857 67.1033 102.073 67.5067 102.22 67.98C102.367 68.4533 102.44 68.9767 102.44 69.55V76H100.65V69.55C100.65 68.7833 100.473 68.19 100.12 67.77C99.7732 67.3433 99.2432 67.13 98.5298 67.13C98.0032 67.13 97.5098 67.2567 97.0498 67.51C96.5965 67.7633 96.1765 68.1067 95.7898 68.54V76H93.9998V61.27H95.7898V67.22ZM111.932 69.83C111.932 69.4167 111.872 69.04 111.752 68.7C111.639 68.3533 111.469 68.0567 111.242 67.81C111.022 67.5567 110.752 67.3633 110.432 67.23C110.112 67.09 109.749 67.02 109.342 67.02C108.489 67.02 107.812 67.27 107.312 67.77C106.819 68.2633 106.512 68.95 106.392 69.83H111.932ZM113.372 74.58C113.152 74.8467 112.889 75.08 112.582 75.28C112.276 75.4733 111.946 75.6333 111.592 75.76C111.246 75.8867 110.886 75.98 110.512 76.04C110.139 76.1067 109.769 76.14 109.402 76.14C108.702 76.14 108.056 76.0233 107.462 75.79C106.876 75.55 106.366 75.2033 105.932 74.75C105.506 74.29 105.172 73.7233 104.932 73.05C104.692 72.3767 104.572 71.6033 104.572 70.73C104.572 70.0233 104.679 69.3633 104.892 68.75C105.112 68.1367 105.426 67.6067 105.832 67.16C106.239 66.7067 106.736 66.3533 107.322 66.1C107.909 65.84 108.569 65.71 109.302 65.71C109.909 65.71 110.469 65.8133 110.982 66.02C111.502 66.22 111.949 66.5133 112.322 66.9C112.702 67.28 112.999 67.7533 113.212 68.32C113.426 68.88 113.532 69.52 113.532 70.24C113.532 70.52 113.502 70.7067 113.442 70.8C113.382 70.8933 113.269 70.94 113.102 70.94H106.332C106.352 71.58 106.439 72.1367 106.592 72.61C106.752 73.0833 106.972 73.48 107.252 73.8C107.532 74.1133 107.866 74.35 108.252 74.51C108.639 74.6633 109.072 74.74 109.552 74.74C109.999 74.74 110.382 74.69 110.702 74.59C111.029 74.4833 111.309 74.37 111.542 74.25C111.776 74.13 111.969 74.02 112.122 73.92C112.282 73.8133 112.419 73.76 112.532 73.76C112.679 73.76 112.792 73.8167 112.872 73.93L113.372 74.58ZM125.106 65.71C125.846 65.71 126.512 65.8333 127.106 66.08C127.699 66.3267 128.206 66.6767 128.626 67.13C129.046 67.5833 129.366 68.1333 129.586 68.78C129.812 69.42 129.926 70.1367 129.926 70.93C129.926 71.73 129.812 72.45 129.586 73.09C129.366 73.73 129.046 74.2767 128.626 74.73C128.206 75.1833 127.699 75.5333 127.106 75.78C126.512 76.02 125.846 76.14 125.106 76.14C124.359 76.14 123.686 76.02 123.086 75.78C122.492 75.5333 121.986 75.1833 121.566 74.73C121.146 74.2767 120.822 73.73 120.596 73.09C120.376 72.45 120.266 71.73 120.266 70.93C120.266 70.1367 120.376 69.42 120.596 68.78C120.822 68.1333 121.146 67.5833 121.566 67.13C121.986 66.6767 122.492 66.3267 123.086 66.08C123.686 65.8333 124.359 65.71 125.106 65.71ZM125.106 74.75C126.106 74.75 126.852 74.4167 127.346 73.75C127.839 73.0767 128.086 72.14 128.086 70.94C128.086 69.7333 127.839 68.7933 127.346 68.12C126.852 67.4467 126.106 67.11 125.106 67.11C124.599 67.11 124.156 67.1967 123.776 67.37C123.402 67.5433 123.089 67.7933 122.836 68.12C122.589 68.4467 122.402 68.85 122.276 69.33C122.156 69.8033 122.096 70.34 122.096 70.94C122.096 72.14 122.342 73.0767 122.836 73.75C123.336 74.4167 124.092 74.75 125.106 74.75ZM132.629 76V67.39L131.509 67.26C131.369 67.2267 131.252 67.1767 131.159 67.11C131.072 67.0367 131.029 66.9333 131.029 66.8V66.07H132.629V65.24C132.629 64.66 132.709 64.1467 132.869 63.7C133.035 63.2467 133.269 62.8667 133.569 62.56C133.875 62.2467 134.242 62.01 134.669 61.85C135.095 61.69 135.575 61.61 136.109 61.61C136.562 61.61 136.979 61.6767 137.359 61.81L137.319 62.71C137.305 62.87 137.215 62.9567 137.049 62.97C136.889 62.9833 136.672 62.99 136.399 62.99C136.092 62.99 135.812 63.03 135.559 63.11C135.312 63.1833 135.099 63.31 134.919 63.49C134.739 63.67 134.599 63.91 134.499 64.21C134.405 64.5033 134.359 64.8667 134.359 65.3V66.07H138.929V64.98C138.929 64.4 139.009 63.8867 139.169 63.44C139.335 62.9867 139.569 62.6067 139.869 62.3C140.175 61.9867 140.542 61.75 140.969 61.59C141.395 61.43 141.875 61.35 142.409 61.35C142.855 61.35 143.272 61.4167 143.659 61.55L143.619 62.44C143.605 62.6 143.515 62.6867 143.349 62.7C143.189 62.7133 142.972 62.72 142.699 62.72C142.392 62.72 142.112 62.76 141.859 62.84C141.612 62.92 141.399 63.05 141.219 63.23C141.039 63.41 140.899 63.6467 140.799 63.94C140.705 64.2333 140.659 64.5967 140.659 65.03V66.07H143.579V67.36H140.719V76H138.929V67.36H134.419V76H132.629ZM151.717 69.83C151.717 69.4167 151.657 69.04 151.537 68.7C151.424 68.3533 151.254 68.0567 151.027 67.81C150.807 67.5567 150.537 67.3633 150.217 67.23C149.897 67.09 149.534 67.02 149.127 67.02C148.274 67.02 147.597 67.27 147.097 67.77C146.604 68.2633 146.297 68.95 146.177 69.83H151.717ZM153.157 74.58C152.937 74.8467 152.674 75.08 152.367 75.28C152.061 75.4733 151.731 75.6333 151.377 75.76C151.031 75.8867 150.671 75.98 150.297 76.04C149.924 76.1067 149.554 76.14 149.187 76.14C148.487 76.14 147.841 76.0233 147.247 75.79C146.661 75.55 146.151 75.2033 145.717 74.75C145.291 74.29 144.957 73.7233 144.717 73.05C144.477 72.3767 144.357 71.6033 144.357 70.73C144.357 70.0233 144.464 69.3633 144.677 68.75C144.897 68.1367 145.211 67.6067 145.617 67.16C146.024 66.7067 146.521 66.3533 147.107 66.1C147.694 65.84 148.354 65.71 149.087 65.71C149.694 65.71 150.254 65.8133 150.767 66.02C151.287 66.22 151.734 66.5133 152.107 66.9C152.487 67.28 152.784 67.7533 152.997 68.32C153.211 68.88 153.317 69.52 153.317 70.24C153.317 70.52 153.287 70.7067 153.227 70.8C153.167 70.8933 153.054 70.94 152.887 70.94H146.117C146.137 71.58 146.224 72.1367 146.377 72.61C146.537 73.0833 146.757 73.48 147.037 73.8C147.317 74.1133 147.651 74.35 148.037 74.51C148.424 74.6633 148.857 74.74 149.337 74.74C149.784 74.74 150.167 74.69 150.487 74.59C150.814 74.4833 151.094 74.37 151.327 74.25C151.561 74.13 151.754 74.02 151.907 73.92C152.067 73.8133 152.204 73.76 152.317 73.76C152.464 73.76 152.577 73.8167 152.657 73.93L153.157 74.58ZM157.194 67.9C157.514 67.2067 157.907 66.6667 158.374 66.28C158.84 65.8867 159.41 65.69 160.084 65.69C160.297 65.69 160.5 65.7133 160.694 65.76C160.894 65.8067 161.07 65.88 161.224 65.98L161.094 67.31C161.054 67.4767 160.954 67.56 160.794 67.56C160.7 67.56 160.564 67.54 160.384 67.5C160.204 67.46 160 67.44 159.774 67.44C159.454 67.44 159.167 67.4867 158.914 67.58C158.667 67.6733 158.444 67.8133 158.244 68C158.05 68.18 157.874 68.4067 157.714 68.68C157.56 68.9467 157.42 69.2533 157.294 69.6V76H155.504V65.87H156.524C156.717 65.87 156.85 65.9067 156.924 65.98C156.997 66.0533 157.047 66.18 157.074 66.36L157.194 67.9Z" fill="black"/>
</svg>
