<svg width="249" height="119" viewBox="0 0 249 119" fill="none" xmlns="http://www.w3.org/2000/svg">
<mask id="path-1-inside-1_766_3062" fill="white">
<path fill-rule="evenodd" clip-rule="evenodd" d="M50.5 0C22.6096 0 0 22.6096 0 50.5C0 78.3904 22.6096 101 50.5 101H198.5C199.111 101 199.72 100.989 200.325 100.968C221.969 105.195 240.045 113.34 248 119V60.5496C248.656 57.3018 249 53.9411 249 50.5C249 22.6096 226.39 0 198.5 0H50.5Z"/>
</mask>
<path fill-rule="evenodd" clip-rule="evenodd" d="M50.5 0C22.6096 0 0 22.6096 0 50.5C0 78.3904 22.6096 101 50.5 101H198.5C199.111 101 199.72 100.989 200.325 100.968C221.969 105.195 240.045 113.34 248 119V60.5496C248.656 57.3018 249 53.9411 249 50.5C249 22.6096 226.39 0 198.5 0H50.5Z" fill="white"/>
<path d="M200.325 100.968L200.9 98.0232L200.563 97.9573L200.219 97.9695L200.325 100.968ZM248 119L246.261 121.444L251 124.817V119H248ZM248 60.5496L245.059 59.9558L245 60.2497V60.5496H248ZM3 50.5C3 24.2665 24.2665 3 50.5 3V-3C20.9528 -3 -3 20.9528 -3 50.5H3ZM50.5 98C24.2665 98 3 76.7335 3 50.5H-3C-3 80.0472 20.9528 104 50.5 104V98ZM198.5 98H50.5V104H198.5V98ZM200.219 97.9695C199.649 97.9898 199.076 98 198.5 98V104C199.147 104 199.791 103.989 200.432 103.966L200.219 97.9695ZM199.75 103.912C221.089 108.079 238.738 116.092 246.261 121.444L249.739 116.556C241.353 110.588 222.85 102.31 200.9 98.0232L199.75 103.912ZM251 119V60.5496H245V119H251ZM246 50.5C246 53.7406 245.676 56.9024 245.059 59.9558L250.941 61.1433C251.636 57.7012 252 54.1416 252 50.5H246ZM198.5 3C224.734 3 246 24.2665 246 50.5H252C252 20.9528 228.047 -3 198.5 -3V3ZM50.5 3H198.5V-3H50.5V3Z" fill="black" mask="url(#path-1-inside-1_766_3062)"/>
<path d="M46.38 30.27C46.2867 30.4233 46.19 30.5367 46.09 30.61C45.9967 30.6767 45.8733 30.71 45.72 30.71C45.5733 30.71 45.4133 30.66 45.24 30.56C45.0733 30.4533 44.8767 30.34 44.65 30.22C44.4233 30.1 44.1633 29.99 43.87 29.89C43.5767 29.7833 43.2333 29.73 42.84 29.73C42.1467 29.73 41.6267 29.8867 41.28 30.2C40.9333 30.5067 40.76 30.91 40.76 31.41C40.76 31.73 40.8533 31.9967 41.04 32.21C41.2333 32.4167 41.4833 32.5967 41.79 32.75C42.1033 32.9033 42.4567 33.04 42.85 33.16C43.2433 33.28 43.6467 33.4133 44.06 33.56C44.4733 33.7 44.8767 33.8667 45.27 34.06C45.6633 34.2533 46.0133 34.4967 46.32 34.79C46.6333 35.0833 46.8833 35.4433 47.07 35.87C47.2633 36.29 47.36 36.8033 47.36 37.41C47.36 38.07 47.2433 38.69 47.01 39.27C46.7833 39.8433 46.4533 40.3467 46.02 40.78C45.5867 41.2067 45.05 41.5433 44.41 41.79C43.7767 42.0367 43.0567 42.16 42.25 42.16C41.79 42.16 41.33 42.1133 40.87 42.02C40.4167 41.9267 39.9767 41.7967 39.55 41.63C39.13 41.4633 38.7333 41.2633 38.36 41.03C37.9867 40.7967 37.66 40.5367 37.38 40.25L38.26 38.83C38.3333 38.7233 38.43 38.6367 38.55 38.57C38.67 38.4967 38.7967 38.46 38.93 38.46C39.11 38.46 39.3 38.5267 39.5 38.66C39.7 38.7933 39.93 38.94 40.19 39.1C40.45 39.26 40.75 39.4067 41.09 39.54C41.4367 39.6733 41.85 39.74 42.33 39.74C43.03 39.74 43.57 39.58 43.95 39.26C44.3367 38.94 44.53 38.4633 44.53 37.83C44.53 37.4633 44.4333 37.1667 44.24 36.94C44.0533 36.7133 43.8067 36.5233 43.5 36.37C43.1933 36.2167 42.8433 36.0867 42.45 35.98C42.0567 35.8667 41.6533 35.7433 41.24 35.61C40.8267 35.4767 40.4233 35.3167 40.03 35.13C39.6367 34.9433 39.2867 34.6967 38.98 34.39C38.6733 34.0833 38.4233 33.7033 38.23 33.25C38.0433 32.7967 37.95 32.2333 37.95 31.56C37.95 31.02 38.0567 30.4967 38.27 29.99C38.4833 29.4833 38.7967 29.0333 39.21 28.64C39.6233 28.2467 40.13 27.93 40.73 27.69C41.3367 27.45 42.03 27.33 42.81 27.33C43.6833 27.33 44.49 27.4667 45.23 27.74C45.9767 28.0067 46.6067 28.38 47.12 28.86L46.38 30.27ZM59.8056 29.91H55.5656V42H52.5556V29.91H48.3156V27.49H59.8056V29.91ZM64.6259 29.84V33.57H69.4659V35.84H64.6259V39.65H70.8459V42H61.6059V27.49H70.8459V29.84H64.6259ZM77.9903 34.71C78.9303 34.71 79.617 34.4833 80.0503 34.03C80.4903 33.5767 80.7103 32.9567 80.7103 32.17C80.7103 31.81 80.6536 31.4833 80.5403 31.19C80.4336 30.89 80.267 30.6367 80.0403 30.43C79.8203 30.2167 79.5403 30.0533 79.2003 29.94C78.8603 29.8267 78.457 29.77 77.9903 29.77H76.0903V34.71H77.9903ZM77.9903 27.49C78.9836 27.49 79.8403 27.6067 80.5603 27.84C81.287 28.0733 81.8836 28.4 82.3503 28.82C82.817 29.2333 83.1603 29.7267 83.3803 30.3C83.607 30.8733 83.7203 31.4967 83.7203 32.17C83.7203 32.8833 83.6036 33.5367 83.3703 34.13C83.137 34.7233 82.7836 35.2333 82.3103 35.66C81.837 36.0867 81.2403 36.42 80.5203 36.66C79.8003 36.8933 78.957 37.01 77.9903 37.01H76.0903V42H73.0903V27.49H77.9903ZM98.7091 39.97V42H90.5691V39.97H93.4491V32.03C93.4491 31.8567 93.4524 31.68 93.4591 31.5C93.4657 31.32 93.4757 31.1367 93.4891 30.95L91.5891 32.53C91.4557 32.63 91.3257 32.6933 91.1991 32.72C91.0724 32.7467 90.9524 32.75 90.8391 32.73C90.7257 32.7033 90.6257 32.6633 90.5391 32.61C90.4524 32.55 90.3857 32.49 90.3391 32.43L89.4691 31.26L93.9291 27.48H96.1991V39.97H98.7091Z" fill="black"/>
<path d="M43.22 67.349C43.724 67.349 44.168 67.289 44.552 67.169C44.942 67.043 45.266 66.869 45.524 66.647C45.788 66.419 45.986 66.149 46.118 65.837C46.25 65.525 46.316 65.18 46.316 64.802C46.316 64.034 46.064 63.455 45.56 63.065C45.056 62.675 44.3 62.48 43.292 62.48H41.384V67.349H43.22ZM49.178 74H47.63C47.312 74 47.078 73.877 46.928 73.631L43.58 69.023C43.478 68.879 43.367 68.777 43.247 68.717C43.133 68.651 42.953 68.618 42.707 68.618H41.384V74H39.647V61.103H43.292C44.108 61.103 44.813 61.187 45.407 61.355C46.001 61.517 46.49 61.754 46.874 62.066C47.264 62.378 47.552 62.756 47.738 63.2C47.924 63.638 48.017 64.13 48.017 64.676C48.017 65.132 47.945 65.558 47.801 65.954C47.657 66.35 47.447 66.707 47.171 67.025C46.901 67.337 46.568 67.604 46.172 67.826C45.782 68.048 45.338 68.216 44.84 68.33C45.062 68.456 45.254 68.639 45.416 68.879L49.178 74ZM56.0761 68.447C56.0761 68.075 56.0221 67.736 55.9141 67.43C55.8121 67.118 55.6591 66.851 55.4551 66.629C55.2571 66.401 55.0141 66.227 54.7261 66.107C54.4381 65.981 54.1111 65.918 53.7451 65.918C52.9771 65.918 52.3681 66.143 51.9181 66.593C51.4741 67.037 51.1981 67.655 51.0901 68.447H56.0761ZM57.3721 72.722C57.1741 72.962 56.9371 73.172 56.6611 73.352C56.3851 73.526 56.0881 73.67 55.7701 73.784C55.4581 73.898 55.1341 73.982 54.7981 74.036C54.4621 74.096 54.1291 74.126 53.7991 74.126C53.1691 74.126 52.5871 74.021 52.0531 73.811C51.5251 73.595 51.0661 73.283 50.6761 72.875C50.2921 72.461 49.9921 71.951 49.7761 71.345C49.5601 70.739 49.4521 70.043 49.4521 69.257C49.4521 68.621 49.5481 68.027 49.7401 67.475C49.9381 66.923 50.2201 66.446 50.5861 66.044C50.9521 65.636 51.3991 65.318 51.9271 65.09C52.4551 64.856 53.0491 64.739 53.7091 64.739C54.2551 64.739 54.7591 64.832 55.2211 65.018C55.6891 65.198 56.0911 65.462 56.4271 65.81C56.7691 66.152 57.0361 66.578 57.2281 67.088C57.4201 67.592 57.5161 68.168 57.5161 68.816C57.5161 69.068 57.4891 69.236 57.4351 69.32C57.3811 69.404 57.2791 69.446 57.1291 69.446H51.0361C51.0541 70.022 51.1321 70.523 51.2701 70.949C51.4141 71.375 51.6121 71.732 51.8641 72.02C52.1161 72.302 52.4161 72.515 52.7641 72.659C53.1121 72.797 53.5021 72.866 53.9341 72.866C54.3361 72.866 54.6811 72.821 54.9691 72.731C55.2631 72.635 55.5151 72.533 55.7251 72.425C55.9351 72.317 56.1091 72.218 56.2471 72.128C56.3911 72.032 56.5141 71.984 56.6161 71.984C56.7481 71.984 56.8501 72.035 56.9221 72.137L57.3721 72.722ZM62.6608 69.545C62.9848 69.545 63.2698 69.5 63.5158 69.41C63.7618 69.32 63.9688 69.194 64.1368 69.032C64.3048 68.87 64.4308 68.678 64.5148 68.456C64.5988 68.228 64.6408 67.979 64.6408 67.709C64.6408 67.151 64.4698 66.707 64.1278 66.377C63.7918 66.047 63.3028 65.882 62.6608 65.882C62.0128 65.882 61.5178 66.047 61.1758 66.377C60.8398 66.707 60.6718 67.151 60.6718 67.709C60.6718 67.979 60.7138 68.228 60.7978 68.456C60.8878 68.678 61.0168 68.87 61.1848 69.032C61.3528 69.194 61.5598 69.32 61.8058 69.41C62.0518 69.5 62.3368 69.545 62.6608 69.545ZM65.5498 74.495C65.5498 74.273 65.4868 74.093 65.3608 73.955C65.2348 73.817 65.0638 73.709 64.8478 73.631C64.6378 73.553 64.3918 73.499 64.1098 73.469C63.8278 73.433 63.5278 73.406 63.2098 73.388C62.8978 73.37 62.5798 73.352 62.2558 73.334C61.9318 73.316 61.6198 73.286 61.3198 73.244C60.9838 73.4 60.7078 73.598 60.4918 73.838C60.2818 74.072 60.1768 74.348 60.1768 74.666C60.1768 74.87 60.2278 75.059 60.3298 75.233C60.4378 75.413 60.5998 75.566 60.8158 75.692C61.0318 75.824 61.3018 75.926 61.6258 75.998C61.9558 76.076 62.3428 76.115 62.7868 76.115C63.2188 76.115 63.6058 76.076 63.9478 75.998C64.2898 75.92 64.5778 75.809 64.8118 75.665C65.0518 75.521 65.2348 75.35 65.3608 75.152C65.4868 74.954 65.5498 74.735 65.5498 74.495ZM67.1788 65.243V65.837C67.1788 66.035 67.0528 66.161 66.8008 66.215L65.7658 66.35C65.9698 66.746 66.0718 67.184 66.0718 67.664C66.0718 68.108 65.9848 68.513 65.8108 68.879C65.6428 69.239 65.4088 69.548 65.1088 69.806C64.8088 70.064 64.4488 70.262 64.0288 70.4C63.6088 70.538 63.1528 70.607 62.6608 70.607C62.2348 70.607 61.8328 70.556 61.4548 70.454C61.2628 70.574 61.1158 70.703 61.0138 70.841C60.9118 70.973 60.8608 71.108 60.8608 71.246C60.8608 71.462 60.9478 71.627 61.1218 71.741C61.3018 71.849 61.5358 71.927 61.8238 71.975C62.1118 72.023 62.4388 72.053 62.8048 72.065C63.1768 72.077 63.5548 72.098 63.9388 72.128C64.3288 72.152 64.7068 72.197 65.0728 72.263C65.4448 72.329 65.7748 72.437 66.0628 72.587C66.3508 72.737 66.5818 72.944 66.7558 73.208C66.9358 73.472 67.0258 73.814 67.0258 74.234C67.0258 74.624 66.9268 75.002 66.7288 75.368C66.5368 75.734 66.2578 76.058 65.8918 76.34C65.5258 76.628 65.0758 76.856 64.5418 77.024C64.0138 77.198 63.4168 77.285 62.7508 77.285C62.0848 77.285 61.5028 77.219 61.0048 77.087C60.5068 76.955 60.0928 76.778 59.7628 76.556C59.4328 76.334 59.1838 76.076 59.0158 75.782C58.8538 75.494 58.7728 75.191 58.7728 74.873C58.7728 74.423 58.9138 74.042 59.1958 73.73C59.4778 73.418 59.8648 73.169 60.3568 72.983C60.0868 72.863 59.8708 72.704 59.7088 72.506C59.5528 72.302 59.4748 72.029 59.4748 71.687C59.4748 71.555 59.4988 71.42 59.5468 71.282C59.5948 71.138 59.6668 70.997 59.7628 70.859C59.8648 70.715 59.9878 70.58 60.1318 70.454C60.2758 70.328 60.4438 70.217 60.6358 70.121C60.1858 69.869 59.8348 69.536 59.5828 69.122C59.3308 68.702 59.2048 68.216 59.2048 67.664C59.2048 67.22 59.2888 66.818 59.4568 66.458C59.6308 66.092 59.8708 65.783 60.1768 65.531C60.4828 65.273 60.8458 65.075 61.2658 64.937C61.6918 64.799 62.1568 64.73 62.6608 64.73C63.0568 64.73 63.4258 64.775 63.7678 64.865C64.1098 64.949 64.4218 65.075 64.7038 65.243H67.1788ZM70.5274 64.883V74H68.9254V64.883H70.5274ZM70.8694 62.021C70.8694 62.177 70.8364 62.324 70.7704 62.462C70.7104 62.594 70.6264 62.714 70.5184 62.822C70.4164 62.924 70.2934 63.005 70.1494 63.065C70.0114 63.125 69.8644 63.155 69.7084 63.155C69.5524 63.155 69.4054 63.125 69.2674 63.065C69.1354 63.005 69.0184 62.924 68.9164 62.822C68.8144 62.714 68.7334 62.594 68.6734 62.462C68.6134 62.324 68.5834 62.177 68.5834 62.021C68.5834 61.865 68.6134 61.718 68.6734 61.58C68.7334 61.436 68.8144 61.313 68.9164 61.211C69.0184 61.103 69.1354 61.019 69.2674 60.959C69.4054 60.899 69.5524 60.869 69.7084 60.869C69.8644 60.869 70.0114 60.899 70.1494 60.959C70.2934 61.019 70.4164 61.103 70.5184 61.211C70.6264 61.313 70.7104 61.436 70.7704 61.58C70.8364 61.718 70.8694 61.865 70.8694 62.021ZM78.4696 66.386C78.3976 66.518 78.2866 66.584 78.1366 66.584C78.0466 66.584 77.9446 66.551 77.8306 66.485C77.7166 66.419 77.5756 66.347 77.4076 66.269C77.2456 66.185 77.0506 66.11 76.8226 66.044C76.5946 65.972 76.3246 65.936 76.0126 65.936C75.7426 65.936 75.4996 65.972 75.2836 66.044C75.0676 66.11 74.8816 66.203 74.7256 66.323C74.5756 66.443 74.4586 66.584 74.3746 66.746C74.2966 66.902 74.2576 67.073 74.2576 67.259C74.2576 67.493 74.3236 67.688 74.4556 67.844C74.5936 68 74.7736 68.135 74.9956 68.249C75.2176 68.363 75.4696 68.465 75.7516 68.555C76.0336 68.639 76.3216 68.732 76.6156 68.834C76.9156 68.93 77.2066 69.038 77.4886 69.158C77.7706 69.278 78.0226 69.428 78.2446 69.608C78.4666 69.788 78.6436 70.01 78.7756 70.274C78.9136 70.532 78.9826 70.844 78.9826 71.21C78.9826 71.63 78.9076 72.02 78.7576 72.38C78.6076 72.734 78.3856 73.043 78.0916 73.307C77.7976 73.565 77.4376 73.769 77.0116 73.919C76.5856 74.069 76.0936 74.144 75.5356 74.144C74.8996 74.144 74.3236 74.042 73.8076 73.838C73.2916 73.628 72.8536 73.361 72.4936 73.037L72.8716 72.425C72.9196 72.347 72.9766 72.287 73.0426 72.245C73.1086 72.203 73.1926 72.182 73.2946 72.182C73.4026 72.182 73.5166 72.224 73.6366 72.308C73.7566 72.392 73.9006 72.485 74.0686 72.587C74.2426 72.689 74.4526 72.782 74.6986 72.866C74.9446 72.95 75.2506 72.992 75.6166 72.992C75.9286 72.992 76.2016 72.953 76.4356 72.875C76.6696 72.791 76.8646 72.68 77.0206 72.542C77.1766 72.404 77.2906 72.245 77.3626 72.065C77.4406 71.885 77.4796 71.693 77.4796 71.489C77.4796 71.237 77.4106 71.03 77.2726 70.868C77.1406 70.7 76.9636 70.559 76.7416 70.445C76.5196 70.325 76.2646 70.223 75.9766 70.139C75.6946 70.049 75.4036 69.956 75.1036 69.86C74.8096 69.764 74.5186 69.656 74.2306 69.536C73.9486 69.41 73.6966 69.254 73.4746 69.068C73.2526 68.882 73.0726 68.654 72.9346 68.384C72.8026 68.108 72.7366 67.775 72.7366 67.385C72.7366 67.037 72.8086 66.704 72.9526 66.386C73.0966 66.062 73.3066 65.78 73.5826 65.54C73.8586 65.294 74.1976 65.099 74.5996 64.955C75.0016 64.811 75.4606 64.739 75.9766 64.739C76.5766 64.739 77.1136 64.835 77.5876 65.027C78.0676 65.213 78.4816 65.471 78.8296 65.801L78.4696 66.386ZM83.7457 74.144C83.0257 74.144 82.4707 73.943 82.0807 73.541C81.6967 73.139 81.5047 72.56 81.5047 71.804V66.224H80.4067C80.3107 66.224 80.2297 66.197 80.1637 66.143C80.0977 66.083 80.0647 65.993 80.0647 65.873V65.234L81.5587 65.045L81.9277 62.228C81.9457 62.138 81.9847 62.066 82.0447 62.012C82.1107 61.952 82.1947 61.922 82.2967 61.922H83.1067V65.063H85.7437V66.224H83.1067V71.696C83.1067 72.08 83.1997 72.365 83.3857 72.551C83.5717 72.737 83.8117 72.83 84.1057 72.83C84.2737 72.83 84.4177 72.809 84.5377 72.767C84.6637 72.719 84.7717 72.668 84.8617 72.614C84.9517 72.56 85.0267 72.512 85.0867 72.47C85.1527 72.422 85.2097 72.398 85.2577 72.398C85.3417 72.398 85.4167 72.449 85.4827 72.551L85.9507 73.316C85.6747 73.574 85.3417 73.778 84.9517 73.928C84.5617 74.072 84.1597 74.144 83.7457 74.144ZM93.4472 68.447C93.4472 68.075 93.3932 67.736 93.2852 67.43C93.1832 67.118 93.0302 66.851 92.8262 66.629C92.6282 66.401 92.3852 66.227 92.0972 66.107C91.8092 65.981 91.4822 65.918 91.1162 65.918C90.3482 65.918 89.7392 66.143 89.2892 66.593C88.8452 67.037 88.5692 67.655 88.4612 68.447H93.4472ZM94.7432 72.722C94.5452 72.962 94.3082 73.172 94.0322 73.352C93.7562 73.526 93.4592 73.67 93.1412 73.784C92.8292 73.898 92.5052 73.982 92.1692 74.036C91.8332 74.096 91.5002 74.126 91.1702 74.126C90.5402 74.126 89.9582 74.021 89.4242 73.811C88.8962 73.595 88.4372 73.283 88.0472 72.875C87.6632 72.461 87.3632 71.951 87.1472 71.345C86.9312 70.739 86.8232 70.043 86.8232 69.257C86.8232 68.621 86.9192 68.027 87.1112 67.475C87.3092 66.923 87.5912 66.446 87.9572 66.044C88.3232 65.636 88.7702 65.318 89.2982 65.09C89.8262 64.856 90.4202 64.739 91.0802 64.739C91.6262 64.739 92.1302 64.832 92.5922 65.018C93.0602 65.198 93.4622 65.462 93.7982 65.81C94.1402 66.152 94.4072 66.578 94.5992 67.088C94.7912 67.592 94.8872 68.168 94.8872 68.816C94.8872 69.068 94.8602 69.236 94.8062 69.32C94.7522 69.404 94.6502 69.446 94.5002 69.446H88.4072C88.4252 70.022 88.5032 70.523 88.6412 70.949C88.7852 71.375 88.9832 71.732 89.2352 72.02C89.4872 72.302 89.7872 72.515 90.1352 72.659C90.4832 72.797 90.8732 72.866 91.3052 72.866C91.7072 72.866 92.0522 72.821 92.3402 72.731C92.6342 72.635 92.8862 72.533 93.0962 72.425C93.3062 72.317 93.4802 72.218 93.6182 72.128C93.7622 72.032 93.8852 71.984 93.9872 71.984C94.1192 71.984 94.2212 72.035 94.2932 72.137L94.7432 72.722ZM98.3759 66.71C98.6639 66.086 99.0179 65.6 99.4379 65.252C99.8579 64.898 100.371 64.721 100.977 64.721C101.169 64.721 101.352 64.742 101.526 64.784C101.706 64.826 101.865 64.892 102.003 64.982L101.886 66.179C101.85 66.329 101.76 66.404 101.616 66.404C101.532 66.404 101.409 66.386 101.247 66.35C101.085 66.314 100.902 66.296 100.698 66.296C100.41 66.296 100.152 66.338 99.9239 66.422C99.7019 66.506 99.5009 66.632 99.3209 66.8C99.1469 66.962 98.9879 67.166 98.8439 67.412C98.7059 67.652 98.5799 67.928 98.4659 68.24V74H96.8549V64.883H97.7729C97.9469 64.883 98.0669 64.916 98.1329 64.982C98.1989 65.048 98.2439 65.162 98.2679 65.324L98.3759 66.71ZM115.039 64.883L109.954 76.691C109.9 76.811 109.831 76.907 109.747 76.979C109.669 77.051 109.546 77.087 109.378 77.087H108.19L109.855 73.469L106.093 64.883H107.479C107.617 64.883 107.725 64.919 107.803 64.991C107.887 65.057 107.944 65.132 107.974 65.216L110.413 70.958C110.509 71.21 110.59 71.474 110.656 71.75C110.74 71.468 110.83 71.201 110.926 70.949L113.293 65.216C113.329 65.12 113.389 65.042 113.473 64.982C113.563 64.916 113.662 64.883 113.77 64.883H115.039ZM120.051 64.739C120.717 64.739 121.317 64.85 121.851 65.072C122.385 65.294 122.841 65.609 123.219 66.017C123.597 66.425 123.885 66.92 124.083 67.502C124.287 68.078 124.389 68.723 124.389 69.437C124.389 70.157 124.287 70.805 124.083 71.381C123.885 71.957 123.597 72.449 123.219 72.857C122.841 73.265 122.385 73.58 121.851 73.802C121.317 74.018 120.717 74.126 120.051 74.126C119.379 74.126 118.773 74.018 118.233 73.802C117.699 73.58 117.243 73.265 116.865 72.857C116.487 72.449 116.196 71.957 115.992 71.381C115.794 70.805 115.695 70.157 115.695 69.437C115.695 68.723 115.794 68.078 115.992 67.502C116.196 66.92 116.487 66.425 116.865 66.017C117.243 65.609 117.699 65.294 118.233 65.072C118.773 64.85 119.379 64.739 120.051 64.739ZM120.051 72.875C120.951 72.875 121.623 72.575 122.067 71.975C122.511 71.369 122.733 70.526 122.733 69.446C122.733 68.36 122.511 67.514 122.067 66.908C121.623 66.302 120.951 65.999 120.051 65.999C119.595 65.999 119.196 66.077 118.854 66.233C118.518 66.389 118.236 66.614 118.008 66.908C117.786 67.202 117.618 67.565 117.504 67.997C117.396 68.423 117.342 68.906 117.342 69.446C117.342 70.526 117.564 71.369 118.008 71.975C118.458 72.575 119.139 72.875 120.051 72.875ZM133.918 64.883V74H132.964C132.736 74 132.592 73.889 132.532 73.667L132.406 72.686C132.01 73.124 131.566 73.478 131.074 73.748C130.582 74.012 130.018 74.144 129.382 74.144C128.884 74.144 128.443 74.063 128.059 73.901C127.681 73.733 127.363 73.499 127.105 73.199C126.847 72.899 126.652 72.536 126.52 72.11C126.394 71.684 126.331 71.213 126.331 70.697V64.883H127.933V70.697C127.933 71.387 128.089 71.921 128.401 72.299C128.719 72.677 129.202 72.866 129.85 72.866C130.324 72.866 130.765 72.755 131.173 72.533C131.587 72.305 131.968 71.993 132.316 71.597V64.883H133.918ZM137.979 66.71C138.267 66.086 138.621 65.6 139.041 65.252C139.461 64.898 139.974 64.721 140.58 64.721C140.772 64.721 140.955 64.742 141.129 64.784C141.309 64.826 141.468 64.892 141.606 64.982L141.489 66.179C141.453 66.329 141.363 66.404 141.219 66.404C141.135 66.404 141.012 66.386 140.85 66.35C140.688 66.314 140.505 66.296 140.301 66.296C140.013 66.296 139.755 66.338 139.527 66.422C139.305 66.506 139.104 66.632 138.924 66.8C138.75 66.962 138.591 67.166 138.447 67.412C138.309 67.652 138.183 67.928 138.069 68.24V74H136.458V64.883H137.376C137.55 64.883 137.67 64.916 137.736 64.982C137.802 65.048 137.847 65.162 137.871 65.324L137.979 66.71ZM159.438 64.883L156.486 74H155.217C155.061 74 154.953 73.898 154.893 73.694L152.877 67.511C152.829 67.373 152.79 67.235 152.76 67.097C152.73 66.953 152.7 66.812 152.67 66.674C152.64 66.812 152.61 66.953 152.58 67.097C152.55 67.235 152.511 67.376 152.463 67.52L150.411 73.694C150.357 73.898 150.237 74 150.051 74H148.845L145.893 64.883H147.153C147.279 64.883 147.384 64.916 147.468 64.982C147.558 65.048 147.618 65.126 147.648 65.216L149.394 71.084C149.496 71.516 149.577 71.924 149.637 72.308C149.691 72.11 149.745 71.909 149.799 71.705C149.859 71.501 149.922 71.294 149.988 71.084L151.914 65.18C151.944 65.09 151.995 65.015 152.067 64.955C152.145 64.895 152.238 64.865 152.346 64.865H153.048C153.168 64.865 153.267 64.895 153.345 64.955C153.423 65.015 153.477 65.09 153.507 65.18L155.388 71.084C155.454 71.294 155.514 71.501 155.568 71.705C155.622 71.909 155.673 72.11 155.721 72.308C155.751 72.11 155.787 71.912 155.829 71.714C155.877 71.51 155.928 71.3 155.982 71.084L157.764 65.216C157.794 65.12 157.851 65.042 157.935 64.982C158.019 64.916 158.118 64.883 158.232 64.883H159.438ZM165.833 69.896C165.095 69.92 164.465 69.98 163.943 70.076C163.427 70.166 163.004 70.286 162.674 70.436C162.35 70.586 162.113 70.763 161.963 70.967C161.819 71.171 161.747 71.399 161.747 71.651C161.747 71.891 161.786 72.098 161.864 72.272C161.942 72.446 162.047 72.59 162.179 72.704C162.317 72.812 162.476 72.893 162.656 72.947C162.842 72.995 163.04 73.019 163.25 73.019C163.532 73.019 163.79 72.992 164.024 72.938C164.258 72.878 164.477 72.794 164.681 72.686C164.891 72.578 165.089 72.449 165.275 72.299C165.467 72.149 165.653 71.978 165.833 71.786V69.896ZM160.658 66.17C161.162 65.684 161.705 65.321 162.287 65.081C162.869 64.841 163.514 64.721 164.222 64.721C164.732 64.721 165.185 64.805 165.581 64.973C165.977 65.141 166.31 65.375 166.58 65.675C166.85 65.975 167.054 66.338 167.192 66.764C167.33 67.19 167.399 67.658 167.399 68.168V74H166.688C166.532 74 166.412 73.976 166.328 73.928C166.244 73.874 166.178 73.772 166.13 73.622L165.95 72.758C165.71 72.98 165.476 73.178 165.248 73.352C165.02 73.52 164.78 73.664 164.528 73.784C164.276 73.898 164.006 73.985 163.718 74.045C163.436 74.111 163.121 74.144 162.773 74.144C162.419 74.144 162.086 74.096 161.774 74C161.462 73.898 161.189 73.748 160.955 73.55C160.727 73.352 160.544 73.103 160.406 72.803C160.274 72.497 160.208 72.137 160.208 71.723C160.208 71.363 160.307 71.018 160.505 70.688C160.703 70.352 161.024 70.055 161.468 69.797C161.912 69.539 162.491 69.329 163.205 69.167C163.919 68.999 164.795 68.903 165.833 68.879V68.168C165.833 67.46 165.68 66.926 165.374 66.566C165.068 66.2 164.621 66.017 164.033 66.017C163.637 66.017 163.304 66.068 163.034 66.17C162.77 66.266 162.539 66.377 162.341 66.503C162.149 66.623 161.981 66.734 161.837 66.836C161.699 66.932 161.561 66.98 161.423 66.98C161.315 66.98 161.222 66.953 161.144 66.899C161.066 66.839 161 66.767 160.946 66.683L160.658 66.17ZM171.495 60.743V74H169.893V60.743H171.495ZM175.749 60.743V74H174.147V60.743H175.749ZM184.449 68.447C184.449 68.075 184.395 67.736 184.287 67.43C184.185 67.118 184.032 66.851 183.828 66.629C183.63 66.401 183.387 66.227 183.099 66.107C182.811 65.981 182.484 65.918 182.118 65.918C181.35 65.918 180.741 66.143 180.291 66.593C179.847 67.037 179.571 67.655 179.463 68.447H184.449ZM185.745 72.722C185.547 72.962 185.31 73.172 185.034 73.352C184.758 73.526 184.461 73.67 184.143 73.784C183.831 73.898 183.507 73.982 183.171 74.036C182.835 74.096 182.502 74.126 182.172 74.126C181.542 74.126 180.96 74.021 180.426 73.811C179.898 73.595 179.439 73.283 179.049 72.875C178.665 72.461 178.365 71.951 178.149 71.345C177.933 70.739 177.825 70.043 177.825 69.257C177.825 68.621 177.921 68.027 178.113 67.475C178.311 66.923 178.593 66.446 178.959 66.044C179.325 65.636 179.772 65.318 180.3 65.09C180.828 64.856 181.422 64.739 182.082 64.739C182.628 64.739 183.132 64.832 183.594 65.018C184.062 65.198 184.464 65.462 184.8 65.81C185.142 66.152 185.409 66.578 185.601 67.088C185.793 67.592 185.889 68.168 185.889 68.816C185.889 69.068 185.862 69.236 185.808 69.32C185.754 69.404 185.652 69.446 185.502 69.446H179.409C179.427 70.022 179.505 70.523 179.643 70.949C179.787 71.375 179.985 71.732 180.237 72.02C180.489 72.302 180.789 72.515 181.137 72.659C181.485 72.797 181.875 72.866 182.307 72.866C182.709 72.866 183.054 72.821 183.342 72.731C183.636 72.635 183.888 72.533 184.098 72.425C184.308 72.317 184.482 72.218 184.62 72.128C184.764 72.032 184.887 71.984 184.989 71.984C185.121 71.984 185.223 72.035 185.295 72.137L185.745 72.722ZM190.586 74.144C189.866 74.144 189.311 73.943 188.921 73.541C188.537 73.139 188.345 72.56 188.345 71.804V66.224H187.247C187.151 66.224 187.07 66.197 187.004 66.143C186.938 66.083 186.905 65.993 186.905 65.873V65.234L188.399 65.045L188.768 62.228C188.786 62.138 188.825 62.066 188.885 62.012C188.951 61.952 189.035 61.922 189.137 61.922H189.947V65.063H192.584V66.224H189.947V71.696C189.947 72.08 190.04 72.365 190.226 72.551C190.412 72.737 190.652 72.83 190.946 72.83C191.114 72.83 191.258 72.809 191.378 72.767C191.504 72.719 191.612 72.668 191.702 72.614C191.792 72.56 191.867 72.512 191.927 72.47C191.993 72.422 192.05 72.398 192.098 72.398C192.182 72.398 192.257 72.449 192.323 72.551L192.791 73.316C192.515 73.574 192.182 73.778 191.792 73.928C191.402 74.072 191 74.144 190.586 74.144Z" fill="black"/>
</svg>
