<svg width="622" height="231" viewBox="0 0 622 231" fill="none" xmlns="http://www.w3.org/2000/svg">
<mask id="path-1-inside-1_193_2933" fill="white">
<path fill-rule="evenodd" clip-rule="evenodd" d="M11 0H412.195C415.078 8.15635 422.856 14 432 14C441.144 14 448.922 8.15635 451.805 0H611C617.075 0 622 4.92487 622 11V77C600.461 77 583 94.4609 583 116C583 137.539 600.461 155 622 155V220C622 226.075 617.075 231 611 231H452.272C449.855 222.07 441.695 215.5 432 215.5C422.305 215.5 414.145 222.07 411.727 231H11C4.92486 231 0 226.075 0 220V155C21.5391 155 39 137.539 39 116C39 94.4609 21.5391 77 0 77V11C0 4.92487 4.92487 0 11 0Z"/>
</mask>
<path fill-rule="evenodd" clip-rule="evenodd" d="M11 0H412.195C415.078 8.15635 422.856 14 432 14C441.144 14 448.922 8.15635 451.805 0H611C617.075 0 622 4.92487 622 11V77C600.461 77 583 94.4609 583 116C583 137.539 600.461 155 622 155V220C622 226.075 617.075 231 611 231H452.272C449.855 222.07 441.695 215.5 432 215.5C422.305 215.5 414.145 222.07 411.727 231H11C4.92486 231 0 226.075 0 220V155C21.5391 155 39 137.539 39 116C39 94.4609 21.5391 77 0 77V11C0 4.92487 4.92487 0 11 0Z" fill="white"/>
<path d="M412.195 0L415.023 -0.999734L414.316 -3H412.195V0ZM451.805 0V-3H449.684L448.977 -0.999734L451.805 0ZM622 77V80H625V77H622ZM622 155H625V152H622V155ZM452.272 231L449.376 231.784L449.976 234H452.272V231ZM411.727 231V234H414.023L414.623 231.784L411.727 231ZM0 155V152H-3V155H0ZM0 77H-3V80H0V77ZM412.195 -3H11V3H412.195V-3ZM432 11C424.167 11 417.496 5.99547 415.023 -0.999734L409.366 0.999734C412.66 10.3172 421.546 17 432 17V11ZM448.977 -0.999734C446.504 5.99547 439.833 11 432 11V17C442.454 17 451.34 10.3172 454.634 0.999734L448.977 -0.999734ZM611 -3H451.805V3H611V-3ZM625 11C625 3.26801 618.732 -3 611 -3V3C615.418 3 619 6.58172 619 11H625ZM625 77V11H619V77H625ZM586 116C586 96.1177 602.118 80 622 80V74C598.804 74 580 92.804 580 116H586ZM622 152C602.118 152 586 135.882 586 116H580C580 139.196 598.804 158 622 158V152ZM625 220V155H619V220H625ZM611 234C618.732 234 625 227.732 625 220H619C619 224.418 615.418 228 611 228V234ZM452.272 234H611V228H452.272V234ZM432 218.5C440.306 218.5 447.304 224.128 449.376 231.784L455.168 230.216C452.406 220.011 443.084 212.5 432 212.5V218.5ZM414.623 231.784C416.695 224.128 423.694 218.5 432 218.5V212.5C420.916 212.5 411.594 220.011 408.832 230.216L414.623 231.784ZM11 234H411.727V228H11V234ZM-3 220C-3 227.732 3.26801 234 11 234V228C6.58172 228 3 224.418 3 220H-3ZM-3 155V220H3V155H-3ZM36 116C36 135.882 19.8823 152 0 152V158C23.196 158 42 139.196 42 116H36ZM0 80C19.8823 80 36 96.1177 36 116H42C42 92.804 23.196 74 0 74V80ZM-3 11V77H3V11H-3ZM11 -3C3.26801 -3 -3 3.26801 -3 11H3C3 6.58172 6.58172 3 11 3V-3Z" fill="black" mask="url(#path-1-inside-1_193_2933)"/>
<path d="M432 22V210.5" stroke="black" stroke-width="3" stroke-dasharray="12 12"/>
</svg>
